<svg id="success" xmlns="http://www.w3.org/2000/svg" width="23.04" height="22" viewBox="0 0 23.04 22">
  <g id="Group_1511" data-name="Group 1511">
    <path id="Path_8240" data-name="Path 8240" d="M23.04,18.822c0,1.14-2.042,1.943-2.376,2.971-.346,1.066.822,2.913.176,3.8s-2.774.353-3.67,1.005-1.023,2.835-2.088,3.18c-1.028.334-2.421-1.347-3.562-1.347s-2.532,1.681-3.562,1.347c-1.066-.346-1.2-2.536-2.089-3.18s-3.018-.109-3.67-1,.522-2.735.176-3.8C2.042,20.765,0,19.962,0,18.823s2.042-1.943,2.376-2.971c.346-1.066-.822-2.913-.176-3.8s2.775-.353,3.671-1,1.022-2.835,2.088-3.18c1.028-.334,2.421,1.347,3.562,1.347s2.532-1.681,3.562-1.347c1.066.346,1.2,2.536,2.088,3.18s3.018.109,3.671,1-.522,2.735-.176,3.8C21,16.88,23.04,17.683,23.04,18.822Z" transform="translate(0 -7.823)" fill="#10298a"/>
    <path id="Path_8241" data-name="Path 8241" d="M100.478,128.373a1.268,1.268,0,0,1-.9-.372l-2.836-2.836a1.272,1.272,0,1,1,1.8-1.8l1.937,1.936,3.951-3.951a1.272,1.272,0,0,1,1.8,1.8L101.378,128A1.268,1.268,0,0,1,100.478,128.373Z" transform="translate(-89.964 -113.457)" fill="#f7d6bf"/>
  </g>
</svg>
