<svg xmlns="http://www.w3.org/2000/svg" width="404.064" height="409.537" viewBox="0 0 404.064 409.537">
  <g id="askadoubt" transform="translate(-42.894 -47.823)">
    <circle id="Ellipse_1384" data-name="Ellipse 1384" cx="142.182" cy="142.182" r="142.182" transform="translate(68.222 47.823)" fill="#dadeea" opacity="0.36" style="mix-blend-mode: multiply;isolation: isolate"/>
    <ellipse id="Ellipse_1385" data-name="Ellipse 1385" cx="195.743" cy="13.044" rx="195.743" ry="13.044" transform="translate(54.257 431.273)" fill="#7dbbf1" opacity="0.36" style="mix-blend-mode: multiply;isolation: isolate"/>
    <g id="Group_4266" data-name="Group 4266">
      <path id="Path_26260" data-name="Path 26260" d="M190.047,318.412s-.549-11.284-16.514-17.293C173.533,301.119,176,316.356,190.047,318.412Z" fill="#48be97"/>
      <path id="Path_26261" data-name="Path 26261" d="M188.779,338.365s-1.659-14.561-22.831-21C165.948,317.366,170.427,336.884,188.779,338.365Z" fill="#48be97"/>
      <path id="Path_26262" data-name="Path 26262" d="M194.071,367.225s-2.406-16.884-27.245-23.681C166.826,343.544,172.674,366.1,194.071,367.225Z" fill="#48be97"/>
      <path id="Path_26263" data-name="Path 26263" d="M211.415,397.486S202,379.244,171.078,381.343C171.078,381.343,186.648,404.672,211.415,397.486Z" fill="#48be97"/>
      <path id="Path_26264" data-name="Path 26264" d="M190.024,318.627s2.185-11.085,18.855-14.707C208.879,303.92,204.217,318.636,190.024,318.627Z" fill="#48be97"/>
      <path id="Path_26265" data-name="Path 26265" d="M188.375,338.551s3.76-14.165,25.644-17.453C214.019,321.1,206.747,339.756,188.375,338.551Z" fill="#48be97"/>
      <path id="Path_26266" data-name="Path 26266" d="M193.671,367.1s-2.121-16.922,20.055-30.014C213.726,337.081,214.019,360.382,193.671,367.1Z" fill="#48be97"/>
      <path id="Path_26267" data-name="Path 26267" d="M210.052,397.673s-8.279-18.784,12.781-41.525C222.833,356.148,231.2,382.918,210.052,397.673Z" fill="#48be97"/>
      <path id="Path_26268" data-name="Path 26268" d="M190.28,318.066s-15.622,65.058,55.883,111.54" fill="none" stroke="#48be97" stroke-linecap="round" stroke-miterlimit="10" stroke-width="2.011"/>
    </g>
    <g id="Group_4267" data-name="Group 4267">
      <path id="Path_26269" data-name="Path 26269" d="M308.086,339.287s2.105-11.1,18.748-14.842C326.834,324.445,322.279,339.194,308.086,339.287Z" fill="#48be97"/>
      <path id="Path_26270" data-name="Path 26270" d="M306.177,359.411s3.658-14.192,25.518-17.637C331.7,341.774,324.558,360.484,306.177,359.411Z" fill="#48be97"/>
      <path id="Path_26271" data-name="Path 26271" d="M297.53,386.6s8.789-14.616,34.315-11.207C331.845,375.39,317.677,393.892,297.53,386.6Z" fill="#48be97"/>
      <path id="Path_26272" data-name="Path 26272" d="M276.89,414.645s14.908-14.11,43.4-1.918C320.294,412.727,297.895,429.606,276.89,414.645Z" fill="#48be97"/>
      <path id="Path_26273" data-name="Path 26273" d="M308.079,339.5s-.63-11.28-16.638-17.174C291.441,322.328,294.021,337.547,308.079,339.5Z" fill="#48be97"/>
      <path id="Path_26274" data-name="Path 26274" d="M306.185,359.355s-1.764-14.549-22.981-20.834C283.2,338.521,287.822,358.006,306.185,359.355Z" fill="#48be97"/>
      <path id="Path_26275" data-name="Path 26275" d="M297.759,387s4.443-16.466-15.708-32.5C282.051,354.5,278.536,377.534,297.759,387Z" fill="#48be97"/>
      <path id="Path_26276" data-name="Path 26276" d="M277.3,415.015s10.8-17.456-6.91-42.894C270.393,372.121,258.4,397.475,277.3,415.015Z" fill="#48be97"/>
      <path id="Path_26277" data-name="Path 26277" d="M307.9,338.912s2.287,54.658-40.509,83.457" fill="none" stroke="#48be97" stroke-linecap="round" stroke-miterlimit="10" stroke-width="2.011"/>
    </g>
    <g id="Group_4268" data-name="Group 4268">
      <path id="Path_26278" data-name="Path 26278" d="M103.224,444.318c4.828-10.469,13.425-41.186.18-47.61-8.306-4.028-10.745,2.87-10.745,2.87s6-33.6-8.227-33.672c-8.3-.042-9.694,9.482-9.694,9.482s-4.509-10.507-10.029-13.561c-11.993-6.636-26.272.224-15.207,19a40.426,40.426,0,0,0,7.165,8.753s-12.5-4.71-13.727,4.232,22.479,23.147,22.479,23.147-7.094.269-7.372,8.464c-.377,11.072,22.479,18.9,22.479,18.9Z" fill="#36a871"/>
      <path id="Path_26279" data-name="Path 26279" d="M57.968,370.011c15.547,22.794,28.319,29.567,38.715,72.016" fill="none" stroke="#fff" stroke-linecap="round" stroke-miterlimit="10" stroke-width="0.794"/>
    </g>
    <g id="Group_4269" data-name="Group 4269">
      <path id="Path_26280" data-name="Path 26280" d="M113.769,444.318c-.511-15.563,22.462-47.9,8.547-55.74-8.726-4.917-11.189,3.971-11.189,3.971s19.656-33.308.85-35.54c-6.554-.778-10.355,8.8-10.355,8.8s-.158-17.149-5.406-23.573c-8.564-10.479-26.485-4.623-22.257,17.97,2.318,12.391,10.83,17.3,10.83,17.3s-8.61-6.572-12.717,2.056c-5.5,11.562,12.947,26.5,12.947,26.5s-8.256-6.116-13.711,3.886c-7.371,13.515,20.658,34.376,20.658,34.376Z" fill="#48be97"/>
      <path id="Path_26281" data-name="Path 26281" d="M88.9,354.676c10.524,26.721,16.008,56.04,18.28,87.013" fill="none" stroke="#fff" stroke-linecap="round" stroke-miterlimit="10" stroke-width="0.794"/>
    </g>
    <g id="Group_4270" data-name="Group 4270">
      <path id="Path_26282" data-name="Path 26282" d="M390.146,444.318c3.42-12.637-13.061-37.536-.259-43.9,8.028-3.993,12.342.091,12.342.091s-9.453-25.1,6.234-26.908a6.618,6.618,0,0,1,7.123,4.239s2.172-7.432,8.034-12.1c11.113-8.842,25.594-5.564,17.8,12.782-4.273,10.061-7.648,11.537-7.648,11.537s7.724-1.5,9.39,5.51c2.232,9.388-16.267,25.1-16.267,25.1s6.649.626,7.524,5.6c1.936,11-21.379,18.047-21.379,18.047Z" fill="#36a871"/>
      <path id="Path_26283" data-name="Path 26283" d="M436.357,367.578c-21.284,17.282-22.073,52.453-32.854,72.764" fill="none" stroke="#fff" stroke-linecap="round" stroke-miterlimit="10" stroke-width="0.725"/>
    </g>
    <g id="Group_4271" data-name="Group 4271">
      <path id="Path_26284" data-name="Path 26284" d="M380.525,444.318c-7.706-12.675-24.47-49.863-12.182-57.64,7.706-4.877,12,3.475,12,3.475s-14.765-40.679.155-40.766c8.7-.051,12.567,11.479,12.567,11.479s2.953-11.933,7.09-19.105c9.522-16.506,31.854-9.914,23.971,16.285-2,6.639-8,15.064-8,15.064s13.868-.833,13.5,11.167c-.349,11.384-19.568,22.09-19.568,22.09s12.778-2.848,15.135,7.073c3.185,13.4-25.04,30.878-25.04,30.878Z" fill="#48be97"/>
      <path id="Path_26285" data-name="Path 26285" d="M413.5,348.343c-10.737,36.383-26.467,41.81-26.69,93.2" fill="none" stroke="#fff" stroke-linecap="round" stroke-miterlimit="10" stroke-width="0.725"/>
    </g>
    <g id="Group_4272" data-name="Group 4272">
      <path id="Path_26286" data-name="Path 26286" d="M250.111,349.872s.869-7.708,12.071-11.127C262.182,338.745,259.823,349.077,250.111,349.872Z" fill="#36a871"/>
      <path id="Path_26287" data-name="Path 26287" d="M250.107,363.6s1.773-9.9,16.562-13.389C266.669,350.209,262.746,363.386,250.107,363.6Z" fill="#36a871"/>
      <path id="Path_26288" data-name="Path 26288" d="M245.219,383.141s2.387-11.464,19.7-15.034C264.922,368.107,259.929,383.307,245.219,383.141Z" fill="#36a871"/>
      <path id="Path_26289" data-name="Path 26289" d="M232.012,403.116s7.247-12.087,28.343-9.3C260.355,393.82,248.667,409.123,232.012,403.116Z" fill="#36a871"/>
      <path id="Path_26290" data-name="Path 26290" d="M250.117,350.019s-1.012-7.69-12.275-10.9C237.842,339.119,240.392,349.4,250.117,350.019Z" fill="#36a871"/>
      <path id="Path_26291" data-name="Path 26291" d="M250.376,363.743s-1.957-9.87-16.807-13.079C233.569,350.664,237.735,363.766,250.376,363.743Z" fill="#36a871"/>
      <path id="Path_26292" data-name="Path 26292" d="M245.5,383.069s2.194-11.5-12.428-21.442C233.07,361.627,231.85,377.58,245.5,383.069Z" fill="#36a871"/>
      <path id="Path_26293" data-name="Path 26293" d="M232.937,403.3s6.5-12.508-6.94-29.011C226,374.293,219.091,392.269,232.937,403.3Z" fill="#36a871"/>
      <path id="Path_26294" data-name="Path 26294" d="M249.967,349.624s7.857,45.26-43.169,73.98" fill="none" stroke="#36a871" stroke-linecap="round" stroke-miterlimit="10" stroke-width="1.381"/>
    </g>
    <g id="Group_4273" data-name="Group 4273">
      <path id="Path_26295" data-name="Path 26295" d="M251.334,444.318H236.6c-10.245,0-26.194-28.709-26.194-39.837,0-11.056,15.887-40.392,26.194-40.392h14.736c13.053,0,23.365,4.061,30.651,12.068,7,7.709,10.55,17.236,10.55,28.324,0,11.161-3.591,20.642-10.674,28.18C274.576,440.4,264.308,444.318,251.334,444.318Zm-38.98-114.887.228-11.526c.392-19.892,3.089-35.422,8.246-47.477,5.209-12.173,15.169-24.95,30.451-39.062l.238-.214,35.4-30.883c12.893-12.4,19.163-25.012,19.163-38.566,0-12.892-3.69-22.54-11.282-29.494-7.769-7.107-19.835-10.713-35.857-10.713-15.93,0-28.669,3.443-37.862,10.233-8.37,6.179-12.267,13.907-12.267,24.322v11.3H135.763l.167-11.466c.413-28.471,12.51-51.742,35.954-69.166,22.461-16.695,51.753-25.16,87.062-25.16,36.753,0,66.085,8.711,87.185,25.89,21.794,17.751,32.842,42.258,32.842,72.843,0,30.085-16.092,59.634-47.829,87.826l-.243.209L301.53,272.962c-10.808,10.283-16.062,25.06-16.062,45.166v11.3Z" fill="#65a4da"/>
      <path id="Path_26296" data-name="Path 26296" d="M236.6,444.318c-13.016,0-23.262-3.945-30.453-11.726-6.953-7.525-10.477-16.983-10.477-28.111,0-11.056,3.481-20.559,10.347-28.246,7.2-8.06,17.488-12.146,30.583-12.146,13.053,0,23.365,4.061,30.65,12.068,7,7.709,10.551,17.236,10.551,28.324,0,11.161-3.592,20.642-10.674,28.18C259.84,440.4,249.572,444.318,236.6,444.318Zm-38.98-114.887.228-11.526c.392-19.892,3.089-35.422,8.246-47.477,5.209-12.173,15.169-24.95,30.451-39.062l.238-.214,35.4-30.883c12.894-12.4,19.163-25.012,19.163-38.566,0-12.892-3.689-22.54-11.281-29.494C272.3,125.1,260.232,121.5,244.21,121.5c-15.931,0-28.669,3.443-37.862,10.233-8.37,6.179-12.267,13.907-12.267,24.322v11.3H121.027l.167-11.466c.413-28.471,12.51-51.742,35.954-69.166,22.461-16.695,51.753-25.16,87.062-25.16,36.752,0,66.085,8.711,87.185,25.89,21.793,17.751,32.842,42.258,32.842,72.843,0,30.085-16.093,59.634-47.829,87.826l-.243.209-29.372,24.633c-10.807,10.283-16.061,25.06-16.061,45.166v11.3Z" fill="#7dbbf1"/>
    </g>
    <g id="Group_4278" data-name="Group 4278">
      <g id="Group_4274" data-name="Group 4274">
        <path id="Path_26297" data-name="Path 26297" d="M143.207,428.689c.368,4.758-1.2,15.378.044,15.629h35.138s.35-5.35-3.812-6.51c-5.559-1.549-12.326-2.694-14.854-4.915-1.248-1.1-1.853-4.2-1.853-4.2Z" fill="#0a1930"/>
        <path id="Path_26298" data-name="Path 26298" d="M168.75,436.322s-4.465-.4-6.065,2.136" fill="none" stroke="#7dbbf1" stroke-linecap="round" stroke-linejoin="round" stroke-width="0.848"/>
        <path id="Path_26299" data-name="Path 26299" d="M164.72,435.13s-4.465-.4-6.065,2.137" fill="none" stroke="#7dbbf1" stroke-linecap="round" stroke-linejoin="round" stroke-width="0.848"/>
      </g>
      <g id="Group_4275" data-name="Group 4275">
        <path id="Path_26300" data-name="Path 26300" d="M122.73,428.689c-.449,6.833.737,15.054-1.188,15.629H98.189a9.625,9.625,0,0,1,2.782-7.008c1.276-1.3,4.291-2.795,5.66-4.169,1.243-1.247,1.435-4.452,1.435-4.452Z" fill="#0a1930"/>
        <path id="Path_26301" data-name="Path 26301" d="M108.672,437.179s-2.989-3.516-6.747-.675" fill="none" stroke="#7dbbf1" stroke-linecap="round" stroke-linejoin="round" stroke-width="0.848"/>
        <path id="Path_26302" data-name="Path 26302" d="M112.348,435.395s-4.477-3.683-7.9-.8" fill="none" stroke="#7dbbf1" stroke-linecap="round" stroke-linejoin="round" stroke-width="0.848"/>
      </g>
      <g id="Group_4276" data-name="Group 4276">
        <path id="Path_26303" data-name="Path 26303" d="M168.71,238.646c1.015,6.3.684,13.031,1,12.7.837-.9,10.846-5.816,11.648-6.229a15.537,15.537,0,0,1,8.6-1.669c.671.033,2.686-.123,2.686-.123a4.889,4.889,0,0,1,2.686.123c1.117.505,1.432,1.382.4,1.726a21.609,21.609,0,0,1-2.654.574s3.581-.074,6.4-.3c1.063-.084,1.183,1.358,1.183,1.358s.448-.066.673-.115c1.437-.318,1.994,1.839,1.42,2.005a12.154,12.154,0,0,1-1.623.364c.362.142,1,1.144.089,1.411-.987.29-3.633.824-3.633.824.626,0,1.147,1.209.782,1.342a69.713,69.713,0,0,1-7.127,1.835,35.933,35.933,0,0,1-5.306-.2c-1.143-.173-3.563-.731-3.563-.731s-16.2,13.217-18.6,12.619c-1.782-.452-5.213-2.58-5.771-5.758s-4.413-22.143-4.413-22.143C155.09,228.7,167.173,229.112,168.71,238.646Z" fill="#f4a484"/>
        <path id="Path_26304" data-name="Path 26304" d="M181.17,248.735s-.081,3.088.931,4.493" fill="none" stroke="#e08d68" stroke-linecap="round" stroke-linejoin="round" stroke-width="0.565"/>
        <path id="Path_26305" data-name="Path 26305" d="M190.664,246.076s-1.6,2.665-6.572,2.312c3.775.688,6.162,4.534,6.162,4.534" fill="none" stroke="#e08d68" stroke-linecap="round" stroke-linejoin="round" stroke-width="0.565"/>
        <line id="Line_362" data-name="Line 362" x1="5.422" y2="0.779" transform="translate(191.822 251.28)" fill="none" stroke="#e08d68" stroke-linecap="round" stroke-linejoin="round" stroke-width="0.565"/>
        <line id="Line_363" data-name="Line 363" x1="8.163" y2="0.946" transform="translate(192.156 248.975)" fill="none" stroke="#e08d68" stroke-linecap="round" stroke-linejoin="round" stroke-width="0.565"/>
        <line id="Line_364" data-name="Line 364" x1="7.407" y2="0.696" transform="translate(192.578 246.811)" fill="none" stroke="#e08d68" stroke-linecap="round" stroke-linejoin="round" stroke-width="0.565"/>
      </g>
      <path id="Path_26306" data-name="Path 26306" d="M153.658,171.374a8.918,8.918,0,0,1,1.866,5.045c.364,3.477-2.346,8.1-2.346,8.1Z" fill="#24292d"/>
      <path id="Path_26307" data-name="Path 26307" d="M163.831,285.516c1.135,10.778-5,144.618-5,144.618H143.171s-4.909-95.21-4.248-109.1-2.343-27.07-1.459-35.516S161.915,267.335,163.831,285.516Z" fill="#fe5456"/>
      <path id="Path_26308" data-name="Path 26308" d="M142.885,285.914c.015,48.391-19.608,144.22-19.608,144.22H107.139s8.133-109.021,8.435-122.963c.217-10.011,1.347-16.975,2.334-25.452C119.575,267.406,142.879,267.7,142.885,285.914Z" fill="#fe5456"/>
      <path id="Path_26309" data-name="Path 26309" d="M163.93,295.62c-.712-.395-1.526-.859-2.351-1.367-2.329-1.413-3.018-1.1-18.852-.113l-.622.034c-1.56.09-3.1.1-4.589.045A56.056,56.056,0,0,1,117,289.2c.294-2.442.61-4.894.9-7.482,1.447-12.342,18.988-13.834,23.769-2.306,7.086-5.459,20.717-7.55,22.152,6.1C163.975,286.94,164,290.5,163.93,295.62Z" fill="#fe5456" opacity="0.36" style="mix-blend-mode: multiply;isolation: isolate"/>
      <path id="Path_26310" data-name="Path 26310" d="M158.92,208.513c11.482,10.776,10.84,39.447,10.84,39.447s-10.572,7.028-16.862,4.286c0,0-4.757-29.4-2.246-38.471C152.185,208.237,156.785,206.509,158.92,208.513Z" fill="#021946"/>
      <path id="Path_26311" data-name="Path 26311" d="M166.888,235.761c-.154,5.5-.112,10.67-.427,14.085-3.628,1.854-9.494,4.171-13.562,2.4,0,0-4.759-29.4-2.249-38.461a9.015,9.015,0,0,1,3.311-5.075l4.962-.192.022.023C159.5,209.124,167.453,215.629,166.888,235.761Z" fill="#021946" opacity="0.36" style="mix-blend-mode: multiply;isolation: isolate"/>
      <path id="Path_26312" data-name="Path 26312" d="M129.463,204.168s-16.84,2.767-17.354,5.838S118,257.367,118,267.764A187.646,187.646,0,0,1,116.788,288s13.492,3.78,26.376,3.544a111.124,111.124,0,0,0,21.1-2.158s-.746-12.787-1-21.293,1.753-33.319,1.774-42.409a27.694,27.694,0,0,0-6.119-17.172c-2-2.322-12.523-4.765-12.523-4.765Z" fill="#021946"/>
      <path id="Path_26313" data-name="Path 26313" d="M121.433,264.324c-1.446,2.611-2.588,4.793-3.481,6.6.034-1.04.045-2.1.045-3.165,0-6.9-2.837-28.787-4.577-43.581l13.02-7.55C128.045,221.681,128.045,252.378,121.433,264.324Z" fill="#021946" opacity="0.36" style="mix-blend-mode: multiply;isolation: isolate"/>
      <path id="Path_26314" data-name="Path 26314" d="M131,197.959l-1.534,6.246s6.611,11.02,14.417,9.918,2.517-10.375,2.517-10.375l.311-4.137-14.4-8.533Z" fill="#e08d68"/>
      <path id="Path_26315" data-name="Path 26315" d="M154.42,174.355c.406,2.072.235,8.834-.171,14.055-.393,5.049-1.752,12.368-4.62,13.009s-15.188-1.739-15.763-8.823c-2.1-1.657-10.074-11.423-7.266-16.256C131.593,167.748,153.112,167.692,154.42,174.355Z" fill="#f4a484"/>
      <ellipse id="Ellipse_1386" data-name="Ellipse 1386" cx="0.857" cy="1.28" rx="0.857" ry="1.28" transform="translate(143.503 183.702)" fill="#24292d"/>
      <path id="Path_26316" data-name="Path 26316" d="M152.877,184.624c0,.707-.384,1.28-.857,1.28s-.857-.573-.857-1.28.383-1.28.857-1.28S152.877,183.917,152.877,184.624Z" fill="#24292d"/>
      <path id="Path_26317" data-name="Path 26317" d="M145.8,181.863a3.132,3.132,0,0,0-4.365.718" fill="none" stroke="#24292d" stroke-miterlimit="10" stroke-width="0.628"/>
      <path id="Path_26318" data-name="Path 26318" d="M149.6,181.506a3.132,3.132,0,0,1,4.365.718" fill="none" stroke="#24292d" stroke-miterlimit="10" stroke-width="0.628"/>
      <path id="Path_26319" data-name="Path 26319" d="M148.934,186.506c.048,1.483,2.685,5.274,2.349,5.932s-2.4,1.066-2.4,1.066" fill="none" stroke="#e5744c" stroke-miterlimit="10" stroke-width="0.732"/>
      <path id="Path_26320" data-name="Path 26320" d="M151.669,194.649a9.49,9.49,0,0,0-4.622.933s3.95.575,4.309.18A1.742,1.742,0,0,0,151.669,194.649Z" fill="#fff"/>
      <path id="Path_26321" data-name="Path 26321" d="M154.8,176.15c-.626,1.344-4.908,3.3-12.769,2.871,0,0,3.934-1.077,4.8-4.155a11.409,11.409,0,0,1-9.337,4.725,15.037,15.037,0,0,1-2.118,8.78s-1.772,2.342-1.51,4.225c.247,1.77-1.626,4.933-2.869,5.651-.748-5.6-6.614-16.554-5.472-22.724a7.3,7.3,0,0,1,6.783-6.348c2.563-4.075,12.027-5.746,18.2-2.379C155.076,169.288,155.945,173.7,154.8,176.15Z" fill="#24292d"/>
      <path id="Path_26322" data-name="Path 26322" d="M136.018,186.453c-1.314-3.234-5.745-2.969-5.769-.243-.039,4.476,2.66,5.8,3.617,6.386S136.811,188.4,136.018,186.453Z" fill="#f4a484"/>
      <g id="Group_4277" data-name="Group 4277">
        <path id="Path_26323" data-name="Path 26323" d="M109.038,238.818c-1.016,6.3-1.869,12.5-2.188,12.162-.838-.9-15.368-4.855-16.273-5.4a14.669,14.669,0,0,0-9.1-2.138l-2.686-.123a4.889,4.889,0,0,0-2.686.123c-1.117.505-1.432,1.382-.4,1.726a21.609,21.609,0,0,0,2.654.574s-3.581-.074-6.4-.3c-1.063-.084-1.183,1.358-1.183,1.358s-.448-.066-.673-.115c-1.437-.318-1.994,1.839-1.42,2.005a12.154,12.154,0,0,0,1.623.364c-.362.142-1,1.144-.089,1.411.987.29,3.633.824,3.633.824-.626,0-1.147,1.209-.783,1.342a69.789,69.789,0,0,0,7.128,1.835,35.916,35.916,0,0,0,5.305-.2c1.144-.173,3.553-.273,3.553-.273s20.563,9.965,23.023,10.275c2.229.281,5.938-.506,7.133-3.872,1.085-3.055,5.594-21.664,5.594-21.664C123.3,229.178,110.574,229.283,109.038,238.818Z" fill="#f4a484"/>
        <path id="Path_26324" data-name="Path 26324" d="M89.317,253.763a7.619,7.619,0,0,0,1.209-3.183" fill="none" stroke="#e08d68" stroke-linecap="round" stroke-linejoin="round" stroke-width="0.565"/>
        <path id="Path_26325" data-name="Path 26325" d="M80.778,246.076s1.6,2.665,6.572,2.312c-3.775.688-6.162,4.534-6.162,4.534" fill="none" stroke="#e08d68" stroke-linecap="round" stroke-linejoin="round" stroke-width="0.565"/>
        <line id="Line_365" data-name="Line 365" x2="5.423" y2="0.779" transform="translate(74.197 251.28)" fill="none" stroke="#e08d68" stroke-linecap="round" stroke-linejoin="round" stroke-width="0.565"/>
        <line id="Line_366" data-name="Line 366" x2="8.163" y2="0.946" transform="translate(71.123 248.975)" fill="none" stroke="#e08d68" stroke-linecap="round" stroke-linejoin="round" stroke-width="0.565"/>
        <line id="Line_367" data-name="Line 367" x2="7.407" y2="0.696" transform="translate(71.457 246.811)" fill="none" stroke="#e08d68" stroke-linecap="round" stroke-linejoin="round" stroke-width="0.565"/>
      </g>
      <path id="Path_26326" data-name="Path 26326" d="M112.079,209.98c-5.583,11.138-5.776,36.293-5.776,36.293s11.009,5.729,17.556,3.074c0,0,4.246-23.943,2.584-32.722C125.427,211.263,114.8,204.56,112.079,209.98Z" fill="#021946"/>
    </g>
    <g id="Group_4283" data-name="Group 4283">
      <g id="Group_4279" data-name="Group 4279">
        <path id="Path_26327" data-name="Path 26327" d="M348.165,428.689c-.368,4.758,1.2,15.378-.045,15.629H312.982s-.35-5.35,3.812-6.51c5.56-1.55,12.326-2.694,14.854-4.915,1.249-1.1,1.853-4.2,1.853-4.2Z" fill="#fe5456"/>
        <path id="Path_26328" data-name="Path 26328" d="M322.621,436.322s4.465-.4,6.065,2.136" fill="none" stroke="#7dbbf1" stroke-linecap="round" stroke-linejoin="round" stroke-width="0.848"/>
        <path id="Path_26329" data-name="Path 26329" d="M326.651,435.13s4.466-.4,6.065,2.137" fill="none" stroke="#7dbbf1" stroke-linecap="round" stroke-linejoin="round" stroke-width="0.848"/>
      </g>
      <g id="Group_4280" data-name="Group 4280">
        <path id="Path_26330" data-name="Path 26330" d="M368.641,428.689c.449,6.833-.737,15.054,1.188,15.629h23.354a9.623,9.623,0,0,0-2.783-7.008c-1.276-1.3-4.29-2.795-5.66-4.169-1.243-1.247-1.435-4.452-1.435-4.452Z" fill="#fe5456"/>
        <path id="Path_26331" data-name="Path 26331" d="M382.7,437.179s2.989-3.516,6.748-.675" fill="none" stroke="#7dbbf1" stroke-linecap="round" stroke-linejoin="round" stroke-width="0.848"/>
        <path id="Path_26332" data-name="Path 26332" d="M379.023,435.395s4.478-3.683,7.9-.8" fill="none" stroke="#7dbbf1" stroke-linecap="round" stroke-linejoin="round" stroke-width="0.848"/>
      </g>
      <path id="Path_26333" data-name="Path 26333" d="M326.453,285.1c-1.135,10.778,6.425,145.03,6.425,145.03h15.656s4.909-95.21,4.248-109.1,2.343-27.07,1.459-35.516S328.369,266.923,326.453,285.1Z" fill="#021946"/>
      <path id="Path_26334" data-name="Path 26334" d="M348.82,285.914c-.015,48.391,19.608,144.22,19.608,144.22h16.137s-8.132-109.021-8.435-122.963c-.217-10.011-1.346-16.975-2.333-25.452C372.13,267.406,348.825,267.7,348.82,285.914Z" fill="#021946"/>
      <path id="Path_26335" data-name="Path 26335" d="M374.763,289.607A53.732,53.732,0,0,1,354.2,293.97c-.9,0-1.831-.022-2.758-.079-.847-.045-1.672-.1-2.475-.136-11.822-.621-18.332-.35-20.378.215a4.5,4.5,0,0,0-2.158,1.673c-.125-5.346-.136-9.076.022-10.534,1.447-13.766,16.117-11.291,23.543-5.628a12.417,12.417,0,0,1,5.459-6.251l11.166-.813a11,11,0,0,1,7.177,9.3C374.119,284.454,374.458,287.031,374.763,289.607Z" fill="#021946" opacity="0.36" style="mix-blend-mode: multiply;isolation: isolate"/>
      <path id="Path_26336" data-name="Path 26336" d="M333.516,208.513c-11.482,10.776-10.841,39.447-10.841,39.447s10.573,7.028,16.863,4.286c0,0,4.757-29.4,2.246-38.471C340.25,208.237,335.651,206.509,333.516,208.513Z" fill="#1b84c1"/>
      <path id="Path_26337" data-name="Path 26337" d="M365.633,204.168s16.031,5.1,16.545,8.167-8.4,44.532-8.4,54.928S374.917,288,374.917,288s-13.493,3.78-26.376,3.544a115.015,115.015,0,0,1-22.526-2.57s.7-12.719.958-21.225.444-32.975.424-42.065a27.682,27.682,0,0,1,6.119-17.172c2-2.322,15.183-4.765,15.183-4.765Z" fill="#1b84c1"/>
      <path id="Path_26338" data-name="Path 26338" d="M373.78,267.263c0,2.893.09,5.775.214,8.431-2.565-5.052-7.391-9.7-9.844-10.477-3.119-.994-29.487-11.765-31.556-11.336a19.253,19.253,0,0,1-5.38-.418c.046-3.04.068-6.239.1-9.381l13.789-38.631c3.82-1.006,7.6-1.707,7.6-1.707-1.13.9-2.7,6.047-3.854,8.6s-7.494,29.33-7.494,29.33l21.543,2.136c2.689-20.548,8.488-28.832,8.488-28.832L380.2,225.795C377.713,239.753,373.78,260.357,373.78,267.263Z" fill="#1b84c1" opacity="0.36" style="mix-blend-mode: multiply;isolation: isolate"/>
      <path id="Path_26339" data-name="Path 26339" d="M364.1,197.959l1.534,6.246s-6.612,11.02-14.417,9.918-2.517-10.375-2.517-10.375l-.311-4.137,14.4-8.533Z" fill="#e08d68"/>
      <path id="Path_26340" data-name="Path 26340" d="M341.24,174.432a70.477,70.477,0,0,0-.393,13.978c.393,5.049,1.75,12.357,4.618,13s15.19-1.728,15.764-8.812c2.1-1.657,10.075-11.423,7.266-16.256C363.5,167.748,342.547,167.769,341.24,174.432Z" fill="#f4a484"/>
      <ellipse id="Ellipse_1387" data-name="Ellipse 1387" cx="0.857" cy="1.28" rx="0.857" ry="1.28" transform="translate(349.879 183.702)" fill="#24292d"/>
      <ellipse id="Ellipse_1388" data-name="Ellipse 1388" cx="0.857" cy="1.28" rx="0.857" ry="1.28" transform="translate(342.388 183.197)" fill="#24292d"/>
      <path id="Path_26341" data-name="Path 26341" d="M349.226,182.385a3.311,3.311,0,0,1,4.618.166" fill="none" stroke="#24292d" stroke-miterlimit="10" stroke-width="0.848"/>
      <path id="Path_26342" data-name="Path 26342" d="M346.092,181.881a3.311,3.311,0,0,0-4.618.166" fill="none" stroke="#24292d" stroke-miterlimit="10" stroke-width="0.848"/>
      <path id="Path_26343" data-name="Path 26343" d="M346.161,186.506c-.047,1.558-2.685,5.54-2.349,6.231s2.4,1.12,2.4,1.12" fill="none" stroke="#e08d68" stroke-miterlimit="10" stroke-width="0.751"/>
      <path id="Path_26344" data-name="Path 26344" d="M343.2,195.578a6.22,6.22,0,0,1,4.556.315s-3.95.575-4.309.18S343.2,195.578,343.2,195.578Z" fill="#fff"/>
      <path id="Path_26345" data-name="Path 26345" d="M340.8,177.1c.627,1.343,11.928,1.251,18.1,1.128,0,0-1.837,5.69.825,10.139,0,0,1.772,2.342,1.509,4.225-.246,1.77,2.667,5.888,2.84,4.463.54-4.429,6.681-17.033,5.019-23.083-1.407-5.119-4.622-4.881-4.622-4.881-2.562-4.075-8.933-1.878-21.734-4.7C337.649,163.277,339.657,174.657,340.8,177.1Z" fill="#24292d"/>
      <path id="Path_26346" data-name="Path 26346" d="M359.078,186.453c1.314-3.234,5.744-2.969,5.768-.243.039,4.476-2.66,5.8-3.617,6.386S358.285,188.4,359.078,186.453Z" fill="#f4a484"/>
      <g id="Group_4281" data-name="Group 4281">
        <path id="Path_26347" data-name="Path 26347" d="M325.818,250.967a10.264,10.264,0,0,0,3.269.856,25.423,25.423,0,0,0,3.194-.1s28.6,10.027,31.311,9.869c2.013-.126,6.393-1.418,8.28-4.624,1.8-3.065,5.8-15.338,7.283-20.786,2.782-10.243-10.909-11.864-14.5-1.9-2.37,6.585-3.008,13.429-3.285,13.006-.72-1.144-24.492-3.559-24.976-4.422-.952-1.7-4.366-2.466-5.336-2.508a8.118,8.118,0,0,1-1.963-.334c-1.313-.288-2.449.989-1.177,1.558.975.436,2.745,1.156,2.745,1.156s-6.119-2.183-7.295-2.626a1.192,1.192,0,0,0-.912,2.2c1.612.918,1.935,1.056,1.935,1.056a3.133,3.133,0,0,0-2.189-.488c-.722.18-.3,2.208.5,2.446l.421.122a1.321,1.321,0,0,0,.627,2.353c.177.064.37.131.37.131s-1.279,1.09-.276,1.758S325.818,250.967,325.818,250.967Z" fill="#f4a484"/>
      </g>
      <g id="Group_4282" data-name="Group 4282">
        <path id="Path_26348" data-name="Path 26348" d="M345.552,208.124c-.708,2.919-1.939,2.205-2.319,3.058-.4.9-8.047,29.789-8.328,31.112-.906,4.265-6.3,7.614-9.41,6.2-3.387-1.539-4.559-6.282-3.934-8.972.616-2.65,14.4-30.548,14.4-30.548s1.044-8.694,1.59-9a28.926,28.926,0,0,1,4.715-1.935c1.026-.209,5.86.031,5.83,0a2.479,2.479,0,0,1-.856,1.626,35.916,35.916,0,0,1-4.124.62s3.486.184,3.645.527a23.509,23.509,0,0,1,.414,4.728A10.967,10.967,0,0,1,345.552,208.124Z" fill="#f4a484"/>
        <line id="Line_368" data-name="Line 368" y1="0.396" x2="1.67" transform="translate(339.964 200.556)" fill="none" stroke="#e08d68" stroke-linecap="round" stroke-linejoin="round" stroke-width="0.565"/>
        <path id="Path_26349" data-name="Path 26349" d="M340.292,202.452s4.918.064,5.066.187.492,2.3.855,2.635.549.3.549.3" fill="none" stroke="#e08d68" stroke-linecap="round" stroke-linejoin="round" stroke-width="0.565"/>
        <path id="Path_26350" data-name="Path 26350" d="M339.52,204.387s4.018.444,4.263.554.688,2.365,1.464,2.4.966-.85.966-.85" fill="none" stroke="#e08d68" stroke-linecap="round" stroke-linejoin="round" stroke-width="0.565"/>
        <line id="Line_369" data-name="Line 369" x2="3.272" y2="0.498" transform="translate(339.758 206.365)" fill="none" stroke="#e08d68" stroke-linecap="round" stroke-linejoin="round" stroke-width="0.565"/>
        <path id="Path_26351" data-name="Path 26351" d="M341.922,207.9c-.776.074-.407,1.441,0,1.515a6.46,6.46,0,0,0,2.069,0,2.261,2.261,0,0,0,.853-1.548,9.448,9.448,0,0,0-.445-1.5" fill="none" stroke="#e08d68" stroke-linecap="round" stroke-linejoin="round" stroke-width="0.565"/>
        <path id="Path_26352" data-name="Path 26352" d="M343.777,210.584a7.07,7.07,0,0,1-4.527.562" fill="none" stroke="#e08d68" stroke-linecap="round" stroke-linejoin="round" stroke-width="0.565"/>
        <path id="Path_26353" data-name="Path 26353" d="M342.867,211.71s-.8.516-2.575-.134" fill="none" stroke="#e08d68" stroke-linecap="round" stroke-linejoin="round" stroke-width="0.565"/>
        <path id="Path_26354" data-name="Path 26354" d="M342.772,197.982s5.1.057,5.325.056-.209,1.464-.856,1.626-4.124.62-4.124.62,3.575.243,3.645.527.274,1.828.274,1.828" fill="none" stroke="#e08d68" stroke-linecap="round" stroke-linejoin="round" stroke-width="0.565"/>
      </g>
      <path id="Path_26355" data-name="Path 26355" d="M382.208,212.309c5.256,5.73-6.287,37.017-6.287,37.017s-8.984-.615-15.531-3.27c0,0,5.033-27.247,6.992-31.08C369.865,210.117,378.109,207.841,382.208,212.309Z" fill="#1b84c1"/>
      <path id="Path_26356" data-name="Path 26356" d="M335.056,241.673c-.777,3.255-3.594,7.9-8.528,7.073-4.086-.688-4.887-5.875-4.887-5.875" fill="none" stroke="#e08d68" stroke-linecap="round" stroke-linejoin="round" stroke-width="0.565"/>
    </g>
    <g id="Group_4284" data-name="Group 4284">
      <circle id="Ellipse_1389" data-name="Ellipse 1389" cx="36.48" cy="36.48" r="36.48" transform="translate(49.852 95.935) rotate(-22.994)" fill="#dadeea"/>
      <path id="Path_26357" data-name="Path 26357" d="M85.273,115.266a4.653,4.653,0,1,1-4.653-4.653A4.653,4.653,0,0,1,85.273,115.266Z" fill="#fff"/>
      <path id="Path_26358" data-name="Path 26358" d="M102.336,115.266a4.653,4.653,0,1,1-4.653-4.653A4.653,4.653,0,0,1,102.336,115.266Z" fill="#fff"/>
      <path id="Path_26359" data-name="Path 26359" d="M119.4,115.266a4.653,4.653,0,1,1-4.653-4.653A4.653,4.653,0,0,1,119.4,115.266Z" fill="#fff"/>
      <path id="Path_26360" data-name="Path 26360" d="M96.085,149.038s3.747,9.2,18.661,9.7c0,0-6.39-4.563-6.44-12.123Z" fill="#dadeea"/>
    </g>
    <g id="Group_4285" data-name="Group 4285">
      <circle id="Ellipse_1390" data-name="Ellipse 1390" cx="36.48" cy="36.48" r="36.48" transform="translate(359.386 116.631) rotate(-13.074)" fill="#dadeea"/>
      <path id="Path_26361" data-name="Path 26361" d="M415.582,143.912a4.653,4.653,0,1,0,4.653-4.653A4.653,4.653,0,0,0,415.582,143.912Z" fill="#fff"/>
      <path id="Path_26362" data-name="Path 26362" d="M398.519,143.912a4.653,4.653,0,1,0,4.653-4.653A4.653,4.653,0,0,0,398.519,143.912Z" fill="#fff"/>
      <path id="Path_26363" data-name="Path 26363" d="M381.456,143.912a4.653,4.653,0,1,0,4.653-4.653A4.653,4.653,0,0,0,381.456,143.912Z" fill="#fff"/>
      <path id="Path_26364" data-name="Path 26364" d="M404.77,177.684s-3.747,9.2-18.661,9.7c0,0,6.39-4.562,6.44-12.123Z" fill="#dadeea"/>
    </g>
    <g id="Group_4286" data-name="Group 4286">
      <path id="Path_26365" data-name="Path 26365" d="M193.757,444.318s.559-13.946-12.6-24.35c0,0,18.381,2.037,19.876,24.349Z" fill="#48be97"/>
      <path id="Path_26366" data-name="Path 26366" d="M195.7,444.317s-1.728-23.116,18.879-27.89c0,0-11.848,8.339-13.026,27.89Z" fill="#36a871"/>
      <path id="Path_26367" data-name="Path 26367" d="M195.7,444.317s4.684-20.615,24.2-19.878c0,0-14.77,8.293-15.627,19.878Z" fill="#48be97"/>
    </g>
    <g id="Group_4287" data-name="Group 4287">
      <path id="Path_26368" data-name="Path 26368" d="M294.71,444.318s-2.62-8.717,9.026-13.447c0,0-13.167-2.536-14.238,13.446Z" fill="#48be97"/>
      <path id="Path_26369" data-name="Path 26369" d="M293.319,444.317s-2.426-9.729,2.607-21.843c0,0-9.33,4.585-6.8,21.843Z" fill="#36a871"/>
      <path id="Path_26370" data-name="Path 26370" d="M293.319,444.317s-.75-11.135-14.729-10.607c0,0,10.007,3.237,8.59,10.607Z" fill="#48be97"/>
    </g>
  </g>
</svg>
