<svg xmlns="http://www.w3.org/2000/svg" xmlns:xlink="http://www.w3.org/1999/xlink" width="318.684" height="335.38" viewBox="0 0 318.684 335.38">
  <defs>
    <linearGradient id="linear-gradient" x1="0.561" y1="0.537" x2="1.061" y2="0.537" gradientUnits="objectBoundingBox">
      <stop offset="0.043" stop-color="#7b8bff"/>
      <stop offset="1" stop-color="#6f80ff"/>
    </linearGradient>
    <linearGradient id="linear-gradient-2" x1="0.446" y1="0.332" x2="1.83" y2="0.332" gradientUnits="objectBoundingBox">
      <stop offset="0.043" stop-color="#7b8bff"/>
      <stop offset="1" stop-color="#5367ff"/>
    </linearGradient>
    <linearGradient id="linear-gradient-3" x1="0.776" y1="0.582" x2="1.413" y2="0.582" xlink:href="#linear-gradient"/>
    <linearGradient id="linear-gradient-4" x1="0" y1="0.5" x2="1" y2="0.5" xlink:href="#linear-gradient"/>
    <linearGradient id="linear-gradient-5" x1="0" y1="0.5" x2="1" y2="0.5" xlink:href="#linear-gradient-2"/>
    <linearGradient id="linear-gradient-12" x1="0.479" y1="0.5" x2="1.479" y2="0.5" xlink:href="#linear-gradient"/>
    <linearGradient id="linear-gradient-13" x1="0.532" y1="0.5" x2="1.532" y2="0.5" gradientUnits="objectBoundingBox">
      <stop offset="0.043" stop-color="#475dff"/>
      <stop offset="1" stop-color="#6f80ff"/>
    </linearGradient>
    <linearGradient id="linear-gradient-14" x1="0.869" y1="0.587" x2="0.366" y2="-0.098" gradientUnits="objectBoundingBox">
      <stop offset="0" stop-color="#9c99fd"/>
      <stop offset="1" stop-color="#ddddfc"/>
    </linearGradient>
    <linearGradient id="linear-gradient-15" x1="0" y1="0.5" x2="1" y2="0.5" xlink:href="#linear-gradient-14"/>
    <linearGradient id="linear-gradient-16" x1="0.5" y1="0.012" x2="0.5" y2="0.854" xlink:href="#linear-gradient-14"/>
    <linearGradient id="linear-gradient-19" y1="0.5" x2="1" y2="0.5" gradientUnits="objectBoundingBox">
      <stop offset="0.023" stop-color="#ed516f"/>
      <stop offset="1" stop-color="#d44751"/>
    </linearGradient>
    <linearGradient id="linear-gradient-25" x1="0.066" y1="0.5" x2="0.934" y2="0.5" gradientUnits="objectBoundingBox">
      <stop offset="0.033" stop-color="#214f95"/>
      <stop offset="1" stop-color="#0e408c"/>
    </linearGradient>
    <linearGradient id="linear-gradient-27" x1="0.5" y1="0.095" x2="0.5" y2="2.45" xlink:href="#linear-gradient-19"/>
    <linearGradient id="linear-gradient-28" x1="0.5" y1="0.074" x2="0.5" y2="1.233" xlink:href="#linear-gradient-19"/>
    <linearGradient id="linear-gradient-29" x1="0.5" y1="0.068" x2="0.5" y2="2.912" xlink:href="#linear-gradient-19"/>
    <linearGradient id="linear-gradient-31" x1="0" y1="0.5" x2="1" y2="0.5" xlink:href="#linear-gradient"/>
    <linearGradient id="linear-gradient-32" x1="0" y1="0.5" x2="1" y2="0.5" xlink:href="#linear-gradient"/>
    <linearGradient id="linear-gradient-33" x1="0" y1="0.5" x2="1" y2="0.5" xlink:href="#linear-gradient"/>
    <linearGradient id="linear-gradient-36" x1="0" y1="0.5" x2="1" y2="0.5" xlink:href="#linear-gradient-25"/>
    <linearGradient id="linear-gradient-38" x1="0" y1="0.5" x2="1" y2="0.5" xlink:href="#linear-gradient-25"/>
  </defs>
  <g id="iq-img" transform="translate(-303.752 -49.435)">
    <ellipse id="Ellipse_1382" data-name="Ellipse 1382" cx="155.577" cy="11.931" rx="155.577" ry="11.931" transform="translate(303.752 360.953)" fill="#dae3ef"/>
    <g id="Group_4186" data-name="Group 4186" transform="translate(327.147 93.697)">
      <g id="Group_4180" data-name="Group 4180" transform="translate(3.431 3.439)" opacity="0.2">
        <path id="Path_26103" data-name="Path 26103" d="M336.8,144.764s4.153-9.276,11.56-9.068,10.593,1.593,14.056-1.872,2.08-6.646,1.872-14.056,9.068-11.56,9.068-11.56l17.362,17.362s-4.153,9.276-11.56,9.068-10.593-1.593-14.056,1.872-2.08,6.646-1.872,14.056-9.068,11.561-9.068,11.561Z" transform="translate(-336.805 -108.207)" fill="url(#linear-gradient)"/>
      </g>
      <g id="Group_4182" data-name="Group 4182" transform="translate(3.431 3.439)">
        <g id="Group_4181" data-name="Group 4181">
          <path id="Path_26104" data-name="Path 26104" d="M394.754,129.6s-4.153,9.276-11.56,9.068-10.593-1.593-14.056,1.872-2.08,6.646-1.872,14.056-9.068,11.561-9.068,11.561" transform="translate(-340.835 -112.237)" fill="none" stroke="#7f7bfd" stroke-miterlimit="10" stroke-width="0.5"/>
          <path id="Path_26105" data-name="Path 26105" d="M373.362,108.207s-9.276,4.153-9.068,11.56,1.593,10.593-1.872,14.056-6.646,2.08-14.056,1.872-11.56,9.068-11.56,9.068" transform="translate(-336.805 -108.207)" fill="none" stroke="#7f7bfd" stroke-miterlimit="10" stroke-width="0.5"/>
        </g>
      </g>
      <rect id="Rectangle_1360" data-name="Rectangle 1360" width="30.005" height="2.203" rx="0.962" transform="translate(39.595 0) rotate(45)" fill="#122960"/>
      <rect id="Rectangle_1361" data-name="Rectangle 1361" width="30.005" height="2.203" rx="0.962" transform="translate(1.557 37.369) rotate(45)" fill="#122960"/>
      <g id="Group_4185" data-name="Group 4185" transform="translate(4.056 11.041)">
        <g id="Group_4183" data-name="Group 4183" transform="translate(0.001 0.176)">
          <path id="Path_26106" data-name="Path 26106" d="M387.35,136.905l-.03.011a7.8,7.8,0,0,1-1.118.048c-.886-.024-1.714-.069-2.488-.118a26.173,26.173,0,0,1-9.649-12.655C384.741,130.408,387.065,136.1,387.35,136.905Z" transform="translate(-344.45 -118.996)" fill="url(#linear-gradient-2)"/>
          <path id="Path_26107" data-name="Path 26107" d="M354.414,147.834a6.543,6.543,0,0,1,.991,3.284c-.054,4.158-.807,10.861,1.072,10.788a19.617,19.617,0,0,1-2.444,1.4l-16.457-16.457a20.823,20.823,0,0,1,2.277-3.667c-.217,3.479,8.04,2.629,10.014,2.676a12.855,12.855,0,0,1,3.185.416l.113.1,8.615-9.183,0,0a9.743,9.743,0,0,0,1.267-1.079c2.874-2.872,2.67-5.559,2.335-10.011-.1-1.325-.213-2.824-.263-4.55a8.151,8.151,0,0,1,.82-3.763,22.8,22.8,0,0,0,1.25,5.2,26.173,26.173,0,0,0,9.649,12.655c-.733-.045-1.418-.1-2.062-.145-4.453-.335-7.14-.538-10.01,2.334a10.381,10.381,0,0,0-.857.965Z" transform="translate(-337.576 -117.79)" fill="url(#linear-gradient-3)"/>
        </g>
        <g id="Group_4184" data-name="Group 4184">
          <path id="Path_26108" data-name="Path 26108" d="M337.576,153.592l16.457,16.457a19.617,19.617,0,0,0,2.444-1.4" transform="translate(-337.575 -124.358)" fill="none"/>
          <path id="Path_26109" data-name="Path 26109" d="M370.025,142.861a10.372,10.372,0,0,1,.857-.965c2.87-2.872,5.557-2.669,10.01-2.334.644.049,1.329.1,2.062.145.773.049,1.6.093,2.488.118a7.8,7.8,0,0,0,1.118-.048" transform="translate(-343.688 -121.68)" fill="none"/>
          <path id="Path_26110" data-name="Path 26110" d="M337.575,152.743v0a20.823,20.823,0,0,1,2.277-3.667" transform="translate(-337.575 -123.507)" fill="none"/>
          <path id="Path_26111" data-name="Path 26111" d="M371.59,117.713l-.029.063a8.151,8.151,0,0,0-.82,3.763c.05,1.726.162,3.225.263,4.55.335,4.452.539,7.139-2.335,10.011a9.749,9.749,0,0,1-1.267,1.079" transform="translate(-343.194 -117.599)" fill="none"/>
          <path id="Path_26112" data-name="Path 26112" d="M372.507,117.573s0,.06.015.176a22.8,22.8,0,0,0,1.25,5.2,26.173,26.173,0,0,0,9.649,12.655.113.113,0,0,0,.022.017" transform="translate(-344.155 -117.573)" fill="none"/>
          <path id="Path_26113" data-name="Path 26113" d="M387.357,136.987s-.01-.034-.033-.1c-.285-.808-2.609-6.5-13.284-12.713-.037-.021-.075-.045-.112-.065" transform="translate(-344.423 -118.805)" fill="none"/>
          <path id="Path_26114" data-name="Path 26114" d="M367.778,143.363l-.263.249-9.5,9.039L356.7,153.9" transform="translate(-341.178 -122.431)" fill="none"/>
          <path id="Path_26115" data-name="Path 26115" d="M365.336,141.509l-.143.151,0,0-8.616,9.183-.9.957" transform="translate(-340.985 -122.082)" fill="none"/>
          <path id="Path_26116" data-name="Path 26116" d="M358.291,154.759l.025.039a6.544,6.544,0,0,1,.991,3.284c-.054,4.158-.807,10.861,1.072,10.788a1.159,1.159,0,0,0,.451-.127" transform="translate(-341.477 -124.578)" fill="none"/>
          <path id="Path_26117" data-name="Path 26117" d="M353.58,152.15a12.856,12.856,0,0,0-3.185-.416c-1.974-.047-10.231.8-10.014-2.676a.439.439,0,0,1,0-.065" transform="translate(-338.103 -123.492)" fill="none"/>
        </g>
      </g>
    </g>
    <circle id="Ellipse_1383" data-name="Ellipse 1383" cx="106.492" cy="106.492" r="106.492" transform="translate(356.339 98.718)" fill="#dae3ef"/>
    <g id="Group_4198" data-name="Group 4198" transform="translate(480.594 222.492)">
      <g id="Group_4197" data-name="Group 4197">
        <g id="Group_4188" data-name="Group 4188" transform="translate(0 52.996)">
          <path id="Path_26118" data-name="Path 26118" d="M566.3,373.976c-.082,0-.163.016-.261.016-8.252-.179-22.782-42.71-43.721-40.28-.228.016-.457.05-.685.082,0,0,19.9-9.475,29.925-4.289C568.522,338.278,569.892,373.649,566.3,373.976Z" transform="translate(-521.637 -327.952)" fill="url(#linear-gradient-4)"/>
          <g id="Group_4187" data-name="Group 4187" transform="translate(15.557 3.463)">
            <path id="Path_26119" data-name="Path 26119" d="M571.193,400.507a.147.147,0,0,1-.032,0,.507.507,0,0,1-.474-.539c.041-.669,3.9-62.147-29.444-66.734a.508.508,0,0,1-.434-.572.493.493,0,0,1,.572-.433c34.277,4.713,30.362,67.128,30.319,67.8A.507.507,0,0,1,571.193,400.507Z" transform="translate(-540.804 -332.219)" fill="url(#linear-gradient-5)"/>
          </g>
        </g>
        <g id="Group_4190" data-name="Group 4190" transform="translate(53.66 67.558)">
          <path id="Path_26120" data-name="Path 26120" d="M634.443,351.719a.1.1,0,0,1-.065-.016c-21.184-3.311-35.894,39.644-44.243,40.2a1.454,1.454,0,0,1-.376,0c-3.571-.31-2.2-35.681,14.759-44.455,9.769-5.056,28.946,3.815,29.892,4.256A.05.05,0,0,0,634.443,351.719Z" transform="translate(-587.827 -345.894)" fill="url(#linear-gradient-4)"/>
          <g id="Group_4189" data-name="Group 4189" transform="translate(0 3.452)">
            <path id="Path_26121" data-name="Path 26121" d="M588.414,418.435a.508.508,0,0,1-.507-.476c-.044-.678-3.957-63.092,30.319-67.805a.49.49,0,0,1,.572.434.508.508,0,0,1-.434.571c-33.345,4.587-29.486,66.065-29.444,66.734a.507.507,0,0,1-.474.54A.224.224,0,0,1,588.414,418.435Z" transform="translate(-587.751 -350.147)" fill="url(#linear-gradient-5)"/>
          </g>
        </g>
        <g id="Group_4192" data-name="Group 4192" transform="translate(11.644)">
          <path id="Path_26122" data-name="Path 26122" d="M571.665,333.072v.066c-.017.13-.033.2-.033.2s-11.17-8.9-16.275-32.567c-6.654-30.756-18.7-37.035-18.7-37.035l-.669-.342c.228-.049.441-.081.669-.114,16.079-2.984,28.261,4.828,32.893,23.516C574.7,307.517,572.007,330.43,571.665,333.072Z" transform="translate(-535.983 -262.656)" fill="url(#linear-gradient-4)"/>
          <g id="Group_4191" data-name="Group 4191" transform="translate(10.891 5.399)">
            <path id="Path_26123" data-name="Path 26123" d="M576.359,400.15h0a.507.507,0,0,1-.507-.506l.011-.364c.381-12.349,2.889-116.24-26.156-129a.508.508,0,1,1,.411-.929c29.04,12.756,27.388,109.7,26.761,129.962l-.01.334A.508.508,0,0,1,576.359,400.15Z" transform="translate(-549.401 -269.308)" fill="url(#linear-gradient-5)"/>
          </g>
        </g>
        <g id="Group_4194" data-name="Group 4194" transform="translate(50.469 14.034)">
          <path id="Path_26124" data-name="Path 26124" d="M622.867,280.687l-.684.326s-12.036,6.278-18.689,37.051c-5.007,23.092-15.754,32.126-16.259,32.533l-.016.016s-3.392-24.494,2.071-46.542c4.7-18.9,17.123-26.663,33.48-23.4C622.8,280.671,622.834,280.687,622.867,280.687Z" transform="translate(-584.263 -279.948)" fill="url(#linear-gradient-4)"/>
          <g id="Group_4193" data-name="Group 4193" transform="translate(0 5.398)">
            <path id="Path_26125" data-name="Path 26125" d="M584.34,404.61a.509.509,0,0,1-.509-.5c-.207-33.1,2.011-106.494,26.983-117.465a.508.508,0,1,1,.411.93C586.8,298.3,584.644,371.2,584.849,404.1a.509.509,0,0,1-.5.512Z" transform="translate(-583.819 -286.598)" fill="url(#linear-gradient-5)"/>
          </g>
        </g>
        <path id="Path_26126" data-name="Path 26126" d="M587.248,407.739" transform="translate(-533.996 -289.985)" fill="none" stroke="#7fb2ef" stroke-linecap="round" stroke-miterlimit="10" stroke-width="0.547"/>
        <g id="Group_4195" data-name="Group 4195" transform="translate(29.49 113.282)">
          <path id="Path_26127" data-name="Path 26127" d="M598.635,402.23,598.2,406.4l-.363,3.294-.1.989-.288,2.655-.063.639-.288,2.655-.376,3.632-.162,1.465-.2,1.841-.151,1.465-.225,2.167-.364,3.294-.213,2.053a4.818,4.818,0,0,1-4.8,4.3H566a4.815,4.815,0,0,1-4.784-4.3l-.226-2.053-.351-3.294-.226-2.167-.162-1.465-.2-1.841-.15-1.465-.388-3.632-.288-2.655-.063-.639-.287-2.655-.1-.989-.351-3.294-.45-4.171Z" transform="translate(-557.971 -402.23)" fill="#253e8e"/>
        </g>
        <g id="Group_4196" data-name="Group 4196" transform="translate(26.719 107.132)">
          <rect id="Rectangle_1362" data-name="Rectangle 1362" width="46.213" height="6.736" rx="0.317" fill="#253e8e"/>
        </g>
      </g>
    </g>
    <g id="Group_4201" data-name="Group 4201" transform="translate(355.159 153.217)">
      <g id="Group_4200" data-name="Group 4200" transform="translate(0 27.239)">
        <g id="Group_4199" data-name="Group 4199">
          <path id="Path_26128" data-name="Path 26128" d="M410.972,308.491c27.7,5.055,31.6,22.938,38.208,18.616a4.615,4.615,0,0,0,.873-.717c4.237-4.471-6.351-14.035-2.784-40.692,2.245-16.868,7.28-47.947-4.468-52.494-10.058-3.883-9.791,22.04-24.268,17.51-10.525-3.29,6.328-21.049-2.748-26.122-10.053-5.62-12.475,14.889-20.7,8.09-8.2-6.8-8.71-25.145-17.446-21.291-.137.059-.266.129-.386.191-8.133,4.061-1.881,16.8,2.626,24.941,4.578,8.274,6.51,10.477,3.856,11.678s-16.341-2.7-16.647,6.323,23.588,10.568,29.741,20.977-16.176,2.734-12.709,14.135C386.128,296.188,397.213,305.992,410.972,308.491Z" transform="translate(-367.09 -210.865)" fill="url(#linear-gradient-12)"/>
          <path id="Path_26129" data-name="Path 26129" d="M398.5,294.727l28.991,1.8-16.888-26.9-.009.035-22.737-6.94,21.313,4.623-19.722-31.417,12.441,17.827,8.459-12.083-7.289,13.76,18.979,27.2,19.091-24.83-17.983,26.417,23.781,34.341-3.275,2.169-14.93-22.235Z" transform="translate(-371.003 -215.586)" fill="url(#linear-gradient-13)"/>
        </g>
      </g>
      <path id="Path_26130" data-name="Path 26130" d="M453.319,238.321s-7.853,4.591-11.317,7.9c-3.348,3.2-5.451,6.271-8.636,9.093q-1.513-2.877-2.941-5.8c11.582-5.272,19.882-17.111,19.882-17.111-8.687,2.45-19.849,17.066-19.883,17.11q-1.282-2.625-2.491-5.284c9.039-3.007,16.164-11.1,16.164-11.1-6.364,1.058-15.3,10.149-16.185,11.058-.325-.714-.664-1.423-.981-2.141q-.571-1.326-1.125-2.658c12.144-4.828,21.279-16.423,21.279-16.423-8.495,1.894-19.815,14.584-21.326,16.313q-1.472-3.546-2.8-7.151c10.83-2.734,19.865-11.538,19.865-11.538-7.42.657-18.452,10.174-19.9,11.446q-.816-2.217-1.569-4.456c10.109-4.6,17.407-14.726,17.407-14.726-6.953,1.865-15.8,12.466-17.47,14.532-.651-1.95-1.25-3.915-1.817-5.892,10.016-4.235,17.477-13.706,17.477-13.706-6.59,1.469-15.181,10.586-17.6,13.277-.135-.473-.28-.944-.408-1.419-.385-1.58-.8-3.156-1.17-4.739,8.906-3.079,15.886-11.007,15.886-11.007-5.975.994-14.221,9.068-15.935,10.8-.066-.279-.14-.556-.2-.836-.313-1.631-.7-3.252-.975-4.89,1.48-.306,7.672-1.718,10.871-4.552,3.649-3.232,7.34-6.139,7.34-6.139s-6.961,2.535-10.218,4.681c-3.065,2.02-5.172,4.114-8.014,5.881-.045-.274-.1-.547-.135-.822q-.427-2.484-.712-4.993c9.121-1.933,16.937-9.064,16.937-9.064-6.406.354-16.3,8.513-16.94,9.045-.144-1.256-.267-2.515-.343-3.777,8.637-3.458,15.11-11.769,15.11-11.769-6.1,1.4-14.222,10.67-15.115,11.707q-.088-1.487-.1-2.974a3.521,3.521,0,0,0-.045-.669c6.094-3.962,9.794-11.313,9.794-11.313-4.459,1.993-9.266,10.316-9.8,11.264-.042-.191-.1-.245-.162-.184.047-.954.513-12.3-3.7-17.995a33.311,33.311,0,0,0,3.672,18.018,2.246,2.246,0,0,0-.144.873c-.007.387,0,.773.006,1.161-.649-2.11-3.849-11.732-9.266-15.449a33.309,33.309,0,0,0,9.268,15.749c.012.868.037,1.736.081,2.6-.793-1.008-7.736-9.626-14.529-11.156a33.3,33.3,0,0,0,14.533,11.225q.084,1.6.24,3.2c-1.611-.872-13.511-7.153-20.335-6.21,0,0,9.993,6.085,20.345,6.306q.157,1.583.373,3.158c-1.907-.477-13.32-3.176-18.943-.9,0,0,9.944,3.061,18.96,1.024.056.4.1.808.164,1.209.181,1.506.481,2.99.766,4.478-2.235-.568-14.848-3.587-21.094-1.085,0,0,11.061,3.46,21.124,1.243.08.42.16.841.234,1.262.329,1.631.727,3.247,1.109,4.867-1.587-.286-15.066-2.589-21.311.479,0,0,11.421,2.646,21.327-.408.071.3.144.6.213.9.413,1.618.868,3.225,1.344,4.825-2.609-.278-15.17-1.41-20.905,1.88,0,0,15.756,1.514,21-1.572q1.16,3.862,2.542,7.652a62.217,62.217,0,0,0-10.646-1.918c-3.8-.106-6.8.45-10.3.208,0,0,6.977,3.193,11.82,2.637,4.057-.465,7.995-.726,9.171-.8q1.01,2.783,2.118,5.528a56.658,56.658,0,0,0-9.792-1.041c-3.449.153-8.118.935-11.3.946,0,0,8.514,2.35,12.861,1.529,3.668-.693,7.241-1.19,8.27-1.329.548,1.356,1.105,2.709,1.683,4.052.234.531.475,1.058.713,1.587-2.406-.243-15.766-1.408-21.778,2.1,0,0,16.617,1.467,21.878-1.882q1.451,3.208,3.018,6.36c-3.085-.183-15.712-.684-21.377,2.9,0,0,16.189.847,21.574-2.513q1.672,3.337,3.471,6.605a55.03,55.03,0,0,0-9.585.189c-3.426.58-7.993,1.937-11.168,2.342,0,0,8.8,1.295,13.036-.063,3.3-1.058,6.544-1.938,7.821-2.277a215.533,215.533,0,0,0,16.715,25.716c.739,1.023,1.077.864.326-.238a246.639,246.639,0,0,1-17.228-27.933c.978-.381,8.945-3.585,12.414-8C449.5,242.644,453.319,238.321,453.319,238.321Z" transform="translate(-372.316 -177.304)" fill="url(#linear-gradient-14)"/>
    </g>
    <g id="Group_4221" data-name="Group 4221" transform="translate(313.703 261.108)">
      <g id="Group_4208" data-name="Group 4208" transform="translate(20.98 0)">
        <path id="Path_26131" data-name="Path 26131" d="M360.4,347.319H500.99l-33.376-17.868,33.376-19.216H360.4a18.542,18.542,0,0,0-18.543,18.542h0A18.543,18.543,0,0,0,360.4,347.319Z" transform="translate(-341.862 -310.235)" fill="url(#linear-gradient-15)"/>
        <path id="Path_26132" data-name="Path 26132" d="M347.96,329.769a13.42,13.42,0,0,0,.122,1.82c.04.338.094.674.148,1.012a14.017,14.017,0,0,0,2.063,4.976,8.74,8.74,0,0,0,.729,1.011,12.232,12.232,0,0,0,1.119,1.267,14.156,14.156,0,0,0,10.087,4.181H494.492V315.5H362.228a14.171,14.171,0,0,0-10.007,4.1,10.831,10.831,0,0,0-.93,1.011,14.187,14.187,0,0,0-2.711,4.976c-.108.337-.188.674-.269,1.011A14.47,14.47,0,0,0,347.96,329.769Z" transform="translate(-343.011 -311.227)" fill="#f8f7f6"/>
        <g id="Group_4207" data-name="Group 4207" transform="translate(5.071 8.374)">
          <g id="Group_4203" data-name="Group 4203" transform="translate(3.209)">
            <g id="Group_4202" data-name="Group 4202">
              <path id="Path_26133" data-name="Path 26133" d="M352.064,321.564h143.2v-1.011H352.994A10.831,10.831,0,0,0,352.064,321.564Z" transform="translate(-352.064 -320.553)" fill="#dae3ef"/>
            </g>
          </g>
          <g id="Group_4204" data-name="Group 4204" transform="translate(0.229 5.987)">
            <path id="Path_26134" data-name="Path 26134" d="M348.392,328.941H494.573V327.93H348.661C348.553,328.267,348.473,328.6,348.392,328.941Z" transform="translate(-348.392 -327.93)" fill="#dae3ef"/>
          </g>
          <g id="Group_4205" data-name="Group 4205" transform="translate(0 11.988)">
            <path id="Path_26135" data-name="Path 26135" d="M348.11,335.323c.04.338.094.674.148,1.012H494.52v-1.012Z" transform="translate(-348.11 -335.323)" fill="#dae3ef"/>
          </g>
          <g id="Group_4206" data-name="Group 4206" transform="translate(2.211 17.976)">
            <path id="Path_26136" data-name="Path 26136" d="M350.834,342.7a8.74,8.74,0,0,0,.729,1.011h143.47V342.7Z" transform="translate(-350.834 -342.701)" fill="#dae3ef"/>
          </g>
        </g>
        <path id="Path_26137" data-name="Path 26137" d="M366.162,332.212l3.708-3.484,3.315,3.484v-10.9h-7.024Z" transform="translate(-346.439 -312.321)" fill="url(#linear-gradient-16)"/>
      </g>
      <g id="Group_4214" data-name="Group 4214" transform="translate(0 36.41)">
        <path id="Path_26138" data-name="Path 26138" d="M334.556,392.18H475.141l-33.376-17.868L475.141,355.1H334.556a18.543,18.543,0,0,0-18.543,18.543h0A18.543,18.543,0,0,0,334.556,392.18Z" transform="translate(-316.013 -355.095)" fill="url(#linear-gradient-4)"/>
        <path id="Path_26139" data-name="Path 26139" d="M322.111,374.63a13.415,13.415,0,0,0,.122,1.82c.041.338.094.674.149,1.012a13.992,13.992,0,0,0,2.063,4.975,8.616,8.616,0,0,0,.728,1.012,12.242,12.242,0,0,0,1.119,1.267,14.156,14.156,0,0,0,10.087,4.181H468.643V360.362H336.379a14.172,14.172,0,0,0-10.006,4.1,10.74,10.74,0,0,0-.931,1.011,14.178,14.178,0,0,0-2.71,4.976c-.108.337-.189.674-.27,1.011A14.459,14.459,0,0,0,322.111,374.63Z" transform="translate(-317.162 -356.087)" fill="#f8f7f6"/>
        <g id="Group_4213" data-name="Group 4213" transform="translate(5.071 8.375)">
          <g id="Group_4209" data-name="Group 4209" transform="translate(3.209)">
            <path id="Path_26140" data-name="Path 26140" d="M326.215,366.425h143.2v-1.011H327.146A10.74,10.74,0,0,0,326.215,366.425Z" transform="translate(-326.215 -365.414)" fill="#dae3ef"/>
          </g>
          <g id="Group_4210" data-name="Group 4210" transform="translate(0.229 5.987)">
            <path id="Path_26141" data-name="Path 26141" d="M322.543,373.8H468.724v-1.011H322.813C322.705,373.128,322.624,373.465,322.543,373.8Z" transform="translate(-322.543 -372.791)" fill="#dae3ef"/>
          </g>
          <g id="Group_4211" data-name="Group 4211" transform="translate(0 11.988)">
            <path id="Path_26142" data-name="Path 26142" d="M322.261,380.184c.041.338.094.674.149,1.012H468.671v-1.012Z" transform="translate(-322.261 -380.184)" fill="#dae3ef"/>
          </g>
          <g id="Group_4212" data-name="Group 4212" transform="translate(2.212 17.975)">
            <path id="Path_26143" data-name="Path 26143" d="M324.986,387.561a8.616,8.616,0,0,0,.728,1.012h143.47v-1.012Z" transform="translate(-324.986 -387.561)" fill="#dae3ef"/>
          </g>
        </g>
        <path id="Path_26144" data-name="Path 26144" d="M340.313,377.073l3.708-3.484,3.315,3.484v-10.9h-7.024Z" transform="translate(-320.59 -357.182)" fill="url(#linear-gradient-4)"/>
      </g>
      <g id="Group_4220" data-name="Group 4220" transform="translate(35.036 72.483)">
        <path id="Path_26145" data-name="Path 26145" d="M377.724,436.626H518.308l-33.376-17.868,33.376-19.217H377.724a18.542,18.542,0,0,0-18.543,18.542h0A18.543,18.543,0,0,0,377.724,436.626Z" transform="translate(-359.181 -399.541)" fill="url(#linear-gradient-19)"/>
        <path id="Path_26146" data-name="Path 26146" d="M365.279,419.076a13.424,13.424,0,0,0,.122,1.82c.04.337.094.674.148,1.011a14.006,14.006,0,0,0,2.064,4.976,8.575,8.575,0,0,0,.728,1.011,12.244,12.244,0,0,0,1.119,1.268,14.159,14.159,0,0,0,10.087,4.181H511.811V404.808H379.547a14.173,14.173,0,0,0-10.007,4.1,10.939,10.939,0,0,0-.93,1.011,14.2,14.2,0,0,0-2.711,4.976c-.108.338-.188.674-.269,1.011A14.47,14.47,0,0,0,365.279,419.076Z" transform="translate(-360.33 -400.533)" fill="#f8f7f6"/>
        <g id="Group_4219" data-name="Group 4219" transform="translate(5.071 8.374)">
          <g id="Group_4215" data-name="Group 4215" transform="translate(3.209)">
            <path id="Path_26147" data-name="Path 26147" d="M369.383,410.87h143.2v-1.011H370.313A10.939,10.939,0,0,0,369.383,410.87Z" transform="translate(-369.383 -409.859)" fill="#dae3ef"/>
          </g>
          <g id="Group_4216" data-name="Group 4216" transform="translate(0.229 5.987)">
            <path id="Path_26148" data-name="Path 26148" d="M365.711,418.247H511.892v-1.011H365.98C365.872,417.574,365.792,417.91,365.711,418.247Z" transform="translate(-365.711 -417.236)" fill="#dae3ef"/>
          </g>
          <g id="Group_4217" data-name="Group 4217" transform="translate(0 11.989)">
            <path id="Path_26149" data-name="Path 26149" d="M365.429,424.63c.04.337.094.674.148,1.011H511.839V424.63Z" transform="translate(-365.429 -424.63)" fill="#dae3ef"/>
          </g>
          <g id="Group_4218" data-name="Group 4218" transform="translate(2.212 17.976)">
            <path id="Path_26150" data-name="Path 26150" d="M368.154,432.007a8.575,8.575,0,0,0,.728,1.011h143.47v-1.011Z" transform="translate(-368.154 -432.007)" fill="#dae3ef"/>
          </g>
        </g>
        <path id="Path_26151" data-name="Path 26151" d="M383.481,421.518l3.709-3.484,3.315,3.484v-10.9h-7.024Z" transform="translate(-363.758 -401.628)" fill="url(#linear-gradient-19)"/>
      </g>
    </g>
    <g id="Group_4231" data-name="Group 4231" transform="translate(404.204 153.802)">
      <g id="Group_4229" data-name="Group 4229">
        <g id="Group_4228" data-name="Group 4228">
          <g id="Group_4227" data-name="Group 4227">
            <g id="Group_4226" data-name="Group 4226">
              <g id="Group_4225" data-name="Group 4225">
                <g id="Group_4224" data-name="Group 4224">
                  <g id="Group_4223" data-name="Group 4223">
                    <g id="Group_4222" data-name="Group 4222">
                      <path id="Path_26152" data-name="Path 26152" d="M531.679,178.024H437.555a10.066,10.066,0,0,0-10.037,10.037V382.675A12.323,12.323,0,0,0,439.841,395h89.538a12.367,12.367,0,0,0,12.33-12.33V188.053A10.029,10.029,0,0,0,531.679,178.024Z" transform="translate(-427.518 -178.024)" fill="#253e8e"/>
                      <path id="Path_26153" data-name="Path 26153" d="M531.987,183.622h-92.8a6.538,6.538,0,0,0-6.518,6.519v193.6a6.507,6.507,0,0,0,6.507,6.508h92.813a6.527,6.527,0,0,0,6.508-6.508V190.13A6.508,6.508,0,0,0,531.987,183.622Z" transform="translate(-428.488 -179.078)" fill="#f9fbfc"/>
                      <path id="Path_26154" data-name="Path 26154" d="M538.495,189.649v8.645H432.667v-8.634a6.056,6.056,0,0,1,6.038-6.039h93.763A6.027,6.027,0,0,1,538.495,189.649Z" transform="translate(-428.488 -179.078)" fill="url(#linear-gradient-5)"/>
                      <path id="Path_26155" data-name="Path 26155" d="M498.962,188.674H487.876a.86.86,0,1,0,0,1.721h11.086a.86.86,0,0,0,0-1.721Zm4.693-.117a.975.975,0,1,0,.972.977A.973.973,0,0,0,503.655,188.557Z" transform="translate(-438.726 -180.008)" fill="#f9fbfc"/>
                    </g>
                  </g>
                </g>
              </g>
            </g>
          </g>
        </g>
      </g>
      <path id="Path_26156" data-name="Path 26156" d="M459.957,251.739a.718.718,0,0,0-.543.122l-5.814,4.1-1.953-2.681a.725.725,0,0,0-1.015-.16.727.727,0,0,0-.16,1.015l2.8,3.837,6.982-4.918a.727.727,0,0,0-.294-1.31Z" transform="translate(-431.816 -191.908)" fill="#122960"/>
      <path id="Path_26157" data-name="Path 26157" d="M488.738,301.831a.72.72,0,0,0-.543.122l-5.814,4.1-1.953-2.681a.726.726,0,0,0-1.015-.16.727.727,0,0,0-.16,1.015l2.8,3.838,6.982-4.919a.727.727,0,0,0-.293-1.31Z" transform="translate(-437.237 -201.343)" fill="#122960"/>
      <path id="Path_26158" data-name="Path 26158" d="M488.738,402.016a.713.713,0,0,0-.543.122l-5.814,4.095-1.953-2.68a.725.725,0,0,0-1.015-.161.728.728,0,0,0-.16,1.015l2.8,3.837,6.982-4.918a.726.726,0,0,0-.293-1.31Z" transform="translate(-437.237 -220.215)" fill="#122960"/>
      <g id="Group_4230" data-name="Group 4230" transform="translate(15.962 36.897)">
        <path id="Path_26159" data-name="Path 26159" d="M447.492,378.789h14.481v-14.48H447.492Zm1.663-12.818H460.31v11.155H449.155Zm21.37-46.325v14.48h14.48v-14.48Zm12.817,12.818H472.187V321.309h11.155Zm-35.851-12.818v14.48h14.481v-14.48Zm12.819,12.818H449.155V321.309H460.31Zm10.214,46.325h14.48v-14.48h-14.48Zm1.662-12.818h11.155v11.155H472.187Zm44.4,12.818h14.481v-14.48H516.59Zm1.663-12.818h11.155v11.155H518.253Zm-24.7,12.818h14.48v-14.48h-14.48Zm1.663-12.818h11.155v11.155H495.22Zm-48.036-17.714h84.195v-2.8H447.184Zm0,8.012h84.195v-2.8H447.184ZM516.59,242.339v14.48h14.481v-14.48Zm12.818,12.817H518.253V244h11.155Zm-58.883-12.817v14.48h14.48v-14.48Zm12.817,12.817H472.187V244h11.155Zm-35.851-12.817v14.48h14.481v-14.48Zm12.819,12.817H449.155V244H460.31Zm-13.126,11.788h84.195v-2.8H447.184Zm0,8.011h84.195v-2.8H447.184Zm46.373-32.616v14.48h14.48v-14.48Zm12.818,12.817H495.22V244h11.155Zm-59.191-31.672v2.8h84.195v-2.8Zm0,10.815h84.195v-2.8H447.184ZM516.59,283v14.48h14.481V283Zm12.818,12.818H518.253V284.658h11.155Zm-82.224,15.793h84.195v-2.8H447.184Zm69.406,8.04v14.48h14.481v-14.48Zm12.818,12.818H518.253V321.309h11.155ZM447.492,283v14.48h14.481V283Zm12.819,12.818H449.155V284.658H460.31ZM493.557,283v14.48h14.48V283Zm12.818,12.818H495.22V284.658h11.155Zm-12.818,23.833v14.48h14.48v-14.48Zm12.818,12.818H495.22V321.309h11.155ZM470.525,283v14.48h14.48V283Zm12.817,12.818H472.187V284.658h11.155Z" transform="translate(-447.184 -223.484)" fill="#dae3ef"/>
        <path id="Path_26160" data-name="Path 26160" d="M545.2,346.988a.721.721,0,0,0-.543.122l-5.814,4.1-1.952-2.681a.726.726,0,0,0-1.015-.16.727.727,0,0,0-.16,1.015l2.8,3.838L545.5,348.3a.727.727,0,0,0-.294-1.31Z" transform="translate(-463.835 -246.746)" fill="#122960"/>
      </g>
    </g>
    <g id="Group_4244" data-name="Group 4244" transform="translate(314.407 190.427)">
      <g id="Group_4243" data-name="Group 4243">
        <g id="Group_4242" data-name="Group 4242">
          <path id="Path_26161" data-name="Path 26161" d="M331.137,379.663c-8.676-3.451-5.626,39.349-2.909,48.284s4.076-7.525,4.987-22.752S334.55,381.02,331.137,379.663Z" transform="translate(-318.487 -252.594)" fill="#f2bc97"/>
          <path id="Path_26162" data-name="Path 26162" d="M332.112,436.188l.123-3.05-4.607-.316.06,3.432" transform="translate(-318.905 -262.645)" fill="#f2bc97"/>
          <path id="Path_26163" data-name="Path 26163" d="M348.451,378.745c-8.969-2.188-2.17,39.908,1.451,48.389s3.924-8.1,3.254-23.341S351.979,379.605,348.451,378.745Z" transform="translate(-321.991 -252.443)" fill="#f2bc97"/>
          <path id="Path_26164" data-name="Path 26164" d="M354.554,436.3l-.089-2.469-4.984.105.467,2.107Z" transform="translate(-323.021 -262.834)" fill="#f2bc97"/>
          <path id="Path_26165" data-name="Path 26165" d="M332.247,332a5.9,5.9,0,0,0-7.113,4.586,85.893,85.893,0,0,0-1.46,13.811c-.137,11.485-.865,22.109,3.114,24.359s9.365-3.866,10.8-15.065c1.295-10.124,4.377-22.6,1.777-24.811C338.046,333.756,334.966,332.733,332.247,332Z" transform="translate(-318.133 -243.618)" fill="#f2bc97"/>
          <path id="Path_26166" data-name="Path 26166" d="M342.274,332.742c-3.1-.185-5.828,2.553-5.947,5.926a87.743,87.743,0,0,0,1.053,13.767c1.9,11.228,3.083,21.736,7.262,23.118s8.213-5.684,7.6-16.9c-.558-10.136.166-22.931-2.695-24.558C348.094,333.271,344.987,332.9,342.274,332.742Z" transform="translate(-320.541 -243.791)" fill="#f2bc97"/>
          <g id="Group_4232" data-name="Group 4232" transform="translate(12.946 33.095)">
            <path id="Path_26167" data-name="Path 26167" d="M333,266.033a4.193,4.193,0,0,0,1.29,4.283c5.306,4.886,23.357,20.971,27.253,17.324,4.579-4.287-12.286-17.6-17.659-20.843C339.408,264.1,334.177,262.332,333,266.033Z" transform="translate(-332.831 -263.925)" fill="#f2bc97"/>
            <path id="Path_26168" data-name="Path 26168" d="M364.753,289.165a4.132,4.132,0,0,1,3.4-1.769c6.664-.148,30.809-.5,32.027,2.158,1.414,3.083-33.378,5.184-34.448,3.735C364.9,292.162,363.563,290.982,364.753,289.165Z" transform="translate(-338.755 -268.327)" fill="#f2bc97"/>
            <path id="Path_26169" data-name="Path 26169" d="M388.385,288.972s-3.665.265-8.257.549c-6.884.416-15.851.861-17.688.5-2.652-.52-8.389-3.551-11.4-5.246-1.079-.606-1.771-1.023-1.771-1.023l-1.686-9.156-1.894-10.33s18.133,16.4,19.534,16.552,22.905,1.543,22.905,1.543l.246,6.382Z" transform="translate(-335.253 -263.99)" fill="url(#linear-gradient-19)"/>
            <path id="Path_26170" data-name="Path 26170" d="M388.824,290.591s-3.664.265-8.257.549c-6.884.416-15.851.861-17.688.5-2.652-.52-8.389-3.551-11.4-5.246-1.079-.606-1.771-1.023-1.771-1.023l-1.686-9.156,2.755-3.352a65.94,65.94,0,0,1,2.869,8.645c.805,3.617,3.4,7.348,9.147,8.4,5.17.947,22.621.54,26.02.455Z" transform="translate(-335.692 -265.61)" fill="#e9e5d9" style="mix-blend-mode: multiply;isolation: isolate"/>
          </g>
          <g id="Group_4234" data-name="Group 4234" transform="translate(9.858 8.929)">
            <g id="Group_4233" data-name="Group 4233">
              <path id="Path_26171" data-name="Path 26171" d="M345.1,251.494a6.2,6.2,0,0,1-6.663.377l-.011-.011-.2,1.9-.388,3.692-8.8-3.455.947-7.265-.108-.14h.108s2.443-5.941.4-9.17c-1.453-2.293,3.67-1.163,4.736-1.518s1.3-.022,2.432-1.6c.689-.958,1.8,2.906,2.562,1.227,1.054-2.282,5.586.107,5.586.107l2.153-.2c-.011.011-.075.668-.1.679C347.743,236.113,348.787,249.115,345.1,251.494Z" transform="translate(-329.026 -234.15)" fill="#f2bc97"/>
            </g>
          </g>
          <path id="Path_26172" data-name="Path 26172" d="M339.816,255.36l-.2,1.9c-1.593-1.205-3.089-4.315-3.186-4.531A11.826,11.826,0,0,0,339.816,255.36Z" transform="translate(-320.562 -228.722)" fill="#ceb38d"/>
          <path id="Path_26173" data-name="Path 26173" d="M328.67,232.657q.149-.928.351-1.846c.485-2.2,1.453-4.625,3.574-5.378,1.7-.6,3.542.081,5.315.4a13.1,13.1,0,0,0,8.362-1.293,8.6,8.6,0,0,1,3.4-1.389,4.456,4.456,0,0,1,3.91,2.623,6.905,6.905,0,0,1-.7,7.28,7.026,7.026,0,0,1-6.888,2.406,20.3,20.3,0,0,0-5.384-.675,3.752,3.752,0,0,0-2.552.911,5.215,5.215,0,0,0-1.061,2.4c-.2.787-.295,2.072-.989,2.615s-.889-.748-.941-1.167c-.106-.847-.193-1.7-.274-2.549-.044-.458,0-1.557-.537-1.786a.521.521,0,0,0-.26-.02,2.669,2.669,0,0,0-1.865,1.415c-.93,1.652.131,3.539.129,5.265,0,1.189-.275,3.566-1.9,3.6-.769.013-1.025-1.085-1.171-1.657-.258-1.01-.591-2.008-.794-3.031a15.5,15.5,0,0,1-.136-3.135A32.867,32.867,0,0,1,328.67,232.657Z" transform="translate(-319.02 -223.149)" fill="#253e8e"/>
          <path id="Path_26174" data-name="Path 26174" d="M336.518,346.866c.861,5.479,1.764,11.248,2.658,17,1.174,7.632,1.227,14.67,2.25,21.473,2.12,14.229,4.768,25.5,4.768,25.5l3.423-.1,1.7-.054s-.172-48.134.054-52.708-.452-47.919-.452-47.919-17.964-7.879-18.62,3.477C332.062,317.634,334.064,331.077,336.518,346.866Z" transform="translate(-319.781 -239.018)" fill="#253e8e"/>
          <path id="Path_26175" data-name="Path 26175" d="M337.5,352.786c.861,5.479,1.764,11.248,2.658,17,1.174,7.632,1.227,14.67,2.25,21.473,2.12,14.229,4.768,25.5,4.768,25.5l3.423-.1c-3.972-2.562-4.337-10.8-5.812-19.858-1.615-9.891-1.615-18.6-2.174-22.248s-.7-7.373.28-18.954-.139-16.776-.139-16.776Z" transform="translate(-320.765 -244.938)" fill="#a4b6c5" opacity="0.5" style="mix-blend-mode: multiply;isolation: isolate"/>
          <path id="Path_26176" data-name="Path 26176" d="M323.089,359.614c.065,1.033-.312,8.944,0,19.686a300.805,300.805,0,0,0,2.9,30.913h5.371s4.886-44.227,5.4-48.844c.485-4.457,3.595-27.189,3.885-44.485s-19.2,2.573-19.2,2.573.011.193.021.559C321.636,324.493,322.819,354.437,323.089,359.614Z" transform="translate(-317.739 -239.474)" fill="#253e8e"/>
          <path id="Path_26177" data-name="Path 26177" d="M323.094,381.668a300.805,300.805,0,0,0,2.9,30.913h1.5c-2.648-8-2.982-41.224-2.841-49.339.14-8.352-1.26-25.445-.56-28.566s5.619-.356,5.715-.248l-4.521-11.054-3.811-.99c.173,4.478,1.356,34.421,1.626,39.6C323.159,363.015,322.781,370.926,323.094,381.668Z" transform="translate(-317.744 -241.842)" fill="#a4b6c5" opacity="0.5" style="mix-blend-mode: multiply;isolation: isolate"/>
          <g id="Group_4236" data-name="Group 4236" transform="translate(0 26.884)">
            <g id="Group_4235" data-name="Group 4235">
              <path id="Path_26178" data-name="Path 26178" d="M348.376,309.337l-2.229.4c-.4-4.228-1.206-11.52-2.915-23.709-2.633-18.848-14.531-25.8-18.293-27.585a14.935,14.935,0,0,1,3.488-2.175A15.59,15.59,0,0,0,337.4,259.9v.035a13.515,13.515,0,0,1,1.329.687c.811,2.008,3.99,10.049,4.836,14.286C345.257,283.479,347.372,300.75,348.376,309.337Z" transform="translate(-318.398 -256.273)" fill="#fff"/>
              <path id="Path_26179" data-name="Path 26179" d="M354.253,302.227c0,5.1-.343,9.2-2.139,12.832-.37-3.346-3.2-28.263-5.346-39.139-.846-4.237-4.025-12.278-4.836-14.285a19.925,19.925,0,0,1,6.6,6.138C351.717,272.616,354.253,294.089,354.253,302.227Z" transform="translate(-321.599 -257.283)" fill="url(#linear-gradient-19)"/>
              <path id="Path_26180" data-name="Path 26180" d="M345.323,317.362a22.871,22.871,0,0,1-2.938,2.906c-6.286,5.177-24.218,4.294-25.219,3.2s3.423-9.245,3.315-17.06a126.752,126.752,0,0,0-1.238-13.1c-.764-5.9-1.7-12.755-2.292-20.483-.086-1.183.039-2.266.011-3.261-.248-8.529,5.732-10.762,8.229-12.688,3.767,1.786,13.9,10.428,16.526,29.275,1.055,7.491,1.808,13.54,2.346,18.254.022.194.043.388.065.581C344.946,312.2,345.248,316.178,345.323,317.362Z" transform="translate(-316.888 -256.386)" fill="url(#linear-gradient-19)"/>
              <path id="Path_26181" data-name="Path 26181" d="M332.039,275.075s2.47,18.395,4.856,19.9,9.442,5.16,9.442,5.16l-15.162-2Z" transform="translate(-319.573 -259.815)" fill="#e9e5d9" style="mix-blend-mode: multiply;isolation: isolate"/>
              <path id="Path_26182" data-name="Path 26182" d="M345.369,307.94s-.463,0-1.248-.011c-4.026-.021-16.565-.269-20.031-2.443-1.84-1.152-3.53-5.155-4.854-9.235-.764-5.9-1.7-12.755-2.292-20.483a19.34,19.34,0,0,1,.011-3.261l7,25.811,20.106,9.03Z" transform="translate(-316.88 -259.331)" fill="#e9e5d9" style="mix-blend-mode: multiply;isolation: isolate"/>
            </g>
          </g>
          <g id="Group_4240" data-name="Group 4240" transform="translate(8.007 12.454)">
            <g id="Group_4237" data-name="Group 4237" transform="translate(0 7.081)">
              <path id="Path_26183" data-name="Path 26183" d="M426.246,247.218l-98.06,61.561a3.076,3.076,0,0,0-.97,4.241l.328.523,100.665-63.2Z" transform="translate(-326.745 -247.218)" fill="#2f4b9b"/>
              <path id="Path_26184" data-name="Path 26184" d="M431.587,256.156l-100.665,63.2.33.526a3.077,3.077,0,0,0,4.242.97l98.059-61.56Z" transform="translate(-327.532 -248.902)" fill="#1e397c"/>
              <rect id="Rectangle_1363" data-name="Rectangle 1363" width="118.857" height="4.872" transform="translate(0.799 66.324) rotate(-32.12)" fill="url(#linear-gradient-25)"/>
            </g>
            <g id="Group_4238" data-name="Group 4238" transform="translate(99.501)">
              <path id="Path_26185" data-name="Path 26185" d="M449.339,245.575,451.3,248.7l15.768-7.777L472,238.5l-5.4,1.684Z" transform="translate(-449.339 -238.494)" fill="#e6d5b9"/>
              <path id="Path_26186" data-name="Path 26186" d="M473.055,238.5l-4.311,3.414L454.95,252.83l1.966,3.132,12.3-13.305Z" transform="translate(-450.396 -238.494)" fill="#d5bb95"/>
              <path id="Path_26187" data-name="Path 26187" d="M451.758,248.7,472.453,238.5l0,0,0,0-18.1,14.334Z" transform="translate(-449.795 -238.493)" fill="#f2bc97"/>
            </g>
            <path id="Path_26188" data-name="Path 26188" d="M342.558,311.95l-14.372,9.022a3.076,3.076,0,0,0-.97,4.241l3.249,5.175a3.077,3.077,0,0,0,4.242.97l14.372-9.022Z" transform="translate(-326.745 -252.33)" fill="#babcbe"/>
            <g id="Group_4239" data-name="Group 4239" transform="translate(0 64.196)">
              <path id="Path_26189" data-name="Path 26189" d="M335.268,317.588l-7.081,4.446a3.076,3.076,0,0,0-.97,4.241l.328.523,9.688-6.082Z" transform="translate(-326.745 -317.588)" fill="#7a76fd"/>
              <path id="Path_26190" data-name="Path 26190" d="M340.609,326.526l-9.687,6.082.33.526a3.077,3.077,0,0,0,4.242.97l7.081-4.445Z" transform="translate(-327.532 -319.272)" fill="#7a76fd"/>
              <rect id="Rectangle_1364" data-name="Rectangle 1364" width="11.438" height="4.872" transform="matrix(0.847, -0.532, 0.532, 0.847, 0.799, 9.209)" fill="#8888fc"/>
            </g>
            <path id="Path_26191" data-name="Path 26191" d="M470.607,240.179l1.555,2.477L476,238.5Z" transform="translate(-353.845 -238.494)" fill="#7a5e43"/>
          </g>
          <g id="Group_4241" data-name="Group 4241" transform="translate(1.944 33.569)">
            <path id="Path_26192" data-name="Path 26192" d="M321.3,264.918a4.191,4.191,0,0,0-2.014,3.994c.484,7.2,2.5,31.291,7.835,31.328,6.273.045,3.212-21.226,1.545-27.273C327.277,267.927,324.7,263.044,321.3,264.918Z" transform="translate(-319.275 -264.508)" fill="#f2bc97"/>
            <path id="Path_26193" data-name="Path 26193" d="M327.79,302.179a4.133,4.133,0,0,1,3.758-.76c6.444,1.7,29.742,8.047,30.178,10.936.506,3.353-33.508-4.255-34.136-5.943C327.1,305.1,326.144,303.6,327.79,302.179Z" transform="translate(-320.705 -271.432)" fill="#f2bc97"/>
            <path id="Path_26194" data-name="Path 26194" d="M368.663,316.413a3.5,3.5,0,0,0,3.311-4.249c-.188-.257-1.982,1.658-2.964.567-.213-.237,1.019-.127,1.065-.926.06-1.032-1.343-.683-3.1-.7s-3.671.032-3.724,1.805C363.148,316.523,368.635,316.4,368.663,316.413Z" transform="translate(-327.559 -273.278)" fill="#f2bc97"/>
            <path id="Path_26195" data-name="Path 26195" d="M407.918,289.975s-3.569-1.026-5.573.831-.391,3.423.587,2.982S407.087,292.518,407.918,289.975Z" transform="translate(-334.743 -269.252)" fill="#f2bc97"/>
          </g>
          <path id="Path_26196" data-name="Path 26196" d="M318.35,264.734a5.01,5.01,0,0,1,6.149-.883c1.807,1.073,3.863,3.514,4.853,8.982,1.982,10.936,1.688,19.67,2.349,20.257s22.232,8.193,22.232,8.193l-1.315,5.642s-26.275-1.5-29.284-6.422-5.211-16.88-5.945-24.44C316.834,270.351,316.363,266.86,318.35,264.734Z" transform="translate(-316.885 -230.688)" fill="url(#linear-gradient-19)"/>
          <path id="Path_26197" data-name="Path 26197" d="M354.226,327.964" transform="translate(-323.915 -242.893)" fill="none" stroke="#bb4972" stroke-miterlimit="10" stroke-width="6.573"/>
          <path id="Path_26198" data-name="Path 26198" d="M354.663,436.809a24.975,24.975,0,0,0,4.52,4.307c3.149,2.441,3.984,1.928,4.048,2.828s-13.174,0-13.174,0v-7.391A36.978,36.978,0,0,1,354.663,436.809Z" transform="translate(-323.13 -263.348)" fill="#253e8e"/>
          <path id="Path_26199" data-name="Path 26199" d="M327.1,437.021a9.168,9.168,0,0,1-1.038,4.68c-1.724,2.962-1.729,2.361-1.328,3.441s7.417.165,7.417.165l-.627-8.352S327.005,436.791,327.1,437.021Z" transform="translate(-318.319 -263.413)" fill="#253e8e"/>
          <path id="Path_26200" data-name="Path 26200" d="M353.968,321.468l-.8.15-2.228.405-.564.106" transform="translate(-323.189 -241.669)" fill="none"/>
        </g>
      </g>
    </g>
    <g id="Group_4250" data-name="Group 4250" transform="translate(537.462 195.53)">
      <path id="Path_26201" data-name="Path 26201" d="M657.389,312.383l-22.715-.945-1-38.863,1.569-9.759,10.493-3.858,5.43,1.909a8.637,8.637,0,0,1,6.791,8.438l-1.49,26.513Z" transform="translate(-599.61 -234.998)" fill="#f2bc97"/>
      <path id="Path_26202" data-name="Path 26202" d="M649.788,253.06v7.809s-1.65.986-5.512.986c-2.082,0-2.549-.986-2.549-.986v-2.887Z" transform="translate(-601.126 -233.887)" fill="#f2bc97"/>
      <g id="Group_4245" data-name="Group 4245" transform="translate(29.357 39.639)">
        <path id="Path_26203" data-name="Path 26203" d="M632.289,284.3c1.01-2.11,16.816,4.741,21.2,6.839s8.858,4.637,7.726,7-5.915.475-10.3-1.623S631.279,286.415,632.289,284.3Z" transform="translate(-628.696 -279.336)" fill="#f2bc97"/>
        <path id="Path_26204" data-name="Path 26204" d="M635.535,285.064a2.125,2.125,0,0,1-2.455,1.154,9.913,9.913,0,0,1-3.041-1.013c-.822-.4-2.35-.9-2.147-2.049a4.532,4.532,0,0,1,1.039-2.067,1.792,1.792,0,0,1,.963-.62c.562-.1,1.085.356,1.6.506.054.015.125.025.158-.021a.122.122,0,0,0,.008-.1.774.774,0,0,0-.324-.377c-.563-.415-1.623-.766-1.79-1.536-.3-1.363,2.008-.238,2.4-.024a8.9,8.9,0,0,1,2.791,2.187C635.785,282.465,636.165,283.451,635.535,285.064Z" transform="translate(-627.873 -278.276)" fill="#f2bc97"/>
      </g>
      <path id="Path_26205" data-name="Path 26205" d="M649.053,243.21c-.019.282-.028.548-.046.8,0,.092.01.183.01.283.192,4.635-2.784,9.6-7.264,10.274a.925.925,0,0,1-.1.019c-.036,0-.091.009-.155.009-.958.118-4.426.4-5.694-.994a11.8,11.8,0,0,1-2.811-6.711,26.363,26.363,0,0,1,.374-3.375c0-.648-.348-2.675-.355-3.555-.03-4.137,2.755-8.242,7.7-8.242C648.131,231.721,649.262,238.227,649.053,243.21Z" transform="translate(-599.481 -229.867)" fill="#f2bc97"/>
      <path id="Path_26206" data-name="Path 26206" d="M641.732,262.355" transform="translate(-601.127 -235.638)" fill="#6ebaad"/>
      <path id="Path_26207" data-name="Path 26207" d="M664.6,294.851c-2.557.651-7.713-13.851-9.444-20.167s-1.967-11.6,1.155-12.4,5.442,3.962,6.941,10.337S667.16,294.2,664.6,294.851Z" transform="translate(-603.419 -235.608)" fill="#f2bc97"/>
      <path id="Path_26208" data-name="Path 26208" d="M665.752,284.442s-1.646-23.452-9.951-22.935,2.841,25.033,2.841,25.033Z" transform="translate(-603.198 -235.477)" fill="url(#linear-gradient-27)"/>
      <path id="Path_26209" data-name="Path 26209" d="M657.256,290.69c.264-.443,8.774-2.255,9.365-1.721.295.265.219,1.57.219,1.57l-9.292,1.648S657.075,290.994,657.256,290.69Z" transform="translate(-604.043 -240.633)" fill="#f2869b"/>
      <path id="Path_26210" data-name="Path 26210" d="M637.345,319.033c2.333.744,3.914,4.714,3.453,8.607a63.844,63.844,0,0,1-2.64,11.857c-3.782,11.864-6.2,27.453-9.529,27.745s-5.177-9.029-2.9-21.659c2.062-11.416,3.6-26.265,5.991-27.243C632.936,317.844,635.3,318.382,637.345,319.033Z" transform="translate(-597.923 -246.147)" fill="#f2bc97"/>
      <g id="Group_4246" data-name="Group 4246" transform="translate(25.373 119.361)">
        <path id="Path_26211" data-name="Path 26211" d="M626.086,376.673c9.065-3.18,4.962,38.539,1.92,47.463s-4.186-6.361-4.733-21.762S622.519,377.924,626.086,376.673Z" transform="translate(-622.965 -376.5)" fill="#f2bc97"/>
      </g>
      <path id="Path_26212" data-name="Path 26212" d="M630,433.936l.636-4.933-6.753.154.075,4.975Z" transform="translate(-597.765 -267.029)" fill="#f2bc97"/>
      <path id="Path_26213" data-name="Path 26213" d="M658.386,322.485c2.3.793,3.686,4.786,3.032,8.659a64.749,64.749,0,0,1-3.233,11.77c-4.377,11.753-7.573,27.251-10.92,27.47s-4.736-9.118-1.825-21.667c2.631-11.343,4.911-26.121,7.353-27.045C654.03,321.2,656.374,321.792,658.386,322.485Z" transform="translate(-601.527 -246.78)" fill="#f2bc97"/>
      <g id="Group_4247" data-name="Group 4247" transform="translate(42.544 120.184)">
        <path id="Path_26214" data-name="Path 26214" d="M645.2,378.154c7.394-6.2,17.594,34.524,17.795,43.986s-5.879-4.565-11.649-18.841S642.291,380.593,645.2,378.154Z" transform="translate(-644.121 -377.514)" fill="#f2bc97"/>
      </g>
      <path id="Path_26215" data-name="Path 26215" d="M666.8,429.584l-1.164-5.43-6.289,2.161,1.68,5.085Z" transform="translate(-604.446 -266.116)" fill="#f2bc97"/>
      <path id="Path_26216" data-name="Path 26216" d="M621.882,434.85s-.609,1.768-4.289,4.07-4.647,1.8-4.73,2.662,15.3.153,15.3.153l-.24-7.082S621.883,434.665,621.882,434.85Z" transform="translate(-595.689 -268.094)" fill="#253e8e"/>
      <path id="Path_26217" data-name="Path 26217" d="M660.031,431.472a15.628,15.628,0,0,1-1.864,4.661c-1.453,2.68-3.435,2.828-3.038,3.5.381.644,12.647-3.709,12.647-3.709l-1.971-6.266S660.03,431.476,660.031,431.472Z" transform="translate(-603.641 -267.152)" fill="#253e8e"/>
      <path id="Path_26218" data-name="Path 26218" d="M662.885,404.761l-7.1,2.477s-13.048-28.273-13.663-40.074a85.416,85.416,0,0,1,.41-10.7c.6-6.974,1.688-15.3,2.667-22.151,1.12-7.747,2.1-13.616,2.1-13.616l13.915,1.436s3.061,4.67.127,17.623C658.4,352.728,653.162,366.4,653,367.013S659.177,382.39,662.885,404.761Z" transform="translate(-601.192 -246.628)" fill="#253e8e"/>
      <path id="Path_26219" data-name="Path 26219" d="M650.953,332.733a89.171,89.171,0,0,1-8.315,26c.6-6.974,1.688-15.3,2.667-22.151.252-.9.394-1.42.394-1.42Z" transform="translate(-601.298 -248.895)" fill="#0d2ea8" style="mix-blend-mode: multiply;isolation: isolate"/>
      <path id="Path_26220" data-name="Path 26220" d="M629.105,320.87s-7.3,26.053-7.607,43.853,1.544,44.451,1.544,44.451h7.619s3.166-31.534,1.232-43.21c0,0,16.153-24.7,16-45.076" transform="translate(-597.309 -246.66)" fill="#253e8e"/>
      <path id="Path_26221" data-name="Path 26221" d="M630.621,310.173s4.47-19.165,1-27.8c-.057-.142-.114-.284-.161-.426a16.059,16.059,0,0,1-.663-2.292,22.111,22.111,0,0,1,.028-7.669c.294-5.246,1.524-7.8,3.1-9.27s10.86-4.081,17.2-2.31c4.233,1.193,9.1,6.183,6.666,21.371a84.448,84.448,0,0,0-.956,16.911,58.962,58.962,0,0,0,2.187,11.978Z" transform="translate(-599.002 -235.159)" fill="url(#linear-gradient-28)"/>
      <path id="Path_26222" data-name="Path 26222" d="M612.779,289.382c-2.019-1.664,6.56-14.286,10.6-19.373s8.131-8.372,10.6-6.34.02,6.675-4.2,11.61S614.8,291.046,612.779,289.382Z" transform="translate(-595.616 -235.771)" fill="#f2bc97"/>
      <path id="Path_26223" data-name="Path 26223" d="M621.93,285.052s-5.633,7.569-10.1,7.6c-3.275.026-10.352-15.386-10.352-15.386l5.229-1.655s5.51,9,5.634,8.96S616,279.823,616,279.823Z" transform="translate(-593.544 -238.136)" fill="#f2bc97"/>
      <g id="Group_4249" data-name="Group 4249" transform="translate(0 20.18)">
        <g id="Group_4248" data-name="Group 4248" transform="translate(3.296 5.607)">
          <path id="Path_26224" data-name="Path 26224" d="M596.1,261.269c2.034-1.115,10.8,13.547,13.118,17.773s4.452,8.859,2.172,10.11-5.039-3.04-7.357-7.267S594.07,262.384,596.1,261.269Z" transform="translate(-595.764 -261.209)" fill="#f2bc97"/>
        </g>
        <path id="Path_26225" data-name="Path 26225" d="M599.062,263.346a3.062,3.062,0,0,1-.385-2.415,16.6,16.6,0,0,0,.036-2.731,1.3,1.3,0,0,0-.436-1.059c-.368-.235-.846-.061-1.261.073a2.206,2.206,0,0,1-2.385-.37c-.451-.552-.565-2.078-1.188-2.424a.7.7,0,0,0-.835.039c-1.144.754-.978,2.366-.7,3.571a6.781,6.781,0,0,0,2.717,4.552,11.257,11.257,0,0,1,2.931,2.769" transform="translate(-591.703 -254.301)" fill="#f2bc97"/>
      </g>
      <path id="Path_26226" data-name="Path 26226" d="M631.545,284.617a16.06,16.06,0,0,1-.663-2.292c.805-1.07,3.67-4.533,6.965-8.34C638.2,275.926,636.753,280.829,631.545,284.617Z" transform="translate(-599.083 -237.829)" fill="#e9e5d9" style="mix-blend-mode: multiply;isolation: isolate"/>
      <path id="Path_26227" data-name="Path 26227" d="M637.056,263.734s-4.63-4.27-11.342,4.649c-5.429,7.215-6.87,8.883-6.87,8.883l6.534,6.173S642.973,269.8,637.056,263.734Z" transform="translate(-596.816 -235.705)" fill="url(#linear-gradient-29)"/>
      <path id="Path_26228" data-name="Path 26228" d="M618.889,280c.51-.078,7.321,5.337,7.284,6.134-.018.4-1.074,1.167-1.074,1.167l-7.18-6.122S618.538,280.056,618.889,280Z" transform="translate(-596.642 -238.962)" fill="#f2869b"/>
      <path id="Path_26229" data-name="Path 26229" d="M632.3,237.221a4.961,4.961,0,0,0,2.2,4.052c2.027,1.579,2.9,5.324,2.975,8.09a20.981,20.981,0,0,0,.058,2.7,4.837,4.837,0,0,0,.756,1.922c.289.432.646.815.924,1.255a13.562,13.562,0,0,1,1.321,4.08,4.438,4.438,0,0,0,1.945,3.091,5.477,5.477,0,0,0,2.361.449c1.882.076,3.767.151,5.65.081a12.176,12.176,0,0,0,5.191-.979c1.094-.6,1.431-2,1.475-3.247a13.106,13.106,0,0,0-.627-4.495,15.6,15.6,0,0,1-.868-2.946,28.352,28.352,0,0,1,.15-3.445,9.418,9.418,0,0,0-1.464-4.506,22.142,22.142,0,0,1-1.776-4.834,11.775,11.775,0,0,0-2.877-4.958,10.833,10.833,0,0,0-5.858-3.871c-4.225-.851-10.774.636-11.378,5.862A13.063,13.063,0,0,0,632.3,237.221Z" transform="translate(-599.349 -229.437)" fill="#253e8e"/>
    </g>
    <g id="Group_4251" data-name="Group 4251" transform="translate(452.834 49.435)">
      <path id="Path_26230" data-name="Path 26230" d="M528.037,64.737a20.653,20.653,0,1,0-19.964,26A20.722,20.722,0,0,0,525.978,80.41,20.461,20.461,0,0,0,528.037,64.737ZM523.41,78.93a17.693,17.693,0,1,1-6.477-24.162A17.666,17.666,0,0,1,523.41,78.93Z" transform="translate(-487.434 -49.435)" fill="url(#linear-gradient-4)"/>
      <path id="Path_26231" data-name="Path 26231" d="M512.787,58.078a.45.45,0,0,0,.44-.451V54.862a.138.138,0,0,0-.012-.069.426.426,0,0,0-.428-.37.436.436,0,0,0-.439.358.191.191,0,0,0-.012.081v2.764A.46.46,0,0,0,512.787,58.078Z" transform="translate(-492.125 -50.375)" fill="url(#linear-gradient-31)"/>
      <path id="Path_26232" data-name="Path 26232" d="M495.644,74.331h-2.777a.422.422,0,0,0-.428.405.071.071,0,0,0-.011.046.044.044,0,0,0,.011.035.422.422,0,0,0,.428.4h2.777a.445.445,0,0,0,0-.89Z" transform="translate(-488.375 -54.125)" fill="url(#linear-gradient-32)"/>
      <path id="Path_26233" data-name="Path 26233" d="M512.787,90.848a.449.449,0,0,0-.451.439v2.764a.45.45,0,0,0,.451.44.44.44,0,0,0,.44-.44V91.287A.44.44,0,0,0,512.787,90.848Z" transform="translate(-492.125 -57.236)" fill="url(#linear-gradient-33)"/>
      <path id="Path_26234" data-name="Path 26234" d="M529.293,75.221h2.764a.474.474,0,0,0,.255-.08.43.43,0,0,0,.185-.359.413.413,0,0,0-.208-.37.353.353,0,0,0-.232-.081h-2.764a.445.445,0,0,0,0,.89Z" transform="translate(-495.236 -54.125)" fill="url(#linear-gradient-32)"/>
      <path id="Path_26235" data-name="Path 26235" d="M515.612,63.133l-4.638,8.42a1.06,1.06,0,0,0-.809.116.931.931,0,0,0-.347.324l-7.888-.058a.514.514,0,0,0-.509.51.493.493,0,0,0,.5.5l7.761.058a.581.581,0,0,0,.081.2,1.122,1.122,0,0,0,1.943-1.122.723.723,0,0,0-.161-.209l4.638-8.432a.31.31,0,0,0-.127-.428A.316.316,0,0,0,515.612,63.133Z" transform="translate(-490.069 -51.983)" fill="url(#linear-gradient-19)"/>
    </g>
    <g id="Group_4253" data-name="Group 4253" transform="translate(570.897 134.339)">
      <path id="Path_26236" data-name="Path 26236" d="M664.91,209.9v.25a1.489,1.489,0,1,1-2.977,0v-.25" transform="translate(-638.367 -164.566)" fill="url(#linear-gradient-36)"/>
      <g id="Group_4252" data-name="Group 4252" transform="translate(0 0)">
        <path id="Path_26237" data-name="Path 26237" d="M660.862,166.737a11.818,11.818,0,0,0-11.819,11.819c0,6.249,5,10.723,7.169,15.6a1.1,1.1,0,0,0,1,.655h7.563a1.1,1.1,0,0,0,1-.655c2.168-4.877,7.169-9.352,7.169-15.6a11.819,11.819,0,0,0-11.819-11.819" transform="translate(-635.939 -156.435)" fill="url(#linear-gradient-4)"/>
        <rect id="Rectangle_1365" data-name="Rectangle 1365" width="9.485" height="2.132" rx="0.942" transform="translate(20.312 39.193)" fill="url(#linear-gradient-38)"/>
        <path id="Rectangle_1366" data-name="Rectangle 1366" d="M0,0H8.959a0,0,0,0,1,0,0V.388A2.939,2.939,0,0,1,6.021,3.327H2.939A2.939,2.939,0,0,1,0,.388V0A0,0,0,0,1,0,0Z" transform="translate(20.574 42.024)" fill="url(#linear-gradient-38)"/>
        <path id="Path_26238" data-name="Path 26238" d="M643.236,185.035l-3.56,1.634a.613.613,0,1,0,.511,1.114l3.56-1.635a.613.613,0,1,0-.511-1.114Zm-2.195-7.586a.613.613,0,0,0,.093-1.218l-7.53-1.167a.613.613,0,1,0-.187,1.211l7.529,1.167A.63.63,0,0,0,641.041,177.449Zm4.9-23.108a.613.613,0,0,0-1.051.631l4.378,7.3a.613.613,0,1,0,1.05-.631Zm-6.56,12.166L643,168.666a.6.6,0,0,0,.313.087.613.613,0,0,0,.315-1.139l-3.619-2.16a.613.613,0,0,0-.628,1.053Zm33.992,2.48a.61.61,0,0,0,.3-.078l3.444-1.927a.613.613,0,1,0-.6-1.07l-3.444,1.927a.613.613,0,0,0,.3,1.148Zm3.419,18.071-2.977-1.868a.613.613,0,1,0-.652,1.038l2.977,1.868a.613.613,0,1,0,.652-1.038Zm7.028-10.659h-8.171a.613.613,0,1,0,0,1.226h8.171a.613.613,0,1,0,0-1.226ZM671.278,154.47a.613.613,0,0,0-.832.242l-3.853,7a.613.613,0,0,0,1.075.591l3.852-7A.613.613,0,0,0,671.278,154.47Zm-12.9.858a.613.613,0,0,0-.613.613v3.736a.613.613,0,0,0,1.226,0v-3.736A.613.613,0,0,0,658.375,155.328Z" transform="translate(-632.898 -154.044)" fill="url(#linear-gradient-4)"/>
      </g>
      <path id="Path_26239" data-name="Path 26239" d="M667.125,178.244a2.373,2.373,0,0,0-2.358,2.179h0l-.212,1.892h-5.037l-.213-1.892h0A2.373,2.373,0,1,0,656.883,183v.02h2.005l1.352,12.077.7-.078-1.344-12h4.88l-1.343,12,.7.078,1.352-12.077h2.005V183a2.376,2.376,0,0,0-.058-4.751Zm-10.185,4.071V182.3a1.678,1.678,0,1,1,1.666-1.8h0l0,.024c0,.033.01.064.01.1h0l.19,1.692Zm10.185-.015v.015h-1.868l.189-1.692h0c0-.034.007-.065.01-.1l0-.024h0a1.674,1.674,0,1,1,1.665,1.8Zm-3.1-13.634a.393.393,0,0,0-.257.743c.071.025,7.155,2.576,8.094,10a.393.393,0,0,0,.39.343l.049,0a.393.393,0,0,0,.341-.44C671.638,171.394,664.1,168.694,664.023,168.667Z" transform="translate(-636.979 -156.794)" fill="url(#linear-gradient-4)" style="mix-blend-mode: screen;isolation: isolate"/>
    </g>
    <g id="Group_4255" data-name="Group 4255" transform="translate(553.153 108.303)">
      <rect id="Rectangle_1367" data-name="Rectangle 1367" width="17.229" height="10.93" rx="1.965" transform="translate(0)" fill="#dae3ef"/>
      <g id="Group_4254" data-name="Group 4254" transform="translate(3.915 3.082)">
        <path id="Path_26240" data-name="Path 26240" d="M617.417,130.529a.448.448,0,0,1-.428-.315l-1.11-3.552a.448.448,0,1,1,.855-.268l.95,3.041,6.917-3.621a.448.448,0,0,1,.416.794l-7.392,3.871A.448.448,0,0,1,617.417,130.529Z" transform="translate(-615.859 -125.762)" fill="#f9fbfc"/>
      </g>
    </g>
    <g id="Group_4257" data-name="Group 4257" transform="translate(312.246 167.996)">
      <rect id="Rectangle_1368" data-name="Rectangle 1368" width="17.229" height="10.93" rx="1.965" fill="#dae3ef"/>
      <g id="Group_4256" data-name="Group 4256" transform="translate(3.915 3.082)">
        <path id="Path_26241" data-name="Path 26241" d="M320.6,204.076a.447.447,0,0,1-.171-.033.452.452,0,0,1-.257-.281l-1.11-3.553a.448.448,0,0,1,.855-.268l.95,3.041,6.917-3.621a.448.448,0,1,1,.416.794l-7.392,3.87A.437.437,0,0,1,320.6,204.076Z" transform="translate(-319.041 -199.31)" fill="#f9fbfc"/>
      </g>
    </g>
    <g id="Group_4259" data-name="Group 4259" transform="translate(424.367 122.99)">
      <rect id="Rectangle_1369" data-name="Rectangle 1369" width="17.229" height="10.93" rx="1.965" transform="translate(0 0)" fill="#f9fbfc"/>
      <g id="Group_4258" data-name="Group 4258" transform="translate(3.915 3.082)">
        <path id="Path_26242" data-name="Path 26242" d="M458.742,148.625a.449.449,0,0,1-.428-.314l-1.11-3.553a.448.448,0,1,1,.855-.267l.95,3.04,6.917-3.621a.448.448,0,0,1,.416.794l-7.392,3.871A.447.447,0,0,1,458.742,148.625Z" transform="translate(-457.184 -143.859)" fill="#dae3ef"/>
      </g>
    </g>
    <g id="Group_4260" data-name="Group 4260" transform="translate(468.889 127.579)">
      <path id="Path_26243" data-name="Path 26243" d="M521.046,157l-8.666,19.327h0a64.616,64.616,0,0,0,50.181,22.8l.647-.009,8.666-19.327Z" transform="translate(-508.188 -147.841)" fill="#1a3066"/>
      <path id="Path_26244" data-name="Path 26244" d="M541.14,175.966l45.155,5.207L552.37,150.921l-45.155-5.207Z" transform="translate(-507.215 -145.715)" fill="#253e8e"/>
      <path id="Path_26245" data-name="Path 26245" d="M550.35,165.663c-1.888-.847-3.7-.9-4.052-.121a.778.778,0,0,0-.019.489l-17.079-.05L524.661,176.1l-.892-.4-.833,1.859,2.973,1.333.833-1.858-.892-.4,4.193-9.35,17.181.049a7.778,7.778,0,0,0,1.86,1.151c1.888.847,3.7.9,4.052.121S552.238,166.51,550.35,165.663Z" transform="translate(-510.176 -149.346)" fill="url(#linear-gradient-4)"/>
    </g>
    <g id="Group_4265" data-name="Group 4265" transform="translate(380.436 346.111)">
      <path id="Path_26246" data-name="Path 26246" d="M470.429,419.968s-39.132,2.514-50.5,5.793-20.167,10-20.878,10.985-1.312,3.006-.219,4.1,3.17.164,4.482-.928,11.7-9.346,18.2-10.985c8.613-2.172,49.516-5.739,49.516-5.739Z" transform="translate(-398.233 -415.908)" fill="#1a3066"/>
      <path id="Path_26247" data-name="Path 26247" d="M401.765,419.968s39.132,2.514,50.5,5.793,20.167,10,20.878,10.985,1.312,3.006.219,4.1-3.17.164-4.482-.928-11.7-9.346-18.2-10.985c-8.613-2.172-49.517-5.739-49.517-5.739Z" transform="translate(-398.786 -415.908)" fill="#1a3066"/>
      <g id="Group_4262" data-name="Group 4262" transform="translate(40.224)">
        <g id="Group_4261" data-name="Group 4261">
          <path id="Path_26248" data-name="Path 26248" d="M488.56,423.659h-1.586l-1.364-6.237h2.949a1.882,1.882,0,0,1,1.882,1.881v2.474A1.882,1.882,0,0,1,488.56,423.659Z" transform="translate(-454.917 -415.429)" fill="#1a3066"/>
          <path id="Path_26249" data-name="Path 26249" d="M476.689,416.05c-5.075-1.438-15.309-1.269-21.145-.507s-6.913,2.865-6.913,2.865c-2.157,2.971.315,10.623,2.22,14.367A15.32,15.32,0,0,0,459.2,440.6a19.7,19.7,0,0,0,15.975-1.543c5.245-3.087,5.53-13.236,5.656-15.309S481.763,417.488,476.689,416.05Zm-2.96,22.075c-4.905,2.833-14.135,2.041-17.518-1s-7.141-11.144-6.417-15.827c.8-5.2,15.9-4.9,15.9-4.9s12.729-.593,13.279,4.186S478.634,435.292,473.729,438.124Z" transform="translate(-447.793 -414.966)" fill="#1a3066"/>
          <path id="Path_26250" data-name="Path 26250" d="M474.17,438.449a15.288,15.288,0,0,1-6.8,1.717,21.265,21.265,0,0,1-3.863-.156,15.856,15.856,0,0,1-5.318-1.542,6.578,6.578,0,0,1-1.083-.663,5.576,5.576,0,0,1-.449-.361,15.571,15.571,0,0,1-2.419-2.917c-.42-.644-.829-1.327-1.209-2.049-1.913-3.561-3.249-7.893-2.79-10.859.585-3.8,8.8-4.664,13.191-4.859.653-.029,1.219-.039,1.668-.039.653-.02,1.044-.01,1.044-.01s1.259-.058,3.005.01c.438.019.916.049,1.415.088a28.52,28.52,0,0,1,3.766.507,11.348,11.348,0,0,1,3.356,1.23,3.224,3.224,0,0,1,1.736,2.351C479.966,425.678,479.078,435.619,474.17,438.449Z" transform="translate(-448.237 -415.291)" fill="#dae3ef" opacity="0.8"/>
        </g>
      </g>
      <g id="Group_4264" data-name="Group 4264" transform="translate(1.594)">
        <g id="Group_4263" data-name="Group 4263">
          <path id="Path_26251" data-name="Path 26251" d="M402.078,423.659h1.586l1.364-6.237h-2.949A1.882,1.882,0,0,0,400.2,419.3v2.474A1.882,1.882,0,0,0,402.078,423.659Z" transform="translate(-400.197 -415.429)" fill="#1a3066"/>
          <path id="Path_26252" data-name="Path 26252" d="M403.231,423.746c.127,2.073.411,12.222,5.656,15.309a19.7,19.7,0,0,0,15.975,1.543,15.317,15.317,0,0,0,8.352-7.823c1.9-3.745,4.377-11.4,2.22-14.367,0,0-1.078-2.1-6.913-2.865s-16.069-.931-21.145.507S403.1,421.675,403.231,423.746Zm1.86-3.171c.55-4.78,13.279-4.186,13.279-4.186s15.1-.3,15.9,4.9c.723,4.683-3.035,12.782-6.418,15.827s-12.613,3.837-17.518,1S404.541,425.353,405.091,420.575Z" transform="translate(-400.745 -414.966)" fill="#1a3066"/>
          <path id="Path_26253" data-name="Path 26253" d="M428.281,437.445c-2.839,2.556-9.805,3.522-14.868,2.1a12.461,12.461,0,0,1-2.654-1.092c-2.527-1.463-3.99-4.81-4.742-8.361a30.987,30.987,0,0,1-.5-9.191c.41-3.57,7.639-4.137,11.259-4.2,1.209-.029,2.019.01,2.019.01a47.81,47.81,0,0,1,10.049.956c2.975.693,5.532,1.893,5.854,3.952C435.423,426.3,431.667,434.4,428.281,437.445Z" transform="translate(-401.172 -415.291)" fill="#dae3ef" opacity="0.8"/>
          <path id="Path_26254" data-name="Path 26254" d="M479.549,418.574l-10.313,21.62a21.266,21.266,0,0,1-3.863-.156,15.856,15.856,0,0,1-5.318-1.542l12.372-21.659a28.52,28.52,0,0,1,3.766.507A11.348,11.348,0,0,1,479.549,418.574Z" transform="translate(-411.472 -415.319)" fill="#e9eef4" opacity="0.8"/>
          <path id="Path_26255" data-name="Path 26255" d="M465.765,416.729l-10.859,17.806c-.42-.644-.829-1.327-1.209-2.049l10.4-15.718C464.751,416.739,465.316,416.729,465.765,416.729Z" transform="translate(-410.275 -415.298)" fill="#e9eef4" opacity="0.8"/>
          <path id="Path_26256" data-name="Path 26256" d="M429,417.668l-15.434,21.873a12.461,12.461,0,0,1-2.654-1.092c-2.527-1.463-3.99-4.81-4.742-8.361,3.669-4.615,8.01-9.991,10.761-13.386,1.209-.029,2.019.01,2.019.01A47.81,47.81,0,0,1,429,417.668Z" transform="translate(-401.322 -415.291)" fill="#e9eef4" opacity="0.8"/>
        </g>
      </g>
      <rect id="Rectangle_1370" data-name="Rectangle 1370" width="6.121" height="4.039" transform="translate(35.459 4.446)" fill="#1a3066"/>
    </g>
  </g>
</svg>
