<svg xmlns="http://www.w3.org/2000/svg" xmlns:xlink="http://www.w3.org/1999/xlink" width="532.753" height="384.12" viewBox="0 0 532.753 384.12">
  <defs>
    <clipPath id="clip-path">
      <path id="Path_25360" data-name="Path 25360" d="M391.485,382.714s-19.733,3.908-15.126,8.5,30.854,8.982,32.119,7.23,5.161-14.768,5.161-14.768l-18.222-8.23Z" fill="#fff"/>
    </clipPath>
    <clipPath id="clip-path-2">
      <path id="Path_25365" data-name="Path 25365" d="M417.714,394.143s-16.511,11.49-10.451,13.849,31.868-4.141,32.324-6.253-1.193-15.6-1.193-15.6L418.4,385.9Z" fill="#fff"/>
    </clipPath>
    <clipPath id="clip-path-3">
      <path id="Path_25386" data-name="Path 25386" d="M522.282,267.7c-1.819-26.759-3.046-33.415-6.173-37.33-3.1-3.882-14.545-5.58-22.6-5.9s-19.819,1.962-23.166,4.256-5.364,12.051-4.846,24.181c.449,10.507,2.66,21.675,2.571,26.538-.164,9.027-1.937,12.508-3.225,19.227,10.072,7.009,49.057,10.768,57.423,9.09C523.085,298.634,523.162,280.653,522.282,267.7Z" fill="#fff"/>
    </clipPath>
    <clipPath id="clip-path-4">
      <path id="Path_25394" data-name="Path 25394" d="M480.853,217l13.729-1.985,1.5,11.315a2.943,2.943,0,0,1-.663,2.28,11.747,11.747,0,0,1-7.767,4.226c-4.211.492-4.743-1.439-4.684-2.643a14.511,14.511,0,0,0-.292-3.34Z" fill="#ffc9b0"/>
    </clipPath>
  </defs>
  <g id="img" transform="translate(-108.624 -69.064)">
    <g id="Group_3764" data-name="Group 3764">
      <path id="Path_25290" data-name="Path 25290" d="M641.067,298.233c-4.506,35.995-30.5,30.006-34.609,71.858-1.465,14.938,9.617,24.329,15.123,37.262,6.1,14.3,3.938,27.141-4.3,36.938H165.393c-9.99-4.5-19.522-9.285-27.819-15.033-11.422-7.9-20.462-17.631-25.072-30.977-4.161-12.059-7.367-23.692,3.564-32.839,5.934-4.973,12.111-8.81,17.482-13.42A41.839,41.839,0,0,0,143.86,339.5c19.7-37.788-5.571-71.089-14.851-108.9-.9-3.674-1.715-7.385-2.368-11.109a100.8,100.8,0,0,1-1.484-28.478,61.916,61.916,0,0,1,7.924-24.879c6.891-11.846,24.742-29.34,43.924-26,14.413,2.512,23.483,16.332,36.5,21.33,16.4,6.3,34.6,1.262,46.881-8,23.9-18.006,39.208-52.233,80.048-49.1,13.848,1.062,23.2,12,35.338,17.007,16.692,6.9,33.158,6.847,49.11.137,18.345-7.722,30.932-22.067,48.946-30.277A123.4,123.4,0,0,1,492.844,84.4c14.491-3.924,30.337-5.311,45.282-2.287a89.453,89.453,0,0,1,9.019,2.287c49.965,15.382,52.316,65.765,49.965,102.528-1.079,16.844-14.562,45.893-4.6,63.3S645.425,263.426,641.067,298.233Z" fill="#b8e5ff" opacity="0.33"/>
      <g id="Group_3744" data-name="Group 3744">
        <g id="Group_3738" data-name="Group 3738">
          <path id="Path_25291" data-name="Path 25291" d="M197.184,444.291H192.97l-.533-18.553h10.648Z" fill="#b8e5ff"/>
          <path id="Path_25292" data-name="Path 25292" d="M275.768,444.291h4.214l.533-18.553H269.867Z" fill="#b8e5ff"/>
        </g>
        <rect id="Rectangle_1218" data-name="Rectangle 1218" width="99.15" height="182.299" transform="translate(186.901 245.568)" fill="#94d5ff"/>
        <g id="Group_3743" data-name="Group 3743">
          <g id="Group_3739" data-name="Group 3739">
            <rect id="Rectangle_1219" data-name="Rectangle 1219" width="82.358" height="35.823" transform="translate(195.296 259.335)" fill="#b8e5ff"/>
            <circle id="Ellipse_1342" data-name="Ellipse 1342" cx="5.48" cy="5.48" r="5.48" transform="translate(230.996 271.767)" fill="#94d5ff"/>
          </g>
          <g id="Group_3740" data-name="Group 3740">
            <rect id="Rectangle_1220" data-name="Rectangle 1220" width="82.358" height="35.823" transform="translate(195.296 298.982)" fill="#b8e5ff"/>
            <circle id="Ellipse_1343" data-name="Ellipse 1343" cx="5.48" cy="5.48" r="5.48" transform="translate(230.996 311.414)" fill="#94d5ff"/>
          </g>
          <g id="Group_3741" data-name="Group 3741">
            <rect id="Rectangle_1221" data-name="Rectangle 1221" width="82.358" height="35.823" transform="translate(195.296 338.63)" fill="#b8e5ff"/>
            <circle id="Ellipse_1344" data-name="Ellipse 1344" cx="5.48" cy="5.48" r="5.48" transform="translate(230.996 351.062)" fill="#94d5ff"/>
          </g>
          <g id="Group_3742" data-name="Group 3742">
            <rect id="Rectangle_1222" data-name="Rectangle 1222" width="82.358" height="35.823" transform="translate(195.296 378.278)" fill="#b8e5ff"/>
            <circle id="Ellipse_1345" data-name="Ellipse 1345" cx="5.48" cy="5.48" r="5.48" transform="translate(230.996 390.71)" fill="#94d5ff"/>
          </g>
        </g>
        <rect id="Rectangle_1223" data-name="Rectangle 1223" width="105.005" height="6.881" transform="translate(183.973 242.559)" fill="#b8e5ff"/>
      </g>
      <g id="Group_3761" data-name="Group 3761">
        <g id="Group_3753" data-name="Group 3753">
          <g id="Group_3747" data-name="Group 3747">
            <g id="Group_3745" data-name="Group 3745">
              <path id="Path_25293" data-name="Path 25293" d="M223.089,121.489c-1.187-3.286,1.294-7.526,4.534-9.657,2.163-1.422,4.67-2.336,6.006-4.208a12.634,12.634,0,0,1-2.419,6.981A20.687,20.687,0,0,1,223.089,121.489Z" fill="#94d5ff"/>
              <path id="Path_25294" data-name="Path 25294" d="M223.087,122.623c.457-1.811-1.454-3.525-2.667-4.509a40.366,40.366,0,0,1-3.674-2.953,7.17,7.17,0,0,1,.218-9.67c-.749.643.416,2.815.776,3.374a23.781,23.781,0,0,0,3.262,3.4C223.6,114.921,224.042,118.831,223.087,122.623Z" fill="#b8e5ff"/>
              <path id="Path_25295" data-name="Path 25295" d="M223.753,119.161c-.6-1.657,1.126-3.662,2.225-4.83a45.93,45.93,0,0,0,3.321-3.5c2.067-2.736,1.775-7.256-1.008-9.24.779.488-.171,2.775-.474,3.376a26.667,26.667,0,0,1-2.891,3.846C222.61,111.838,222.5,115.688,223.753,119.161Z" fill="#b8e5ff"/>
              <path id="Path_25296" data-name="Path 25296" d="M222.779,118.727c-.593-.143-1.17-.928-1.454-1.346a6.555,6.555,0,0,1-1.016-2.638c-.391-2.346.322-4.644.425-6.906a12.858,12.858,0,0,0-.631-5.127,12.684,12.684,0,0,0-1.259-2.194,3.52,3.52,0,0,1,.784.2c4.691,2.116,5.682,6.469,4.787,10.926a40.014,40.014,0,0,1-.911,4.159C223.231,116.675,222.556,117.845,222.779,118.727Z" fill="#94d5ff"/>
            </g>
            <g id="Group_3746" data-name="Group 3746">
              <path id="Path_25297" data-name="Path 25297" d="M229.3,130.532h-9.67l-3.171-10.12h16.012Z" fill="#b8e5ff"/>
              <path id="Path_25298" data-name="Path 25298" d="M229.759,131.3h-10.64l-.067-1.6h10.773Z" fill="#94d5ff"/>
              <path id="Path_25299" data-name="Path 25299" d="M232.749,121.612H216.122l-.313-3.194H233.06Z" fill="#94d5ff"/>
            </g>
          </g>
          <path id="Path_25300" data-name="Path 25300" d="M289.458,111.908l1.155,2.34a2.96,2.96,0,0,0,2.228,1.619l2.582.375a2.959,2.959,0,0,1,1.64,5.048l-1.868,1.821a2.956,2.956,0,0,0-.851,2.619l.441,2.572a2.96,2.96,0,0,1-4.294,3.12l-2.31-1.215a2.96,2.96,0,0,0-2.754,0l-2.309,1.215a2.96,2.96,0,0,1-4.294-3.12l.441-2.572a2.959,2.959,0,0,0-.851-2.619l-1.869-1.821a2.96,2.96,0,0,1,1.64-5.048l2.583-.375A2.96,2.96,0,0,0,283,114.248l1.155-2.34A2.959,2.959,0,0,1,289.458,111.908Z" fill="#94d5ff"/>
          <g id="Group_3748" data-name="Group 3748">
            <rect id="Rectangle_1224" data-name="Rectangle 1224" width="10.609" height="39.082" transform="translate(251.248 92.444)" fill="#94d5ff"/>
            <rect id="Rectangle_1225" data-name="Rectangle 1225" width="6.048" height="33.977" transform="translate(261.565 97.549)" fill="#50bcff"/>
            <rect id="Rectangle_1226" data-name="Rectangle 1226" width="8.909" height="25.358" transform="translate(242.547 106.167)" fill="#b8e5ff"/>
            <rect id="Rectangle_1227" data-name="Rectangle 1227" width="8.909" height="2.941" transform="translate(242.547 110.04)" fill="#94d5ff" opacity="0.68"/>
            <rect id="Rectangle_1228" data-name="Rectangle 1228" width="8.909" height="2.941" transform="translate(242.547 125.526)" fill="#94d5ff" opacity="0.68"/>
            <rect id="Rectangle_1229" data-name="Rectangle 1229" width="7.477" height="36.206" transform="translate(267.086 95.319)" fill="#94d5ff"/>
            <rect id="Rectangle_1230" data-name="Rectangle 1230" width="3.535" height="16.22" transform="translate(269.058 106.29)" fill="#b8e5ff"/>
          </g>
          <g id="Group_3752" data-name="Group 3752">
            <g id="Group_3751" data-name="Group 3751">
              <g id="Group_3749" data-name="Group 3749">
                <rect id="Rectangle_1231" data-name="Rectangle 1231" width="6.255" height="15.191" transform="translate(288.646 155.216) rotate(180)" fill="#94d5ff"/>
                <rect id="Rectangle_1232" data-name="Rectangle 1232" width="14.397" height="4.369" transform="translate(292.717 143.003) rotate(180)" fill="#94d5ff"/>
              </g>
              <g id="Group_3750" data-name="Group 3750">
                <rect id="Rectangle_1233" data-name="Rectangle 1233" width="6.255" height="15.191" transform="translate(226.284 155.216) rotate(180)" fill="#94d5ff"/>
                <rect id="Rectangle_1234" data-name="Rectangle 1234" width="14.397" height="4.369" transform="translate(230.355 143.003) rotate(180)" fill="#94d5ff"/>
              </g>
            </g>
            <rect id="Rectangle_1235" data-name="Rectangle 1235" width="98.235" height="8.212" transform="translate(303.455 139.355) rotate(180)" fill="#b8e5ff"/>
          </g>
        </g>
        <g id="Group_3760" data-name="Group 3760">
          <g id="Group_3754" data-name="Group 3754">
            <path id="Path_25301" data-name="Path 25301" d="M177.386,178.758h-6.377a.528.528,0,0,0-.5.364L159.1,198.371a.662.662,0,0,0,.594.869h11.1a.527.527,0,0,0,.5-.364l6.683-19.248A.663.663,0,0,0,177.386,178.758Z" fill="#94d5ff"/>
            <path id="Path_25302" data-name="Path 25302" d="M164.967,171.05h33.574l4.528,28.233H169.495Z" fill="#50bcff"/>
            <path id="Path_25303" data-name="Path 25303" d="M166.142,171.05h33.574l4.528,28.233H170.671Z" fill="#94d5ff"/>
            <path id="Path_25304" data-name="Path 25304" d="M169.21,173.657h28.275l3.692,23.019H172.9Z" fill="#fff"/>
            <path id="Path_25305" data-name="Path 25305" d="M173.949,178.076h20.214l2.275,14.182H176.224Z" fill="#94d5ff"/>
          </g>
          <g id="Group_3755" data-name="Group 3755">
            <path id="Path_25306" data-name="Path 25306" d="M228.445,189.55a9.388,9.388,0,0,1-5.04,8.33.758.758,0,0,1-.18.09,9.207,9.207,0,0,1-4.19.99,9.4,9.4,0,0,1-7.25-3.42,4.9,4.9,0,0,1-.39-.51,9.268,9.268,0,0,1-1.77-5.48,9.419,9.419,0,0,1,7.88-9.28c.15-.03.3-.05.45-.07a9.509,9.509,0,0,1,1.08-.06,9.41,9.41,0,0,1,9.31,8.07c.03.19.05.38.07.57C228.435,189.03,228.445,189.29,228.445,189.55Z" fill="#94d5ff"/>
            <path id="Path_25307" data-name="Path 25307" d="M217.355,190.16a17.213,17.213,0,0,1-3.32,3.95,7.818,7.818,0,0,1-2.25,1.43,4.9,4.9,0,0,1-.39-.51,10,10,0,0,0,3.07-2.23,16.046,16.046,0,0,0,3.12-4.32,9.589,9.589,0,0,0,.89-5.48,7.643,7.643,0,0,0-.79-2.42,2.479,2.479,0,0,0-.18-.31c.15-.03.3-.05.45-.07.11.18.2.36.28.52C219.735,183.76,219.065,187.36,217.355,190.16Z" fill="#b8e5ff"/>
            <path id="Path_25308" data-name="Path 25308" d="M228.415,188.78a10.646,10.646,0,0,0-1.16.97,12.965,12.965,0,0,0-3.85,8.13.758.758,0,0,1-.18.09,12.8,12.8,0,0,1,3.71-8.55,12.5,12.5,0,0,1,1.41-1.21C228.375,188.4,228.4,188.59,228.415,188.78Z" fill="#b8e5ff"/>
          </g>
          <g id="Group_3759" data-name="Group 3759">
            <g id="Group_3758" data-name="Group 3758">
              <g id="Group_3756" data-name="Group 3756">
                <rect id="Rectangle_1236" data-name="Rectangle 1236" width="6.255" height="15.191" transform="translate(229.273 222.581) rotate(180)" fill="#94d5ff"/>
                <rect id="Rectangle_1237" data-name="Rectangle 1237" width="14.397" height="4.369" transform="translate(233.344 210.369) rotate(180)" fill="#94d5ff"/>
              </g>
              <g id="Group_3757" data-name="Group 3757">
                <rect id="Rectangle_1238" data-name="Rectangle 1238" width="6.255" height="15.191" transform="translate(166.911 222.581) rotate(180)" fill="#94d5ff"/>
                <rect id="Rectangle_1239" data-name="Rectangle 1239" width="14.397" height="4.369" transform="translate(170.982 210.369) rotate(180)" fill="#94d5ff"/>
              </g>
            </g>
            <rect id="Rectangle_1240" data-name="Rectangle 1240" width="98.235" height="8.212" transform="translate(244.082 206.72) rotate(180)" fill="#b8e5ff"/>
          </g>
        </g>
      </g>
      <g id="Group_3763" data-name="Group 3763">
        <ellipse id="Ellipse_1346" data-name="Ellipse 1346" cx="23.397" cy="22.223" rx="23.397" ry="22.223" transform="translate(545.966 356.389)" fill="#94d5ff"/>
        <path id="Path_25309" data-name="Path 25309" d="M592.09,381.547H546.973l2.242,62.743h40.634Z" fill="#b8e5ff"/>
        <rect id="Rectangle_1241" data-name="Rectangle 1241" width="51.156" height="8.051" transform="translate(544.457 377.69)" fill="#94d5ff"/>
        <g id="Group_3762" data-name="Group 3762">
          <path id="Path_25310" data-name="Path 25310" d="M562.712,361.192a49.242,49.242,0,0,0-2.889,8.964,54.031,54.031,0,0,0-.979,7.534h33.882a22.193,22.193,0,0,0-13.012-19.009c-2.8.631-5.637,1.141-8.468,1.6A66.415,66.415,0,0,1,562.712,361.192Z" fill="#b8e5ff"/>
        </g>
      </g>
    </g>
    <g id="Group_3775" data-name="Group 3775">
      <rect id="Rectangle_1242" data-name="Rectangle 1242" width="152.328" height="100.772" transform="translate(330.027 69.064)" fill="#ffd245"/>
      <path id="Path_25311" data-name="Path 25311" d="M358.777,168.328c-.076.374.374,24.566.374,24.566l13.029-24.442Z" fill="#ffd245"/>
      <g id="Group_3774" data-name="Group 3774">
        <rect id="Rectangle_1243" data-name="Rectangle 1243" width="144.575" height="91.958" transform="translate(333.904 73.471)" fill="#fff"/>
        <g id="Group_3766" data-name="Group 3766">
          <path id="Rectangle_1244" data-name="Rectangle 1244" d="M0,0H125.343a0,0,0,0,1,0,0V75.328a0,0,0,0,1,0,0H2.957A2.957,2.957,0,0,1,0,72.371V0A0,0,0,0,1,0,0Z" transform="translate(353.134 73.474)" fill="#50bcff" opacity="0.4"/>
          <path id="Rectangle_1245" data-name="Rectangle 1245" d="M0,0H117.029a0,0,0,0,1,0,0V69.294a0,0,0,0,1,0,0H1.716A1.716,1.716,0,0,1,0,67.578V0A0,0,0,0,1,0,0Z" transform="translate(361.448 73.474)" fill="#fff" opacity="0.83"/>
          <g id="Group_3765" data-name="Group 3765" opacity="0.36">
            <path id="Path_25312" data-name="Path 25312" d="M469.642,92.623c-1.418-1.25-4.234-.858-6.1-.9-5.612-.128-11.225-.194-16.839-.163a.55.55,0,0,0-.592.468q-.072,6.012.41,12.007a53.8,53.8,0,0,0-7.762-8.009c-.164-.133-.489.041-.34.207,2.823,3.146,5.746,6.2,8.263,9.524.251.331,1,.248.969-.2-.312-4.339-.453-8.689-.376-13.036,4.452.035,8.906.08,13.357.162,2.2.041,4.435,0,6.627.154,2.465.169,1.927,2.1,2.528,3.5a.391.391,0,0,0,.691.01A3.323,3.323,0,0,0,469.642,92.623Z" fill="#004dbe"/>
            <path id="Path_25313" data-name="Path 25313" d="M468.764,100.853c-.687.654-1.554,2.129-2.873,1.8-.758-.189-.957-1.082-1.2-1.608q-.41-.885-.812-1.774a.535.535,0,0,0-.88-.108,13.191,13.191,0,0,1-1.27,1.648c-.341.373-1.2,1.449-1.9,1.209-.556-.19-.769-1.078-.84-1.593a3.694,3.694,0,0,0,.431-2.35c-.056-.33-.734-.423-.9-.111a4.058,4.058,0,0,0-.52,2.341A6.908,6.908,0,0,1,454.987,103a2.081,2.081,0,0,1-2.55-1.614c-.181-.517-.624-2.427.3-2.517.285-.028.2-.379-.056-.395l-.5-.03a.305.305,0,0,0-.255.115,3.725,3.725,0,0,0-.154,3.55,2.914,2.914,0,0,0,2.96,1.771,5.722,5.722,0,0,0,3.367-2.158c.065-.073.112-.152.174-.225a2.215,2.215,0,0,0,.983,1.225c1.564.787,3.163-1.114,4.06-2.4.282.643.563,1.287.879,1.917a2.059,2.059,0,0,0,1.627,1.233,3.016,3.016,0,0,0,3.338-2.421A.243.243,0,0,0,468.764,100.853Z" fill="#004dbe"/>
            <path id="Path_25314" data-name="Path 25314" d="M476.832,90.053a1.344,1.344,0,0,0-.843-.242,3.685,3.685,0,0,1-.891-.16c-.411-.136-.823-.438-.872-.82-.024-.374-.724-.394-.716-.012,0,.027.014.051.016.078h-.005a3.134,3.134,0,0,1-.055,1.515,2.109,2.109,0,0,1-.384.7c-.142.169-.457.494-.731.5s-.317-.347-.346-.508a7.98,7.98,0,0,1-.107-1.079,9.643,9.643,0,0,1,.153-2.137c.025-.139-.266-.177-.3-.038a9.952,9.952,0,0,0-.264,2.013,9.517,9.517,0,0,0,.028,1.013,1.916,1.916,0,0,0,.155.739.746.746,0,0,0,.53.407,1.207,1.207,0,0,0,.894-.271,2.43,2.43,0,0,0,.906-1.2,3.781,3.781,0,0,0,.15-.633,2.364,2.364,0,0,0,.427.249,3.9,3.9,0,0,0,1.117.292,1.531,1.531,0,0,0,1.131-.132A.168.168,0,0,0,476.832,90.053Z" fill="#004dbe"/>
            <path id="Path_25315" data-name="Path 25315" d="M436.813,122.144a1.335,1.335,0,0,1-1.444.143,2.4,2.4,0,0,1-.973-1.346.535.535,0,0,0-.879-.108l-1.34,1.605c-.2.239-1.186,1.6-1.328.77a9.918,9.918,0,0,1,.388-3.922c.118-.465-.747-.678-.867-.211a7.4,7.4,0,0,1-1.66,3.092c-.625.7-2.028,2.156-3.27,1.9-.735-.15-.856-.9-.962-1.419a7.3,7.3,0,0,1-.125-1.911,7.822,7.822,0,0,1,1.235-3.691c.192-.306-.358-.587-.56-.281a8.493,8.493,0,0,0-1.446,4.324c-.046,1.095-.084,3.1,1.422,3.6s3.072-.779,3.945-1.618a8.972,8.972,0,0,0,.957-1.1v.01c-.034.63-.253,1.727.476,2.156a1.6,1.6,0,0,0,1.907-.431c.553-.579,1.045-1.2,1.539-1.822a2.446,2.446,0,0,0,1.5,1.261,1.623,1.623,0,0,0,2.05-.793C437.47,122.064,437.015,121.907,436.813,122.144Z" fill="#004dbe"/>
            <path id="Path_25316" data-name="Path 25316" d="M445.7,123.477a2.932,2.932,0,0,0-.651-.581l-.749-.614c-.093-.077-.189-.151-.282-.227.07-.166.149-.329.215-.5a8.386,8.386,0,0,0,.655-3.044c0-.251-.447-.254-.473-.007a8.351,8.351,0,0,1-.973,2.916c-.02.039-.044.076-.064.115-.184-.147-.363-.3-.549-.442l-3-2.323c-.292-.227-.723.11-.45.356l2.813,2.538c.245.222.5.436.752.652-.082.144-.16.291-.243.435a11.6,11.6,0,0,0-.78,1.493c-.163.428.617.727.885.323a11.767,11.767,0,0,0,.774-1.5c.023-.05.041-.1.064-.15l.66.561a2.345,2.345,0,0,0,.819.584C445.554,124.194,445.883,123.781,445.7,123.477Z" fill="#004dbe"/>
            <path id="Path_25317" data-name="Path 25317" d="M471.226,119.151a.251.251,0,0,0-.442.091,2.385,2.385,0,0,1-1.753,2.006,1.848,1.848,0,0,1-2.271-1.67c.022-.533-.994-.682-1.149-.146-.256.881-.666,2.329-2.021,2.409-1.937.115-2.224-1.924-2.088-3.055.055-.457-.854-.574-.978-.124a4.5,4.5,0,0,1-2.849,3.116c-2.284.722-2.566-1.655-2.471-2.933.027-.424-.814-.548-.917-.117-.007.032-.008.07-.015.1h0c0,.01,0,.023,0,.033a4.11,4.11,0,0,0-.069.845,2.4,2.4,0,0,1-1.013,1.643c-.234.135-.664.26-.843.135-.157-.11-.1-.574-.086-.774a3.011,3.011,0,0,1,.6-1.586c.135-.191-.2-.351-.352-.177-.553.631-1.831,3.262-.018,3.394.783.058,1.481-.679,1.868-1.15.034-.042.055-.087.087-.129a2.44,2.44,0,0,0,2.625,1.716,4.747,4.747,0,0,0,3.525-2.11,2.837,2.837,0,0,0,2.645,2.108,2.9,2.9,0,0,0,2.9-1.655,3.252,3.252,0,0,0,2.964,1.143C470.793,122.031,472.173,120.456,471.226,119.151Z" fill="#004dbe"/>
            <path id="Path_25318" data-name="Path 25318" d="M417.618,77.822a.448.448,0,0,0-.607-.214c-7.283,3.552-14.612,7.085-21.729,10.866a4.327,4.327,0,0,0-.817-.518.281.281,0,0,0-.338.067.408.408,0,0,0-.006.517c.082.1.265.042.239-.078l0-.014q.18.162.363.32c-.66.353-1.329.694-1.985,1.051-.177.1-.025.331.164.24.708-.338,1.409-.688,2.116-1.03a7.256,7.256,0,0,1,.788.79,6.965,6.965,0,0,1,1.109,1.839,6.684,6.684,0,0,1,.408,1.352c-3.009-.19-6.007-.464-9.017-.778a.318.318,0,1,0-.118.625c3.016.463,6.084.761,9.169.944a1.728,1.728,0,0,1-.675,1.259.136.136,0,0,0,.071.242c.838.16,1.219-.585,1.321-1.144a2.784,2.784,0,0,0,.024-.317,130.1,130.1,0,0,0,21.311-.715.391.391,0,0,0,.336-.349A63.11,63.11,0,0,0,417.618,77.822ZM403.565,93.256c-1.843-.015-3.672-.1-5.5-.2a6.628,6.628,0,0,0-.314-1.176,7.386,7.386,0,0,0-1.251-2.19,8.774,8.774,0,0,0-.887-.947c7.1-3.434,14.129-6.954,21.294-10.295a71.265,71.265,0,0,1,1.928,14A127.569,127.569,0,0,1,403.565,93.256Z" fill="#004dbe"/>
            <path id="Path_25319" data-name="Path 25319" d="M428.26,82.487a5.216,5.216,0,0,0-1.373.4c-.451.158-.893.333-1.338.5a25.563,25.563,0,0,0-2.733,1.1c-.132.07-.059.258.107.219a25.644,25.644,0,0,0,2.767-.938c.451-.161.9-.316,1.349-.49a5.088,5.088,0,0,0,1.313-.6A.112.112,0,0,0,428.26,82.487Z" fill="#004dbe"/>
            <path id="Path_25320" data-name="Path 25320" d="M431.792,80.949a1.839,1.839,0,0,0-1.062-.057l-1.364.143L428,81.178c-.227.024-.453.045-.677.085a2.365,2.365,0,0,0-.708.165c-.152.086-.128.254.042.31a1.75,1.75,0,0,0,.542.035c.2,0,.39,0,.586-.017l1.174-.09,1.174-.09c.36-.027.738-.087,1.1-.08h.012a3.091,3.091,0,0,1-.18.347,7.1,7.1,0,0,1-.481.728,7.535,7.535,0,0,1-.552.653c-.1.109-.215.212-.314.324a1.9,1.9,0,0,0-.239.386c-.108.2.213.348.409.268a2.392,2.392,0,0,0,.9-.68,7.536,7.536,0,0,0,.671-.836,7.257,7.257,0,0,0,.523-.887A.586.586,0,0,0,431.792,80.949Z" fill="#004dbe"/>
            <path id="Path_25321" data-name="Path 25321" d="M451.811,79.5c-.348-.058-.7-.093-1.048-.162-.383-.077-.687-.241-1.053-.343a1.461,1.461,0,0,0-1.175.147,6.158,6.158,0,0,0-.926.906c-.792.726-1.518-.1-1.881-.73a.435.435,0,0,0-.764.158c-.049.551-.83.729-1.333.492a1.2,1.2,0,0,1-.693-1.089c-.011-.317-.511-.449-.728-.174a8.55,8.55,0,0,1-1.771,1.722.849.849,0,0,1-1.308-.393,1.5,1.5,0,0,1,.036-1.251c.135-.39-.547-.541-.723-.176a3.3,3.3,0,0,1-1.317,1.741c-.476.323-1.374.561-1.746.022a2.337,2.337,0,0,1-.247-1.455c.007-.051-.086-.059-.1-.014-.238.592-.587,1.1-.223,1.733a1.511,1.511,0,0,0,1.416.694,3.183,3.183,0,0,0,2.1-1.142,1.594,1.594,0,0,0,1.329,1.185c1.076.184,2.074-.843,2.742-1.683a1.86,1.86,0,0,0,3.049.516c.651.733,1.631,1.283,2.626.483.5-.4.758-1.23,1.575-.949a2.649,2.649,0,0,0,2.219.106A.179.179,0,0,0,451.811,79.5Z" fill="#004dbe"/>
            <path id="Path_25322" data-name="Path 25322" d="M453.237,83.679c-.645-.155-1.354-.038-2.026-.167a19.618,19.618,0,0,0-2.094-.38,3.7,3.7,0,0,0-1.9.319c-.363.171-1.786,1.1-1.991.324-.071-.271-.486-.339-.72-.168a3.714,3.714,0,0,1-2.4.952c-.832-.062-1.6-.883-.767-1.412.319-.2-.094-.666-.423-.468a1.259,1.259,0,0,0,.214,2.3,3.673,3.673,0,0,0,3.553-.576,1.772,1.772,0,0,0,1.273.375c.963-.066,1.58-.823,2.539-.9a11.159,11.159,0,0,1,2.711.411c.721.121,1.693.262,2.175-.3C453.474,83.874,453.385,83.715,453.237,83.679Z" fill="#004dbe"/>
          </g>
        </g>
        <g id="Group_3771" data-name="Group 3771">
          <path id="Path_25323" data-name="Path 25323" d="M431.932,165.429H361.843c1.014-5.265,4.766-22.51,10.466-26.374a41.16,41.16,0,0,1,18.162-7c.515-.081,1.03-.129,1.562-.177.708-.081,1.417-.145,2.173-.177h.016a56.415,56.415,0,0,1,6.972.064h.1q.749.048,1.5.145c.467.032.934.1,1.4.161,12.414,1.723,23.17,9.1,25.263,19.5.322,1.594.6,3.027.837,4.316v.016C431.271,161,431.722,163.963,431.932,165.429Z" fill="#004dbe"/>
          <path id="Path_25324" data-name="Path 25324" d="M408.665,165.429H391.05c-.466-4.686-1.674-19.628-1.819-22.236-.306-5.475-.08-8.357,1.079-9.822a3.257,3.257,0,0,1,1.723-1.111,10.158,10.158,0,0,1,2.882-.241c.918.016,1.964.1,3.156.177.611.048,1.175.1,1.69.161a18.687,18.687,0,0,1,3.027.515,6.365,6.365,0,0,1,2.126.934c1.417,1,1.739,2.576,2.125,5.088C407.651,143,408.6,160.485,408.665,165.429Z" fill="#50bcff"/>
          <rect id="Rectangle_1246" data-name="Rectangle 1246" width="12.694" height="11.322" transform="translate(390.981 122.168)" fill="#e79f8b"/>
          <g id="Group_3767" data-name="Group 3767">
            <path id="Path_25325" data-name="Path 25325" d="M433.333,124.162a21.548,21.548,0,0,1,2.468-11.985c.473-.822,1.548-1.682,2.229-1.022a1.634,1.634,0,0,1,.347,1.164,39.747,39.747,0,0,1-.891,9.5,2.519,2.519,0,0,1,2.968-1.253,2.733,2.733,0,0,1,1.8,2.727c.295-1.187,2.114-1.333,2.989-.479a4.724,4.724,0,0,1,1.032,3.418,1.286,1.286,0,0,1,1.935.146,3.282,3.282,0,0,1,.526,2.132,12.494,12.494,0,0,1-1.7,6.555,7.682,7.682,0,0,1-5.515,3.672C434.325,139.487,433.614,129.087,433.333,124.162Z" fill="#e79f8b"/>
            <path id="Path_25326" data-name="Path 25326" d="M436.363,136.311s-6-3.388-3.91-7.168,8.211-1.825,6.907.391-4.17,1.825-4.17,1.825Z" fill="#e79f8b"/>
          </g>
          <path id="Path_25327" data-name="Path 25327" d="M390.566,130.394c.674-.071,3.957,2.438,7.488,2.257a8.415,8.415,0,0,0,5.817-2.347c.524-.542,3.417,5.236,2.98,5.868s-1.73,3.1-3.018,2.651-4.926-4.8-4.926-4.8-3.3,5.261-4.535,5.261-5.208-1.847-5.419-4.736S389.7,130.484,390.566,130.394Z" fill="#fff"/>
          <path id="Path_25328" data-name="Path 25328" d="M447.968,136.318l-.258,29.111H428.583l1.707-9.532v-.016l3.591-19.965,1.916.048h.016l.177.016h.29l9.854.29Z" fill="#004dbe"/>
          <g id="Group_3770" data-name="Group 3770">
            <path id="Path_25329" data-name="Path 25329" d="M411.847,91.813a.907.907,0,0,0-1.229.2,4.041,4.041,0,0,0-.9,1.508,11.732,11.732,0,0,0-.029,5.209,14.114,14.114,0,0,0,1.381,4.285c.03.054.058.108.087.162a8.027,8.027,0,0,0,1.22,1.637.771.771,0,0,0,.3.066,1.48,1.48,0,0,0,.9-.471c1.714-1.64,1.33-4.253,1.006-6.146a15.583,15.583,0,0,0-2.42-6.113A1.312,1.312,0,0,0,411.847,91.813Z" fill="#004dbe"/>
            <path id="Path_25330" data-name="Path 25330" d="M414.105,106.491c0,10.866-1.72,20.194-13.113,20.921-14.691.938-20.679-10.055-20.679-20.921s7.564-19.675,16.9-19.675S414.105,95.625,414.105,106.491Z" fill="#e79f8b"/>
            <path id="Path_25331" data-name="Path 25331" d="M396.141,116.366c.426-.73,2.715-.552,5.389-.854,3.029-.343,5.141-.922,5.671-.628,1,.554-1.059,4.974-4.974,5.345C399.438,120.492,395.366,117.694,396.141,116.366Z" fill="#fff"/>
            <path id="Path_25332" data-name="Path 25332" d="M393.308,92.5a70.738,70.738,0,0,0,9.554,5.189c3.822,1.561,8,2.078,11.558-.46.821-.585,1.842-1.816.593-2.467a7.632,7.632,0,0,0-2.8-.4A4.078,4.078,0,0,0,415.1,93.6a2.63,2.63,0,0,0,.985-2.667,3.48,3.48,0,0,0-1.331-1.708,14.906,14.906,0,0,0-6.244-2.494c-.388-.077-.78-.139-1.17-.205a1.941,1.941,0,0,0,.508-1.419,2.01,2.01,0,0,0-1.067-1.206c-3.8-2.323-8.6-2.461-13.129-2.466-3.2,0-6.53.054-9.381,1.477-1.326.662-2.694,1.77-2.837,3.192a8.3,8.3,0,0,0-6.8,5.43,12.468,12.468,0,0,0,.374,8.737c1.062,2.781,2.365,5.937,3.38,6.525s1.07-.107,2.3.481,1.314,2.344,2.245,2.406.911-2.434,1.163-3.593c.512-2.353.49-4.777,1.1-7.113a15.031,15.031,0,0,1,4.012-6.824,3.853,3.853,0,0,1,1.057-.8,7.549,7.549,0,0,1,1.3.251,7.039,7.039,0,0,1,1.642.83Z" fill="#004dbe"/>
            <g id="Group_3768" data-name="Group 3768">
              <path id="Path_25333" data-name="Path 25333" d="M380.443,107.171c-1.22-2.22-3.053-3.719-4.838-2.185a3.336,3.336,0,0,0-.907,2.4,8.059,8.059,0,0,0,.513,2.8,8.663,8.663,0,0,0,3.886,5.047,1.706,1.706,0,0,0,1.955-.066c.74-.692.88-2.107.819-3.28A11.748,11.748,0,0,0,380.443,107.171Z" fill="#e79f8b"/>
              <path id="Path_25334" data-name="Path 25334" d="M376.031,107.324a.936.936,0,0,1,.584-.451,1.625,1.625,0,0,1,1.5.724,9.375,9.375,0,0,1,1.106,1.8,8.179,8.179,0,0,1,.721,2.168c.028.152-.157.21-.194.058a9.641,9.641,0,0,0-1.606-3.322,4.253,4.253,0,0,0-.337-.4,4.65,4.65,0,0,0-.042,1.9,7.428,7.428,0,0,0,.761,2.077c.034.067-.022.15-.071.1a4.724,4.724,0,0,1-.848-4.274,1.226,1.226,0,0,0-.669-.319.944.944,0,0,0-.926.786c-.02.1-.144.064-.146-.037A1.493,1.493,0,0,1,376.031,107.324Z" fill="#c72c19"/>
            </g>
            <g id="Group_3769" data-name="Group 3769">
              <path id="Path_25335" data-name="Path 25335" d="M415.844,101.861a2.274,2.274,0,0,0-2.134-1.356c-.952.026-1.912.085-2.88.128-1.663.074-3.369.087-5.077.256-1.23.122-2.215.683-2.286,2.1,0,.018,0,.036,0,.054l-.01-.006a2.285,2.285,0,0,0-1.661-.167,3.57,3.57,0,0,0-1.487.861l-.012.012c-.03-.273-.053-.548-.093-.817-.209-1.425-1.287-1.941-2.6-2-1.878-.084-3.8,0-5.742.01-1.16.009-2.332,0-3.515.026a2.79,2.79,0,0,0-2.569,1.675,4.077,4.077,0,0,0-.221,1.847l-.071.009c-.3.038-.607.088-.91.132q-.819.12-1.639.235c-.544.076-1.084.183-1.626.277a3.465,3.465,0,0,0-.843.2c-.169.077-.378.294-.246.5.261.4,1.024.223,1.431.191.531-.042,1.061-.081,1.589-.147s1.058-.135,1.587-.205c.267-.035.536-.066.8-.107l.075-.012a31.469,31.469,0,0,0,1.308,5.585,2.563,2.563,0,0,0,1.374,1.737,6.274,6.274,0,0,0,2.318.18q1.476-.029,2.927-.166a26.273,26.273,0,0,0,5.2-.887c1.569-.485,1.739-1.884,1.707-3.336-.028-1.263-.05-2.557-.139-3.837a4.824,4.824,0,0,1,1.479-.818,1.617,1.617,0,0,1,.559-.082.582.582,0,0,1,.2.026c.038.01.075.023.113.034l.055.02c-.035-.019-.036-.019,0,0a1.4,1.4,0,0,1,.222.135l.025.02a1.456,1.456,0,0,1,.1.106c.008.008.073.1.045.053s.039.075.046.086c.021.035.036.073.009.013a1.511,1.511,0,0,0,.12.245c.021.031.055.037.079.063.027,1.313.13,2.635.223,3.924.1,1.427.4,2.773,1.926,3.02a22.011,22.011,0,0,0,4.725.111q1.241-.07,2.457-.241a4.692,4.692,0,0,0,1.84-.458,2.432,2.432,0,0,0,.933-1.691,33.491,33.491,0,0,0,.593-5.458A4.577,4.577,0,0,0,415.844,101.861Z"/>
              <path id="Path_25336" data-name="Path 25336" d="M399.433,109.694a1.29,1.29,0,0,1-1.156,1.264,31.363,31.363,0,0,1-8.623.854c-1-.05-1.246-.518-1.573-1.379a17.409,17.409,0,0,1-.7-2.331,14.445,14.445,0,0,1-.634-3.863c.086-1.737.839-2,2.479-2.012l2.339-.011c1.534-.007,3.048,0,4.542-.026a14.126,14.126,0,0,1,1.852,0c.712.084,1,.33,1.093,1.058.189,1.468.268,2.96.341,4.435A13.572,13.572,0,0,1,399.433,109.694Z" fill="#fff"/>
              <path id="Path_25337" data-name="Path 25337" d="M415.03,106.768a17.508,17.508,0,0,1-.361,2.124c-.189.8-.347,1.241-1.138,1.4a25.292,25.292,0,0,1-7.51.3,1.172,1.172,0,0,1-1.2-1.072,13.373,13.373,0,0,1-.146-1.952c-.065-1.44-.125-2.9-.079-4.34a.957.957,0,0,1,.932-1.1,12.4,12.4,0,0,1,1.7-.113c1.334-.062,2.65-.151,3.951-.227l1.922-.113c1.306-.077,1.914.12,2.116,1.642A14.361,14.361,0,0,1,415.03,106.768Z" fill="#fff"/>
            </g>
          </g>
        </g>
        <g id="Group_3773" data-name="Group 3773">
          <g id="Group_3772" data-name="Group 3772">
            <path id="Path_25338" data-name="Path 25338" d="M348.752,157.211a4.49,4.49,0,1,1-4.49-4.49A4.49,4.49,0,0,1,348.752,157.211Z" fill="#d44459"/>
          </g>
        </g>
      </g>
    </g>
    <g id="Group_3778" data-name="Group 3778">
      <path id="Path_25339" data-name="Path 25339" d="M301.6,357.869a2.811,2.811,0,0,1,2.787,1.294,4.908,4.908,0,0,1,.679,2.2c.06.644-.144,1.5.4,1.889a5.35,5.35,0,0,0,3.366.482c1.705-.236,2.523-1.1,1.863-2.741a6.925,6.925,0,0,0-3.407-3.556,9.645,9.645,0,0,0-3.736-1.1,2.01,2.01,0,0,0-1.452.515C301.884,357.028,301.271,357.589,301.6,357.869Z" fill="#004dbe"/>
      <path id="Path_25340" data-name="Path 25340" d="M286.443,376.409c-2.735-.9-7.57,9.169-8.74,10.834a71.39,71.39,0,0,0-9.922,21.428c-2.954,10.253-6.021,20.583-4.83,31.366.772,6.983,5.187,12.068,12.707,11.277,3.567-.376,10.488-.948,13.437-3,1.345-.934,1.436-2.154.271-3.812-1.187-1.689-2.046-1.337-4.078-.934-3.836.761-7.145,1.789-10.453-1.181-3.254-2.919-3.6-8.062-3.427-12.192a81.15,81.15,0,0,1,3.04-17.82c2.008-7.415,5.026-14.116,7.8-21.228,1.231-3.148,3-6.465,3.71-9.771.421-1.975-.03-3.542.672-5.378C286.3,375.953,285.895,375.913,286.443,376.409Z" fill="#004dbe"/>
      <path id="Path_25341" data-name="Path 25341" d="M272.469,448.993a14.267,14.267,0,0,1-3.67-5.284c-1.884-4.49-2.157-9.568-2.006-14.376a120.1,120.1,0,0,1,1.833-15.917c.734-4.407,1.614-8.793,2.765-13.111q.65-2.439,1.448-4.819a78.921,78.921,0,0,0-5.058,13.185c-2.954,10.253-6.021,20.583-4.83,31.366.772,6.983,5.187,12.068,12.707,11.277l.71-.074A11.8,11.8,0,0,1,272.469,448.993Z" fill="#50bcff" opacity="0.38"/>
      <g id="Group_3776" data-name="Group 3776">
        <path id="Path_25342" data-name="Path 25342" d="M338.328,448.169c-1.832,1.775-15.584,3.945-28.336,4.594-2.663.126-5.256.2-7.707.183-6.045-.029-13.569.2-15.669-1.508-5-4.044-17.26-73.142,3.917-85.288,4.848-2.776,16.359-4.383,20.812-4.185.535.028,1.057.056,1.564.127,14.006,1.634,21.868,17.345,25.278,40.312C342.78,433.262,341.5,445.112,338.328,448.169Z" fill="#ffd245"/>
        <path id="Path_25343" data-name="Path 25343" d="M309.993,452.76c-2.66.13-5.26.2-7.71.19-6.04-.03-13.57.19-15.67-1.51-5-4.05-17.26-73.14,3.92-85.29a33.492,33.492,0,0,1,9.17-2.95c1.76-.35,3.56-.64,5.23-.84a43.4,43.4,0,0,1,6.41-.4c.54.03,1.06.06,1.57.13-5.42.52-9.78,4.37-11.84,10.95C294.953,392.61,301.143,428.82,309.993,452.76Z" fill="#f59711" opacity="0.51"/>
        <path id="Path_25344" data-name="Path 25344" d="M304.933,362.36a20.746,20.746,0,0,0-5.39,4.16,36.7,36.7,0,0,0-7.27,13.44,62.093,62.093,0,0,0-2.68,14.94c-.36,5.37.22,10.68.55,16.04.37,6.02,1.45,11.85,2.05,17.84.04.44-1.29.8-1.68.57-.45.11-.93.11-.99-.12a84.1,84.1,0,0,1-1.55-10.5c-.41-3.42-.73-6.86-.92-10.3-.58-10.53-.23-21.49,3.58-31.45,1.84-4.81,4.48-9.81,8.41-13.23.22-.19.43-.37.66-.55C301.463,362.85,303.263,362.56,304.933,362.36Z" fill="#f55e11" opacity="0.5"/>
      </g>
      <path id="Path_25345" data-name="Path 25345" d="M329.785,387.388a3.69,3.69,0,0,0-1.052-2.282,4.514,4.514,0,0,0-2.787-.549q-4.194.027-8.773.452a27.8,27.8,0,0,0-4.188.527c-.307.077-1.856.046-2.358.925a13.208,13.208,0,0,0,0,3.732c.109,1.725.228,3.2,1.02,3.487.34.005.643.135.97.155a7.867,7.867,0,0,0,1.16-.107q1.2-.114,2.367-.233,2.252-.229,4.4-.477,4.125-.471,7.911-.986a1.6,1.6,0,0,0,1.452-.933,3.276,3.276,0,0,0,.133-1.311A19.725,19.725,0,0,0,329.785,387.388Z" fill="#004dbe"/>
      <path id="Path_25346" data-name="Path 25346" d="M295.688,365.144c-1.02.056-.16-5.834.724-7.023,1.456-1.955,4.035-2.547,6.34-2.79,2.661-.281,8.054,2.468,7.982,5.882-1.568-2.83-6.543-5.886-9.272-2.562-1.189,1.447.044,3.708-.744,4.9C299.7,365.081,296.708,365.088,295.688,365.144Z" fill="#50bcff"/>
      <g id="Group_3777" data-name="Group 3777">
        <path id="Path_25347" data-name="Path 25347" d="M345.119,449.437c-1.606,1.212-15.612,3.551-24.883,3.734-3.326.071-6.045-.141-7.369-.775-2.917-1.366-4.735-14.4-4.354-27.729.281-9.863,3.424-18.487,9.525-21.249a19.594,19.594,0,0,1,8-1.86,16.22,16.22,0,0,1,3.212.3c9.1,1.733,15.866,11.019,17.317,23.024C348.557,441.448,347.317,447.8,345.119,449.437Z" fill="#50bcff"/>
        <path id="Path_25348" data-name="Path 25348" d="M329.253,401.854a9.646,9.646,0,0,0-6.819,4.129c-3.354,6.1-4.27,13.724-4.481,20.811-.254,8.173-.028,18.064,2.283,26.377-3.326.071-6.045-.141-7.369-.775-2.917-1.366-4.735-14.4-4.354-27.729.281-9.863,3.424-18.487,9.525-21.249a19.594,19.594,0,0,1,8-1.86A16.22,16.22,0,0,1,329.253,401.854Z" fill="#004dbe" opacity="0.54"/>
      </g>
      <path id="Path_25349" data-name="Path 25349" d="M290.78,428.137c1.656-.021,2.328,5.263,1.948,5.773a3.6,3.6,0,0,1-3.009.318C289.188,433.86,289.125,428.158,290.78,428.137Z" fill="#004dbe"/>
    </g>
    <g id="Group_3814" data-name="Group 3814">
      <g id="Group_3780" data-name="Group 3780">
        <g id="Group_3779" data-name="Group 3779">
          <path id="Path_25350" data-name="Path 25350" d="M414.909,453.024h-3.736L423.8,341.242H434.19Z"/>
          <path id="Path_25351" data-name="Path 25351" d="M539.279,453.024h3.736L530.392,341.242H520Z"/>
          <path id="Path_25352" data-name="Path 25352" d="M513.185,453.024h3.736L504.3,341.242H493.9Z"/>
          <path id="Path_25353" data-name="Path 25353" d="M439.63,453.024h-3.736l12.623-111.781h10.394Z"/>
        </g>
        <path id="Path_25354" data-name="Path 25354" d="M550.868,214.086,531.142,328.556H484.954L504.68,214.086Z" fill="#004dbe"/>
        <path id="Path_25355" data-name="Path 25355" d="M545.232,214.086,525.506,328.556H484.954L504.68,214.086Z" fill="#004dbe" opacity="0.45" style="mix-blend-mode: multiply;isolation: isolate"/>
        <rect id="Rectangle_1247" data-name="Rectangle 1247" width="109.113" height="15.409" transform="translate(422.03 328.557)" fill="#004dbe"/>
        <rect id="Rectangle_1248" data-name="Rectangle 1248" width="39.174" height="15.409" transform="translate(422.03 328.557)" fill="#004dbe" opacity="0.45" style="mix-blend-mode: multiply;isolation: isolate"/>
      </g>
      <g id="Group_3813" data-name="Group 3813">
        <g id="Group_3782" data-name="Group 3782">
          <path id="Path_25356" data-name="Path 25356" d="M391.485,382.714s-19.733,3.908-15.126,8.5,30.854,8.982,32.119,7.23,5.161-14.768,5.161-14.768l-18.222-8.23Z" fill="#fff"/>
          <g id="Group_3781" data-name="Group 3781" clip-path="url(#clip-path)">
            <path id="Path_25357" data-name="Path 25357" d="M403.135,395.052c2.295-1.724,4.779-3.425,7.629-3.761.522-.061,1.157-.021,1.423.433a1.305,1.305,0,0,1,.11.79,8.89,8.89,0,0,1-1.854,4.146,14.469,14.469,0,0,1-3.173,3.411,6.918,6.918,0,0,1-4.357,1.439c-1.171-.062-3.914-1.005-3.831-2.555C399.155,397.578,402.136,395.8,403.135,395.052Z" fill="#50bcff"/>
            <path id="Path_25358" data-name="Path 25358" d="M384.432,393.018c.1,1.412-.028,3.03-1.13,3.919-1.174.948-2.924.627-4.285-.025a9.4,9.4,0,0,1-4.419-4.223,7.18,7.18,0,0,1-.2-6.025,9.5,9.5,0,0,1,1.267-1.978,7.07,7.07,0,0,1,2.372-2.075c.848-.4,2.261-.634,2.986.1a11.3,11.3,0,0,1,1.6,3.053A21.777,21.777,0,0,1,384.432,393.018Z" fill="#50bcff"/>
            <path id="Path_25359" data-name="Path 25359" d="M387.628,394.9a42.362,42.362,0,0,0,11.091.943c1.927-.054,4.174-.434,4.726-2.344.425-1.469-.388-3.217-1.343-4.617a19.7,19.7,0,0,0-5.989-5.725,23.841,23.841,0,0,1-2.878-1.81,4.755,4.755,0,0,1-1.815-2.9,3.075,3.075,0,0,1,1.311-2.867,6.493,6.493,0,0,1,3-.949,19.163,19.163,0,0,1,14.219,3.738c4.218,3.331,7,9.308,5.771,14.144a11.839,11.839,0,0,1-4.292,6.191,20.912,20.912,0,0,1-17.1,3.989,27.935,27.935,0,0,1-12.206-5.867c-1.718-1.4-5.776-4.036-7-5.971-1.852-2.923,2.843.484,3.789,1.061C381.387,393.424,384.962,394.262,387.628,394.9Z" fill="#50bcff" opacity="0.24" style="mix-blend-mode: multiply;isolation: isolate"/>
          </g>
        </g>
        <g id="Group_3784" data-name="Group 3784">
          <path id="Path_25361" data-name="Path 25361" d="M417.714,394.143s-16.511,11.49-10.451,13.849,31.868-4.141,32.324-6.253-1.193-15.6-1.193-15.6L418.4,385.9Z" fill="#fff"/>
          <g id="Group_3783" data-name="Group 3783" clip-path="url(#clip-path-2)">
            <path id="Path_25362" data-name="Path 25362" d="M433.333,400.775c1.411-2.5,3-5.053,5.481-6.5a1.406,1.406,0,0,1,1.478-.174,1.313,1.313,0,0,1,.417.68,8.89,8.89,0,0,1-.037,4.542,14.473,14.473,0,0,1-1.539,4.4,6.916,6.916,0,0,1-3.415,3.064c-1.1.413-3.988.648-4.534-.8C430.7,404.685,432.718,401.863,433.333,400.775Z" fill="#50bcff"/>
            <path id="Path_25363" data-name="Path 25363" d="M415.383,406.41c.658,1.253,1.189,2.787.536,4.043-.7,1.339-2.428,1.746-3.936,1.7a9.4,9.4,0,0,1-5.741-2.1,7.178,7.178,0,0,1-2.6-5.438,9.478,9.478,0,0,1,.369-2.32,7.046,7.046,0,0,1,1.341-2.852c.614-.71,1.817-1.488,2.776-1.1a11.3,11.3,0,0,1,2.691,2.155A21.786,21.786,0,0,1,415.383,406.41Z" fill="#50bcff"/>
            <path id="Path_25364" data-name="Path 25364" d="M419.064,406.851a42.374,42.374,0,0,0,10.539-3.583c1.744-.822,3.65-2.071,3.391-4.042-.2-1.516-1.646-2.792-3.081-3.691a19.694,19.694,0,0,0-7.783-2.844,23.864,23.864,0,0,1-3.362-.505,4.748,4.748,0,0,1-2.824-1.928,3.071,3.071,0,0,1,.051-3.152,6.506,6.506,0,0,1,2.37-2.073,19.171,19.171,0,0,1,14.526-2.277c5.2,1.362,10.145,5.722,10.957,10.646a11.849,11.849,0,0,1-1.451,7.392A20.912,20.912,0,0,1,428.334,411.3a27.94,27.94,0,0,1-13.534-.481c-2.134-.592-6.91-1.382-8.809-2.664-2.868-1.935,2.8-.7,3.9-.547C412.756,408,416.367,407.337,419.064,406.851Z" fill="#50bcff" opacity="0.24" style="mix-blend-mode: multiply;isolation: isolate"/>
          </g>
        </g>
        <g id="Group_3786" data-name="Group 3786">
          <path id="Path_25366" data-name="Path 25366" d="M505.866,298.524s5.715,27.065-10.771,27.5-60.888,2.148-60.888,2.148L413.18,389.523l-25.187-9.142s18.078-67.68,24.893-73.265,50.117-9.022,58.47-8.807S505.866,298.524,505.866,298.524Z" fill="#d44459"/>
          <path id="Path_25367" data-name="Path 25367" d="M505.866,298.524s5.715,27.065-10.771,27.5-60.888,2.148-60.888,2.148L413.18,389.523l-25.187-9.142s18.078-67.68,24.893-73.265,50.117-9.022,58.47-8.807S505.866,298.524,505.866,298.524Z" fill="#663bff" opacity="0.29" style="mix-blend-mode: multiply;isolation: isolate"/>
          <g id="Group_3785" data-name="Group 3785">
            <path id="Path_25368" data-name="Path 25368" d="M387.109,381.693l25.628,9.05,4.313-7.808-28.205-10.374Z" fill="#f59711"/>
            <path id="Path_25369" data-name="Path 25369" d="M387.109,381.693l25.628,9.05,4.313-7.808-28.205-10.374Z" fill="#d44459" opacity="0.3" style="mix-blend-mode: multiply;isolation: isolate"/>
            <path id="Path_25370" data-name="Path 25370" d="M399.327,383.5a34.711,34.711,0,0,1-5.653-6.317,25.369,25.369,0,0,1-2.107-3.619l-2.723-1-1.735,9.131,19.825,7A37.458,37.458,0,0,1,399.327,383.5Z" fill="#f59711" opacity="0.27" style="mix-blend-mode: multiply;isolation: isolate"/>
          </g>
        </g>
        <g id="Group_3793" data-name="Group 3793">
          <g id="Group_3791" data-name="Group 3791">
            <path id="Path_25371" data-name="Path 25371" d="M520.392,299.6s5.931,28.741-11.177,29.2-63.185,2.281-63.185,2.281l-4.849,61.942-25.88-.91s1.531-77.455,8.6-83.386,52.007-9.581,60.675-9.352S520.392,299.6,520.392,299.6Z" fill="#d44459"/>
            <path id="Path_25372" data-name="Path 25372" d="M434.367,392.172a28.188,28.188,0,0,1-1.907-5.795c-.5-2.065-.973-4.141-1.412-6.218a119.434,119.434,0,0,1-2.009-14.93c-.36-4.363-.66-8.729-1.045-13.09-.367-4.15-.706-8.308-.756-12.476-.1-8.1.909-16.426,5.611-23.242a51.31,51.31,0,0,1,14.592-13.856c-10.867,1.569-20.56,3.659-23.537,6.156-7.072,5.931-8.6,83.386-8.6,83.386l19.417.683C434.6,392.584,434.471,392.385,434.367,392.172Z" fill="#d44459" opacity="0.1" style="mix-blend-mode: multiply;isolation: isolate"/>
            <path id="Path_25373" data-name="Path 25373" d="M520.392,299.6s-2.451,0-6.1-.006c-.013.413-.03.827-.056,1.238a37.309,37.309,0,0,1-.717,5.326,19.688,19.688,0,0,1-1.5,4.852c-1.544,3.055-4.43,5.277-7.259,7.076a50.659,50.659,0,0,1-9.516,4.722,93.523,93.523,0,0,1-22.187,4.815c-5.039.571-10.1.812-15.144,1.249-2.468.214-4.943.467-7.382.907a19.384,19.384,0,0,0-2.754.657,2.963,2.963,0,0,0-1.213.621c5.152-.2,46.624-1.832,62.656-2.26C526.323,328.338,520.392,299.6,520.392,299.6Z" fill="#d44459" opacity="0.1" style="mix-blend-mode: multiply;isolation: isolate"/>
            <g id="Group_3790" data-name="Group 3790">
              <g id="Group_3787" data-name="Group 3787">
                <path id="Path_25374" data-name="Path 25374" d="M434.647,382.719h-.018a.25.25,0,0,1-.231-.267l.109-1.494a.23.23,0,0,1,.268-.23.248.248,0,0,1,.23.267l-.109,1.492A.25.25,0,0,1,434.647,382.719Z" fill="#f59711"/>
              </g>
              <g id="Group_3788" data-name="Group 3788">
                <path id="Path_25375" data-name="Path 25375" d="M434.982,378.184h-.019a.249.249,0,0,1-.23-.268l.23-3.053a.237.237,0,0,1,.268-.23.248.248,0,0,1,.23.267l-.23,3.053A.25.25,0,0,1,434.982,378.184Zm.463-6.106h-.02a.249.249,0,0,1-.229-.268l.237-3.052a.234.234,0,0,1,.269-.23.25.25,0,0,1,.229.269l-.237,3.052A.25.25,0,0,1,435.445,372.078Zm.475-6.1H435.9a.25.25,0,0,1-.23-.269c.078-.993.159-2.012.243-3.051a.25.25,0,0,1,.5.041c-.084,1.037-.165,2.056-.243,3.049A.249.249,0,0,1,435.92,365.978Zm.49-6.1h-.02a.25.25,0,0,1-.229-.27l.25-3.048a.245.245,0,0,1,.27-.229.25.25,0,0,1,.229.27l-.25,3.048A.251.251,0,0,1,436.41,359.877Zm.505-6.1h-.02a.25.25,0,0,1-.229-.269l.259-3.048a.239.239,0,0,1,.271-.228.25.25,0,0,1,.227.271l-.259,3.046A.249.249,0,0,1,436.915,353.781Zm.523-6.1h-.022a.249.249,0,0,1-.227-.27l.27-3.049a.235.235,0,0,1,.272-.226.248.248,0,0,1,.226.271l-.27,3.047A.249.249,0,0,1,437.438,347.686Zm.55-6.093h-.024a.25.25,0,0,1-.225-.273q.143-1.547.286-3.046a.24.24,0,0,1,.272-.225.25.25,0,0,1,.226.272q-.143,1.5-.286,3.046A.251.251,0,0,1,437.988,341.593Zm.583-6.091h-.025a.251.251,0,0,1-.224-.273q.156-1.572.31-3.046a.257.257,0,0,1,.276-.223.252.252,0,0,1,.222.275c-.1.98-.206,2-.31,3.042A.251.251,0,0,1,438.571,335.5Zm.639-6.087-.027,0a.25.25,0,0,1-.221-.276c.121-1.082.24-2.1.357-3.042a.253.253,0,0,1,.278-.218.25.25,0,0,1,.218.278c-.116.941-.236,1.958-.357,3.037A.249.249,0,0,1,439.21,329.415Zm.762-6.074-.036,0a.249.249,0,0,1-.211-.283c.193-1.325.373-2.347.535-3.039a.249.249,0,1,1,.486.113c-.158.679-.336,1.687-.527,3A.25.25,0,0,1,439.972,323.341Zm2.805-4.452a.25.25,0,0,1-.032-.5c.782-.1,1.783-.2,3.061-.315a.25.25,0,1,1,.043.5c-1.271.112-2.266.214-3.041.313Zm6.106-.558a.25.25,0,0,1-.018-.5c.957-.071,1.98-.143,3.058-.217a.24.24,0,0,1,.266.233.249.249,0,0,1-.233.265c-1.076.073-2.1.146-3.054.217Zm6.112-.418a.25.25,0,0,1-.015-.5c.989-.062,2.01-.127,3.055-.19a.241.241,0,0,1,.266.234.251.251,0,0,1-.234.266c-1.046.063-2.067.127-3.056.188Zm6.113-.374a.25.25,0,0,1-.015-.5l3.056-.18a.254.254,0,0,1,.264.236.25.25,0,0,1-.235.264l-3.056.18Zm6.111-.355a.25.25,0,0,1-.015-.5l3.054-.176a.25.25,0,1,1,.029.5l-3.053.176Zm6.109-.352a.25.25,0,0,1-.014-.5l3.055-.179a.25.25,0,0,1,.03.5l-3.056.179Zm6.111-.361a.25.25,0,0,1-.015-.5l3.055-.187a.239.239,0,0,1,.265.234.249.249,0,0,1-.234.264q-1.5.1-3.057.189Zm6.112-.382a.25.25,0,0,1-.016-.5c1.055-.069,2.077-.139,3.054-.206a.241.241,0,0,1,.267.231.249.249,0,0,1-.232.267c-.979.067-2,.137-3.056.206Zm6.111-.432a.25.25,0,0,1-.019-.5c1.1-.086,2.128-.171,3.051-.255a.239.239,0,0,1,.271.227.249.249,0,0,1-.226.271c-.925.084-1.95.169-3.057.255Zm6.1-.576a.25.25,0,0,1-.031-.5,7.865,7.865,0,0,0,2.151-.419c.2-.122.414-.257.631-.4a.25.25,0,1,1,.279.414c-.224.151-.442.29-.652.416a7.208,7.208,0,0,1-2.347.487Zm5.255-2.79a.25.25,0,0,1-.174-.43,15.73,15.73,0,0,0,1.954-2.275.25.25,0,1,1,.41.285,16.106,16.106,0,0,1-2.016,2.35A.251.251,0,0,1,503.02,312.291Z" fill="#f59711"/>
              </g>
              <g id="Group_3789" data-name="Group 3789">
                <path id="Path_25376" data-name="Path 25376" d="M506.312,307.573a.262.262,0,0,1-.091-.017.25.25,0,0,1-.142-.324,8.63,8.63,0,0,0,.419-1.4.256.256,0,0,1,.3-.194.251.251,0,0,1,.2.3,9.273,9.273,0,0,1-.445,1.476A.249.249,0,0,1,506.312,307.573Z" fill="#f59711"/>
              </g>
            </g>
          </g>
          <g id="Group_3792" data-name="Group 3792">
            <path id="Path_25377" data-name="Path 25377" d="M414.767,392.9l27.167.814,1.73-8.75-30.025-1.29Z" fill="#f59711"/>
            <path id="Path_25378" data-name="Path 25378" d="M426.955,390.9a34.707,34.707,0,0,1-7.308-4.295,25.365,25.365,0,0,1-3.109-2.8l-2.9-.125,1.128,9.227,21.015.629A37.426,37.426,0,0,1,426.955,390.9Z" fill="#f59711" opacity="0.27" style="mix-blend-mode: multiply;isolation: isolate"/>
          </g>
        </g>
        <g id="Group_3794" data-name="Group 3794">
          <path id="Path_25379" data-name="Path 25379" d="M463.134,242.387s-17.621,19.925-20.213,20.759-29.932,5.476-29.932,5.476l-1.459,8.754s33.152,3.242,36.945.975S474.7,257.137,474.7,257.137Z" fill="#ffa18b"/>
        </g>
        <path id="Path_25380" data-name="Path 25380" d="M450.9,252.614s14.618-22.989,21.021-24.653,18.592,3.248,11.765,16.008a110.987,110.987,0,0,1-15.535,21.873S455.02,264.237,450.9,252.614Z" fill="#50bcff"/>
        <path id="Path_25381" data-name="Path 25381" d="M474.367,227.652a58.7,58.7,0,0,0-4.648,7.412c-1.725,3.178-3.254,6.459-4.734,9.757a109.7,109.7,0,0,0-4.054,10.243,67.241,67.241,0,0,0-2.006,7.336,25.2,25.2,0,0,0,9.226,3.442,110.987,110.987,0,0,0,15.535-21.873C489.714,232.7,480.916,227.556,474.367,227.652Z" fill="#50bcff" opacity="0.38" style="mix-blend-mode: multiply;isolation: isolate"/>
        <g id="Group_3796" data-name="Group 3796">
          <path id="Path_25382" data-name="Path 25382" d="M522.282,267.7c-1.819-26.759-3.046-33.415-6.173-37.33-3.1-3.882-14.545-5.58-22.6-5.9s-19.819,1.962-23.166,4.256-5.364,12.051-4.846,24.181c.449,10.507,2.66,21.675,2.571,26.538-.164,9.027-1.937,12.508-3.225,19.227,10.072,7.009,49.057,10.768,57.423,9.09C523.085,298.634,523.162,280.653,522.282,267.7Z" fill="#fff"/>
          <g id="Group_3795" data-name="Group 3795" clip-path="url(#clip-path-3)">
            <path id="Path_25383" data-name="Path 25383" d="M479.477,230.689a4.021,4.021,0,0,0,1.077,3.427,6.711,6.711,0,0,0,3.263,1.688c2.3.63,7.479-.047,9.81-2.661,3.881,9.218,8.365,19.03,17.425,23.981a23.346,23.346,0,0,0,8.023,2.9,10.894,10.894,0,0,0,8.016-1.8c2.591-1.985,3.763-5.383,3.762-8.717a28.329,28.329,0,0,0-2.221-9.772c-2.028-5.413-4.624-10.771-8.846-14.7-6.36-5.91-15.372-7.64-23.69-7.921a55.645,55.645,0,0,0-20.38,2.64,31.8,31.8,0,0,0-15.888,11.731,29.393,29.393,0,0,0-3.115,25.667,2.953,2.953,0,0,0,1.653-.1c4.474-2.814,6.744-8.221,9.533-12.915A52.566,52.566,0,0,1,479.477,230.689Z" fill="#50bcff"/>
            <path id="Path_25384" data-name="Path 25384" d="M507.252,290.943c-1.175,3.641-2.509,7.4-5.253,10.071-4.6,4.465-11.877,4.717-17.222,8.254,1.387,3.895,5.992,5.421,10.024,6.337,7.954,1.806,16.436,3.2,24.132.494a12.722,12.722,0,0,0,6.634-4.677,15.567,15.567,0,0,0,1.972-6.158c1.7-10.758,1.208-21.73.589-32.6q-.977-17.135-2.412-34.24c-.276-3.245-.62-6.644-2.437-9.348a9.692,9.692,0,0,0-4.6-3.643c-2.881-1.056-2.366,1.077-2.2,3.3a121.524,121.524,0,0,1,.155,15.35,162.522,162.522,0,0,1-4.6,30.046C510.659,279.787,509.041,285.393,507.252,290.943Z" fill="#50bcff" opacity="0.24" style="mix-blend-mode: multiply;isolation: isolate"/>
            <path id="Path_25385" data-name="Path 25385" d="M487.148,305.876a92.837,92.837,0,0,1-12.289-5.049c-1.863-.989-3.769-2.144-4.64-3.895a28.693,28.693,0,0,1,6.668.209l10.763,1.179a62.787,62.787,0,0,1-10.743-5.312c-1.727-.983-6.556-2.976-5.163-5.743.474-.941,1.545-1.367,2.37-1.933a1.98,1.98,0,0,0,.577-2.872c-.817-1.466-2.408-2.407-3.773-3.293a26.5,26.5,0,0,1-4.191-3.344,25.722,25.722,0,0,1-2.073-2.276c-.281,2.21.213,4.517.114,6.769a37.262,37.262,0,0,1-1.323,6.673,39.1,39.1,0,0,0-.5,15.183,5.811,5.811,0,0,0,.925,2.625,6.8,6.8,0,0,0,2.835,1.9c5.578,2.389,11.9,3.083,18.1,3.586C488.533,310.588,491.317,307.383,487.148,305.876Z" fill="#50bcff" opacity="0.24" style="mix-blend-mode: multiply;isolation: isolate"/>
          </g>
        </g>
        <g id="Group_3802" data-name="Group 3802">
          <g id="Group_3797" data-name="Group 3797">
            <path id="Path_25387" data-name="Path 25387" d="M423.215,265.439a15.083,15.083,0,0,1,5.6-6.483,9.035,9.035,0,0,1,2.446-1.264,11.3,11.3,0,0,1,5.569.107A46.54,46.54,0,0,1,443,259.955q2.824,1.077,5.638,2.174a6.92,6.92,0,0,0,1.428.566c3.839.5,27.761,3.581,32.055,3.725,4.4-4.66,11.077-17.1,11.077-17.1s11.913,1.453,15.49,8.324c.041-.185-14.466,20.554-16.626,21.69s-11.945-.487-23.777-3.553c-8.954-2.32-16.7-4.733-19.932-5.769a8.392,8.392,0,0,1-1.589.257c-6.261.435-5.311-3.121-5.612-3.33l.16-.208c-1.209.427-2.426.83-3.657,1.188-.5.145-1.159.232-1.372-.161-.167-.307.077-.692.318-.994a25.636,25.636,0,0,1,2.663-2.853l-6.069,4.037c-.4.268-.955.544-1.323.3s-.208-.777,0-1.176a14.869,14.869,0,0,1,4.4-5.057l-4.087,3.081c-.935.7-1.872,1.411-2.869,2.041a3.727,3.727,0,0,1-2.966.766.413.413,0,0,1-.286-.223.47.47,0,0,1,.077-.333c1.171-2.27,3.244-4.107,5.266-5.881q-2.708,2.076-5.414,4.153a3.113,3.113,0,0,1-2.388.91.724.724,0,0,1-.441-.266A.911.911,0,0,1,423.215,265.439Z" fill="#ffc9b0"/>
            <path id="Path_25388" data-name="Path 25388" d="M489.407,265.921a15.955,15.955,0,0,1-2.982-5.212c3.482-5.265,6.769-11.389,6.769-11.389s11.913,1.453,15.49,8.324c.027-.12-6.055,8.545-10.928,14.97C494.4,271.462,491.352,268.174,489.407,265.921Z" fill="#ffc9b0" style="mix-blend-mode: multiply;isolation: isolate"/>
            <path id="Path_25389" data-name="Path 25389" d="M441.052,265.771a36.046,36.046,0,0,1,4.153,1.122c1.357.326,2.776.449,4.158.694a78.6,78.6,0,0,1,10.751,3.108,198.15,198.15,0,0,0,20.268,5.505c4.188.9,8.619,2.094,13.055,1.819a7.066,7.066,0,0,1-1.379,1.315c-2.16,1.135-11.945-.487-23.777-3.553-8.954-2.32-16.7-4.733-19.932-5.769a8.392,8.392,0,0,1-1.589.257c-6.261.435-5.311-3.121-5.612-3.33l.16-.208c-1.209.427-2.426.83-3.657,1.188a2.179,2.179,0,0,1-.992.1A48.4,48.4,0,0,1,441.052,265.771Z" fill="#ffc9b0" opacity="0.3" style="mix-blend-mode: multiply;isolation: isolate"/>
          </g>
          <g id="Group_3799" data-name="Group 3799">
            <g id="Group_3798" data-name="Group 3798">
              <path id="Path_25390" data-name="Path 25390" d="M484.792,258.878c1.11-1.541,10.014-15.47,13.073-20.654a25.083,25.083,0,0,1,6.1-7.549c1.9-1.463,7.266-4.764,11.13-.281.2.236.4.486.583.735a10.2,10.2,0,0,1,.556.88c2.564,4.443,1.81,10.534.29,15.669a25.5,25.5,0,0,1-1.081,2.963,96.154,96.154,0,0,1-11.622,19.652C497.888,269.855,487.756,264.5,484.792,258.878Z" fill="#50bcff"/>
            </g>
          </g>
          <g id="Group_3801" data-name="Group 3801">
            <g id="Group_3800" data-name="Group 3800">
              <path id="Path_25391" data-name="Path 25391" d="M515.81,248.018q-1.713,2.29-3.552,4.478c-2.073,2.453-4.32,4.762-6.589,7.032-2.226,2.225-4.515,4.391-6.908,6.437-.84.72-1.7,1.417-2.572,2.1a23.842,23.842,0,0,0,7.629,2.227,96.154,96.154,0,0,0,11.622-19.652,25.5,25.5,0,0,0,1.081-2.963c.1-.342.2-.69.293-1.04C516.481,247.1,516.151,247.563,515.81,248.018Z" fill="#50bcff" opacity="0.38" style="mix-blend-mode: multiply;isolation: isolate"/>
            </g>
          </g>
        </g>
        <g id="Group_3804" data-name="Group 3804">
          <path id="Path_25392" data-name="Path 25392" d="M480.853,217l13.729-1.985,1.5,11.315a2.943,2.943,0,0,1-.663,2.28,11.747,11.747,0,0,1-7.767,4.226c-4.211.492-4.743-1.439-4.684-2.643a14.511,14.511,0,0,0-.292-3.34Z" fill="#ffc9b0"/>
          <g id="Group_3803" data-name="Group 3803" clip-path="url(#clip-path-4)">
            <path id="Path_25393" data-name="Path 25393" d="M478.391,224.759c11.329.43,16.187-10.462,15.864-10.922-.4-.571-1.486-.538-2.365-.389-6.191,1.05-14.823,3.866-15.805,6.175S476.792,224.7,478.391,224.759Z" fill="#ffc9b0" style="mix-blend-mode: multiply;isolation: isolate"/>
          </g>
        </g>
        <g id="Group_3812" data-name="Group 3812">
          <path id="Path_25395" data-name="Path 25395" d="M504.56,204.462a3.277,3.277,0,0,1-2.137-.6,6.279,6.279,0,0,1-.932-1.89c-1-1.967-3.25-3.02-5.278-1.634-4.972,3.4-2.629,9.16-2.178,10.07a6.1,6.1,0,0,0,3.434,2.963c.475.144,1.364.323,1.5-.352.078-.4-.383-.775-.44-1.134a8.131,8.131,0,0,0,2.837.845c1.225.038,3.278-.311,3.895-1.491.648-1.238-.6-1.772-1.529-2.281,1.592.059,3.148-2.069,3.714-3.279C508.171,204.124,505.542,204.5,504.56,204.462Z"/>
          <g id="Group_3805" data-name="Group 3805">
            <path id="Path_25396" data-name="Path 25396" d="M459.987,179.12a7.241,7.241,0,0,0-.892,2.608,21.856,21.856,0,0,0-.138,6.98,7.308,7.308,0,0,0,.917,2.91,7.844,7.844,0,0,0,3.409,2.643,3.422,3.422,0,0,0,2.631.409,2.575,2.575,0,0,0,1.257-1.235c.983-1.82.7-4.005.371-6.031a22.477,22.477,0,0,0-1.45-5.714,8.781,8.781,0,0,0-2.722-3.516C462.031,177.191,460.841,177.769,459.987,179.12Z"/>
          </g>
          <g id="Group_3808" data-name="Group 3808">
            <path id="Path_25397" data-name="Path 25397" d="M481.463,221.309c-8.209,1.98-12.65,0-15.06-2.775-.184-.206-.347-.421-.51-.637-2.257-3.1-4.105-10.019-4.636-12.666-.041-.226-.082-.451-.133-.686a.19.19,0,0,0-.01-.079,58.388,58.388,0,0,1-.776-12.225c.664-18.3,16.03-26.195,29.089-20.166a24.955,24.955,0,0,1,11.65,11.686q.291.588.551,1.206C509.429,203.329,497.054,217.574,481.463,221.309Z" fill="#ffc9b0"/>
            <g id="Group_3807" data-name="Group 3807" opacity="0.21">
              <g id="Group_3806" data-name="Group 3806">
                <path id="Path_25398" data-name="Path 25398" d="M467.965,217.515a3.078,3.078,0,0,1-1.562,1.019c-.184-.206-.347-.421-.51-.637-2.257-3.1-4.105-10.019-4.636-12.666-.041-.226-.082-.451-.133-.686a5.262,5.262,0,0,1,2.8,1.48,14.091,14.091,0,0,1,4.543,8.813A3.652,3.652,0,0,1,467.965,217.515Z" fill="#d44459"/>
                <path id="Path_25399" data-name="Path 25399" d="M492.258,214.48c.192-.145.375-.294.55-.445,2.916-2.524,6.218-7.713,3.256-11.607a5.593,5.593,0,0,0-6.355-1.618,9.473,9.473,0,0,0-4.827,4.87,10.136,10.136,0,0,0-1.165,5.191,6.03,6.03,0,0,0,2.5,4.6C488.186,216.737,490.542,215.777,492.258,214.48Z" fill="#d44459"/>
              </g>
            </g>
          </g>
          <g id="Group_3809" data-name="Group 3809">
            <path id="Path_25400" data-name="Path 25400" d="M509.535,189a45.845,45.845,0,0,1-.992,4.6c-.159.566-.82,4.116-1.324,4.282a1.752,1.752,0,0,1-.647.1,2.01,2.01,0,0,1-1.237-.635c-.691-.663-1.338-1.519-2.46-1.354-1.612.207-2.82,3.854-4.46,3.909-2,.069-2.791-1.85-3.367-3.729a53.131,53.131,0,0,1,.461-7.142,3.618,3.618,0,0,0,.043-.373,3.752,3.752,0,0,0-.288-.442c-1.237-1.726-3.309-2.362-5.136-3.287a16.3,16.3,0,0,1-3.179-2.445,10.5,10.5,0,0,1-2.82-3.578,34.972,34.972,0,0,1-1.367-4.3,26.9,26.9,0,0,1-9.078,6.99,43.418,43.418,0,0,1-7.667,2.831c-2.029.5-5.18,1.023-6.92-.442-1.6-1.34-1.525-3.342-1.137-5.221.59-2.832,2.561-4.738,4.762-6.548a37.472,37.472,0,0,1,21.565-8.619,29.7,29.7,0,0,1,5.194.193,26.5,26.5,0,0,1,6.618,1.672,21.039,21.039,0,0,1,2.143.953c.547.29,1.093.58,1.626.912a22.341,22.341,0,0,1,4.949,4.061,18.462,18.462,0,0,1,4.546,8.149c.014.042.014.083.029.125A24.571,24.571,0,0,1,509.535,189Z"/>
            <path id="Path_25401" data-name="Path 25401" d="M504.817,171.392c-1.324.5-3.453-.926-4.561-1.133-3.093-.552.245,3.854-.072,4.959-.345,1.215-1.928,1.271-3.007,1.146-1.783-.179-2.69-1.381-4.2-2.058a1.782,1.782,0,0,0-2.561,1.244c-.23.856.849,3.052.216,3.646-.95.87-3.482-.538-4.158-1.146-1.266-1.133-2.244-3.3-1.539-4.959.187-.525,1.6-.677,2.172-1,1.18-.608,2.259-1.381,3.424-2a54.279,54.279,0,0,1,5.006-2.762,24.128,24.128,0,0,1,2.705-.912c.547.29,1.093.58,1.626.912A22.341,22.341,0,0,1,504.817,171.392Z" fill="#004dbe"/>
            <path id="Path_25402" data-name="Path 25402" d="M496.1,165.466a27.63,27.63,0,0,1-2.6,1.16,41.529,41.529,0,0,0-5.669,2.555,28,28,0,0,0-4.589,2.9c-.82.691-1.813,2.321-2.5,2.321-1.64,2.4-5.064,2.293-7.438,1.229-1.395-.621-1.755-1.63-.173-2.444,1.727-.885,3.856-.857,5.654-1.672,1.41-.649,2.691-1.782,2.144-3.384-.345-1-1.5-2.5.244-2.874,1.324-.276,2.863,1.009,4.173,1.244a2.128,2.128,0,0,0,2.517-.995,5.046,5.046,0,0,1,1.626-1.713A26.5,26.5,0,0,1,496.1,165.466Z" fill="#004dbe"/>
          </g>
          <g id="Group_3810" data-name="Group 3810">
            <path id="Path_25403" data-name="Path 25403" d="M467.6,202.2c.213,1.311-.283,2.475-1.108,2.6s-1.666-.839-1.879-2.151.283-2.475,1.107-2.6S467.386,200.885,467.6,202.2Z"/>
            <path id="Path_25404" data-name="Path 25404" d="M484.729,199.97c.221,1.358-.373,2.575-1.327,2.718s-1.906-.843-2.126-2.2.373-2.576,1.326-2.719S484.508,198.611,484.729,199.97Z"/>
            <path id="Path_25405" data-name="Path 25405" d="M471.9,210.548a15.924,15.924,0,0,0,5.5-1.374,18.976,18.976,0,0,0,4.554-3.15c.118-.1.328.032.231.171-2.163,3.1-6.473,4.869-10.286,4.727A.187.187,0,1,1,471.9,210.548Z" fill="#c72c19"/>
            <path id="Path_25406" data-name="Path 25406" d="M472.024,207.378a2.543,2.543,0,0,1-2.19-2.268,1.661,1.661,0,0,1,.717-1.364c.361-.234.812-.3,1.183-.521.945-.553.484-1.525.222-2.34a14.483,14.483,0,0,0-1.362-3.577c-.1-.145-.389-.1-.366.1a8.8,8.8,0,0,0,.538,1.9q.355,1,.691,2.012c.112.337.418.882.213,1.221a1.287,1.287,0,0,1-.623.388,2.969,2.969,0,0,0-1.188.706,2.252,2.252,0,0,0-.309,2.451,3.068,3.068,0,0,0,2.443,1.518C472.126,207.617,472.152,207.408,472.024,207.378Z" fill="#c72c19"/>
            <path id="Path_25407" data-name="Path 25407" d="M467.243,191.539c.3.742-.791.651-2.418,1.112s-1.73,1.882-2.221,1.825-.424-2.555,1.679-3.414C465.89,190.4,467.046,191.049,467.243,191.539Z"/>
            <path id="Path_25408" data-name="Path 25408" d="M477.408,189.761c-.148.667,1.864.392,4.092.242s3.831,1.439,4.083.859-1.339-2.457-4.043-2.52S477.507,189.321,477.408,189.761Z"/>
          </g>
          <g id="Group_3811" data-name="Group 3811">
            <path id="Path_25409" data-name="Path 25409" d="M498.872,197.368c1.175-3.02,3.628-5.441,7.14-4.351a3.878,3.878,0,0,1,2.392,2.418,6.935,6.935,0,0,1,.205,3.417,10.47,10.47,0,0,1-4.5,7.285,3.876,3.876,0,0,1-3.241.666c-1.478-.516-2.237-2.093-2.577-3.467A10.5,10.5,0,0,1,498.872,197.368Z" fill="#ffc9b0"/>
            <path id="Path_25410" data-name="Path 25410" d="M502.8,194.581c-.858.861-1.325,2.052-2.148,2.892-.578.591-.948,1.462-1.937.462-.009-.009-.017-.025-.026-.035.06-.179.118-.357.186-.532,1.1-2.829,3.323-5.132,6.486-4.516A7.469,7.469,0,0,0,502.8,194.581Z" fill="#ffc9b0" opacity="0.3" style="mix-blend-mode: multiply;isolation: isolate"/>
            <path id="Path_25411" data-name="Path 25411" d="M506.189,195.87a1.8,1.8,0,0,0-1.131-.3,3,3,0,0,0-2.2,1.4,10.063,10.063,0,0,0-1.143,2.492,7.366,7.366,0,0,0-.374,2.77c.011.186.337.183.34-.006a9.536,9.536,0,0,1,1.4-4.435,5.217,5.217,0,0,1,.4-.594,4.139,4.139,0,0,1,.783,2.176,6.785,6.785,0,0,1-.474,2.681.088.088,0,0,0,.153.082,4.273,4.273,0,0,0-.207-5.243,2.289,2.289,0,0,1,.981-.621,1.723,1.723,0,0,1,1.819.554c.067.1.259.019.225-.1A1.494,1.494,0,0,0,506.189,195.87Z" fill="#c72c19"/>
          </g>
        </g>
      </g>
    </g>
    <g id="Group_3827" data-name="Group 3827">
      <g id="Group_3817" data-name="Group 3817">
        <g id="Group_3815" data-name="Group 3815">
          <path id="Path_25412" data-name="Path 25412" d="M225.79,453.024h-4.744l16.028-161.539h13.2Z"/>
          <path id="Path_25413" data-name="Path 25413" d="M491.261,453.024H496L479.977,291.485h-13.2Z"/>
        </g>
        <g id="Group_3816" data-name="Group 3816">
          <rect id="Rectangle_1249" data-name="Rectangle 1249" width="257.897" height="17.662" transform="translate(229.577 277.453)" fill="#004dbe"/>
          <rect id="Rectangle_1250" data-name="Rectangle 1250" width="257.895" height="6.911" transform="translate(229.578 277.45)" fill="#004dbe" opacity="0.45" style="mix-blend-mode: multiply;isolation: isolate"/>
          <rect id="Rectangle_1251" data-name="Rectangle 1251" width="269.124" height="8.735" transform="translate(223.964 272.36)" fill="#004dbe"/>
        </g>
      </g>
      <g id="Group_3823" data-name="Group 3823">
        <g id="Group_3820" data-name="Group 3820">
          <path id="Path_25414" data-name="Path 25414" d="M312.055,215.012h70.191a3.306,3.306,0,0,1,3.094,2.145L404.2,267.5H328.578l-18.562-49.55A2.177,2.177,0,0,1,312.055,215.012Z" fill="#94d5ff"/>
          <rect id="Rectangle_1252" data-name="Rectangle 1252" width="111.687" height="5.237" transform="translate(437.704 272.74) rotate(180)" fill="#94d5ff"/>
          <path id="Path_25415" data-name="Path 25415" d="M424.4,272.031c2.84-.563,8.328-1.95,11.447-4.528H437.7v5.237H420.325C421.7,272.534,423.067,272.3,424.4,272.031Z" fill="#50bcff"/>
          <rect id="Rectangle_1253" data-name="Rectangle 1253" width="75.621" height="5.237" transform="translate(401.638 272.74) rotate(180)" fill="#50bcff"/>
          <g id="Group_3818" data-name="Group 3818" style="mix-blend-mode: multiply;isolation: isolate">
            <rect id="Rectangle_1254" data-name="Rectangle 1254" width="21.751" height="2.25" transform="translate(371.823 269.103)" fill="#50bcff" opacity="0.8"/>
            <rect id="Rectangle_1255" data-name="Rectangle 1255" width="5.025" height="2.25" transform="translate(328.471 269.103)" fill="#50bcff" opacity="0.8"/>
            <rect id="Rectangle_1256" data-name="Rectangle 1256" width="5.025" height="2.25" transform="translate(335.146 269.103)" fill="#50bcff" opacity="0.8"/>
          </g>
          <path id="Path_25416" data-name="Path 25416" d="M309.493,215.012h70.19a3.3,3.3,0,0,1,3.094,2.145L401.638,267.5H326.016l-18.562-49.55A2.177,2.177,0,0,1,309.493,215.012Z" fill="#50bcff"/>
          <path id="Path_25417" data-name="Path 25417" d="M309.493,215.012h59.136c-28.757.731-44.127,1.6-50.039,2.473s-9.894,2.178-8.862,6.539l-2.274-6.071A2.177,2.177,0,0,1,309.493,215.012Z" fill="#94d5ff" opacity="0.51"/>
          <path id="Path_25418" data-name="Path 25418" d="M325.641,263.327c15.478,4.2,35.306,3.157,47.674-8.18,6.562-6.015,9.755-15.2,9.627-23.979a42.392,42.392,0,0,0-3.288-16.156h.029a3.3,3.3,0,0,1,3.094,2.145L401.638,267.5H326.016l-1.707-4.556C324.754,263.078,325.2,263.207,325.641,263.327Z" fill="#50bcff" opacity="0.35" style="mix-blend-mode: multiply;isolation: isolate"/>
          <g id="Group_3819" data-name="Group 3819" style="mix-blend-mode: multiply;isolation: isolate">
            <path id="Path_25419" data-name="Path 25419" d="M395.641,270.122a1.444,1.444,0,1,0,1.444-1.444A1.443,1.443,0,0,0,395.641,270.122Z" fill="#50bcff" opacity="0.46"/>
            <path id="Path_25420" data-name="Path 25420" d="M396.119,270.122a.966.966,0,1,0,.966-.966A.965.965,0,0,0,396.119,270.122Z" fill="#50bcff" opacity="0.8"/>
          </g>
        </g>
        <g id="Group_3822" data-name="Group 3822">
          <g id="Group_3821" data-name="Group 3821">
            <path id="Path_25421" data-name="Path 25421" d="M362.737,250.534l-5.32-4.268a2.017,2.017,0,0,0-1.651-.464l-5.533,1.216a2.266,2.266,0,0,1-2.505-2.522l1.262-5.517a2.01,2.01,0,0,0-.451-1.653l-4.23-5.348c-1.015-1.283-.367-2.839,1.1-2.633l6.1.858a1.349,1.349,0,0,0,1.372-.557l2.919-4.522c.7-1.084,2.58-.556,3.182.9l2.507,6.048a2.49,2.49,0,0,0,1.3,1.309l6.034,2.553c1.447.613,1.962,2.495.87,3.186l-4.55,2.879a1.348,1.348,0,0,0-.569,1.366l.811,6.1C365.575,250.923,364.013,251.558,362.737,250.534Z" fill="#414379"/>
            <path id="Path_25422" data-name="Path 25422" d="M362.711,248.384l-5.748-4.612a.688.688,0,0,0-.561-.158l-5.979,1.315a.769.769,0,0,1-.85-.857l1.364-5.962a.686.686,0,0,0-.154-.561l-4.571-5.779c-.344-.436-.124-.964.372-.894l6.592.928a.458.458,0,0,0,.466-.19l3.154-4.886c.237-.368.876-.189,1.08.3l2.71,6.535a.845.845,0,0,0,.441.445l6.521,2.759c.491.208.666.847.295,1.082l-4.917,3.111a.458.458,0,0,0-.193.464l.876,6.592C363.675,248.516,363.144,248.732,362.711,248.384Z" fill="#ffd245"/>
            <path id="Path_25423" data-name="Path 25423" d="M358.951,240.71l-1.992-1.6a.241.241,0,0,0-.2-.055l-2.072.456a.266.266,0,0,1-.294-.3l.472-2.066a.234.234,0,0,0-.053-.194l-1.584-2c-.119-.151-.043-.334.129-.31l2.284.322a.16.16,0,0,0,.162-.066l1.093-1.693c.082-.128.3-.066.374.105l.939,2.265a.3.3,0,0,0,.153.154l2.26.956c.17.072.23.294.1.375l-1.7,1.078a.158.158,0,0,0-.067.161l.3,2.284C359.285,240.756,359.1,240.831,358.951,240.71Z" fill="#fff"/>
          </g>
          <path id="Path_25424" data-name="Path 25424" d="M341.316,250.995c1.569,5.5,6.732,9.745,11.532,9.489s7.418-4.92,5.848-10.417-6.732-9.745-11.532-9.489S339.746,245.5,341.316,250.995Z" fill="#fff"/>
          <path id="Path_25425" data-name="Path 25425" d="M342.9,250.91c1.283,4.493,5.5,7.966,9.427,7.757s6.064-4.022,4.781-8.515-5.5-7.966-9.427-7.757S341.619,246.417,342.9,250.91Z" fill="#d44459"/>
          <path id="Path_25426" data-name="Path 25426" d="M355.36,249.846a.315.315,0,0,0-.516-.136c-.672.548-1.439-.841-1.764-1.238l-2.04-2.492a.6.6,0,0,0-.992.262,6.116,6.116,0,0,0,.044,1.716c-.1-.146-.182-.3-.284-.437a1.447,1.447,0,0,0-1.633-.742c-.712.282-.738,1.1-.735,1.76a16.111,16.111,0,0,0,.9,4.674c.119.386.25.769.376,1.153a9.217,9.217,0,0,0,.338,1.09c-.027-.012-.053-.024-.079-.038a2.448,2.448,0,0,1-.38-.3,7.946,7.946,0,0,1-.729-.739,7.65,7.65,0,0,1-1.271-2.074c-.244-.6-.693-1.651-.207-2.224a.286.286,0,0,0-.4-.4c-1.029.9-.347,2.621.119,3.643a8.127,8.127,0,0,0,1.184,1.847,4,4,0,0,0,1.506,1.282.937.937,0,0,0,1.354-.7,3.19,3.19,0,0,0-.2-1.1c-.118-.445-.243-.889-.369-1.332a16.8,16.8,0,0,1-.939-4.952c0-.109,0-.232.015-.342l0-.011c.056.062.127.13.164.178a9.764,9.764,0,0,1,.736,1.19,12.266,12.266,0,0,1,1.038,2.6.6.6,0,0,0,1.175-.159,14.032,14.032,0,0,0-.48-3.657c.594.748,1.194,1.494,1.844,2.181a1.672,1.672,0,0,0,1.539.609A.849.849,0,0,0,355.36,249.846Z" fill="#ffd245"/>
        </g>
      </g>
      <g id="Group_3826" data-name="Group 3826">
        <g id="Group_3824" data-name="Group 3824">
          <path id="Path_25427" data-name="Path 25427" d="M288.791,229.9c-3.052-2.512-3.3-7.178-2.231-10.687a34.73,34.73,0,0,0,1.347-5.589,10.214,10.214,0,0,0-.2-4.751c.413.668.886,1.133,1.309,1.8a14.339,14.339,0,0,1,1.437,3.279A17.033,17.033,0,0,1,291.5,219.4a33.169,33.169,0,0,1-.749,5.368,20.547,20.547,0,0,1-.75,3.54C289.883,228.64,289.289,230.306,288.791,229.9Z" fill="#94d5ff"/>
          <path id="Path_25428" data-name="Path 25428" d="M286.044,230.207a12.779,12.779,0,0,1-7.563-7.31,25.093,25.093,0,0,1-1.2-4.536,15.483,15.483,0,0,1-.359-2.321,1.969,1.969,0,0,0,.67,1.105,21.811,21.811,0,0,0,2.015,1.821,26.454,26.454,0,0,0,2.322,1.854,24.371,24.371,0,0,1,2.666,1.9,11.079,11.079,0,0,1,3.44,5.321,2.506,2.506,0,0,1-.2,2.024A1.84,1.84,0,0,1,286.044,230.207Z" fill="#94d5ff"/>
          <path id="Path_25429" data-name="Path 25429" d="M288.676,229.782c-.562-.844.338-2.446.806-3.1a13.705,13.705,0,0,1,4.641-3.858,43.431,43.431,0,0,1,6.1-2.46,10.957,10.957,0,0,0,2.584-1.11c.409-.28,1.039-.688,1.157-1.209-.009,2.271-1.653,4.253-3.05,5.9a14.578,14.578,0,0,1-5.1,3.951c-1.225.566-2.423,1.054-3.69,1.5a8.076,8.076,0,0,1-2.222.535C289.451,229.945,288.9,230.126,288.676,229.782Z" fill="#94d5ff"/>
          <path id="Path_25430" data-name="Path 25430" d="M302.547,203.859a35.371,35.371,0,0,0-4.556,6.011,71.118,71.118,0,0,0-3.918,6.89,58.6,58.6,0,0,0-5.137,14.572.164.164,0,0,0,.316.087,92.675,92.675,0,0,1,5.593-14.387,71.738,71.738,0,0,1,3.693-6.483c1.4-2.178,3.01-4.208,4.4-6.389A.249.249,0,0,0,302.547,203.859Z" fill="#004dbe"/>
          <path id="Path_25431" data-name="Path 25431" d="M286.105,217.894c-1.227-4.088-2.9-8.4-5.971-11.463-.1-.1-.3.036-.2.157a34.566,34.566,0,0,1,5.422,11.689,83.762,83.762,0,0,1,2.088,13.569.215.215,0,0,0,.429,0A36.642,36.642,0,0,0,286.105,217.894Z" fill="#004dbe"/>
          <path id="Path_25432" data-name="Path 25432" d="M279.07,210.02a4.311,4.311,0,0,1-2.357-.7,2.839,2.839,0,0,1-1.01-1.656,3.638,3.638,0,0,0-1.279-1.8,5.181,5.181,0,0,0-2.754-1.323c-.2-.025-.776.034-.836-.228-.077-.334.784-.825,1-.931a5.583,5.583,0,0,1,2.337-.523c.566-.007,1.164.314,1.707.239a3.277,3.277,0,0,1-1.091-2.148c-.048-.714.2-2.181,1.01-2.464.6-.207.576.722.649,1.1a4.427,4.427,0,0,0,.967,2.262c0-1.06.58-2.62,1.684-2.962.063.677-.464,1.454-.2,2.138a3.213,3.213,0,0,1,.848-1.077c.23-.186.59-.624.916-.6a4.593,4.593,0,0,0-.242,1.608c-.049,1.092.829,1.518,1.516,2.22a4.992,4.992,0,0,1,1.072,1.177,4.5,4.5,0,0,1,.238,2.463C283.058,208.144,281.917,209.934,279.07,210.02Z" fill="#d44459"/>
          <path id="Path_25433" data-name="Path 25433" d="M308.351,200.72c.134-.044.4-.053.436-.209.111-.454-1.345-.682-1.577-.731a4,4,0,0,0-1.58.029c-.171.032-.476.2-.545.013-.063-.168.288-.714.357-.859.111-.233.333-.529.292-.8a2.192,2.192,0,0,0-2.021,1.218c-.369-.516-.5-1.2-.91-1.712a2.2,2.2,0,0,0-.773-.693c-.156-.065-.579-.154-.733-.031s-.1.444-.091.61a5.809,5.809,0,0,1-.005,1.795c-.183.744-.723.906-1.319,1.253a4.184,4.184,0,0,0-1.041.9,3.076,3.076,0,0,0-.754,1.8,4.107,4.107,0,0,0,1.654,3.275,5.184,5.184,0,0,0,.852.569c1.882,1,4.7,1.454,5.811-.866a5.826,5.826,0,0,0,.373-3.1.972.972,0,0,1,.058-.514,1.214,1.214,0,0,1,.844-.5c.246-.057.7-.166.291-.41-.325-.2-.787-.054-1.141-.072a4.138,4.138,0,0,1,.877-.654A3.25,3.25,0,0,1,308.351,200.72Z" fill="#d44459"/>
        </g>
        <g id="Group_3825" data-name="Group 3825">
          <path id="Path_25434" data-name="Path 25434" d="M303.484,253.228a10.407,10.407,0,0,0-5.806-9.808,7.009,7.009,0,0,1-3.9-6.172v-7.562H284v7.562a7.009,7.009,0,0,1-3.9,6.172,10.407,10.407,0,0,0-5.806,9.808A19.2,19.2,0,0,0,277,262.663c1.547,2.654,5.24,5.675,5.24,8.747h13.3c0-3.072,3.694-6.093,5.24-8.747A19.189,19.189,0,0,0,303.484,253.228Z" fill="#ffd245"/>
          <rect id="Rectangle_1257" data-name="Rectangle 1257" width="11.878" height="1.797" rx="0.622" transform="translate(282.949 229.163)" fill="#f59711"/>
          <rect id="Rectangle_1258" data-name="Rectangle 1258" width="15.234" height="1.76" rx="0.609" transform="translate(281.271 270.759)" fill="#f59711"/>
        </g>
      </g>
    </g>
  </g>
</svg>
