<svg xmlns="http://www.w3.org/2000/svg" width="245.179" height="288.409" viewBox="0 0 245.179 288.409">
  <g id="Group_4381" data-name="Group 4381" transform="translate(72.942 -21.281)">
    <g id="Group_3975" data-name="Group 3975" transform="translate(0 21.281)">
      <path id="Path_25583" data-name="Path 25583" d="M653.881,467.867a1.156,1.156,0,1,0,1.086,1.155A1.122,1.122,0,0,0,653.881,467.867Z" transform="translate(-567.763 -234.62)" fill="#10298a"/>
      <path id="Path_25584" data-name="Path 25584" d="M653.881,487.827a1.156,1.156,0,1,0,1.086,1.154A1.121,1.121,0,0,0,653.881,487.827Z" transform="translate(-567.763 -233.376)" fill="#10298a"/>
      <path id="Path_25585" data-name="Path 25585" d="M636.875,467.867a1.156,1.156,0,1,0,1.086,1.155A1.123,1.123,0,0,0,636.875,467.867Z" transform="translate(-533.75 -234.62)" fill="#10298a"/>
      <path id="Path_25586" data-name="Path 25586" d="M636.875,487.827a1.156,1.156,0,1,0,1.086,1.154A1.122,1.122,0,0,0,636.875,487.827Z" transform="translate(-533.75 -233.376)" fill="#10298a"/>
      <path id="Path_25587" data-name="Path 25587" d="M619.868,467.867a1.156,1.156,0,1,0,1.086,1.155A1.122,1.122,0,0,0,619.868,467.867Z" transform="translate(-499.737 -234.62)" fill="#10298a"/>
      <path id="Path_25588" data-name="Path 25588" d="M619.868,487.827a1.156,1.156,0,1,0,1.086,1.154A1.121,1.121,0,0,0,619.868,487.827Z" transform="translate(-499.737 -233.376)" fill="#10298a"/>
      <path id="Path_25589" data-name="Path 25589" d="M602.862,467.867a1.156,1.156,0,1,0,1.086,1.155A1.123,1.123,0,0,0,602.862,467.867Z" transform="translate(-465.724 -234.62)" fill="#10298a"/>
      <path id="Path_25590" data-name="Path 25590" d="M602.862,487.827a1.156,1.156,0,1,0,1.086,1.154A1.122,1.122,0,0,0,602.862,487.827Z" transform="translate(-465.724 -233.376)" fill="#10298a"/>
      <path id="Path_25591" data-name="Path 25591" d="M585.855,467.867a1.156,1.156,0,1,0,1.086,1.155A1.122,1.122,0,0,0,585.855,467.867Z" transform="translate(-431.711 -234.62)" fill="#10298a"/>
      <path id="Path_25592" data-name="Path 25592" d="M585.855,487.827a1.156,1.156,0,1,0,1.086,1.154A1.121,1.121,0,0,0,585.855,487.827Z" transform="translate(-431.711 -233.376)" fill="#10298a"/>
      <path id="Path_25593" data-name="Path 25593" d="M738.913,248.312A1.156,1.156,0,1,0,740,249.466,1.121,1.121,0,0,0,738.913,248.312Z" transform="translate(-737.827 -248.312)" fill="#10298a"/>
      <path id="Path_25594" data-name="Path 25594" d="M738.913,268.271A1.156,1.156,0,1,0,740,269.426,1.122,1.122,0,0,0,738.913,268.271Z" transform="translate(-737.827 -247.067)" fill="#10298a"/>
      <path id="Path_25595" data-name="Path 25595" d="M738.913,288.231A1.156,1.156,0,1,0,740,289.385,1.121,1.121,0,0,0,738.913,288.231Z" transform="translate(-737.827 -245.823)" fill="#10298a"/>
      <path id="Path_25596" data-name="Path 25596" d="M738.913,308.191A1.156,1.156,0,1,0,740,309.345,1.121,1.121,0,0,0,738.913,308.191Z" transform="translate(-737.827 -244.578)" fill="#10298a"/>
      <path id="Path_25597" data-name="Path 25597" d="M738.913,328.15A1.156,1.156,0,1,0,740,329.3,1.121,1.121,0,0,0,738.913,328.15Z" transform="translate(-737.827 -243.333)" fill="#10298a"/>
      <path id="Path_25598" data-name="Path 25598" d="M738.913,348.11A1.156,1.156,0,1,0,740,349.264,1.121,1.121,0,0,0,738.913,348.11Z" transform="translate(-737.827 -242.088)" fill="#10298a"/>
      <path id="Path_25599" data-name="Path 25599" d="M738.913,368.069A1.156,1.156,0,1,0,740,369.224,1.122,1.122,0,0,0,738.913,368.069Z" transform="translate(-737.827 -240.844)" fill="#10298a"/>
      <path id="Path_25600" data-name="Path 25600" d="M738.913,388.029A1.156,1.156,0,1,0,740,389.183,1.121,1.121,0,0,0,738.913,388.029Z" transform="translate(-737.827 -239.599)" fill="#10298a"/>
      <path id="Path_25601" data-name="Path 25601" d="M738.913,407.989A1.156,1.156,0,1,0,740,409.143,1.121,1.121,0,0,0,738.913,407.989Z" transform="translate(-737.827 -238.354)" fill="#10298a"/>
      <path id="Path_25602" data-name="Path 25602" d="M738.913,427.948A1.156,1.156,0,1,0,740,429.1,1.121,1.121,0,0,0,738.913,427.948Z" transform="translate(-737.827 -237.11)" fill="#10298a"/>
      <path id="Path_25603" data-name="Path 25603" d="M738.913,447.908A1.156,1.156,0,1,0,740,449.062,1.121,1.121,0,0,0,738.913,447.908Z" transform="translate(-737.827 -235.865)" fill="#10298a"/>
      <path id="Path_25604" data-name="Path 25604" d="M738.913,467.867A1.156,1.156,0,1,0,740,469.022,1.122,1.122,0,0,0,738.913,467.867Z" transform="translate(-737.827 -234.62)" fill="#10298a"/>
      <path id="Path_25605" data-name="Path 25605" d="M738.913,487.827A1.156,1.156,0,1,0,740,488.981,1.121,1.121,0,0,0,738.913,487.827Z" transform="translate(-737.827 -233.376)" fill="#10298a"/>
      <ellipse id="Ellipse_1353" data-name="Ellipse 1353" cx="1.086" cy="1.154" rx="1.086" ry="1.154" transform="translate(17.006 0)" fill="#10298a"/>
      <path id="Path_25606" data-name="Path 25606" d="M721.906,268.271a1.156,1.156,0,1,0,1.087,1.155A1.122,1.122,0,0,0,721.906,268.271Z" transform="translate(-703.814 -247.067)" fill="#10298a"/>
      <path id="Path_25607" data-name="Path 25607" d="M721.906,288.231a1.156,1.156,0,1,0,1.087,1.154A1.121,1.121,0,0,0,721.906,288.231Z" transform="translate(-703.814 -245.823)" fill="#10298a"/>
      <path id="Path_25608" data-name="Path 25608" d="M721.906,308.191a1.156,1.156,0,1,0,1.087,1.154A1.121,1.121,0,0,0,721.906,308.191Z" transform="translate(-703.814 -244.578)" fill="#10298a"/>
      <ellipse id="Ellipse_1354" data-name="Ellipse 1354" cx="1.086" cy="1.154" rx="1.086" ry="1.154" transform="translate(17.006 84.817)" fill="#10298a"/>
      <ellipse id="Ellipse_1355" data-name="Ellipse 1355" cx="1.086" cy="1.154" rx="1.086" ry="1.154" transform="translate(17.006 106.021)" fill="#10298a"/>
      <ellipse id="Ellipse_1356" data-name="Ellipse 1356" cx="1.086" cy="1.154" rx="1.086" ry="1.154" transform="translate(17.006 127.226)" fill="#10298a"/>
      <ellipse id="Ellipse_1357" data-name="Ellipse 1357" cx="1.086" cy="1.154" rx="1.086" ry="1.154" transform="translate(17.006 148.43)" fill="#10298a"/>
      <ellipse id="Ellipse_1358" data-name="Ellipse 1358" cx="1.086" cy="1.154" rx="1.086" ry="1.154" transform="translate(17.006 169.634)" fill="#10298a"/>
      <ellipse id="Ellipse_1359" data-name="Ellipse 1359" cx="1.086" cy="1.154" rx="1.086" ry="1.154" transform="translate(17.006 190.838)" fill="#10298a"/>
      <ellipse id="Ellipse_1360" data-name="Ellipse 1360" cx="1.086" cy="1.154" rx="1.086" ry="1.154" transform="translate(17.006 212.043)" fill="#10298a"/>
      <path id="Path_25609" data-name="Path 25609" d="M721.906,467.867a1.156,1.156,0,1,0,1.087,1.155A1.122,1.122,0,0,0,721.906,467.867Z" transform="translate(-703.814 -234.62)" fill="#10298a"/>
      <path id="Path_25610" data-name="Path 25610" d="M721.906,487.827a1.156,1.156,0,1,0,1.087,1.154A1.121,1.121,0,0,0,721.906,487.827Z" transform="translate(-703.814 -233.376)" fill="#10298a"/>
      <path id="Path_25611" data-name="Path 25611" d="M704.9,248.312a1.156,1.156,0,1,0,1.086,1.154A1.121,1.121,0,0,0,704.9,248.312Z" transform="translate(-669.801 -248.312)" fill="#10298a"/>
      <path id="Path_25612" data-name="Path 25612" d="M704.9,268.271a1.156,1.156,0,1,0,1.086,1.155A1.122,1.122,0,0,0,704.9,268.271Z" transform="translate(-669.801 -247.067)" fill="#10298a"/>
      <path id="Path_25613" data-name="Path 25613" d="M704.9,288.231a1.156,1.156,0,1,0,1.086,1.154A1.121,1.121,0,0,0,704.9,288.231Z" transform="translate(-669.801 -245.823)" fill="#10298a"/>
      <path id="Path_25614" data-name="Path 25614" d="M704.9,308.191a1.156,1.156,0,1,0,1.086,1.154A1.121,1.121,0,0,0,704.9,308.191Z" transform="translate(-669.801 -244.578)" fill="#10298a"/>
      <path id="Path_25615" data-name="Path 25615" d="M704.9,328.15a1.156,1.156,0,1,0,1.086,1.154A1.121,1.121,0,0,0,704.9,328.15Z" transform="translate(-669.801 -243.333)" fill="#10298a"/>
      <path id="Path_25616" data-name="Path 25616" d="M704.9,348.11a1.156,1.156,0,1,0,1.086,1.154A1.121,1.121,0,0,0,704.9,348.11Z" transform="translate(-669.801 -242.088)" fill="#10298a"/>
      <path id="Path_25617" data-name="Path 25617" d="M704.9,368.069a1.156,1.156,0,1,0,1.086,1.155A1.122,1.122,0,0,0,704.9,368.069Z" transform="translate(-669.801 -240.844)" fill="#10298a"/>
      <path id="Path_25618" data-name="Path 25618" d="M704.9,388.029a1.156,1.156,0,1,0,1.086,1.154A1.121,1.121,0,0,0,704.9,388.029Z" transform="translate(-669.801 -239.599)" fill="#10298a"/>
      <path id="Path_25619" data-name="Path 25619" d="M704.9,407.989a1.156,1.156,0,1,0,1.086,1.154A1.121,1.121,0,0,0,704.9,407.989Z" transform="translate(-669.801 -238.354)" fill="#10298a"/>
      <path id="Path_25620" data-name="Path 25620" d="M704.9,427.948a1.156,1.156,0,1,0,1.086,1.154A1.121,1.121,0,0,0,704.9,427.948Z" transform="translate(-669.801 -237.11)" fill="#10298a"/>
      <path id="Path_25621" data-name="Path 25621" d="M704.9,447.908a1.156,1.156,0,1,0,1.086,1.154A1.121,1.121,0,0,0,704.9,447.908Z" transform="translate(-669.801 -235.865)" fill="#10298a"/>
      <path id="Path_25622" data-name="Path 25622" d="M704.9,467.867a1.156,1.156,0,1,0,1.086,1.155A1.122,1.122,0,0,0,704.9,467.867Z" transform="translate(-669.801 -234.62)" fill="#10298a"/>
      <path id="Path_25623" data-name="Path 25623" d="M704.9,487.827a1.156,1.156,0,1,0,1.086,1.154A1.121,1.121,0,0,0,704.9,487.827Z" transform="translate(-669.801 -233.376)" fill="#10298a"/>
      <path id="Path_25624" data-name="Path 25624" d="M687.894,467.867a1.156,1.156,0,1,0,1.086,1.155A1.122,1.122,0,0,0,687.894,467.867Z" transform="translate(-635.789 -234.62)" fill="#10298a"/>
      <path id="Path_25625" data-name="Path 25625" d="M687.894,487.827a1.156,1.156,0,1,0,1.086,1.154A1.121,1.121,0,0,0,687.894,487.827Z" transform="translate(-635.789 -233.376)" fill="#10298a"/>
      <path id="Path_25626" data-name="Path 25626" d="M670.887,467.867a1.156,1.156,0,1,0,1.086,1.155A1.122,1.122,0,0,0,670.887,467.867Z" transform="translate(-601.775 -234.62)" fill="#10298a"/>
      <path id="Path_25627" data-name="Path 25627" d="M670.887,487.827a1.156,1.156,0,1,0,1.086,1.154A1.121,1.121,0,0,0,670.887,487.827Z" transform="translate(-601.775 -233.376)" fill="#10298a"/>
      <path id="Path_25628" data-name="Path 25628" d="M568.848,467.867a1.156,1.156,0,1,0,1.087,1.155A1.123,1.123,0,0,0,568.848,467.867Z" transform="translate(-397.698 -234.62)" fill="#10298a"/>
      <path id="Path_25629" data-name="Path 25629" d="M568.848,487.827a1.156,1.156,0,1,0,1.087,1.154A1.122,1.122,0,0,0,568.848,487.827Z" transform="translate(-397.698 -233.376)" fill="#10298a"/>
    </g>
    <path id="Path_25630" data-name="Path 25630" d="M717.509,565.271a112.5,112.5,0,1,0-112.5-112.5A112.629,112.629,0,0,0,717.509,565.271Zm0-223.938A111.438,111.438,0,1,1,606.071,452.771,111.565,111.565,0,0,1,717.509,341.333Z" transform="translate(-677.951 -255.581)" fill="#fd7f01"/>
  </g>
</svg>
