<svg xmlns="http://www.w3.org/2000/svg" xmlns:xlink="http://www.w3.org/1999/xlink" width="44.086" height="45.692" viewBox="0 0 44.086 45.692">
  <defs>
    <linearGradient id="linear-gradient" x1="0.5" x2="0.5" y2="1" gradientUnits="objectBoundingBox">
      <stop offset="0" stop-color="#ff7f00"/>
      <stop offset="1" stop-color="#ff5700"/>
    </linearGradient>
    <linearGradient id="linear-gradient-4" x1="0.5" y1="-0.402" x2="0.5" y2="1" gradientUnits="objectBoundingBox">
      <stop offset="0" stop-color="#1c3db9"/>
      <stop offset="0.105" stop-color="#2d4dc2"/>
      <stop offset="0.795" stop-color="#10298a"/>
      <stop offset="0.92" stop-color="#10298a"/>
      <stop offset="1" stop-color="#00098d"/>
    </linearGradient>
  </defs>
  <g id="list" transform="translate(-9)">
    <path id="Path_25633" data-name="Path 25633" d="M247.117,363.072a1.339,1.339,0,0,0,1.5.272l6.1-2.771-5.1-5.1-2.771,6.1a1.339,1.339,0,0,0,.272,1.5Z" transform="translate(-216.51 -323.751)" fill="url(#linear-gradient)"/>
    <path id="Path_25634" data-name="Path 25634" d="M315.066,192.9l-3.786-3.786a1.339,1.339,0,0,0-1.893,0l-12.305,12.305,5.679,5.679L315.066,194.8A1.339,1.339,0,0,0,315.066,192.9Z" transform="translate(-262.372 -171.884)" fill="url(#linear-gradient)"/>
    <path id="Path_25635" data-name="Path 25635" d="M110.339,9.1h14.279a1.339,1.339,0,0,0,1.339-1.339V4.194a1.339,1.339,0,0,0-1.339-1.339h-2.231V1.339A1.339,1.339,0,0,0,121.048,0h-7.139a1.339,1.339,0,0,0-1.339,1.339V2.856h-2.231A1.339,1.339,0,0,0,109,4.194v3.57A1.339,1.339,0,0,0,110.339,9.1Z" transform="translate(-91.076)" fill="url(#linear-gradient)"/>
    <path id="Path_25636" data-name="Path 25636" d="M40.157,99.9l-6.942,3.155a4.016,4.016,0,0,1-4.5-.816,4.035,4.035,0,0,1-.816-4.5l3.155-6.941a4.006,4.006,0,0,1,.816-1.178L43.8,77.679v-9.34A1.339,1.339,0,0,0,42.466,67H37.558v1.785A4.02,4.02,0,0,1,33.542,72.8H19.263a4.02,4.02,0,0,1-4.016-4.016V67H10.339A1.339,1.339,0,0,0,9,68.339v37.036a1.339,1.339,0,0,0,1.339,1.339H42.466a1.339,1.339,0,0,0,1.339-1.339V96.61l-2.47,2.47A4,4,0,0,1,40.157,99.9ZM17.87,78.815a1.339,1.339,0,0,1,1.893,0L21.048,80.1l3.516-3.516a1.339,1.339,0,0,1,1.893,1.893l-4.462,4.462a1.339,1.339,0,0,1-1.893,0L17.87,80.708A1.338,1.338,0,0,1,17.87,78.815Zm0,8.7a1.339,1.339,0,0,1,1.893,0L21.048,88.8l3.516-3.516a1.339,1.339,0,1,1,1.893,1.893l-4.462,4.462a1.338,1.338,0,0,1-1.893,0L17.87,89.41a1.339,1.339,0,0,1,0-1.893Zm-3.516,12.771a1.339,1.339,0,1,1,1.339-1.339A1.339,1.339,0,0,1,14.355,100.288Zm0-8.7a1.339,1.339,0,1,1,1.339-1.339A1.339,1.339,0,0,1,14.355,91.586Zm0-8.7a1.339,1.339,0,1,1,1.339-1.339A1.339,1.339,0,0,1,14.355,82.885Zm6.693,17.849a1.334,1.334,0,0,1-.947-.392L17.87,98.111a1.339,1.339,0,0,1,1.893-1.893L21.048,97.5l3.516-3.516a1.339,1.339,0,0,1,1.893,1.893l-4.462,4.462A1.334,1.334,0,0,1,21.048,100.734Z" transform="translate(0 -61.021)" fill="url(#linear-gradient-4)"/>
  </g>
</svg>
