<svg xmlns="http://www.w3.org/2000/svg" xmlns:xlink="http://www.w3.org/1999/xlink" width="624" height="420" viewBox="0 0 624 420">
  <defs>
    <linearGradient id="linear-gradient" x1="0.444" y1="1.335" x2="0.536" y2="0.058" gradientUnits="objectBoundingBox">
      <stop offset="0" stop-color="#515560"/>
      <stop offset="1" stop-color="#33353c"/>
    </linearGradient>
    <linearGradient id="linear-gradient-2" x1="0.48" y1="1.031" x2="0.507" y2="0.388" gradientUnits="objectBoundingBox">
      <stop offset="0" stop-color="#eec08c"/>
      <stop offset="0.032" stop-color="#eec08c" stop-opacity="0.941"/>
      <stop offset="0.183" stop-color="#eec08c" stop-opacity="0.698"/>
      <stop offset="0.333" stop-color="#eec08c" stop-opacity="0.482"/>
      <stop offset="0.48" stop-color="#eec08c" stop-opacity="0.31"/>
      <stop offset="0.622" stop-color="#eec08c" stop-opacity="0.176"/>
      <stop offset="0.759" stop-color="#eec08c" stop-opacity="0.078"/>
      <stop offset="0.888" stop-color="#eec08c" stop-opacity="0.02"/>
      <stop offset="1" stop-color="#eec08c" stop-opacity="0"/>
    </linearGradient>
    <radialGradient id="radial-gradient" cx="0.5" cy="0.5" r="0.5" gradientTransform="matrix(0.707, 0.707, -0.707, 0.707, 0.5, -0.207)" gradientUnits="objectBoundingBox">
      <stop offset="0" stop-color="#df6820"/>
      <stop offset="0.126" stop-color="#af5119" stop-opacity="0.788"/>
      <stop offset="0.285" stop-color="#7a3911" stop-opacity="0.549"/>
      <stop offset="0.441" stop-color="#4e240b" stop-opacity="0.353"/>
      <stop offset="0.591" stop-color="#2c1406" stop-opacity="0.2"/>
      <stop offset="0.732" stop-color="#130902" stop-opacity="0.09"/>
      <stop offset="0.861" stop-color="#050200" stop-opacity="0.024"/>
      <stop offset="0.968" stop-opacity="0"/>
    </radialGradient>
  </defs>
  <g id="img" transform="translate(-126 -80)">
    <path id="Path_25642" data-name="Path 25642" d="M624,420H0V0H624Z" transform="translate(126 80)" fill="#fff"/>
    <g id="Group_3980" data-name="Group 3980">
      <path id="Path_25643" data-name="Path 25643" d="M750,98.508S638.974,76.545,545.336,180.786s-5.781,201.946-138.528,185.45S262.64,500,262.64,500H750Z" fill="rgba(16,41,138,0.64)"/>
      <path id="Path_25644" data-name="Path 25644" d="M351.8,500s16.93-178.735,173.187-180.6S750,500,750,500Z" fill="#103be3" opacity="0.32" style="mix-blend-mode: multiply;isolation: isolate"/>
      <path id="Path_25645" data-name="Path 25645" d="M497.1,500s5.408-107.4,122.114-139.775S750,267.108,750,213.736V500Z" fill="#0031ed" opacity="0.46" style="mix-blend-mode: multiply;isolation: isolate"/>
    </g>
    <g id="Group_4014" data-name="Group 4014" transform="translate(-146.156 -12.034)">
      <g id="Group_4013" data-name="Group 4013">
        <circle id="Ellipse_1364" data-name="Ellipse 1364" cx="33.171" cy="33.171" r="33.171" transform="translate(443.633 391.43)" fill="none" stroke="#ffb56a" stroke-miterlimit="10" stroke-width="4"/>
        <rect id="Rectangle_1297" data-name="Rectangle 1297" width="20.891" height="20.891" rx="1.381" transform="translate(345.076 464.726) rotate(-42.881)" fill="none" stroke="#e7e7fd" stroke-miterlimit="10" stroke-width="3"/>
        <rect id="Rectangle_1298" data-name="Rectangle 1298" width="22.273" height="22.273" rx="1.473" transform="matrix(0.458, -0.889, 0.889, 0.458, 607.665, 160.962)" fill="none" stroke="#10298a" stroke-miterlimit="10" stroke-width="3"/>
        <circle id="Ellipse_1365" data-name="Ellipse 1365" cx="22.205" cy="22.205" r="22.205" transform="translate(681.282 310.881) rotate(-45)" fill="none" stroke="#e7e7fd" stroke-miterlimit="10" stroke-width="4"/>
      </g>
    </g>
    <g id="Group_4012" data-name="Group 4012" transform="translate(-229.736 -72.295)">
      <path id="Path_25646" data-name="Path 25646" d="M669,457.012s2.594,3.372-18.418,9.468-7-12.063-7-12.063Z" transform="translate(47.673 59.407)" fill="#3b3bb4"/>
      <g id="Group_3982" data-name="Group 3982" transform="translate(569.335 505.735)">
        <path id="Path_25647" data-name="Path 25647" d="M558.653,460.447l-15.31,50.1h81.323l13.225-57.079Z" transform="translate(-543.343 -446.544)" fill="#c47f43"/>
        <path id="Path_25648" data-name="Path 25648" d="M588.07,447.823l15.763,64h74.9l-8.492-64Z" transform="translate(-533.206 -447.823)" fill="#e7b84b"/>
      </g>
      <g id="Group_3984" data-name="Group 3984" transform="translate(459.376 353.571)">
        <path id="Path_25649" data-name="Path 25649" d="M457.982,354.065s-7.126-17.637-2.993-22.046,9.838-3.643,15.285-6.621,4.41-1.173,7.523,0,10.635,14.793,10.376,17.451-12.6-9.273-12.6-9.273,5.594,11.024,0,11.8S465.146,355.878,457.982,354.065Z" transform="translate(-453.7 -323.773)" fill="#f0caa5"/>
        <g id="Group_3983" data-name="Group 3983" transform="translate(26.301 73.095)">
          <path id="Path_25650" data-name="Path 25650" d="M558.8,383.363s-7,34.242-14.527,42.283-22.313,7.522-35.993-5.319-33.138-36.965-33.138-36.965Z" transform="translate(-475.142 -383.363)" fill="#f0caa5"/>
          <path id="Path_25651" data-name="Path 25651" d="M558.8,383.363s-7,34.242-14.527,42.283-22.313,7.522-35.993-5.319-33.138-36.965-33.138-36.965Z" transform="translate(-475.142 -383.363)" fill="#d49074" opacity="0.31" style="mix-blend-mode: multiply;isolation: isolate"/>
        </g>
      </g>
      <g id="Group_3987" data-name="Group 3987" transform="translate(526.532 310.414)">
        <g id="Group_3985" data-name="Group 3985" transform="translate(0 1.857)">
          <path id="Path_25652" data-name="Path 25652" d="M693.068,470.522c-.044,7.718,5.644,15.587,5.524,23.73,0,0-34.321-.521-71.864,14.008S558.882,501,558.882,501s10.272-3.373,9.824-38.656a573.042,573.042,0,0,0-4.224-61.547c-.24-1.965-.393-3.024-.393-3.024L559.3,407a38.674,38.674,0,0,1-14.159-.775,28.759,28.759,0,0,1-18.525-13.395c-10.644-17.9-18.165-17.9-18.165-17.9s30.609-60.434,45.914-68.479c9.389-4.934,24.257-9.322,34.354-11.985.481-.12.938-.24,1.4-.361,5.612-1.463,9.443-2.3,9.443-2.3L645.8,290.1q6.55,1.409,12.531,2.883c.372.1.743.2,1.114.283,11.178,2.827,20.719,5.917,27.98,9.356l-2.031,46.156-.546,12.4C692.117,402.665,693.253,435.021,693.068,470.522Z" transform="translate(-508.448 -290.104)" fill="#544cf2"/>
          <path id="Path_25653" data-name="Path 25653" d="M557.7,383.354v10.83c-.24-1.965-.393-3.024-.393-3.024l-4.792,9.224a38.674,38.674,0,0,1-14.159-.775c3-10.851,8.057-30.468,10-46.079,2.861-22.827,9.345-34.245,9.345-34.245C552.518,346.785,557.7,383.354,557.7,383.354Z" transform="translate(-501.669 -283.49)" fill="#3b3bb4"/>
          <path id="Path_25654" data-name="Path 25654" d="M674.066,462.082c-14.531,8.11-32.095,15.425-44.278,12.314-24.387-6.223-37.5-38.47-37.5-38.47l15.895-30.643,24.29-77.944,33.917,13-.546,12.4C673.116,394.226,674.251,426.582,674.066,462.082Z" transform="translate(-489.446 -281.665)" fill="#3b3bb4"/>
        </g>
        <g id="Group_3986" data-name="Group 3986" transform="translate(75.489)">
          <path id="Path_25655" data-name="Path 25655" d="M580.108,293.135s-15.333,30.384,10.28,33.108,47.392-34.19,47.392-34.19S611.819,283.584,580.108,293.135Z" transform="translate(-568.728 -288.59)" fill="#fff"/>
          <path id="Path_25656" data-name="Path 25656" d="M645.5,292.737c-5.655,8.691-27.662,39.758-53.109,39.758a30.972,30.972,0,0,1-4.694-.359c-7.9-1.223-13.242-4.585-15.84-9.988-4.378-9.083-.065-21.55,2.914-28.219.481-.12.938-.24,1.4-.361-2.881,6.277-7.641,19.158-3.329,28.1,2.434,5.066,7.489,8.22,15.021,9.389,26.461,4.093,50.281-29.071,56.525-38.6C644.755,292.552,645.127,292.65,645.5,292.737Z" transform="translate(-569.99 -287.714)" fill="#fff"/>
        </g>
      </g>
      <g id="Group_4004" data-name="Group 4004" transform="translate(577.963 200.399)">
        <g id="Group_3988" data-name="Group 3988" transform="translate(37.289 78.326)">
          <path id="Path_25657" data-name="Path 25657" d="M629.407,296.3a50.91,50.91,0,0,1-5.917,9.433c-4.945,6.353-13.088,13.919-24.627,15.862-20.818,3.493-19.65-15.567-15.949-22.379a9.476,9.476,0,0,0,.25-1.223,24.172,24.172,0,0,0,.044-6.78,32.738,32.738,0,0,0-1.07-5.229c-1.573-5.5,18.438-14.136,31.657-19.18,6.408-2.445,11.222-4.05,11.222-4.05S625.128,282.548,629.407,296.3Z" transform="translate(-580.776 -262.756)" fill="#f0caa5"/>
          <path id="Path_25658" data-name="Path 25658" d="M628.966,296.3a50.914,50.914,0,0,1-5.917,9.433,48.04,48.04,0,0,1-40.326-7.74c.044-.283.1-.622.142-1.016a26.033,26.033,0,0,0-.1-5.764l30.587-24.409c6.408-2.445,11.222-4.05,11.222-4.05s.033,5.394.666,12.5A107.665,107.665,0,0,0,628.966,296.3Z" transform="translate(-580.335 -262.756)" fill="#d49074" opacity="0.56" style="mix-blend-mode: multiply;isolation: isolate"/>
        </g>
        <g id="Group_4003" data-name="Group 4003">
          <g id="Group_3989" data-name="Group 3989" transform="translate(13.551 17.319)">
            <circle id="Ellipse_1361" data-name="Ellipse 1361" cx="36.187" cy="36.187" r="36.187" fill="#f0caa5"/>
            <path id="Path_25659" data-name="Path 25659" d="M561.424,245.377s.729,24.944,8.406,40.8c8.2,16.928,21.75,15.383,28.754,13.773s20.816-15.77,27.431-25.909a36.609,36.609,0,0,0,5.931-20.442Z" transform="translate(-561.424 -205.688)" fill="#f0caa5"/>
          </g>
          <g id="Group_3991" data-name="Group 3991" transform="translate(73.841 57.245)">
            <path id="Path_25660" data-name="Path 25660" d="M610.575,252.126s13.066-12.269,15.663-3.238c3.229,11.231-2.413,19.986-11.751,17.261Z" transform="translate(-610.575 -245.571)" fill="#f0caa5"/>
            <g id="Group_3990" data-name="Group 3990" transform="translate(5.565 3.812)">
              <path id="Path_25661" data-name="Path 25661" d="M615.112,260c0-.146,2.515-10.846,4.687-11.284s3.144,3.356,3.144,3.356-1.46-2.4-2.675-1.834-2.091,4.1-2.091,4.1,2.723-1.676,2.918,1.068-3.151,1.65-3.151,1.65Z" transform="translate(-615.112 -248.678)" fill="#d49074" opacity="0.56" style="mix-blend-mode: multiply;isolation: isolate"/>
              <path id="Path_25662" data-name="Path 25662" d="M622.439,254.774s-1.216,5.351-5.106,5.252C617.333,260.026,620.98,257.692,622.439,254.774Z" transform="translate(-614.609 -247.297)" fill="#d49074" opacity="0.56" style="mix-blend-mode: multiply;isolation: isolate"/>
            </g>
          </g>
          <g id="Group_3992" data-name="Group 3992">
            <path id="Path_25663" data-name="Path 25663" d="M640.455,261.934s-.622-5.371-5.981-5.6-8.58,12.357-8.58,12.357-8.461-7.533-7.686-22.314c0,0-23.732,4.672-39.691-6.223,0,0,11.09,10.7,27.432,12.249,0,0-24.7,1.56-35.992-12.249,0,0-6.375,8.144-4.639,24.007,0,0-8-5.917-4.694-17.588,0,0-8.864-2.128-10.1-11.451a22.251,22.251,0,0,1,1.147-9.759s.774,8.362,7.587,8.558c0,0-9.333-8.558-.971-18.864s10.5-16.156,10.5-16.156,8.645,1.736,7.794,13.221c.12-1.234,1.136-7.762,10.109-9.52,0,0-2.139,3.111.579,7.39,0,0,20.621-12.444,38.623-.775S639.026,233.8,639.026,233.8l.174-.065c.8-.251,4.149-.853,7.216,5.436C649.92,246.378,640.455,261.934,640.455,261.934Z" transform="translate(-550.377 -198.902)" fill="url(#linear-gradient)"/>
            <path id="Path_25664" data-name="Path 25664" d="M640.428,256.553s-.622-5.371-5.981-5.6-8.58,12.357-8.58,12.357-8.461-7.533-7.686-22.314c0,0-23.732,4.672-39.692-6.223,0,0,11.09,10.7,27.432,12.249,0,0-24.7,1.56-35.992-12.249,0,0-6.375,8.144-4.639,24.007,0,0-8-5.917-4.694-17.588,0,0-8.864-2.128-10.1-11.451,6.19,11.615,15.218,7.424,15.218,7.424-2.205-11.278,5.185-14.52,5.185-14.52,2.206,11.408,18.417,12.827,18.417,12.827a20.927,20.927,0,0,1-6.867-11.408c9.6,11.68,35.271,8.308,35.271,8.308,14.792,8.82,21.277-3.952,21.277-3.952l.174-.065c.8-.251,4.149-.853,7.216,5.436C649.892,241,640.428,256.553,640.428,256.553Z" transform="translate(-550.349 -193.521)" fill="#33353c"/>
          </g>
          <g id="Group_3998" data-name="Group 3998" transform="translate(13.232 53.975)">
            <g id="Group_3993" data-name="Group 3993">
              <path id="Path_25665" data-name="Path 25665" d="M584.487,249.241s1.5-4.553,3.344-5.083,13.914-2.964,17.62.848a57.491,57.491,0,0,0-18.068,3.706l.449-2.258s-1.58,2.364-1.757,2.5A7.974,7.974,0,0,1,584.487,249.241Z" transform="translate(-555.878 -242.904)" fill="#33353c"/>
              <path id="Path_25666" data-name="Path 25666" d="M577.914,249.241s-1.2-4.553-2.673-5.083-11.116-2.964-14.077.848a37.829,37.829,0,0,1,14.436,3.706l-.359-2.258s1.263,2.364,1.4,2.5A5.245,5.245,0,0,0,577.914,249.241Z" transform="translate(-561.164 -242.904)" fill="#33353c"/>
            </g>
            <g id="Group_3996" data-name="Group 3996" transform="translate(2.366 10.118)">
              <g id="Group_3994" data-name="Group 3994" transform="translate(26.227)">
                <path id="Path_25667" data-name="Path 25667" d="M584.474,253.136a16.086,16.086,0,0,1,13.044-1.155" transform="translate(-584.474 -251.153)" fill="none" stroke="#33353c" stroke-miterlimit="10" stroke-width="1"/>
                <circle id="Ellipse_1362" data-name="Ellipse 1362" cx="2.461" cy="2.461" r="2.461" transform="translate(1.433 0.424)" fill="#33353c"/>
              </g>
              <g id="Group_3995" data-name="Group 3995" transform="translate(0 0.028)">
                <path id="Path_25668" data-name="Path 25668" d="M563.093,251.546A19.739,19.739,0,0,1,575.4,253.1" transform="translate(-563.093 -251.176)" fill="none" stroke="#33353c" stroke-miterlimit="10" stroke-width="1"/>
                <path id="Path_25669" data-name="Path 25669" d="M571.027,253.917a2.461,2.461,0,1,1-2.461-2.461A2.46,2.46,0,0,1,571.027,253.917Z" transform="translate(-562.41 -251.113)" fill="#33353c"/>
              </g>
            </g>
            <path id="Path_25670" data-name="Path 25670" d="M576.274,271.543c.385-.794,1.88-3.112,2.528-2.983s4.935,2.594,5,2.983-2.467,0-5,0S575.893,272.327,576.274,271.543Z" transform="translate(-557.768 -237.091)" fill="#d49074"/>
            <g id="Group_3997" data-name="Group 3997" transform="translate(24.057 40.58)">
              <path id="Path_25671" data-name="Path 25671" d="M580.776,281.533s10.794-2.237,16.631-5.546c0,0-1.782,5.643-4.507,7.2C589.789,284.964,580.776,281.533,580.776,281.533Z" transform="translate(-580.776 -275.987)" fill="#fff"/>
              <path id="Path_25672" data-name="Path 25672" d="M582.049,283.643a17.047,17.047,0,0,0,5.981.713" transform="translate(-580.488 -274.252)" fill="none" stroke="#d49074" stroke-miterlimit="10" stroke-width="1"/>
            </g>
          </g>
          <g id="Group_4002" data-name="Group 4002" transform="translate(8.824 60.311)">
            <path id="Path_25673" data-name="Path 25673" d="M577.648,250.268s2.1-1.622,3.972,0" transform="translate(-553.02 -247.735)" fill="none" stroke="#fff" stroke-miterlimit="10" stroke-width="1"/>
            <path id="Path_25674" data-name="Path 25674" d="M600.964,250.6l17.593-2.533-.6.906-16.988,3.7Z" transform="translate(-547.736 -248.07)" fill="#fff"/>
            <path id="Path_25675" data-name="Path 25675" d="M557.571,250.359l5.85-1.216.093,1.216-5.943,1.946Z" transform="translate(-557.571 -247.826)" fill="#e3e3e3"/>
            <g id="Group_3999" data-name="Group 3999" transform="translate(0.003 2.536)">
              <path id="Path_25676" data-name="Path 25676" d="M605.519,250.137v5.644a12.332,12.332,0,0,1-2.565,7.533,12.957,12.957,0,0,1-1.987,2.03,12.225,12.225,0,0,1-7.761,2.75,12.322,12.322,0,0,1-12.325-12.313v-5.644Z" transform="translate(-552.291 -250.137)" fill="none" stroke="#fff" stroke-miterlimit="10" stroke-width="1"/>
              <path id="Path_25677" data-name="Path 25677" d="M582.2,250.137v5.644a12.308,12.308,0,0,1-12.314,12.313,12.1,12.1,0,0,1-5.371-1.233,12.25,12.25,0,0,1-6.943-11.08v-5.644Z" transform="translate(-557.573 -250.137)" fill="none" stroke="#fff" stroke-miterlimit="10" stroke-width="1"/>
            </g>
            <g id="Group_4000" data-name="Group 4000" transform="translate(32.425 2.536)" opacity="0.47" style="mix-blend-mode: screen;isolation: isolate">
              <path id="Path_25678" data-name="Path 25678" d="M603.434,254.482v1.3a12.332,12.332,0,0,1-2.565,7.533l-10.786-13.177h9.792Z" transform="translate(-582.628 -250.137)" fill="#fff"/>
              <path id="Path_25679" data-name="Path 25679" d="M600.259,265.344a12.185,12.185,0,0,1-2.511,1.582l-13.743-16.789h3.81Z" transform="translate(-584.005 -250.137)" fill="#fff"/>
            </g>
            <g id="Group_4001" data-name="Group 4001" transform="translate(0.003 2.536)" opacity="0.44" style="mix-blend-mode: screen;isolation: isolate">
              <path id="Path_25680" data-name="Path 25680" d="M576.23,266.337a12.249,12.249,0,0,1-6.343,1.757,12.1,12.1,0,0,1-5.371-1.233l-6.56-8a12.422,12.422,0,0,1-.383-3.078v-5.644h5.393Z" transform="translate(-557.573 -250.137)" fill="#fff"/>
            </g>
          </g>
        </g>
      </g>
      <g id="Group_4006" data-name="Group 4006" transform="translate(428.657 192.295)">
        <path id="Path_25681" data-name="Path 25681" d="M454.9,371.526s-7.574-35.391,26.148-58.608,14.287-98.706,42.811-120.624l217.552,95.93s15.641,67.031-64.774,95.862-56.027,55.733-105.574,57.327S454.9,371.526,454.9,371.526Z" transform="translate(-422.874 -192.295)" fill="url(#linear-gradient-2)" style="mix-blend-mode: soft-light;isolation: isolate"/>
        <circle id="Ellipse_1363" data-name="Ellipse 1363" cx="99.475" cy="99.475" r="99.475" transform="translate(0 205.989) rotate(-45)" opacity="0.4" fill="url(#radial-gradient)" style="mix-blend-mode: screen;isolation: isolate"/>
        <g id="Group_4005" data-name="Group 4005" transform="translate(32.008 176.011)">
          <path id="Path_25682" data-name="Path 25682" d="M571.03,410.182a3.521,3.521,0,0,1-1.441.305H475.936a3.619,3.619,0,0,1-3.493-2.7l-17.575-67.5a3.705,3.705,0,0,1-.1-1.288,3.6,3.6,0,0,1,3.592-3.22H552a3.6,3.6,0,0,1,3.494,2.7l17.575,67.486A3.593,3.593,0,0,1,571.03,410.182Z" transform="translate(-454.751 -335.786)" fill="#3a3a58"/>
          <path id="Path_25683" data-name="Path 25683" d="M571.03,409.643a3.521,3.521,0,0,1-1.441.305H475.936a3.563,3.563,0,0,1-.6-.054,3.6,3.6,0,0,1-2.894-2.642l-17.575-67.5a3.705,3.705,0,0,1-.1-1.288,3.569,3.569,0,0,1,1.452-.305h93.641a3.6,3.6,0,0,1,3.494,2.7l2.739,10.534,14.836,56.963A3.483,3.483,0,0,1,571.03,409.643Z" transform="translate(-454.751 -335.248)" fill="#e2e4eb"/>
          <path id="Path_25684" data-name="Path 25684" d="M506.588,370.263c1.1,3.788-.772,6.858-4.183,6.858s-7.07-3.07-8.172-6.858.772-6.857,4.183-6.857S505.487,366.476,506.588,370.263Z" transform="translate(-445.874 -329.526)" fill="#fff"/>
          <path id="Path_25685" data-name="Path 25685" d="M567.227,407.307a3.521,3.521,0,0,1-1.441.305H472.133a3.563,3.563,0,0,1-.6-.054,90.176,90.176,0,0,1,14.354-4.8c34.038-8.754,9.335-13.427,28.013-32.5s37.269-21.789,37.269-21.789l1.124.589,14.836,56.963A3.483,3.483,0,0,1,567.227,407.307Z" transform="translate(-450.947 -332.912)" fill="#c7c8d0" opacity="0.67" style="mix-blend-mode: multiply;isolation: isolate"/>
          <path id="Path_25686" data-name="Path 25686" d="M454.846,339.461" transform="translate(-454.729 -334.953)" fill="#c9c9f1"/>
        </g>
      </g>
      <g id="Group_4011" data-name="Group 4011" transform="translate(529.642 322.588)">
        <g id="Group_4008" data-name="Group 4008" transform="translate(0 72.168)">
          <path id="Path_25687" data-name="Path 25687" d="M693.868,374.084s-2.827,15.2-6.255,30.85c-2.424,11.048-5.142,22.325-7.379,28.646A20.833,20.833,0,0,1,678.3,437.9c-5.054,7.391-12.063,14.781-30.741,12.838s-81.71-58.982-81.71-58.982c-6.812.163-19.453-8.526-19.453-8.526H513.811l-2.827-3.307v-4.095l.96-4.082,24.137-8.166-21.789-2.337s-2.522-2.532-2.337-3.111,37.16-.786,37.16-.786L571.1,373.31l70.335,31.9,4.857-19.836,2.87-11.724.557-2.293,3.876.24Z" transform="translate(-510.984 -357.349)" fill="#f0caa5"/>
          <g id="Group_4007" data-name="Group 4007" transform="translate(130.453 14.246)">
            <path id="Path_25688" data-name="Path 25688" d="M668.761,371.452s-1.441,8.746-4.87,24.4c-6.61-9.03-33.993-8.611-42.125-15.476l2.291-9.361,4.433-2.052Z" transform="translate(-616.33 -368.963)" fill="#d49074" opacity="0.56" style="mix-blend-mode: multiply;isolation: isolate"/>
            <path id="Path_25689" data-name="Path 25689" d="M617.334,397.483,642.721,407.7s-13.974-12.963-23.9-16.273Z" transform="translate(-617.334 -363.871)" fill="#d49074" opacity="0.56" style="mix-blend-mode: multiply;isolation: isolate"/>
          </g>
        </g>
        <g id="Group_4010" data-name="Group 4010" transform="translate(130.518)">
          <path id="Path_25690" data-name="Path 25690" d="M675.1,398.629s-1.823-1.146-8.963-1.266c-1.266-.022-2.718-.011-4.356.054-1.288.044-2.707.109-4.247.218-1.517.109-3.154.251-4.922.437-.753.066-1.517.153-2.315.24-20.621,2.337-32.913-8.952-32.913-8.952s6.058-60.27,17.346-75.443c9.291-12.5,17-17.653,25.294-14.5a18.512,18.512,0,0,1,3.514,1.8c.437.272.862.567,1.3.884.207.163.426.328.633.491,1.343,1.048,2.5,3.406,3.494,6.713C675.769,331.843,675.1,398.629,675.1,398.629Z" transform="translate(-617.387 -298.515)" fill="#544cf2"/>
          <g id="Group_4009" data-name="Group 4009" transform="translate(34.663 0.905)">
            <path id="Path_25691" data-name="Path 25691" d="M660.646,321.191c-.12,2.336-.372,4.672-.557,7-.207,2.3-.448,4.607-.622,6.911-.394,4.617-.7,9.235-.983,13.852q-.819,13.87-1,27.739c-.011,4.617-.011,9.235.164,13.832.1,2.052.2,4.137.359,6.179-1.266-.022-2.718-.011-4.356.054-.13-2.041-.207-4.06-.272-6.091-.142-4.693-.1-9.365-.022-14.027.2-9.335.644-18.635,1.288-27.935.339-4.64.688-9.291,1.136-13.93.207-2.315.459-4.629.7-6.954.207-2.293.47-4.574.623-6.867a106.58,106.58,0,0,0,.239-13.7c-.043-1.135-.174-2.237-.272-3.362-.12-.818-.218-1.638-.361-2.445.207.163.426.328.633.491,1.343,1.048,2.5,3.406,3.494,6.713A109.066,109.066,0,0,1,660.646,321.191Z" transform="translate(-643.915 -298.757)" fill="#fff"/>
            <path id="Path_25692" data-name="Path 25692" d="M657.017,308.336c-.305,4.715-.927,9.376-1.615,14.006-.742,4.65-1.56,9.191-2.2,13.754-.688,4.563-1.191,9.159-1.649,13.744-.862,9.191-1.3,18.427-1.267,27.64.033,6.681.285,13.362.851,19.988-1.517.109-3.154.251-4.922.437-.47-6.812-.622-13.634-.546-20.436q.18-14.065,1.736-28.054c.546-4.651,1.124-9.291,1.9-13.919.732-4.629,1.638-9.224,2.435-13.744.753-4.552,1.43-9.115,1.8-13.667a67.02,67.02,0,0,0,.229-6.78l-.1-1.647c-.022-.131-.032-.263-.043-.4a18.514,18.514,0,0,1,3.514,1.8l.011.12A67.812,67.812,0,0,1,657.017,308.336Z" transform="translate(-645.646 -299.253)" fill="#fff"/>
          </g>
        </g>
      </g>
    </g>
  </g>
</svg>
