<svg xmlns="http://www.w3.org/2000/svg" xmlns:xlink="http://www.w3.org/1999/xlink" width="544.979" height="341.347" viewBox="0 0 544.979 341.347">
  <defs>
    <linearGradient id="linear-gradient" x1="0.651" y1="1.055" x2="0.245" y2="-0.434" gradientUnits="objectBoundingBox">
      <stop offset="0" stop-color="#f9cb8e"/>
      <stop offset="1" stop-color="#f4ffb8"/>
    </linearGradient>
    <linearGradient id="linear-gradient-2" x1="0.725" y1="1.22" x2="0.358" y2="0.197" gradientUnits="objectBoundingBox">
      <stop offset="0" stop-color="#186da1"/>
      <stop offset="1" stop-color="#639c38"/>
    </linearGradient>
    <linearGradient id="linear-gradient-3" x1="0.935" y1="1.789" x2="0.338" y2="0.075" xlink:href="#linear-gradient-2"/>
    <linearGradient id="linear-gradient-4" x1="5.668" y1="7.934" x2="0.512" y2="0.486" xlink:href="#linear-gradient-2"/>
    <linearGradient id="linear-gradient-5" x1="2.925" y1="16.7" x2="0.139" y2="-2.031" xlink:href="#linear-gradient-2"/>
    <linearGradient id="linear-gradient-6" x1="5.445" y1="7.097" x2="-2.579" y2="-4.002" xlink:href="#linear-gradient-2"/>
    <linearGradient id="linear-gradient-7" x1="2.622" y1="7.267" x2="0.648" y2="0.912" xlink:href="#linear-gradient-2"/>
    <linearGradient id="linear-gradient-8" x1="4.36" y1="8.37" x2="0.868" y2="1.205" xlink:href="#linear-gradient-2"/>
    <linearGradient id="linear-gradient-9" x1="6.103" y1="4.873" x2="1.121" y2="1.093" xlink:href="#linear-gradient-2"/>
    <linearGradient id="linear-gradient-10" x1="5.642" y1="2.829" x2="-3.941" y2="-1.611" xlink:href="#linear-gradient-2"/>
    <linearGradient id="linear-gradient-11" x1="0.882" y1="1.267" x2="0.23" y2="0.03" xlink:href="#linear-gradient-2"/>
    <linearGradient id="linear-gradient-12" x1="4.89" y1="6.057" x2="0.44" y2="0.363" xlink:href="#linear-gradient-2"/>
    <linearGradient id="linear-gradient-13" x1="20.687" y1="5.362" x2="-0.704" y2="0.281" xlink:href="#linear-gradient-2"/>
    <linearGradient id="linear-gradient-14" x1="2.119" y1="3.642" x2="-1.747" y2="-3.664" xlink:href="#linear-gradient-2"/>
    <linearGradient id="linear-gradient-15" x1="0.767" y1="1.31" x2="0.288" y2="0.026" xlink:href="#linear-gradient-2"/>
    <linearGradient id="linear-gradient-16" x1="0.81" y1="1.321" x2="0.292" y2="0.017" xlink:href="#linear-gradient-2"/>
    <linearGradient id="linear-gradient-17" x1="4.715" y1="5.803" x2="0.239" y2="0.14" xlink:href="#linear-gradient-2"/>
    <linearGradient id="linear-gradient-18" x1="2.351" y1="11.3" x2="-0.067" y2="-2.943" xlink:href="#linear-gradient-2"/>
    <linearGradient id="linear-gradient-19" x1="3.585" y1="3.995" x2="-3.38" y2="-4.445" xlink:href="#linear-gradient-2"/>
    <linearGradient id="linear-gradient-20" x1="5.217" y1="5.687" x2="0.251" y2="0.365" xlink:href="#linear-gradient-2"/>
    <linearGradient id="linear-gradient-21" x1="14.153" y1="6.843" x2="-0.761" y2="0.063" xlink:href="#linear-gradient-2"/>
    <linearGradient id="linear-gradient-22" x1="6.773" y1="3.243" x2="-5.742" y2="-2.333" xlink:href="#linear-gradient-2"/>
    <linearGradient id="linear-gradient-23" x1="-7.617" y1="3.027" x2="-6.275" y2="1.126" xlink:href="#linear-gradient-2"/>
    <linearGradient id="linear-gradient-24" x1="0.142" y1="-2.074" x2="-0.821" y2="-2.715" xlink:href="#linear-gradient-2"/>
    <linearGradient id="linear-gradient-25" x1="1.249" y1="1.055" x2="0.207" y2="0" xlink:href="#linear-gradient-2"/>
    <linearGradient id="linear-gradient-26" x1="-5.367" y1="-21.286" x2="-2.991" y2="-22.382" xlink:href="#linear-gradient-2"/>
    <linearGradient id="linear-gradient-27" x1="3.069" y1="-17.216" x2="1.854" y2="-17.633" xlink:href="#linear-gradient-2"/>
    <linearGradient id="linear-gradient-28" x1="3.707" y1="-28.407" x2="3.034" y2="-30.416" xlink:href="#linear-gradient-2"/>
    <linearGradient id="linear-gradient-29" x1="0.441" y1="0.334" x2="0.722" y2="0.794" gradientUnits="objectBoundingBox">
      <stop offset="0" stop-color="#eb9b73"/>
      <stop offset="1" stop-color="#eea886"/>
    </linearGradient>
    <linearGradient id="linear-gradient-30" x1="0.528" y1="-0.925" x2="0.443" y2="2.75" gradientUnits="objectBoundingBox">
      <stop offset="0" stop-color="#cc8764"/>
      <stop offset="1" stop-color="#eea886"/>
    </linearGradient>
    <linearGradient id="linear-gradient-31" x1="0.319" y1="-3.657" x2="0.477" y2="0.006" xlink:href="#linear-gradient-29"/>
    <linearGradient id="linear-gradient-32" x1="0.298" y1="-2.671" x2="0.48" y2="0.479" xlink:href="#linear-gradient-29"/>
    <linearGradient id="linear-gradient-33" x1="0" y1="0.5" x2="1" y2="0.5" xlink:href="#linear-gradient-29"/>
    <linearGradient id="linear-gradient-34" x1="0.675" y1="0.343" x2="0.241" y2="0.847" xlink:href="#linear-gradient-29"/>
    <linearGradient id="linear-gradient-35" x1="0" y1="0.5" x2="1" y2="0.5" xlink:href="#linear-gradient-2"/>
  </defs>
  <g id="question-bank" transform="translate(-26.477 -40.158)">
    <g id="Group_4288" data-name="Group 4288" transform="translate(52.945 40.158)">
      <circle id="Ellipse_1391" data-name="Ellipse 1391" cx="47.761" cy="47.761" r="47.761" transform="translate(37.923 67.544) rotate(-45)" fill="url(#linear-gradient)"/>
      <path id="Path_26371" data-name="Path 26371" d="M843.922,589.27H887.33s-7.422-.483-9.482-2.865-4.43-1.342-6.122,0-7.272.858-12.52,0S847.595,587.747,843.922,589.27Z" transform="translate(-724.052 -505.351)" fill="#fff"/>
      <path id="Path_26372" data-name="Path 26372" d="M258.551,428.15H364.018s-18.034-1.174-23.039-6.96-10.762-3.259-14.874,0-17.668,2.086-30.42,0S267.475,424.45,258.551,428.15Z" transform="translate(-258.551 -372.351)" fill="#fff"/>
    </g>
    <g id="Group_4289" data-name="Group 4289" transform="translate(300.783 43.855)">
      <path id="Path_26373" data-name="Path 26373" d="M1574.038,368.881a68.4,68.4,0,1,0-58.529-32.972A68.42,68.42,0,0,0,1574.038,368.881Z" transform="translate(-1498.089 -228.383)" fill="#36572b"/>
      <path id="Path_26374" data-name="Path 26374" d="M2023.265,586.824A34.628,34.628,0,0,0,2057.89,552.2c0-1.1-.049-2.194-.153-3.272a34.63,34.63,0,1,0-34.472,37.9Z" transform="translate(-1882.199 -455.443)" fill="#45613c"/>
      <path id="Path_26375" data-name="Path 26375" d="M1889.323,611.2s0,9.579-.723,21.976c-.16,2.6-.341,5.337-.563,8.123-.021.34-.053.681-.085,1.021-.362,4.359-.819,8.856-1.4,13.247-.085.659-.181,1.329-.266,1.988-1.754,12.3-4.5,23.486-8.824,28.217-1.744,1.914-3.211,6.156-4.465,12a237.213,237.213,0,0,0-3.6,26.962c-.819,9.42-1.435,19.69-1.892,29.886-.032.681-.064,1.35-.1,2.02-.6,13.822-.9,27.4-1.063,38.4h-29.994l-.549-89.721s-27.773-3.393-26.508-46.612q.16-5.247.351-10.249a.915.915,0,0,0,.011-.17q.271-6.7.606-12.9c1.2-22.986,2.9-40.412,3.689-47.79q.127-1.228.223-2.073c.128-1.191.2-1.808.2-1.808l2.945,2.924.255.255s-.075.489-.2,1.4a331.336,331.336,0,0,0-3.02,46.653c.064,4.529.266,9.1.638,13.577q.048.542.1,1.084c2.233,24.687,10.047,46.153,31.3,41.23a41.368,41.368,0,0,0,11.312-4.391c11.206-6.411,17.681-17.5,21.338-29.4q.239-.749.447-1.5a96.82,96.82,0,0,0,2.764-13.237c.223-1.531.4-3.051.553-4.54.17-1.648.3-3.264.4-4.848a147.636,147.636,0,0,0-.064-19.414c-.266-3.923-.6-6.284-.6-6.284l6.464,3.774Z" transform="translate(-1739.539 -508.046)" fill="#925e2e"/>
      <path id="Path_26376" data-name="Path 26376" d="M1557.091,311.478c39.277-7.338,65.147-24.32,79.129-39.582a68.427,68.427,0,1,0-120.711,64.012C1517.39,326.6,1527.576,316.986,1557.091,311.478Z" transform="translate(-1498.089 -228.383)" fill="url(#linear-gradient-2)"/>
      <path id="Path_26377" data-name="Path 26377" d="M2033.377,561.7c11.479-3.31,19.255-7.85,24.36-12.772a34.626,34.626,0,1,0-53.433,32.247C2007.815,574.543,2015.758,566.772,2033.377,561.7Z" transform="translate(-1882.199 -455.443)" fill="url(#linear-gradient-3)"/>
      <path id="Path_26378" data-name="Path 26378" d="M2173.075,485.516l2.986.919s4.7-12.767,5-14.5S2173.075,485.516,2173.075,485.516Z" transform="translate(-2028.866 -419.038)" fill="url(#linear-gradient-4)"/>
      <path id="Path_26379" data-name="Path 26379" d="M2253.342,543.292l-14.81,4.494s.1,1.328,2.043,1.328S2253.342,543.292,2253.342,543.292Z" transform="translate(-2080.919 -475.895)" fill="url(#linear-gradient-5)"/>
      <path id="Path_26380" data-name="Path 26380" d="M2271.24,694.923h-3.779s.715,5.618,3.779,9.193S2271.24,694.923,2271.24,694.923Z" transform="translate(-2103.924 -596.475)" fill="url(#linear-gradient-6)"/>
      <path id="Path_26381" data-name="Path 26381" d="M2391.787,593.019a45.5,45.5,0,0,0,45.5-45.5c0-1.45-.064-2.883-.2-4.3a45.5,45.5,0,1,0-45.3,49.8Z" transform="translate(-2166.611 -443.078)" fill="#45613c"/>
      <path id="Path_26382" data-name="Path 26382" d="M1468.873,343c-.877,2.476,20.254,16.453,20.254,16.453l3.97-2.7S1469.75,340.523,1468.873,343Z" transform="translate(-1468.846 -316.412)" fill="url(#linear-gradient-7)"/>
      <path id="Path_26383" data-name="Path 26383" d="M1561.348,314.308c-2.876-5.73-13-11.822-13-11.822l9.06,13.309S1564.223,320.039,1561.348,314.308Z" transform="translate(-1532.066 -284.4)" fill="url(#linear-gradient-8)"/>
      <path id="Path_26384" data-name="Path 26384" d="M1620.071,238.205c-.118-9.446-9.609-24.041-9.609-24.041l3.428,23.472S1620.189,247.651,1620.071,238.205Z" transform="translate(-1581.463 -214.164)" fill="url(#linear-gradient-9)"/>
      <path id="Path_26385" data-name="Path 26385" d="M1659.283,622.024c2.966-2.427,3.107-23.753,3.107-23.753l-4.661,1.695S1656.318,624.451,1659.283,622.024Z" transform="translate(-1618.784 -519.615)" fill="url(#linear-gradient-10)"/>
      <path id="Path_26386" data-name="Path 26386" d="M2169.6,825.594s75.811,26.929,84.559-35.494l-5.065-1.385s1.664,57.651-79.495,29.344Z" transform="translate(-2026.106 -671.061)" fill="#925e2e"/>
      <path id="Path_26387" data-name="Path 26387" d="M2405.074,560c15.083-4.349,25.3-10.315,32.009-16.782a45.5,45.5,0,1,0-70.211,42.373C2371.487,576.882,2381.923,566.671,2405.074,560Z" transform="translate(-2166.611 -443.078)" fill="url(#linear-gradient-11)"/>
      <path id="Path_26388" data-name="Path 26388" d="M2450.945,488.044l3.022-2.778s-11.372-13.793-13.139-15.291S2450.945,488.044,2450.945,488.044Z" transform="translate(-2241.648 -417.526)" fill="url(#linear-gradient-12)"/>
      <path id="Path_26389" data-name="Path 26389" d="M2506.879,458.816l-1.193,20.3s1.683.478,2.566-1.914S2506.879,458.816,2506.879,458.816Z" transform="translate(-2293.367 -408.717)" fill="url(#linear-gradient-13)"/>
      <path id="Path_26390" data-name="Path 26390" d="M2669.423,738.352l-14.61-14.146s-1.46.964-.222,3.193S2669.423,738.352,2669.423,738.352Z" transform="translate(-2411.384 -619.762)" fill="url(#linear-gradient-14)"/>
    </g>
    <g id="Group_4290" data-name="Group 4290" transform="translate(29.978 79.922)">
      <path id="Path_26391" data-name="Path 26391" d="M193.076,526.7a46.669,46.669,0,1,0-39.935-22.5A46.684,46.684,0,0,0,193.076,526.7Z" transform="translate(-146.393 -424.523)" fill="#36572b"/>
      <path id="Path_26392" data-name="Path 26392" d="M479.033,615.114A32.671,32.671,0,0,0,511.7,582.447c0-1.041-.046-2.07-.145-3.088a32.672,32.672,0,1,0-32.523,35.755Z" transform="translate(-384.938 -517.12)" fill="#45613c"/>
      <path id="Path_26393" data-name="Path 26393" d="M408.22,692.038s0,6.536-.493,14.995c-.109,1.777-.232,3.642-.385,5.542-.015.232-.036.464-.058.7-.247,2.974-.559,6.043-.958,9.039-.058.45-.123.907-.181,1.356-1.2,8.393-3.069,16.025-6.021,19.253-1.19,1.306-2.191,4.2-3.047,8.19a161.864,161.864,0,0,0-2.459,18.4c-.559,6.427-.979,13.435-1.291,20.392-.022.464-.044.921-.065,1.378-.406,9.43-.617,18.694-.726,26.2h-16.38V753.946s-23.41,0-22.547-29.489q.109-3.58.24-6.993a.631.631,0,0,0,.007-.116q.185-4.57.414-8.8c.82-15.684,1.98-27.573,2.517-32.608q.087-.838.152-1.415c.087-.812.138-1.233.138-1.233l2.009,2,.174.174s-.051.334-.138.958a226.085,226.085,0,0,0-2.06,31.832c.043,3.09.181,6.21.435,9.264q.033.37.066.74c1.523,16.845,6.855,31.491,21.357,28.132a28.226,28.226,0,0,0,7.718-3c7.646-4.374,12.064-11.94,14.56-20.058q.163-.511.3-1.023a66.071,66.071,0,0,0,1.886-9.032c.152-1.045.276-2.082.377-3.1.116-1.124.2-2.227.275-3.308A100.746,100.746,0,0,0,404,693.627c-.181-2.677-.406-4.288-.406-4.288L408,691.915Z" transform="translate(-311.158 -615.342)" fill="#925e2e"/>
      <path id="Path_26394" data-name="Path 26394" d="M181.512,487.537c26.8-5.007,44.451-16.594,53.991-27.007a46.689,46.689,0,1,0-82.363,43.677C154.424,497.857,161.374,491.295,181.512,487.537Z" transform="translate(-146.393 -424.523)" fill="url(#linear-gradient-15)"/>
      <path id="Path_26395" data-name="Path 26395" d="M488.573,591.409c10.83-3.122,18.167-7.407,22.983-12.049a32.669,32.669,0,1,0-50.412,30.424C464.457,603.527,471.95,596.2,488.573,591.409Z" transform="translate(-384.938 -517.12)" fill="url(#linear-gradient-16)"/>
      <path id="Path_26396" data-name="Path 26396" d="M620.373,519.533l2.817.867s4.433-12.046,4.722-13.684S620.373,519.533,620.373,519.533Z" transform="translate(-523.314 -482.773)" fill="url(#linear-gradient-17)"/>
      <path id="Path_26397" data-name="Path 26397" d="M696.1,574.043l-13.973,4.24s.1,1.253,1.927,1.253S696.1,574.043,696.1,574.043Z" transform="translate(-572.424 -536.416)" fill="url(#linear-gradient-18)"/>
      <path id="Path_26398" data-name="Path 26398" d="M712.989,717.1h-3.565s.674,5.3,3.565,8.673S712.989,717.1,712.989,717.1Z" transform="translate(-594.129 -650.18)" fill="url(#linear-gradient-19)"/>
      <path id="Path_26399" data-name="Path 26399" d="M307.2,390.339c-1.445,1.06,5.107,17.057,5.107,17.057h3.277S308.649,389.279,307.2,390.339Z" transform="translate(-274.108 -390.294)" fill="url(#linear-gradient-20)"/>
      <path id="Path_26400" data-name="Path 26400" d="M371.512,409.231c.578-4.336-2.794-11.66-2.794-11.66v10.986S370.934,413.568,371.512,409.231Z" transform="translate(-323.191 -396.081)" fill="url(#linear-gradient-21)"/>
      <path id="Path_26401" data-name="Path 26401" d="M251.239,699.426c2.024-1.656,2.12-16.207,2.12-16.207l-3.18,1.156S249.215,701.082,251.239,699.426Z" transform="translate(-228.744 -623.235)" fill="url(#linear-gradient-22)"/>
    </g>
    <g id="Group_4300" data-name="Group 4300" transform="translate(298.999 107.703)">
      <g id="Group_4293" data-name="Group 4293" transform="translate(32.266 105.756)">
        <g id="Group_4292" data-name="Group 4292">
          <g id="Group_4291" data-name="Group 4291">
            <path id="Path_26402" data-name="Path 26402" d="M1617.7,1063.008s50.121-38.256,78.469-10.5c22.682,22.208,6.661,37,6.661,37s-5.723,10.459-42.564-17.689C1642.9,1058.55,1617.7,1063.008,1617.7,1063.008Z" transform="translate(-1617.697 -1042.408)" fill="url(#linear-gradient-23)"/>
          </g>
        </g>
      </g>
      <g id="Group_4296" data-name="Group 4296" transform="translate(0 30.363)">
        <g id="Group_4295" data-name="Group 4295">
          <g id="Group_4294" data-name="Group 4294">
            <path id="Path_26403" data-name="Path 26403" d="M1460.13,681.116s45.158-27.283,92.726,26.786,77.736,51.8,77.736,51.8S1524.875,806.953,1460.13,681.116Z" transform="translate(-1460.13 -674.233)" fill="url(#linear-gradient-24)"/>
          </g>
        </g>
      </g>
      <g id="Group_4299" data-name="Group 4299" transform="translate(55.53)">
        <g id="Group_4298" data-name="Group 4298">
          <g id="Group_4297" data-name="Group 4297">
            <path id="Path_26404" data-name="Path 26404" d="M1826.784,650.413c.825,21.688-56.24-6.4-69.723-40.914s-10.7-62.983-25.756-83.54C1731.306,525.959,1822.724,543.614,1826.784,650.413Z" transform="translate(-1731.306 -525.959)" fill="url(#linear-gradient-25)"/>
          </g>
        </g>
      </g>
    </g>
    <g id="Group_4310" data-name="Group 4310" transform="translate(156.756 143.922)">
      <g id="Group_4303" data-name="Group 4303" transform="translate(0 6.475)">
        <g id="Group_4302" data-name="Group 4302">
          <g id="Group_4301" data-name="Group 4301">
            <path id="Path_26405" data-name="Path 26405" d="M786.8,734.452s13.833,29.642-3.376,40.932c-13.769,9.033-16.2-4.117-16.2-4.117s-7.952-.667,10.4-16.218C786.262,747.718,786.8,734.452,786.8,734.452Z" transform="translate(-765.502 -734.452)" fill="url(#linear-gradient-26)"/>
          </g>
        </g>
      </g>
      <g id="Group_4306" data-name="Group 4306" transform="translate(8.611)">
        <g id="Group_4305" data-name="Group 4305">
          <g id="Group_4304" data-name="Group 4304">
            <path id="Path_26406" data-name="Path 26406" d="M868.972,702.831s8.822,25.91-23.853,44.024-37.082,22.84-37.082,22.84S798.022,721.7,868.972,702.831Z" transform="translate(-807.552 -702.831)" fill="url(#linear-gradient-27)"/>
          </g>
        </g>
      </g>
      <g id="Group_4309" data-name="Group 4309" transform="translate(5.976 32.271)">
        <g id="Group_4308" data-name="Group 4308">
          <g id="Group_4307" data-name="Group 4307">
            <path id="Path_26407" data-name="Path 26407" d="M797.806,895.016c-11.083-1.986,9.475-27.794,28.463-30.8s33.106,1.556,45.192-3.793C871.461,860.422,852.381,904.8,797.806,895.016Z" transform="translate(-794.685 -860.422)" fill="url(#linear-gradient-28)"/>
          </g>
        </g>
      </g>
    </g>
    <g id="Group_4327" data-name="Group 4327" transform="translate(52.004 232.648)">
      <path id="Path_26408" data-name="Path 26408" d="M363.571,1140.479s-5.421-2.5-7.86,2.541,4.747,12.489,2.4,15.529-6.792,1.232-8.783,12.606c0,0,1.771-7.047,7.171-7.059s8.309-3.174,5.915-9.965,1.516-5.631,1.47-7.754S363.571,1140.479,363.571,1140.479Z" transform="translate(-329.799 -1139.092)" fill="#e8734d"/>
      <g id="Group_4311" data-name="Group 4311" transform="translate(27.374 67.398)">
        <path id="Path_26409" data-name="Path 26409" d="M421.285,1533.778s-2.156,1.713-4.211.537c0,0-.019-.038-.051-.114-.74-1.581-8.89-19.076-10.293-22.376-1.176-2.763-.715-9.838-1.986-13.221a3.69,3.69,0,0,0-.841-1.391c-.24-.227-.6-.632-1.069-1.189a116.932,116.932,0,0,1-8.258-11.723c-3.187-5.134-6.1-10.742-6.784-14.732a8.994,8.994,0,0,1-.158-1.676c0-.1,0-.189.006-.284.19-3.889,4.672-2.365,9.244.24.48.272.961.556,1.435.847l.7.437a93.044,93.044,0,0,1,7.689,5.469s5,14.017,6.3,18.431c.076.26.139.481.19.67.885,3.408.759,6.98,1.271,8.409.512,1.4,6.62,30.729,6.81,31.646A.047.047,0,0,1,421.285,1533.778Z" transform="translate(-387.635 -1465.251)" fill="url(#linear-gradient-29)"/>
      </g>
      <path id="Path_26410" data-name="Path 26410" d="M472.037,1600.705a80.038,80.038,0,0,1-8.264,5.571,3.689,3.689,0,0,0-.841-1.391c-.24-.228-.6-.632-1.069-1.189a.049.049,0,0,0,.019-.007C462.288,1603.494,469.357,1600.181,472.037,1600.705Z" transform="translate(-419.29 -1505.525)" fill="url(#linear-gradient-30)"/>
      <g id="Group_4314" data-name="Group 4314" transform="translate(13.432 63.51)">
        <g id="Group_4313" data-name="Group 4313">
          <g id="Group_4312" data-name="Group 4312">
            <path id="Path_26411" data-name="Path 26411" d="M326.165,1454.142c-.032.215-.373,1.739-.392,2.175s.05,1.34-.329,1.3-.67-.822-.67-.822-.044.4-.386.468a.942.942,0,0,1-.942-.2s-.316.373-.607.367a1.213,1.213,0,0,1-.911-.36,1.089,1.089,0,0,1-.752.063,1.006,1.006,0,0,1-.683-.7s-.734-.025-.866-.4a3.391,3.391,0,0,1-.057-1.056,11.639,11.639,0,0,1,1.884-4.786,3.712,3.712,0,0,0,.588-1.2,5.069,5.069,0,0,0-.044-2.732l3.743,1.524a4.7,4.7,0,0,1,.253,1.619,3.222,3.222,0,0,0,.063.822h.007c.076.4.19.822.253,1.1A14.674,14.674,0,0,1,326.165,1454.142Z" transform="translate(-319.554 -1446.264)" fill="#eea886"/>
          </g>
        </g>
      </g>
      <g id="Group_4315" data-name="Group 4315" transform="translate(11.217 71.388)">
        <path id="Path_26412" data-name="Path 26412" d="M317.432,1486.185h-.013l-.133-.032-.765-.171h-.006l-5.406-1.208-.019-.006a.023.023,0,0,1-.019-.006,1.2,1.2,0,0,0-1.41.917l-.778,3.452-.12.544a1.2,1.2,0,0,0,.91,1.429l6.342,1.416a1.192,1.192,0,0,0,1.429-.9l.126-.55.771-3.452A1.2,1.2,0,0,0,317.432,1486.185Zm-.771,5.254a.383.383,0,0,1-.468.3l-6.341-1.416a.393.393,0,0,1-.3-.468l.12-.55.778-3.452a.392.392,0,0,1,.468-.3l.038.006.019.006,5.425,1.214h.006l.771.171.082.019a.4.4,0,0,1,.3.468l-.778,3.452Z" transform="translate(-308.736 -1484.738)" fill="#0e1e2b"/>
      </g>
      <g id="Group_4316" data-name="Group 4316" transform="translate(0 74.092)">
        <rect id="Rectangle_1372" data-name="Rectangle 1372" width="24.389" height="17.474" transform="matrix(0.976, 0.218, -0.218, 0.976, 3.806, 0)" fill="#54281a"/>
      </g>
      <g id="Group_4317" data-name="Group 4317" transform="translate(1.6 74.092)">
        <rect id="Rectangle_1373" data-name="Rectangle 1373" width="24.389" height="10.129" transform="matrix(0.976, 0.218, -0.218, 0.976, 2.206, 0)" fill="#873f2b"/>
      </g>
      <g id="Group_4318" data-name="Group 4318" transform="translate(59.683 23.657)">
        <path id="Path_26413" data-name="Path 26413" d="M569.616,1287.387s.592-1.092.464-1.3-.545-.419-1.462.648-1.044,1.476-1.511,1.89S569.616,1287.387,569.616,1287.387Z" transform="translate(-562.625 -1278.905)" fill="#efaa88"/>
        <rect id="Rectangle_1374" data-name="Rectangle 1374" width="2.337" height="14.302" transform="translate(9.951 0) rotate(19.689)" fill="#6b6b6b"/>
        <path id="Path_26414" data-name="Path 26414" d="M554.527,1293.973a1.229,1.229,0,0,1,.234,1.372c-.4.676-.1,1.018-.683,1.429s-.032,1.226-.677,1.429a27.66,27.66,0,0,1-2.852-.057.724.724,0,0,0-.133.025.755.755,0,0,0-.127.032,2.7,2.7,0,0,1-.259.095c-.323.12-.809.266-1.3.4a7.927,7.927,0,0,1-1.777.361c-.55-.032-1.536-3.111-1.536-3.111a13.224,13.224,0,0,0,2.662-1.46c.734-.525,1.612-1.4,2.4-2.036a.019.019,0,0,0,.006-.012,3.833,3.833,0,0,1,1.34-.8.574.574,0,0,1,.272-.013,2.56,2.56,0,0,1,.31.082.714.714,0,0,1,.089.032,9.12,9.12,0,0,1,2.017,1.011c.221.158.367.291.385.373C554.97,1293.43,554.527,1293.973,554.527,1293.973Z" transform="translate(-545.416 -1283.427)" fill="#eea886"/>
        <path id="Path_26415" data-name="Path 26415" d="M574.455,1293.979a1.226,1.226,0,0,1,.239,1.368c-.409.679-.1,1.02-.682,1.429s-.034,1.228-.682,1.433c-.572.181-2.1-.143-2.85-.058.379-.063,1.455-.258,1.543-.442.926-1.96-.2-5.936-.2-5.936l-.062-.138a.687.687,0,0,1,.278-.01,6.563,6.563,0,0,1,2.8,1.5C574.9,1293.433,574.455,1293.979,574.455,1293.979Z" transform="translate(-565.347 -1283.43)" fill="#d19376"/>
        <path id="Path_26416" data-name="Path 26416" d="M596.281,1260.009c-.122.4-.341.68-.488.635s-.166-.4-.044-.8.341-.68.488-.635S596.4,1259.613,596.281,1260.009Z" transform="translate(-585.379 -1257.658)" fill="#c4c4c4"/>
      </g>
      <path id="Path_26417" data-name="Path 26417" d="M531.234,1794.564a12.31,12.31,0,0,0,2.26,2.959c.9.586,5.124,4.831,6.4,4.908s3.789-.079,3.958.438.559,3.082-2.978,3.621-4.48.591-5.455-.165-4.682-2.817-5.61-2.676l.673,4.422-.929.142s-1.719-5.349-2.588-6.3-.71-4.96.862-6.828A2.464,2.464,0,0,1,531.234,1794.564Z" transform="translate(-470.644 -1659.356)" fill="url(#linear-gradient-31)"/>
      <path id="Path_26418" data-name="Path 26418" d="M539.3,1820.344s-3.868,1.041-5.707-.037-4.348-4.02-7.7-3.659c0,0-1,1.685,1.407,4.935a43.81,43.81,0,0,1,1.655,4.541l.929-.142-.673-4.422a19.122,19.122,0,0,1,6.173,3.314s6.942.211,7.953-2.07a2.829,2.829,0,0,0,.126-2.146C543.015,1819.665,539.3,1820.344,539.3,1820.344Z" transform="translate(-470.043 -1677.269)" fill="#1f3f59"/>
      <path id="Path_26419" data-name="Path 26419" d="M263.575,1772.1a12.3,12.3,0,0,0,.781,3.641c.567.916,2.572,6.556,3.695,7.171s3.46,1.546,3.392,2.086-.81,3.026-4.239,2-4.3-1.378-4.862-2.478-3.031-4.546-3.931-4.814L257.131,1784l-.9-.269s.729-5.571.35-6.8,1.476-4.788,3.694-5.807A2.464,2.464,0,0,1,263.575,1772.1Z" transform="translate(-255.766 -1640.858)" fill="url(#linear-gradient-32)"/>
      <path id="Path_26420" data-name="Path 26420" d="M268.051,1794.657s-3.943-.71-5.145-2.469-2.215-5.491-5.4-6.593c0,0-1.625,1.1-.834,5.063a43.787,43.787,0,0,1-.443,4.813l.9.269,1.279-4.287a19.136,19.136,0,0,1,4.168,5.632s6.188,3.154,8.075,1.523a2.829,2.829,0,0,0,1.03-1.887C271.7,1795.631,268.051,1794.657,268.051,1794.657Z" transform="translate(-255.766 -1652.598)" fill="#1f3f59"/>
      <g id="Group_4319" data-name="Group 4319" transform="translate(3.192 128.176)">
        <path id="Path_26421" data-name="Path 26421" d="M275.348,1764.714a45.063,45.063,0,0,0-2.205,4.342c-.139.657-2.967.347-3.594-2.217,0,0,2.406-4.654,2.334-4.781S275.348,1764.714,275.348,1764.714Z" transform="translate(-269.548 -1762.053)" fill="url(#linear-gradient-33)"/>
      </g>
      <g id="Group_4320" data-name="Group 4320" transform="translate(5.443 61.412)">
        <path id="Path_26422" data-name="Path 26422" d="M312.914,1452.47s-6.555,16.312-8.2,19.423-4.084,4.7-4.669,6.1-16.069,27.659-16.069,27.659-2.718-.357-3.435-2.61c0,0,6.427-19.4,7.679-22.946,1.177-3.328,7.58-9.675,7.347-12.855s4.052-24.607,9.751-30.259S312.914,1452.47,312.914,1452.47Z" transform="translate(-280.539 -1436.017)" fill="url(#linear-gradient-34)"/>
      </g>
      <path id="Path_26423" data-name="Path 26423" d="M356.1,1485.086s-30.191,16.906-41.535,9.293c0,0,9.579-20.63,9.8-27.25a16.919,16.919,0,0,1,1.214-5.577,21.943,21.943,0,0,1,1.783-3.56,18.642,18.642,0,0,1,1.543-2.187l17.6,3.85s.095.24.272.683C348.2,1463.873,351.667,1468.74,356.1,1485.086Z" transform="translate(-302.156 -1390.341)" fill="#a36037"/>
      <g id="Group_4322" data-name="Group 4322" transform="translate(13.423 69.698)">
        <g id="Group_4321" data-name="Group 4321">
          <path id="Path_26424" data-name="Path 26424" d="M324.889,1480.594s.55-2.436.023-3.112-.775.192-.775.192.259-.853-.407-1.14-.9.745-.9.745a.722.722,0,0,0-.731-.74c-.752-.038-.751.864-.751.864s-.524-1.013-1.134-.312a3.742,3.742,0,0,0-.621,2.977s.14.423.866.41a1,1,0,0,0,1.44.631s.938.852,1.513-.006A.87.87,0,0,0,324.889,1480.594Z" transform="translate(-319.51 -1476.483)" fill="#d19376"/>
        </g>
      </g>
      <g id="Group_4323" data-name="Group 4323" transform="translate(15.585 21.223)">
        <path id="Path_26425" data-name="Path 26425" d="M351.9,1246.551c-1.075,2.731-3.838,5.153-4.647,6.114-.455.551-2.814,4.167-4.78,7.278-.575.917-1.119,1.783-1.568,2.523H340.9a19.735,19.735,0,0,0-1.233,2.15,87.68,87.68,0,0,0-2.9,10.4c-.769,4.15-1.557,11.177-1.557,11.177l-5.14-1.163s1.125-17.685,3.079-21.409c2.087-3.983,7.619-16.269,7.619-16.269s4.723-10.534,10.831-6.778C351.6,1240.57,352.982,1243.82,351.9,1246.551Z" transform="translate(-330.068 -1239.76)" fill="#fccca2"/>
      </g>
      <path id="Path_26426" data-name="Path 26426" d="M391.546,1262.828c-.841,1.005-.43,2.833-.164,4.426a12.325,12.325,0,0,1,.152,2.9c-1.3,11.914.057,16.749-.379,18.292a.84.84,0,0,1-.493.455c-1.031.512-3.528.809-6.569.847-.4.006-.828.006-1.258,0a59.226,59.226,0,0,1-9.421-.8c-.487-.088-.961-.177-1.416-.278-.6-.126-1.17-.272-1.7-.424-.19-.051-.373-.107-.55-.164,0,0,4.464-11.672,5.608-13.967.885-1.789-.215-9.041-1.328-13.8a27.126,27.126,0,0,0-1.062-3.686c-.853-2.061-.594-8.89,1.966-13.1a7.264,7.264,0,0,1,3.054-2.915,5.508,5.508,0,0,1,.727-.278c.139-.038.285-.076.43-.108,0,0,.032.025.095.082.487.417,2.776,2.377,4.622,4.047.348.316.683.62.986.9l.007.006c.3.278.569.531.79.752.449.443,1.151,1.176,1.966,2.055l.158.177c2.428,2.637,5.729,6.475,6.19,7.954a4.85,4.85,0,0,1-.291,3A13.413,13.413,0,0,1,391.546,1262.828Z" transform="translate(-346.035 -1218.906)" fill="#fccca2"/>
      <path id="Path_26427" data-name="Path 26427" d="M412.193,1220.834a19.877,19.877,0,0,0-.328-5.027s7.738,2.982,6.5,4.008a2.368,2.368,0,0,0-.65,1.329,14.7,14.7,0,0,0-.071,3.971l2.685,2.806C421.349,1228.926,412.071,1221.845,412.193,1220.834Z" transform="translate(-379.53 -1199.489)" fill="#eea886"/>
      <path id="Path_26428" data-name="Path 26428" d="M422.786,1224.79A1.956,1.956,0,0,0,422.2,1226a12.13,12.13,0,0,1-4.627-4.441A17.164,17.164,0,0,0,422.786,1224.79Z" transform="translate(-384.067 -1204.06)" fill="#a77860"/>
      <path id="Path_26429" data-name="Path 26429" d="M410.736,1237.041l5.918,3.565.243,1.916,2.852,3.194s-6.278-4.9-9.784-7.639Z" transform="translate(-378.02 -1216.375)" fill="#eddad3"/>
      <path id="Path_26430" data-name="Path 26430" d="M400.7,1142.229s-2.141,1.03-2.553,5.5C398.151,1147.732,396.531,1143,400.7,1142.229Z" transform="translate(-368.378 -1140.978)" fill="#fab46c"/>
      <g id="Group_4324" data-name="Group 4324" transform="translate(30.368 2.241)">
        <path id="Path_26431" data-name="Path 26431" d="M416.428,1148.758s1.649,1.814.866,6.948c0,0,.3,4.1.893,4.836s-1.715.91-1.977,1.414a16.111,16.111,0,0,1-2.264,3.951c-1.448,1.606-9.652-2.964-9.944-5.442s-5.392-13.248,3.344-13.395S416.428,1148.758,416.428,1148.758Z" transform="translate(-402.258 -1147.061)" fill="#eea886"/>
      </g>
      <g id="Group_4325" data-name="Group 4325" transform="translate(29.759)">
        <path id="Path_26432" data-name="Path 26432" d="M415.118,1145.22s1.248-10.179-9.712-9.007c-10.44,1.117-4.634,13.312-3.39,17.157,0,0-.017-6.013,4.958-6.013S412.92,1146.3,415.118,1145.22Z" transform="translate(-399.285 -1136.119)" fill="#e8734d"/>
      </g>
      <g id="Group_4326" data-name="Group 4326" transform="translate(34.136 9.12)">
        <path id="Path_26433" data-name="Path 26433" d="M423.221,1181.249a1.423,1.423,0,0,0-2.552,1.045c.18,1.655,1.824,3.364,2.42,2.589A3.194,3.194,0,0,0,423.221,1181.249Z" transform="translate(-420.658 -1180.657)" fill="#eea886"/>
      </g>
      <path id="Path_26434" data-name="Path 26434" d="M426.541,1323.192c-.006.215-.012.651-.019,1.252-.1.063-2.453,1.523-3.566.164-1.106-1.341-8.738-15.25-9.212-16.117a85.494,85.494,0,0,0,5.7,7.221c2.263,2.536,4.818,4.964,6.923,5.829A9.214,9.214,0,0,1,426.541,1323.192Z" transform="translate(-381.024 -1273.194)" fill="#8a6f59"/>
      <path id="Path_26435" data-name="Path 26435" d="M400.575,1262.526a4.253,4.253,0,0,0-.832,5.82c1.78,2.921,4.982,6.114,6.05,7.674s6.606,9.357,7.83,8.927,3.23-1.724,5.958-2.862c2.612-1.089,13.491-6.767,13.491-6.767l-2.168-4.16s-2.45,1.009-4.6,1.974-7.06,2.529-11.4,3.988c0,0-5.1-6.721-5.856-8.021S405.051,1259.685,400.575,1262.526Z" transform="translate(-369.276 -1236.165)" fill="#fccca2"/>
    </g>
    <g id="Group_4328" data-name="Group 4328" transform="translate(26.477 186.276)">
      <path id="Path_26436" data-name="Path 26436" d="M134.235,939.1a17.517,17.517,0,0,1,0-24.375,16.66,16.66,0,0,1,23.919,0,17.517,17.517,0,0,1,0,24.375A16.66,16.66,0,0,1,134.235,939.1Zm1.269-23.133a15.732,15.732,0,0,0,0,21.891,14.886,14.886,0,0,0,21.382,0,15.732,15.732,0,0,0,0-21.891A14.886,14.886,0,0,0,135.5,915.966Z" transform="translate(-129.3 -909.662)" fill="url(#linear-gradient-35)"/>
    </g>
    <path id="Path_26437" data-name="Path 26437" d="M278.652,1055.985l-8.336-8.954,1.3-1.21,8.335,8.954a2.633,2.633,0,0,0,3.886,0l.053-.058a2.637,2.637,0,0,0-.378-3.867l-9.728-7.418,1.077-1.412,9.728,7.418a4.417,4.417,0,0,1,.616,6.472l-.053.058A4.414,4.414,0,0,1,278.652,1055.985Z" transform="translate(-214.962 -828.638)" fill="url(#linear-gradient-35)"/>
    <path id="Path_26438" data-name="Path 26438" d="M1251.156,603.487a65.743,65.743,0,0,1-3.744,6.216c-.626.947-1.119,1.694-1.381,2.2-.809,1.571-.738,8.889-.5,13.133a.843.843,0,0,1-1.683.093c-.063-1.171-.6-11.5.686-14,.3-.592.82-1.373,1.474-2.362a64.072,64.072,0,0,0,3.65-6.06c2.4-4.659.9-12.093-5.175-15.732-10.48-6.284-19.414,1.083-19.79,1.4a.932.932,0,0,1-.1.073c-.045.028-4.585,2.935-4.585,7.377l0,1.009a38.976,38.976,0,0,1-.222,5.857c-.177.888-3.01,5.838-3.41,6.637-.114.23-.123.368-.1.4.12.187.835.461,2.236.411a1,1,0,0,1,.746.288c.458.445.454,1.169.445,2.483-.009,1.545-.023,3.878.955,5.008.947,1.1,3.071.852,5.761.542l.83-.1a1.617,1.617,0,0,1,1.358.486c1.278,1.3.884,5.18.732,6.337a.842.842,0,1,1-1.67-.219c.29-2.221.157-4.626-.273-4.947l-.785.11c-3.058.353-5.7.66-7.23-1.111-1.39-1.61-1.373-4.217-1.362-6.12,0-.359,0-.773-.009-1.072-1.207-.023-2.561-.273-3.15-1.188a1.98,1.98,0,0,1,.013-2.064c.42-.843,3.14-5.6,3.266-6.217a41.333,41.333,0,0,0,.188-5.52l0-1.013c0-5.175,4.762-8.411,5.328-8.775.794-.641,10.581-8.179,21.693-1.519C1252.23,589.664,1253.906,598.15,1251.156,603.487Z" transform="translate(-965.868 -463.465)" fill="url(#linear-gradient-35)"/>
    <path id="Path_26439" data-name="Path 26439" d="M1290.306,631.12h-1.684a8.536,8.536,0,0,1,3.435-6.592c2.213-1.519,2.19-3.088,2.189-3.1a3.944,3.944,0,0,0-4.209-3.631c-2.32,0-4.208,1.608-4.208,3.585h-1.684c0-2.905,2.643-5.269,5.892-5.269s5.892,2.363,5.892,5.269c0,.055.1,2.467-2.879,4.509A6.823,6.823,0,0,0,1290.306,631.12Z" transform="translate(-1021.183 -489.946)" fill="url(#linear-gradient-35)"/>
    <g id="Group_4331" data-name="Group 4331" transform="translate(267.139 143.145)">
      <g id="Group_4330" data-name="Group 4330">
        <g id="Group_4329" data-name="Group 4329">
          <path id="Path_26440" data-name="Path 26440" d="M1307.1,700.32a1.279,1.279,0,1,1-1.278-1.28A1.28,1.28,0,0,1,1307.1,700.32Z" transform="translate(-1304.547 -699.04)" fill="url(#linear-gradient-35)"/>
        </g>
      </g>
    </g>
    <path id="Path_26441" data-name="Path 26441" d="M953.453,305.839a26.6,26.6,0,0,0-4.272.343c-3.307-6.623-11.724-11.341-21.556-11.341-12.717,0-23.062,7.887-23.062,17.581,0,6.217,4.263,11.922,11.2,15.089L914.7,334.2a1.375,1.375,0,0,0,2.052,1.4l9.62-5.633a29.7,29.7,0,0,0,8.538-.869,18.5,18.5,0,0,0,7.772,6.476l-.933,5.959a1.376,1.376,0,0,0,2.058,1.4l8.563-5.066c11.879.473,21.85-6.852,21.85-16C974.221,313.03,964.9,305.839,953.453,305.839ZM926.145,327.2a1.377,1.377,0,0,0-.8.184l-7.475,4.378.774-4.879a1.37,1.37,0,0,0-.84-1.488c-6.471-2.631-10.489-7.6-10.489-12.976,0-8.178,9.11-14.83,20.31-14.83s20.31,6.652,20.31,14.83C947.935,321.843,936.3,327.978,926.145,327.2Zm26,7.893a1.392,1.392,0,0,0-.809.19l-6.416,3.8.645-4.122a1.373,1.373,0,0,0-.835-1.485,16.577,16.577,0,0,1-7.064-5.23,22.931,22.931,0,0,0,8.382-5.264H965V320.1h-16.64a15.223,15.223,0,0,0,1.333-2.591H965v-2.879H950.5a13.129,13.129,0,0,0,.184-2.211,13.624,13.624,0,0,0-.49-3.612,24.172,24.172,0,0,1,3.259-.219c9.936,0,18.019,5.955,18.019,13.272C971.472,330.472,960.939,335.8,952.143,335.1Z" transform="translate(-719.331 -234.466)" fill="url(#linear-gradient-35)"/>
    <rect id="Rectangle_1375" data-name="Rectangle 1375" width="20.149" height="2.591" transform="translate(225.386 91.282)" fill="url(#linear-gradient-35)"/>
    <g id="Group_4332" data-name="Group 4332" transform="translate(82.016 181.932)">
      <path id="Path_26442" data-name="Path 26442" d="M509.255,1032.3a77.248,77.248,0,0,1-16.88,6.835,70.963,70.963,0,0,1-18.951,2.485,69.3,69.3,0,0,1-29.825-6.317,72.09,72.09,0,0,1-22.99-16.776A76.818,76.818,0,0,1,405.8,994.608a75.349,75.349,0,0,1-5.282-27.753,73.374,73.374,0,0,1,5.489-27.961,75.765,75.765,0,0,1,15.327-23.818,73.873,73.873,0,0,1,23.3-16.466,70.341,70.341,0,0,1,29.411-6.11,67.5,67.5,0,0,1,29.825,6.524,74.126,74.126,0,0,1,22.99,17.087,76.679,76.679,0,0,1,14.705,24.026,75.656,75.656,0,0,1,5.178,27.339,74.437,74.437,0,0,1-19.055,49.915l21.126,23.2h-31.9Zm-35.624-20.919a36.2,36.2,0,0,0,14.5-2.693l-23.611-26.1h31.9l9.113,10.148a48.831,48.831,0,0,0,4.971-12.427,55.665,55.665,0,0,0-.829-29.928,41.786,41.786,0,0,0-7.456-14.084,38.261,38.261,0,0,0-12.116-9.838,38.663,38.663,0,0,0-33.346.1,37.144,37.144,0,0,0-12.013,10.149,43.642,43.642,0,0,0-7.249,14.291,56.5,56.5,0,0,0-2.382,16.259,55,55,0,0,0,2.486,16.466,42.738,42.738,0,0,0,7.353,14.084,36.708,36.708,0,0,0,12.116,9.838A35.711,35.711,0,0,0,473.632,1011.385Z" transform="translate(-400.519 -891.67)" fill="#ebc284"/>
      <path id="Path_26443" data-name="Path 26443" d="M1279.558,1037.371l-9.734-10.356a70.418,70.418,0,0,1-39.974,12.427,56.53,56.53,0,0,1-21.437-3.831,48.017,48.017,0,0,1-15.845-10.149,44.164,44.164,0,0,1-9.838-14.394,42.636,42.636,0,0,1-3.418-16.777,39.422,39.422,0,0,1,1.864-12.323,41.947,41.947,0,0,1,5.074-10.46,59.979,59.979,0,0,1,7.353-8.906,91.141,91.141,0,0,1,8.7-7.664q-7.456-9.111-10.563-15.637a33.048,33.048,0,0,1-3.107-14.395,35.929,35.929,0,0,1,3.107-15.223,33.216,33.216,0,0,1,8.7-11.5,38.63,38.63,0,0,1,13.152-7.249,52.422,52.422,0,0,1,16.466-2.486,59.85,59.85,0,0,1,15.327,1.968,38.06,38.06,0,0,1,13.152,6.213,33.192,33.192,0,0,1,9.217,10.563,30.393,30.393,0,0,1,3.521,15.017,35.765,35.765,0,0,1-6.214,20.815,71.357,71.357,0,0,1-16.155,16.466l22.99,24.44a71.016,71.016,0,0,0,4.246-13.566,77.685,77.685,0,0,0,1.553-16.051h26.718a109.058,109.058,0,0,1-3.625,27.65,88.613,88.613,0,0,1-9.424,22.265l31.689,33.139Zm-46.187-23.819a33.525,33.525,0,0,0,18.433-5.592l-29.2-31.068a42.629,42.629,0,0,0-8.492,8.388A15.29,15.29,0,0,0,1211,994.5a17.114,17.114,0,0,0,1.45,6.731,17.678,17.678,0,0,0,4.349,6.111,23.785,23.785,0,0,0,16.569,6.213Zm-14.706-89.889a10.034,10.034,0,0,0,2.072,6.11,83.176,83.176,0,0,0,7.456,8.181,51.939,51.939,0,0,0,9.527-7.456,11.111,11.111,0,0,0,3.107-7.871,9.263,9.263,0,0,0-3-7.249,12.574,12.574,0,0,0-16.052.414A10.667,10.667,0,0,0,1218.665,923.663Z" transform="translate(-1019.835 -888.453)" fill="#ebc284"/>
      <path id="Path_26444" data-name="Path 26444" d="M1942.963,897.556h30.653l53.643,147.054h-34.8l-11.391-32.932H1935.3l-11.184,32.932h-34.8Zm32.517,90.718-17.191-51.986-17.605,51.986Z" transform="translate(-1584.45 -895.692)" fill="#ebc284"/>
    </g>
    <g id="Group_4347" data-name="Group 4347" transform="translate(159.986 256.864)">
      <rect id="Rectangle_1376" data-name="Rectangle 1376" width="5.571" height="58.034" transform="translate(123.67 51.45)" fill="#cfbeb8"/>
      <rect id="Rectangle_1377" data-name="Rectangle 1377" width="5.571" height="58.034" transform="translate(12.097 51.45)" fill="#cfbeb8"/>
      <rect id="Rectangle_1378" data-name="Rectangle 1378" width="139.865" height="14.436" transform="translate(0.473 68.238)" fill="#d88a51"/>
      <rect id="Rectangle_1379" data-name="Rectangle 1379" width="139.865" height="11.269" transform="translate(0.473 68.238)" fill="#d88a51"/>
      <rect id="Rectangle_1380" data-name="Rectangle 1380" width="139.865" height="15.929" transform="translate(0 42.474)" fill="#b57341"/>
      <g id="Group_4333" data-name="Group 4333" transform="translate(61.017 113.788)">
        <path id="Path_26445" data-name="Path 26445" d="M1085.624,1810.686a14.505,14.505,0,0,0,4.341,3.626c1.878.89,4.817,2.278,4.791,3.894s-7.167,1.327-10.187-.13-4.769-1.834-5.219-3.063.709-4.448.688-4.835C1080.013,1809.7,1085.624,1810.686,1085.624,1810.686Z" transform="translate(-1079.246 -1810.047)" fill="#464b7a"/>
      </g>
      <g id="Group_4334" data-name="Group 4334" transform="translate(61.633 112.248)">
        <path id="Path_26446" data-name="Path 26446" d="M1088.069,1803.313s-.036,1.648-.087,1.674-5.138.512-5.471-.507a6.572,6.572,0,0,1-.255-1.952Z" transform="translate(-1082.256 -1802.527)" fill="#eea886"/>
      </g>
      <g id="Group_4335" data-name="Group 4335" transform="translate(86.551 109.706)">
        <path id="Path_26447" data-name="Path 26447" d="M1210.311,1790.737a14.508,14.508,0,0,0,4.342,3.627c1.878.89,5.428,1.969,5.4,3.585s-7.6,1.712-10.149-.462c-2.122-1.807-5.418-1.194-5.868-2.422s.777-4.431.757-4.818C1204.768,1789.768,1210.311,1790.737,1210.311,1790.737Z" transform="translate(-1203.938 -1790.114)" fill="#464b7a"/>
      </g>
      <g id="Group_4336" data-name="Group 4336" transform="translate(87.391 108.202)">
        <path id="Path_26448" data-name="Path 26448" d="M1213.627,1783.5s-.036,1.647-.086,1.674-5.338.557-5.471-.507a7.135,7.135,0,0,1,.118-1.9Z" transform="translate(-1208.043 -1782.768)" fill="#eea886"/>
      </g>
      <g id="Group_4337" data-name="Group 4337" transform="translate(55.173 58.666)">
        <path id="Path_26449" data-name="Path 26449" d="M1069.049,1541.386s12.122,5.253,14.176,6.64,9.247,4.834,10.161,8.112.543,8.3-.718,13.41-3.9,20.512-3.71,22.34c0,0-4.165.958-6.876-.617,0,0-.01-21.075.3-22.777s-.224-6.871-2.6-7.942-13.85-3.908-15.363-4.349a33.915,33.915,0,0,0-4.854-.693s-9.19-7.312-8.85-10.148S1052.773,1539.657,1069.049,1541.386Z" transform="translate(-1050.71 -1540.862)" fill="#323657"/>
      </g>
      <g id="Group_4338" data-name="Group 4338" transform="translate(50.759 59.115)">
        <path id="Path_26450" data-name="Path 26450" d="M1043.041,1545.071s5.212,11.283,6.084,14.309,1.994,5.29,1.8,8.631-2.051,11.619-2.69,14.583c-.634,2.941-2.035,14.983-2.035,14.983s-4.524.619-6.793-.452c0,0-.067-13.728-.445-17.448s-.328-11.6-.328-12.67-7.9-8.347-8.6-10.175-1.3-8.314-.538-10.394S1030.159,1540.784,1043.041,1545.071Z" transform="translate(-1029.154 -1543.057)" fill="#323657"/>
      </g>
      <g id="Group_4339" data-name="Group 4339" transform="translate(72.062 22.383)">
        <path id="Path_26451" data-name="Path 26451" d="M1134.849,1363.682a7.552,7.552,0,0,1,3,3.184c.925,2.073,1.2,2.152,1.681,6.584.227,2.071.392,6.37.476,8.359s2.806,6.638,2.778,6.974c0,0-5.413,1.91-5.636,4.335s-3.109-2.242-3.109-2.242S1131.658,1363.371,1134.849,1363.682Z" transform="translate(-1133.185 -1363.679)" fill="#5c64a1"/>
      </g>
      <g id="Group_4340" data-name="Group 4340" transform="translate(58.45 1.075)">
        <path id="Path_26452" data-name="Path 26452" d="M1076.355,1260.722s4.756,1.359,3.6,10.2c-1.275,9.75-8.237,7.144-10,5.337s-3.152-5.715-3.236-8.657S1067.193,1256.73,1076.355,1260.722Z" transform="translate(-1066.71 -1259.621)" fill="#eea886"/>
      </g>
      <g id="Group_4341" data-name="Group 4341" transform="translate(29.883 20.653)">
        <path id="Path_26453" data-name="Path 26453" d="M955.776,1355.649s-6.511.546-7.6,1.345-6.262,3.236-7.691,4.2-8.841,5.686-10.338,7.46c-1.526,1.807-3.446,3.845-2.816,5.61s6.892,6.808,8.4,7.775,5.731,4.746,5.731,4.746,4.05-1.951,3.714-3.422-7.512-7.67-8.142-8.595-1.681-1.3-.5-2.311,9.288-5.505,9.5-5.3a39.887,39.887,0,0,1,2.227,4.875c.294.967,1.7,10.807,1.7,10.807l-1.3,12.859s17.89,2.549,24.089-1.107c0,0-.906-9.07-.822-9.868s2.521-12.9,2.522-15.171c0-5.253-1.639-11.389-3.194-12.481s-10.632-1.849-10.632-1.849Z" transform="translate(-927.205 -1355.229)" fill="#5c64a1"/>
      </g>
      <g id="Group_4342" data-name="Group 4342" transform="translate(56.712 20.523)">
        <path id="Path_26454" data-name="Path 26454" d="M1058.226,1355.32s1.892,10.417,9.141,11.342,4.877-11.006,4.877-11.006S1067.212,1353.518,1058.226,1355.32Z" transform="translate(-1058.226 -1354.598)" fill="#eea886"/>
      </g>
      <g id="Group_4343" data-name="Group 4343" transform="translate(59.861 14.362)">
        <path id="Path_26455" data-name="Path 26455" d="M1073.821,1334.625s.8-6.865-.147-9.482,7.516,3.722,7.516,3.722,0,.2,0,.53,0,.778,0,1.276a22.186,22.186,0,0,0,.2,3.421C1081.638,1335.074,1073.821,1334.625,1073.821,1334.625Z" transform="translate(-1073.6 -1324.511)" fill="#eea886"/>
      </g>
      <g id="Group_4344" data-name="Group 4344" transform="translate(57.001)">
        <path id="Path_26456" data-name="Path 26456" d="M1074.647,1262.945s-.163-3.257-4.2-2.585-7.922,3.826-7.953,8.847c0,0-5.579-9.127-1.152-12.909S1074.647,1254.1,1074.647,1262.945Z" transform="translate(-1059.636 -1254.374)" fill="#eb4747"/>
      </g>
      <g id="Group_4345" data-name="Group 4345" transform="translate(66.786 5.888)">
        <path id="Path_26457" data-name="Path 26457" d="M1107.419,1283.451s4.341,4.165,5.56,4.27C1112.979,1287.721,1113.647,1281.681,1107.419,1283.451Z" transform="translate(-1107.419 -1283.126)" fill="#272a45"/>
      </g>
      <g id="Group_4346" data-name="Group 4346" transform="translate(61.694 17.712)">
        <path id="Path_26458" data-name="Path 26458" d="M1088.307,1343.68h0a6.72,6.72,0,0,1-5.754-2.811,6.409,6.409,0,0,0,5.752,1.536h0C1088.3,1342.732,1088.3,1343.183,1088.307,1343.68Z" transform="translate(-1082.552 -1340.869)" fill="#a77860"/>
      </g>
      <path id="Path_26459" data-name="Path 26459" d="M1072.01,1300.353c-.276-.882-1.3-2.073-1.773-.756s.836,4.318,1.392,3.9S1072.519,1301.978,1072.01,1300.353Z" transform="translate(-1010.985 -1289.87)" fill="#eea886"/>
      <path id="Path_26460" data-name="Path 26460" d="M1059.636,1562.146l22.969-2.486-10.376,7.806Z" transform="translate(-1002.635 -1497.145)" fill="#cfbeb8"/>
      <path id="Path_26461" data-name="Path 26461" d="M1072.229,1577.119l-12.593-3.968V1571.8l13.017,3.861Z" transform="translate(-1002.635 -1506.798)" fill="#eddad3"/>
      <path id="Path_26462" data-name="Path 26462" d="M1145.764,1444.474a17.4,17.4,0,0,1,.051-2.585c.137-.743,2.331-12.414,2.353-13.768,0,0,.405,9.953-1.215,16.943S1145.764,1444.474,1145.764,1444.474Z" transform="translate(-1071.084 -1392.542)" fill="#444a78"/>
      <path id="Path_26463" data-name="Path 26463" d="M1121.131,1498.71l6.7-23.025,25.468-2.486-6.98,21.194Z" transform="translate(-1051.537 -1428.389)" fill="#eddad3"/>
      <path id="Path_26464" data-name="Path 26464" d="M1004.71,1493.494a7.54,7.54,0,0,0,1.617,2.256,7.814,7.814,0,0,1,1.846,3.894c.063.777.926,6.628.681,7.119s-1.027-.29-1.084-.86-.969-5.435-.969-5.435.76,5.852.458,6.258-1.018.426-1.353-.364c0,0-1.117.641-1.375-.791l-.524-2.854s.012,1.521-.7.573c-.381-.5-.6-3.784-.842-4.423a17.678,17.678,0,0,1-.338-3.062Z" transform="translate(-956.897 -1444.528)" fill="#eea886"/>
      <path id="Path_26465" data-name="Path 26465" d="M985.859,1469.013s3.568-1.658,4.072-3.077c0,0-.177-1.167-6.9-7.308Z" transform="translate(-941.717 -1416.802)" fill="#5c64a1"/>
    </g>
    <g id="Group_4360" data-name="Group 4360" transform="translate(484.484 220.435)">
      <g id="Group_4348" data-name="Group 4348" transform="translate(5.183 137.28)">
        <path id="Path_26466" data-name="Path 26466" d="M2394.136,1754.236s-3.305,4.643-2.852,5.379,3.929.841,6.045,0,2.166-6.283,3.123-8.621c.4-.979-.457-3.868-1.662-4.078a4.9,4.9,0,0,0-2.517.406S2397.523,1750.616,2394.136,1754.236Z" transform="translate(-2391.241 -1746.874)" fill="#363a5e"/>
      </g>
      <g id="Group_4350" data-name="Group 4350" transform="translate(6.985 137.214)">
        <g id="Group_4349" data-name="Group 4349">
          <path id="Path_26467" data-name="Path 26467" d="M2403.25,1747.027a22.71,22.71,0,0,0-.949,3.865c-.211,1.566-2.354,4.89-2.254,5.311s2.821.8,3.929-.282,1.821-4.237,2.065-6.123a15.7,15.7,0,0,1,.514-2.624S2404.308,1745.871,2403.25,1747.027Z" transform="translate(-2400.043 -1746.549)" fill="#eea886"/>
        </g>
      </g>
      <g id="Group_4351" data-name="Group 4351" transform="translate(34.068 137.283)">
        <path id="Path_26468" data-name="Path 26468" d="M2535.077,1754.323s-3.186,4.566-2.732,5.3,3.929.841,6.045,0,2.166-6.283,3.123-8.621c.4-.979-.457-3.868-1.663-4.078a5.219,5.219,0,0,0-2.619.451S2538.464,1750.7,2535.077,1754.323Z" transform="translate(-2532.3 -1746.885)" fill="#363a5e"/>
      </g>
      <g id="Group_4353" data-name="Group 4353" transform="translate(35.872 137.111)">
        <g id="Group_4352" data-name="Group 4352">
          <path id="Path_26469" data-name="Path 26469" d="M2544.235,1746.709a32.341,32.341,0,0,1-.655,3.679c-.4,1.524-2.569,4.994-2.468,5.414s2.821.8,3.929-.283,1.964-4.223,2.065-6.122a10.515,10.515,0,0,0-.252-3.139A2.378,2.378,0,0,0,2544.235,1746.709Z" transform="translate(-2541.108 -1746.045)" fill="#eea886"/>
        </g>
      </g>
      <g id="Group_4355" data-name="Group 4355" transform="translate(9.993 52.148)">
        <g id="Group_4354" data-name="Group 4354">
          <path id="Path_26470" data-name="Path 26470" d="M2427.816,1341.176s-2.836,13.768-3.487,17.234-2.475,20.255-2.671,23.109-2.959,13.611-2.829,14.63-4.1,21.5-4.1,21.5a2.461,2.461,0,0,0,2.966.109c.783-.567,9.277-19.174,9.277-24.271,0-7.046,4.993-16.245,5.638-17.821,5.985-14.645,4.807-19.123,5.588-20.074s.849.588,1.306,2.695,1.432,20.323,2.018,22.634.131,10.127.457,14.07,1.755,21.774,1.755,21.774,1.107,1.811,2.661.047c.334-.38,2.682-19.864,2.748-24.554s.135-11.158.26-13.186c1.207-19.434,4.173-22.21-.5-35.964C2440.161,1317.355,2427.816,1341.176,2427.816,1341.176Z" transform="translate(-2414.731 -1331.139)" fill="#eea886"/>
        </g>
      </g>
      <g id="Group_4356" data-name="Group 4356" transform="translate(17.294 58.336)">
        <path id="Path_26471" data-name="Path 26471" d="M2475.214,1361.358s8.08,11.8,4.6,36.9c0,0-19.164,2.72-29.431-3.146,0,0,4.246-25.881,5.784-29.908S2475.214,1361.358,2475.214,1361.358Z" transform="translate(-2450.384 -1361.357)" fill="#3f446e"/>
      </g>
      <g id="Group_4357" data-name="Group 4357" transform="translate(13.878 140.993)">
        <path id="Path_26472" data-name="Path 26472" d="M2434.3,1765v4.861h-.6v-3.757Z" transform="translate(-2433.7 -1765.004)" fill="#363a5e"/>
      </g>
      <g id="Group_4358" data-name="Group 4358" transform="translate(42.764 140.993)">
        <path id="Path_26473" data-name="Path 26473" d="M2575.37,1765v4.861h-.6v-3.757Z" transform="translate(-2574.766 -1765.004)" fill="#363a5e"/>
      </g>
      <path id="Path_26474" data-name="Path 26474" d="M2509.519,1099.975s-5.411,5.45-3.568,12.469,4.8,7.058,8.068,4.039,5.185-6.2,5.617-9.724S2514.459,1095.113,2509.519,1099.975Z" transform="translate(-2476.974 -1093.961)" fill="#eea886"/>
      <path id="Path_26475" data-name="Path 26475" d="M2519.691,1181.914a32.036,32.036,0,0,0,1.365-3.9c.1-.364.191-.736.27-1.106a7.151,7.151,0,0,0,.091-3.46c-.863-2.549,5.411-.784,5.411-.784s-1.216,6.744,0,9.019S2519.691,1181.914,2519.691,1181.914Z" transform="translate(-2488.205 -1152.492)" fill="#eea886"/>
      <path id="Path_26476" data-name="Path 26476" d="M2483.667,1216.44a5.093,5.093,0,0,0-3.635-3.208c-1.068-.337-5.84-1.58-5.84-1.58l-5.731-.21a51.179,51.179,0,0,0-7,1.715c-3.059,1.059-7.066,6.853-7.066,6.853s5.529,12.979,6.588,16.7.353,9.489.353,9.489c6.627,3.608,17.252-.352,17.252-.352a21.277,21.277,0,0,1-.416-8.719c.05-.284.106-.555.168-.809.057-.232.136-.564.227-.936,0-.017.008-.033.011-.05,4.216.432,8.167.607,8.271-.239C2487.315,1231.291,2485.026,1219.15,2483.667,1216.44Zm-2.92,14.8c-.17-.025-.531-.028-.913-.062.468-1.306.99-2.462.99-2.462C2481.123,1229.548,2482.259,1231.466,2480.747,1231.239Z" transform="translate(-2436.281 -1183.805)" fill="#eddad3"/>
      <path id="Path_26477" data-name="Path 26477" d="M2511.389,1102.791a44.265,44.265,0,0,0,4.2,6.391c1.607,1.686,1.419,3.025,1.419,3.025s6.266-7.73,1.8-12.4-10.234-2.784-11.92,1.294a20.637,20.637,0,0,0-1.069,9.059S2505.86,1105.379,2511.389,1102.791Z" transform="translate(-2477.079 -1092.857)" fill="#e8734d"/>
      <path id="Path_26478" data-name="Path 26478" d="M2541.731,1081.486s-.625-3.444,4.776-4.814,7.828,4.854,7.163,8.651-5.284,13.426-2.779,14.679,3.484-1.448,3.484-1.448-.783,4.736-4.267,3.64-3.014-8.793-2.489-11.86S2541.731,1081.486,2541.731,1081.486Z" transform="translate(-2505.714 -1076.478)" fill="#e8734d"/>
      <path id="Path_26479" data-name="Path 26479" d="M2531.262,1183.126a6.594,6.594,0,0,1-4.906,3.681c.1-.364.191-.736.269-1.106C2526.625,1185.7,2528.554,1186.09,2531.262,1183.126Z" transform="translate(-2493.505 -1161.287)" fill="#a77860"/>
      <path id="Path_26480" data-name="Path 26480" d="M2577.617,1270.919s-.258.544-.965,2.686a42.883,42.883,0,0,1-.344-9.148A22.6,22.6,0,0,0,2577.617,1270.919Z" transform="translate(-2533.15 -1225.964)" fill="#cfbeb8"/>
      <path id="Path_26481" data-name="Path 26481" d="M2545.927,1096.583a9.473,9.473,0,0,1,5.746,3.86s-.388-2.828-2.3-3.643A4.892,4.892,0,0,0,2545.927,1096.583Z" transform="translate(-2509.068 -1092.298)" fill="#eddad3"/>
      <path id="Path_26482" data-name="Path 26482" d="M2555.062,1326.215c-.091.371-.17.7-.227.936-.062.254-.118.525-.168.809-2.374-1.292-4.08-2.3-4.08-2.3C2551.226,1325.8,2555.062,1326.215,2555.062,1326.215Z" transform="translate(-2512.774 -1274.633)" fill="#cfbeb8"/>
      <path id="Path_26483" data-name="Path 26483" d="M2526.438,1210.558l-6.747,5.5.7-5.794S2524.32,1209.414,2526.438,1210.558Z" transform="translate(-2488.205 -1182.626)" fill="#eea886"/>
      <path id="Path_26484" data-name="Path 26484" d="M2521.641,1213.293l-1.95.933,6.626-6.569Z" transform="translate(-2488.205 -1180.795)" fill="#d6c5be"/>
      <path id="Path_26485" data-name="Path 26485" d="M2536.134,1235.727c-.928,3.848,2.508,12.51,2.508,12.51l-6.81,2.129a1.745,1.745,0,0,1-2.227-1.3c-.912-4.238-3.049-14.669-3.3-20.469-.326-7.4,5.062-16.129,5.062-16.129,9.576,1.643,6.951,16.129,6.951,16.129s-.348.913-.812,2.339h0c-.117.358-.241.749-.369,1.166C2536.8,1233.175,2536.45,1234.418,2536.134,1235.727Z" transform="translate(-2493.449 -1184.621)" fill="#494f80"/>
      <path id="Path_26486" data-name="Path 26486" d="M2463.3,1211.758l.118-.316a32.881,32.881,0,0,0-7.4,1.99c-2.492,1.245-7.264,7.676-7.264,7.676l6.24,8.239c.008,6.331-1.02,17.589-1.02,17.589l2.854,1.644a1.163,1.163,0,0,0,1.743-.985c.081-4.281.272-14.446.373-19.37.13-6.332,4.648-16.573,4.648-16.573C2463.5,1211.686,2463.4,1211.722,2463.3,1211.758Z" transform="translate(-2431.798 -1183.805)" fill="#494f80"/>
      <path id="Path_26487" data-name="Path 26487" d="M2476.353,1338.545a53.377,53.377,0,0,0,5.437,0c.732-.183,5.615-2.3,5.907-4.392s-11.345,1.874-11.345,1.874Z" transform="translate(-2453.741 -1280.904)" fill="#eea886"/>
      <path id="Path_26488" data-name="Path 26488" d="M2473.491,1317.371l-19.1-2.235,8.626,7.019Z" transform="translate(-2436.28 -1266.265)" fill="#b8a9a4"/>
      <path id="Path_26489" data-name="Path 26489" d="M2495.152,1330.834l10.469-3.568v-1.215l-10.822,3.472Z" transform="translate(-2468.41 -1274.944)" fill="#eddad3"/>
      <g id="Group_4359" data-name="Group 4359" transform="translate(24.225 47.375)">
        <path id="Path_26490" data-name="Path 26490" d="M2491.669,1308.052a16.387,16.387,0,0,1-2.464-.18,4.975,4.975,0,0,0-2.819.437c-.433.384-1.812,3.06-2.073,3.224s.133.541.592.352c0,0,.42,1.171,1.458.733s1.741-1.4,2.285-1.564,3.707-1.019,3.707-1.019S2492.484,1307.767,2491.669,1308.052Z" transform="translate(-2484.23 -1307.827)" fill="#eea886"/>
      </g>
      <path id="Path_26491" data-name="Path 26491" d="M2503.915,1206.222l-3.634,5.756-1.755,1.106,4.089-5.732Z" transform="translate(-2471.373 -1179.653)" fill="#fae6de"/>
      <path id="Path_26492" data-name="Path 26492" d="M2507.095,1211.978l2.58,1.106.695-5.794.36-1.069Z" transform="translate(-2478.188 -1179.653)" fill="#d6c5be"/>
      <path id="Path_26493" data-name="Path 26493" d="M2425.053,1331.111a14.494,14.494,0,0,0,0,2.941s-11.776-1.176-12.874-2.823a7.1,7.1,0,0,1-1.059-3.647Z" transform="translate(-2401.866 -1276.162)" fill="#494f80"/>
      <path id="Path_26494" data-name="Path 26494" d="M2392.673,1260.332l-5.568-20.7-21.174-2.235,5.8,19.057Z" transform="translate(-2365.931 -1204.442)" fill="#eddad3"/>
      <path id="Path_26495" data-name="Path 26495" d="M2533.889,1207.657l-4.677,5.635,2.559,2.282,2.762-6.746Z" transform="translate(-2495.777 -1180.795)" fill="#fae6de"/>
      <path id="Path_26496" data-name="Path 26496" d="M2545.889,1300.273l-.157.477c-.117.358-.241.749-.369,1.166-.9.284-8.726-.289-8.726-.289S2543.184,1300.089,2545.889,1300.273Z" transform="translate(-2501.68 -1254.433)" fill="#3d426b"/>
      <path id="Path_26497" data-name="Path 26497" d="M2532.485,1233.4c-1.26-.095-3.324-.229-5.013-.237-2.628-.011-7.123.282-7.123.282l.536,2.808s7.962,1.294,12.31,1.6h0s5.739.659,6.165-.2-.141-6.353-1.074-11.306-1.893-7.805-3.034-9.336-7.169-2.722-7.169-2.722l5.113,16.736a6.916,6.916,0,0,1,.7,2.137c-.012.2-.148.289-.331.324-.129-.011-.411-.035-.8-.066Z" transform="translate(-2488.728 -1186.066)" fill="#494f80"/>
    </g>
    <g id="Group_4377" data-name="Group 4377" transform="translate(52.004 232.648)">
      <path id="Path_26498" data-name="Path 26498" d="M363.571,1140.479s-5.421-2.5-7.86,2.541,4.747,12.489,2.4,15.529-6.792,1.232-8.783,12.606c0,0,1.771-7.047,7.171-7.059s8.309-3.174,5.915-9.965,1.516-5.631,1.47-7.754S363.571,1140.479,363.571,1140.479Z" transform="translate(-329.799 -1139.092)" fill="#e8734d"/>
      <g id="Group_4361" data-name="Group 4361" transform="translate(27.374 67.398)">
        <path id="Path_26499" data-name="Path 26499" d="M421.285,1533.778s-2.156,1.713-4.211.537c0,0-.019-.038-.051-.114-.74-1.581-8.89-19.076-10.293-22.376-1.176-2.763-.715-9.838-1.986-13.221a3.69,3.69,0,0,0-.841-1.391c-.24-.227-.6-.632-1.069-1.189a116.932,116.932,0,0,1-8.258-11.723c-3.187-5.134-6.1-10.742-6.784-14.732a8.994,8.994,0,0,1-.158-1.676c0-.1,0-.189.006-.284.19-3.889,4.672-2.365,9.244.24.48.272.961.556,1.435.847l.7.437a93.044,93.044,0,0,1,7.689,5.469s5,14.017,6.3,18.431c.076.26.139.481.19.67.885,3.408.759,6.98,1.271,8.409.512,1.4,6.62,30.729,6.81,31.646A.047.047,0,0,1,421.285,1533.778Z" transform="translate(-387.635 -1465.251)" fill="url(#linear-gradient-29)"/>
      </g>
      <path id="Path_26500" data-name="Path 26500" d="M472.037,1600.705a80.038,80.038,0,0,1-8.264,5.571,3.689,3.689,0,0,0-.841-1.391c-.24-.228-.6-.632-1.069-1.189a.049.049,0,0,0,.019-.007C462.288,1603.494,469.357,1600.181,472.037,1600.705Z" transform="translate(-419.29 -1505.525)" fill="url(#linear-gradient-30)"/>
      <g id="Group_4364" data-name="Group 4364" transform="translate(13.432 63.51)">
        <g id="Group_4363" data-name="Group 4363">
          <g id="Group_4362" data-name="Group 4362">
            <path id="Path_26501" data-name="Path 26501" d="M326.165,1454.142c-.032.215-.373,1.739-.392,2.175s.05,1.34-.329,1.3-.67-.822-.67-.822-.044.4-.386.468a.942.942,0,0,1-.942-.2s-.316.373-.607.367a1.213,1.213,0,0,1-.911-.36,1.089,1.089,0,0,1-.752.063,1.006,1.006,0,0,1-.683-.7s-.734-.025-.866-.4a3.391,3.391,0,0,1-.057-1.056,11.639,11.639,0,0,1,1.884-4.786,3.712,3.712,0,0,0,.588-1.2,5.069,5.069,0,0,0-.044-2.732l3.743,1.524a4.7,4.7,0,0,1,.253,1.619,3.222,3.222,0,0,0,.063.822h.007c.076.4.19.822.253,1.1A14.674,14.674,0,0,1,326.165,1454.142Z" transform="translate(-319.554 -1446.264)" fill="#eea886"/>
          </g>
        </g>
      </g>
      <g id="Group_4365" data-name="Group 4365" transform="translate(11.217 71.388)">
        <path id="Path_26502" data-name="Path 26502" d="M317.432,1486.185h-.013l-.133-.032-.765-.171h-.006l-5.406-1.208-.019-.006a.023.023,0,0,1-.019-.006,1.2,1.2,0,0,0-1.41.917l-.778,3.452-.12.544a1.2,1.2,0,0,0,.91,1.429l6.342,1.416a1.192,1.192,0,0,0,1.429-.9l.126-.55.771-3.452A1.2,1.2,0,0,0,317.432,1486.185Zm-.771,5.254a.383.383,0,0,1-.468.3l-6.341-1.416a.393.393,0,0,1-.3-.468l.12-.55.778-3.452a.392.392,0,0,1,.468-.3l.038.006.019.006,5.425,1.214h.006l.771.171.082.019a.4.4,0,0,1,.3.468l-.778,3.452Z" transform="translate(-308.736 -1484.738)" fill="#0e1e2b"/>
      </g>
      <g id="Group_4366" data-name="Group 4366" transform="translate(0 74.092)">
        <rect id="Rectangle_1381" data-name="Rectangle 1381" width="24.389" height="17.474" transform="matrix(0.976, 0.218, -0.218, 0.976, 3.806, 0)" fill="#54281a"/>
      </g>
      <g id="Group_4367" data-name="Group 4367" transform="translate(1.6 74.092)">
        <rect id="Rectangle_1382" data-name="Rectangle 1382" width="24.389" height="10.129" transform="matrix(0.976, 0.218, -0.218, 0.976, 2.206, 0)" fill="#873f2b"/>
      </g>
      <g id="Group_4368" data-name="Group 4368" transform="translate(59.683 23.657)">
        <path id="Path_26503" data-name="Path 26503" d="M569.616,1287.387s.592-1.092.464-1.3-.545-.419-1.462.648-1.044,1.476-1.511,1.89S569.616,1287.387,569.616,1287.387Z" transform="translate(-562.625 -1278.905)" fill="#efaa88"/>
        <rect id="Rectangle_1383" data-name="Rectangle 1383" width="2.337" height="14.302" transform="translate(9.951 0) rotate(19.689)" fill="#6b6b6b"/>
        <path id="Path_26504" data-name="Path 26504" d="M554.527,1293.973a1.229,1.229,0,0,1,.234,1.372c-.4.676-.1,1.018-.683,1.429s-.032,1.226-.677,1.429a27.66,27.66,0,0,1-2.852-.057.724.724,0,0,0-.133.025.755.755,0,0,0-.127.032,2.7,2.7,0,0,1-.259.095c-.323.12-.809.266-1.3.4a7.927,7.927,0,0,1-1.777.361c-.55-.032-1.536-3.111-1.536-3.111a13.224,13.224,0,0,0,2.662-1.46c.734-.525,1.612-1.4,2.4-2.036a.019.019,0,0,0,.006-.012,3.833,3.833,0,0,1,1.34-.8.574.574,0,0,1,.272-.013,2.56,2.56,0,0,1,.31.082.714.714,0,0,1,.089.032,9.12,9.12,0,0,1,2.017,1.011c.221.158.367.291.385.373C554.97,1293.43,554.527,1293.973,554.527,1293.973Z" transform="translate(-545.416 -1283.427)" fill="#eea886"/>
        <path id="Path_26505" data-name="Path 26505" d="M574.455,1293.979a1.226,1.226,0,0,1,.239,1.368c-.409.679-.1,1.02-.682,1.429s-.034,1.228-.682,1.433c-.572.181-2.1-.143-2.85-.058.379-.063,1.455-.258,1.543-.442.926-1.96-.2-5.936-.2-5.936l-.062-.138a.687.687,0,0,1,.278-.01,6.563,6.563,0,0,1,2.8,1.5C574.9,1293.433,574.455,1293.979,574.455,1293.979Z" transform="translate(-565.347 -1283.43)" fill="#d19376"/>
        <path id="Path_26506" data-name="Path 26506" d="M596.281,1260.009c-.122.4-.341.68-.488.635s-.166-.4-.044-.8.341-.68.488-.635S596.4,1259.613,596.281,1260.009Z" transform="translate(-585.379 -1257.658)" fill="#c4c4c4"/>
      </g>
      <path id="Path_26507" data-name="Path 26507" d="M531.234,1794.564a12.31,12.31,0,0,0,2.26,2.959c.9.586,5.124,4.831,6.4,4.908s3.789-.079,3.958.438.559,3.082-2.978,3.621-4.48.591-5.455-.165-4.682-2.817-5.61-2.676l.673,4.422-.929.142s-1.719-5.349-2.588-6.3-.71-4.96.862-6.828A2.464,2.464,0,0,1,531.234,1794.564Z" transform="translate(-470.644 -1659.356)" fill="url(#linear-gradient-31)"/>
      <path id="Path_26508" data-name="Path 26508" d="M539.3,1820.344s-3.868,1.041-5.707-.037-4.348-4.02-7.7-3.659c0,0-1,1.685,1.407,4.935a43.81,43.81,0,0,1,1.655,4.541l.929-.142-.673-4.422a19.122,19.122,0,0,1,6.173,3.314s6.942.211,7.953-2.07a2.829,2.829,0,0,0,.126-2.146C543.015,1819.665,539.3,1820.344,539.3,1820.344Z" transform="translate(-470.043 -1677.269)" fill="#1f3f59"/>
      <path id="Path_26509" data-name="Path 26509" d="M263.575,1772.1a12.3,12.3,0,0,0,.781,3.641c.567.916,2.572,6.556,3.695,7.171s3.46,1.546,3.392,2.086-.81,3.026-4.239,2-4.3-1.378-4.862-2.478-3.031-4.546-3.931-4.814L257.131,1784l-.9-.269s.729-5.571.35-6.8,1.476-4.788,3.694-5.807A2.464,2.464,0,0,1,263.575,1772.1Z" transform="translate(-255.766 -1640.858)" fill="url(#linear-gradient-32)"/>
      <path id="Path_26510" data-name="Path 26510" d="M268.051,1794.657s-3.943-.71-5.145-2.469-2.215-5.491-5.4-6.593c0,0-1.625,1.1-.834,5.063a43.787,43.787,0,0,1-.443,4.813l.9.269,1.279-4.287a19.136,19.136,0,0,1,4.168,5.632s6.188,3.154,8.075,1.523a2.829,2.829,0,0,0,1.03-1.887C271.7,1795.631,268.051,1794.657,268.051,1794.657Z" transform="translate(-255.766 -1652.598)" fill="#1f3f59"/>
      <g id="Group_4369" data-name="Group 4369" transform="translate(3.192 128.176)">
        <path id="Path_26511" data-name="Path 26511" d="M275.348,1764.714a45.063,45.063,0,0,0-2.205,4.342c-.139.657-2.967.347-3.594-2.217,0,0,2.406-4.654,2.334-4.781S275.348,1764.714,275.348,1764.714Z" transform="translate(-269.548 -1762.053)" fill="url(#linear-gradient-33)"/>
      </g>
      <g id="Group_4370" data-name="Group 4370" transform="translate(5.443 61.412)">
        <path id="Path_26512" data-name="Path 26512" d="M312.914,1452.47s-6.555,16.312-8.2,19.423-4.084,4.7-4.669,6.1-16.069,27.659-16.069,27.659-2.718-.357-3.435-2.61c0,0,6.427-19.4,7.679-22.946,1.177-3.328,7.58-9.675,7.347-12.855s4.052-24.607,9.751-30.259S312.914,1452.47,312.914,1452.47Z" transform="translate(-280.539 -1436.017)" fill="url(#linear-gradient-34)"/>
      </g>
      <path id="Path_26513" data-name="Path 26513" d="M356.1,1485.086s-30.191,16.906-41.535,9.293c0,0,9.579-20.63,9.8-27.25a16.919,16.919,0,0,1,1.214-5.577,21.943,21.943,0,0,1,1.783-3.56,18.642,18.642,0,0,1,1.543-2.187l17.6,3.85s.095.24.272.683C348.2,1463.873,351.667,1468.74,356.1,1485.086Z" transform="translate(-302.156 -1390.341)" fill="#a36037"/>
      <g id="Group_4372" data-name="Group 4372" transform="translate(13.379 69.698)">
        <g id="Group_4371" data-name="Group 4371">
          <path id="Path_26514" data-name="Path 26514" d="M324.718,1480.594s.55-2.436.023-3.112-.775.192-.775.192.259-.853-.407-1.14-.9.745-.9.745a.722.722,0,0,0-.731-.74c-.752-.038-.75.864-.75.864s-.524-1.013-1.134-.312a3.993,3.993,0,0,0-.692,3.011s.171.442.9.429a1.039,1.039,0,0,0,1.469.651s.956.87,1.531.011C323.245,1481.193,324.419,1481.944,324.718,1480.594Z" transform="translate(-319.296 -1476.483)" fill="#d19376"/>
        </g>
      </g>
      <g id="Group_4373" data-name="Group 4373" transform="translate(15.585 21.223)">
        <path id="Path_26515" data-name="Path 26515" d="M351.9,1246.551c-1.075,2.731-3.838,5.153-4.647,6.114-.455.551-2.814,4.167-4.78,7.278-.575.917-1.119,1.783-1.568,2.523H340.9a19.735,19.735,0,0,0-1.233,2.15,87.68,87.68,0,0,0-2.9,10.4c-.769,4.15-1.557,11.177-1.557,11.177l-5.14-1.163s1.125-17.685,3.079-21.409c2.087-3.983,7.619-16.269,7.619-16.269s4.723-10.534,10.831-6.778C351.6,1240.57,352.982,1243.82,351.9,1246.551Z" transform="translate(-330.068 -1239.76)" fill="#323657"/>
      </g>
      <path id="Path_26516" data-name="Path 26516" d="M391.546,1262.828c-.841,1.005-.43,2.833-.164,4.426a12.325,12.325,0,0,1,.152,2.9c-1.3,11.914.057,16.749-.379,18.292a.84.84,0,0,1-.493.455c-1.031.512-3.528.809-6.569.847-.4.006-.828.006-1.258,0a59.226,59.226,0,0,1-9.421-.8c-.487-.088-.961-.177-1.416-.278-.6-.126-1.17-.272-1.7-.424-.19-.051-.373-.107-.55-.164,0,0,4.464-11.672,5.608-13.967.885-1.789-.215-9.041-1.328-13.8a27.126,27.126,0,0,0-1.062-3.686c-.853-2.061-.594-8.89,1.966-13.1a7.264,7.264,0,0,1,3.054-2.915,5.508,5.508,0,0,1,.727-.278c.139-.038.285-.076.43-.108,0,0,.032.025.095.082.487.417,2.776,2.377,4.622,4.047.348.316.683.62.986.9l.007.006c.3.278.569.531.79.752.449.443,1.151,1.176,1.966,2.055l.158.177c2.428,2.637,5.729,6.475,6.19,7.954a4.85,4.85,0,0,1-.291,3A13.413,13.413,0,0,1,391.546,1262.828Z" transform="translate(-346.035 -1218.906)" fill="#323657"/>
      <path id="Path_26517" data-name="Path 26517" d="M412.193,1220.834a19.877,19.877,0,0,0-.328-5.027s7.738,2.982,6.5,4.008a2.368,2.368,0,0,0-.65,1.329,14.7,14.7,0,0,0-.071,3.971l2.685,2.806C421.349,1228.926,412.071,1221.845,412.193,1220.834Z" transform="translate(-379.53 -1199.489)" fill="#eea886"/>
      <path id="Path_26518" data-name="Path 26518" d="M422.786,1224.79A1.956,1.956,0,0,0,422.2,1226a12.13,12.13,0,0,1-4.627-4.441A17.164,17.164,0,0,0,422.786,1224.79Z" transform="translate(-384.067 -1204.06)" fill="#a77860"/>
      <path id="Path_26519" data-name="Path 26519" d="M410.736,1237.041l5.918,3.565.243,1.916,2.852,3.194s-6.278-4.9-9.784-7.639Z" transform="translate(-378.02 -1216.375)" fill="#eddad3"/>
      <path id="Path_26520" data-name="Path 26520" d="M400.7,1142.229s-2.141,1.03-2.553,5.5C398.151,1147.732,396.531,1143,400.7,1142.229Z" transform="translate(-368.378 -1140.978)" fill="#fab46c"/>
      <g id="Group_4374" data-name="Group 4374" transform="translate(30.368 2.241)">
        <path id="Path_26521" data-name="Path 26521" d="M416.428,1148.758s1.649,1.814.866,6.948c0,0,.3,4.1.893,4.836s-1.715.91-1.977,1.414a16.111,16.111,0,0,1-2.264,3.951c-1.448,1.606-9.652-2.964-9.944-5.442s-5.392-13.248,3.344-13.395S416.428,1148.758,416.428,1148.758Z" transform="translate(-402.258 -1147.061)" fill="#eea886"/>
      </g>
      <g id="Group_4375" data-name="Group 4375" transform="translate(29.759)">
        <path id="Path_26522" data-name="Path 26522" d="M415.118,1145.22s1.248-10.179-9.712-9.007c-10.44,1.117-4.634,13.312-3.39,17.157,0,0-.017-6.013,4.958-6.013S412.92,1146.3,415.118,1145.22Z" transform="translate(-399.285 -1136.119)" fill="#e8734d"/>
      </g>
      <g id="Group_4376" data-name="Group 4376" transform="translate(34.136 9.12)">
        <path id="Path_26523" data-name="Path 26523" d="M423.221,1181.249a1.423,1.423,0,0,0-2.552,1.045c.18,1.655,1.824,3.364,2.42,2.589A3.194,3.194,0,0,0,423.221,1181.249Z" transform="translate(-420.658 -1180.657)" fill="#eea886"/>
      </g>
      <path id="Path_26524" data-name="Path 26524" d="M426.541,1323.192c-.006.215-.012.651-.019,1.252-.1.063-2.453,1.523-3.566.164-1.106-1.341-8.738-15.25-9.212-16.117a85.494,85.494,0,0,0,5.7,7.221c2.263,2.536,4.818,4.964,6.923,5.829A9.214,9.214,0,0,1,426.541,1323.192Z" transform="translate(-381.024 -1273.194)" fill="#1d2033"/>
      <path id="Path_26525" data-name="Path 26525" d="M400.575,1262.526a4.253,4.253,0,0,0-.832,5.82c1.78,2.921,4.982,6.114,6.05,7.674s6.606,9.357,7.83,8.927,3.23-1.724,5.958-2.862c2.612-1.089,13.491-6.767,13.491-6.767l-2.168-4.16s-2.45,1.009-4.6,1.974-7.06,2.529-11.4,3.988c0,0-5.1-6.721-5.856-8.021S405.051,1259.685,400.575,1262.526Z" transform="translate(-369.276 -1236.165)" fill="#323657"/>
    </g>
  </g>
</svg>
