<svg xmlns="http://www.w3.org/2000/svg" xmlns:xlink="http://www.w3.org/1999/xlink" width="102.963" height="117" viewBox="0 0 102.963 117">
  <defs>
    <linearGradient id="linear-gradient" x1="0.5" x2="0.5" y2="1" gradientUnits="objectBoundingBox">
      <stop offset="0" stop-color="#1c3db9"/>
      <stop offset="0.105" stop-color="#2d4dc2"/>
      <stop offset="0.795" stop-color="#10298a"/>
      <stop offset="0.92" stop-color="#10298a"/>
      <stop offset="1" stop-color="#00098d"/>
    </linearGradient>
    <linearGradient id="linear-gradient-9" x1="0.5" x2="0.5" y2="1" gradientUnits="objectBoundingBox">
      <stop offset="0" stop-color="#ff7f00"/>
      <stop offset="1" stop-color="#ff5700"/>
    </linearGradient>
  </defs>
  <g id="Group_4380" data-name="Group 4380" transform="translate(-130.037 -1320)">
    <g id="sheet" transform="translate(69.037 1320)">
      <path id="Path_26527" data-name="Path 26527" d="M271,310h14.8v6.343H271Z" transform="translate(-165.597 -244.453)" fill="url(#linear-gradient)"/>
      <path id="Path_26528" data-name="Path 26528" d="M271,250h14.8v6.343H271Z" transform="translate(-165.597 -197.139)" fill="url(#linear-gradient)"/>
      <path id="Path_26529" data-name="Path 26529" d="M331,8.787V32.3h23.515Z" transform="translate(-212.91 -6.929)" fill="url(#linear-gradient)"/>
      <path id="Path_26530" data-name="Path 26530" d="M171,250h14.8v6.343H171Z" transform="translate(-86.741 -197.139)" fill="url(#linear-gradient)"/>
      <path id="Path_26531" data-name="Path 26531" d="M171,310h14.8v6.343H171Z" transform="translate(-86.741 -244.453)" fill="url(#linear-gradient)"/>
      <path id="Path_26532" data-name="Path 26532" d="M114.918,31.717a3.172,3.172,0,0,1-3.172-3.172V0H64.172A3.172,3.172,0,0,0,61,3.172V105.087a3.172,3.172,0,0,0,3.172,3.172h76.12a3.172,3.172,0,0,0,3.172-3.172V31.717Zm11.629,56.032a3.172,3.172,0,0,1-3.172,3.172H81.087a3.172,3.172,0,0,1-3.172-3.172V49.689a3.172,3.172,0,0,1,3.172-3.172h42.289a3.172,3.172,0,0,1,3.172,3.172Z" fill="url(#linear-gradient)"/>
      <path id="Path_26533" data-name="Path 26533" d="M171,370h14.8v6.343H171Z" transform="translate(-86.741 -291.766)" fill="url(#linear-gradient)"/>
      <path id="Path_26534" data-name="Path 26534" d="M271,370h14.8v6.343H271Z" transform="translate(-165.597 -291.766)" fill="url(#linear-gradient)"/>
    </g>
    <g id="question-2" transform="translate(177 1381)">
      <g id="Group_4379" data-name="Group 4379">
        <path id="Path_26526" data-name="Path 26526" d="M28,0A28,28,0,1,0,56,28,27.984,27.984,0,0,0,28,0Zm-.829,41.105a2.838,2.838,0,0,1,0-5.676,2.838,2.838,0,0,1,0,5.676Zm4.2-14.337c-2.027,1.585-2.064,2.691-2.064,4.607,0,.7-.369,1.511-2.174,1.511-1.511,0-2.027-.553-2.027-2.469a6.747,6.747,0,0,1,2.469-5.6c1.216-1.032,3.28-2.174,3.28-4.165,0-1.7-1.474-2.506-3.317-2.506-3.759,0-2.948,2.838-4.939,2.838a2.114,2.114,0,0,1-2.211-2.1c0-1.99,2.285-4.939,7.261-4.939,4.718,0,7.85,2.617,7.85,6.081S32.368,25.994,31.373,26.768Z" fill="url(#linear-gradient-9)"/>
      </g>
    </g>
  </g>
</svg>
