<svg xmlns="http://www.w3.org/2000/svg" width="393.006" height="318.909" viewBox="0 0 393.006 318.909">
  <g id="img" transform="translate(0 -55)">
    <g id="Background_complete" data-name="Background complete" transform="translate(0 55)">
      <g id="Group_4142" data-name="Group 4142">
        <rect id="Rectangle_1339" data-name="Rectangle 1339" width="393.006" height="0.197" transform="translate(0 257.34)" fill="#ebebeb"/>
        <rect id="Rectangle_1340" data-name="Rectangle 1340" width="18.22" height="0.197" transform="translate(117.933 262.355)" fill="#ebebeb"/>
        <rect id="Rectangle_1341" data-name="Rectangle 1341" width="44.543" height="0.197" transform="translate(316.056 266.568)" fill="#ebebeb"/>
        <rect id="Rectangle_1342" data-name="Rectangle 1342" width="44.543" height="0.197" transform="translate(33.578 266.568)" fill="#ebebeb"/>
        <path id="Path_26028" data-name="Path 26028" d="M194.461,277.284H42.69a4.488,4.488,0,0,1-4.48-4.488V59.449A4.488,4.488,0,0,1,42.69,55H194.461a4.488,4.488,0,0,1,4.488,4.488h0V272.8A4.488,4.488,0,0,1,194.461,277.284ZM42.69,55.157a4.291,4.291,0,0,0-4.284,4.292V272.8a4.291,4.291,0,0,0,4.284,4.292H194.461a4.3,4.3,0,0,0,4.292-4.292V59.449a4.3,4.3,0,0,0-4.292-4.292Z" transform="translate(-8.176 -55)" fill="#ebebeb"/>
        <path id="Path_26029" data-name="Path 26029" d="M410.767,277.284H258.988A4.5,4.5,0,0,1,254.5,272.8V59.449A4.5,4.5,0,0,1,258.988,55H410.767a4.488,4.488,0,0,1,4.472,4.449V272.8A4.488,4.488,0,0,1,410.767,277.284ZM258.988,55.157a4.3,4.3,0,0,0-4.292,4.292V272.8a4.3,4.3,0,0,0,4.292,4.292H410.767a4.3,4.3,0,0,0,4.292-4.292V59.449a4.3,4.3,0,0,0-4.292-4.292Z" transform="translate(-54.46 -55)" fill="#ebebeb"/>
      </g>
      <g id="Group_4146" data-name="Group 4146" transform="translate(66.355 154.187)">
        <g id="Group_4145" data-name="Group 4145">
          <path id="Path_26030" data-name="Path 26030" d="M137.367,374.419s15.429-8.64,16.458-20.983-11.109-14.811-16.458-19.132-5.554-8.228-5.76-15.429-2.468-14.812-10.492-22.011-8.846-9.875-7.817-19.543-5.554-21.806-13.783-19.749-8.846,15.018-7.2,23.246a32.986,32.986,0,0,1-4.32,23.246c-3.908,6.172-5.554,17.075,0,24.069S97.252,341.3,94.578,348.7s-10.9,10.286-1.44,25.714Z" transform="translate(-84.42 -252.485)" fill="#e6e6e6"/>
          <g id="Group_4143" data-name="Group 4143" transform="translate(134.268 37.429)">
            <path id="Path_26031" data-name="Path 26031" d="M324.095,383.143h26.537s2.469-21.806,2.057-39.5-1.44-45.669-12.549-44.846S316.277,328.216,324.095,383.143Z" transform="translate(-269.46 -298.781)" fill="#f5f5f5"/>
            <path id="Path_26032" data-name="Path 26032" d="M342.667,393.108s25.827-57.6,46.6-46.287-22.3,46.575-22.3,46.575Z" transform="translate(-273.95 -308.746)" fill="#f0f0f0"/>
            <path id="Path_26033" data-name="Path 26033" d="M328.467,388.631a97.436,97.436,0,0,0-5.358-37.917c-7.05-19.176-15.792-30.618-25.661-26.952s-9.024,28.608,4.23,64.581Z" transform="translate(-262.848 -303.981)" fill="#e6e6e6"/>
            <path id="Path_26034" data-name="Path 26034" d="M354.279,387.973s11.235-17.607,17.439-34.244,7.614-29.046,1.974-32.147-32.147,25.638-34.967,66.68Z" transform="translate(-273.106 -303.611)" fill="#e6e6e6"/>
            <path id="Path_26035" data-name="Path 26035" d="M302.11,392.873s-14.525-56.2-39.34-47.759,19.67,48.047,19.67,48.047h20.937" transform="translate(-255.242 -308.511)" fill="#f0f0f0"/>
          </g>
          <g id="Group_4144" data-name="Group 4144" transform="translate(224.461)">
            <path id="Path_26036" data-name="Path 26036" d="M372.976,358.138s3.017-18.474,26.641-41.437,30.742-39.983,26.525-63.118c0,0,21.553,30.256,7.606,67.463s-35.577,49.663-53.34,54.563S372.976,358.138,372.976,358.138Z" transform="translate(-369.989 -251.681)" fill="#ebebeb" stroke="#ebebeb" stroke-miterlimit="10" stroke-width="1"/>
            <path id="Path_26037" data-name="Path 26037" d="M374.169,375.358c4.785-12.483,12.082-19.822,20.261-27.267,3-2.725,6.118-5.468,9.278-8.481,2.156-2.052,4.331-4.235,6.5-6.625l.006-.005a99.855,99.855,0,0,0,6.694-8.192v-.006a99.486,99.486,0,0,0,6.474-10.059l.005-.005q.6-1.069,1.2-2.191.777-1.45,1.465-2.882c12.155-25.145,5.649-46.511,2.137-54.8a34.882,34.882,0,0,0-1.772-3.686" transform="translate(-370.883 -251.163)" fill="none" stroke="#e0e0e0" stroke-miterlimit="10" stroke-width="2"/>
            <path id="Path_26038" data-name="Path 26038" d="M430.477,307.394a23.467,23.467,0,0,1,7.625,14.29" transform="translate(-382.933 -263.196)" fill="none" stroke="#e0e0e0" stroke-miterlimit="10" stroke-width="2"/>
            <path id="Path_26039" data-name="Path 26039" d="M426.412,340.069v-.005c-.223-5.42-5.011-13.32-7.808-17.5" transform="translate(-380.392 -266.443)" fill="none" stroke="#e0e0e0" stroke-miterlimit="10" stroke-width="2"/>
            <path id="Path_26040" data-name="Path 26040" d="M401.8,339.88c2.194,3.466,6.757,11.364,7.821,18.715" transform="translate(-376.796 -270.147)" fill="none" stroke="#e0e0e0" stroke-miterlimit="10" stroke-width="2"/>
            <path id="Path_26041" data-name="Path 26041" d="M399.946,374.312s13.612-2.113,24.561,1.475" transform="translate(-376.399 -277.383)" fill="none" stroke="#e0e0e0" stroke-miterlimit="10" stroke-width="2"/>
            <path id="Path_26042" data-name="Path 26042" d="M440.919,350.268c-9.243-1.056-20.578,3.754-20.9,3.888l-.006.005" transform="translate(-380.694 -272.338)" fill="none" stroke="#e0e0e0" stroke-miterlimit="10" stroke-width="2"/>
            <path id="Path_26043" data-name="Path 26043" d="M451.494,323.7c-7.5,1.269-14.462,6.356-14.713,6.537l-.005.005" transform="translate(-384.281 -266.686)" fill="none" stroke="#e0e0e0" stroke-miterlimit="10" stroke-width="2"/>
          </g>
        </g>
      </g>
    </g>
    <g id="Shadow" transform="translate(44.103 356.113)">
      <g id="Shadow--inject-58">
        <ellipse id="path--inject-58" cx="152.4" cy="8.898" rx="152.4" ry="8.898" fill="#f5f5f5"/>
      </g>
    </g>
    <g id="Character" transform="translate(88.51 73.07)">
      <g id="Group_4162" data-name="Group 4162">
        <path id="Path_26044" data-name="Path 26044" d="M233.034,178.649c-2.092-.573-2.136-3.269-2.136-3.269l2.011.4A9.2,9.2,0,0,0,233.034,178.649Z" transform="translate(-137.919 -98.829)" opacity="0.12"/>
        <g id="Group_4148" data-name="Group 4148" transform="translate(21.765)">
          <path id="Path_26045" data-name="Path 26045" d="M324.2,84.323V197.635a6.336,6.336,0,0,1-6.334,6.334H146.627a6.332,6.332,0,0,1-6.33-6.334V84.323a6.332,6.332,0,0,1,6.33-6.334H317.861A6.336,6.336,0,0,1,324.2,84.323Z" transform="translate(-140.297 -77.989)" fill="#407bff"/>
          <path id="Path_26046" data-name="Path 26046" d="M324.2,84.323V197.635a6.336,6.336,0,0,1-6.334,6.334H146.627a6.332,6.332,0,0,1-6.33-6.334V84.323a6.332,6.332,0,0,1,6.33-6.334H317.861A6.336,6.336,0,0,1,324.2,84.323Z" transform="translate(-140.297 -77.989)" fill="#fff" stroke="#fff" stroke-miterlimit="10" stroke-width="1" opacity="0.7"/>
          <g id="Group_4147" data-name="Group 4147" transform="translate(151.805 6.108)">
            <circle id="Ellipse_1376" data-name="Ellipse 1376" cx="1.708" cy="1.708" r="1.708" transform="translate(19.727)" fill="#407bff"/>
            <path id="Path_26047" data-name="Path 26047" d="M349.4,87.468a1.708,1.708,0,1,1-1.708-1.708A1.708,1.708,0,0,1,349.4,87.468Z" transform="translate(-336.115 -85.76)" fill="#407bff"/>
            <path id="Path_26048" data-name="Path 26048" d="M336.846,87.468a1.708,1.708,0,1,1-1.708-1.708A1.708,1.708,0,0,1,336.846,87.468Z" transform="translate(-333.43 -85.76)" fill="#407bff"/>
          </g>
        </g>
        <path id="Path_26049" data-name="Path 26049" d="M307.057,113.584V226.9a6.334,6.334,0,0,1-6.329,6.33H129.487a6.329,6.329,0,0,1-6.323-6.33V113.584a6.329,6.329,0,0,1,6.323-6.33H300.728A6.334,6.334,0,0,1,307.057,113.584Z" transform="translate(-114.865 -84.251)" fill="#407bff"/>
        <path id="Path_26050" data-name="Path 26050" d="M307.057,113.584V226.9a6.334,6.334,0,0,1-6.329,6.33H129.487a6.329,6.329,0,0,1-6.323-6.33V113.584a6.329,6.329,0,0,1,6.323-6.33H300.728A6.334,6.334,0,0,1,307.057,113.584Z" transform="translate(-114.865 -84.251)" fill="#fff" opacity="0.8"/>
        <rect id="Rectangle_1343" data-name="Rectangle 1343" width="41.02" height="103.656" transform="translate(151.174 36.299)" fill="#407bff"/>
        <g id="Group_4149" data-name="Group 4149" transform="translate(151.174 36.299)">
          <rect id="Rectangle_1344" data-name="Rectangle 1344" width="41.02" height="103.656" opacity="0.2"/>
          <rect id="Rectangle_1345" data-name="Rectangle 1345" width="41.02" height="1.317" transform="translate(0 31.135)" fill="#fafafa"/>
          <rect id="Rectangle_1346" data-name="Rectangle 1346" width="41.02" height="1.317" transform="translate(0 63.668)" fill="#fafafa"/>
          <rect id="Rectangle_1347" data-name="Rectangle 1347" width="41.02" height="1.317" transform="translate(0 95.718)" fill="#fafafa"/>
          <path id="Path_26051" data-name="Path 26051" d="M327.7,175.316V190.8l11.7-7.744Z" transform="translate(-309.808 -135.115)" fill="#fafafa"/>
          <path id="Path_26052" data-name="Path 26052" d="M327.7,216.545v15.489l11.7-7.744Z" transform="translate(-309.808 -143.937)" fill="#fafafa"/>
          <path id="Path_26053" data-name="Path 26053" d="M327.7,133.371v15.489l11.7-7.744Z" transform="translate(-309.808 -126.139)" fill="#fafafa"/>
        </g>
        <g id="Group_4157" data-name="Group 4157" transform="translate(19.686 45.939)">
          <g id="Group_4155" data-name="Group 4155">
            <g id="Group_4154" data-name="Group 4154">
              <path id="Path_26054" data-name="Path 26054" d="M188.685,205.172s-10.491,15.629-13.753,18.739c0,0-17.576,1.592-24.809-3.377l-1.831,4.494s16.689,9.444,28,7.13,19.674-24.142,19.674-24.142Z" transform="translate(-139.928 -151.144)" fill="#b55b52"/>
              <path id="Path_26055" data-name="Path 26055" d="M262.966,188.539s10.022,2.747,16.27,3.27c0,0,4.678-10.946,5.5-20.891l3.556.2s3.273,19.363-5.3,27.213c-5.931,5.43-25.707-4.634-25.707-4.634Z" transform="translate(-163.25 -143.814)" fill="#b55b52"/>
              <path id="Path_26056" data-name="Path 26056" d="M224.483,138.429s-13.578-1.311-14.985,12.531a51.6,51.6,0,0,0,4.036,25.11s8.215,16.718,18.176,14.393,18.4-7.717,16.641-16.744-5.041-8.677-4.924-21.22S231.752,132.685,224.483,138.429Z" transform="translate(-152.976 -136.435)" fill="#263238"/>
              <path id="Path_26057" data-name="Path 26057" d="M241.2,159.725c-1.42,6.943-4.59,9.708-11.028,9.179a9.2,9.2,0,0,0,.124,2.864,5.279,5.279,0,0,0,4.483,4.477c5.536.946,2.491,8.026,2.491,8.026l-5.486,2.709-7.242-4.172-5.461-5.872,1.93.013s3.724-5.636-.031-15.119a5.84,5.84,0,0,1-2.871-4.6,2.561,2.561,0,0,1,4.315-2.154s5.586-2.434,4.751-11.85a17.794,17.794,0,0,0,12.572,2.927A25.439,25.439,0,0,1,241.2,159.725Z" transform="translate(-154.867 -137.888)" fill="#b55b52"/>
              <path id="Path_26058" data-name="Path 26058" d="M241.061,156.873l.069,4.856a2.921,2.921,0,0,0,2.423-.141Z" transform="translate(-159.779 -140.809)" fill="#a02724"/>
              <g id="Group_4150" data-name="Group 4150" transform="translate(73.567 8.879)">
                <path id="Path_26059" data-name="Path 26059" d="M231.514,149.451a.261.261,0,0,1-.138-.039.268.268,0,0,1-.091-.368,2.918,2.918,0,0,1,3.5-1.112.268.268,0,0,1-.178.505,2.333,2.333,0,0,0-2.858.883A.268.268,0,0,1,231.514,149.451Z" transform="translate(-231.246 -147.731)" fill="#263238"/>
              </g>
              <g id="Group_4151" data-name="Group 4151" transform="translate(83.283 11.117)">
                <path id="Path_26060" data-name="Path 26060" d="M246.327,151.562a.267.267,0,0,1-.184-.072c-.758-.714-2.157-.189-2.17-.183a.268.268,0,1,1-.193-.5c.069-.027,1.724-.654,2.731.292a.268.268,0,0,1-.184.464Z" transform="translate(-243.608 -150.578)" fill="#263238"/>
              </g>
              <g id="Group_4152" data-name="Group 4152" transform="translate(74.569 20.541)">
                <path id="Path_26061" data-name="Path 26061" d="M237.167,165.279h0a5.214,5.214,0,0,1-4.62-2.415.2.2,0,0,1,.354-.189,4.821,4.821,0,0,0,4.27,2.2.2.2,0,0,1,0,.4Z" transform="translate(-232.521 -162.569)" fill="#263238"/>
              </g>
              <g id="Group_4153" data-name="Group 4153" transform="translate(76.38 13.715)">
                <path id="Path_26062" data-name="Path 26062" d="M236.252,155.529c.017.579-.289,1.058-.683,1.069s-.726-.449-.743-1.027.288-1.057.682-1.069S236.234,154.951,236.252,155.529Z" transform="translate(-234.825 -154.016)" fill="#263238"/>
                <path id="Path_26063" data-name="Path 26063" d="M245.14,155.608c.016.579-.288,1.057-.682,1.069s-.726-.449-.744-1.027.289-1.057.682-1.069S245.122,155.03,245.14,155.608Z" transform="translate(-236.727 -154.033)" fill="#263238"/>
                <path id="Path_26064" data-name="Path 26064" d="M235.547,154.39l1.787-.506S237.011,154.841,235.547,154.39Z" transform="translate(-234.98 -153.884)" fill="#263238"/>
                <path id="Path_26065" data-name="Path 26065" d="M244.582,154.529l1.311-.189A.812.812,0,0,1,244.582,154.529Z" transform="translate(-236.913 -153.982)" fill="#263238"/>
              </g>
              <path id="Path_26066" data-name="Path 26066" d="M252.735,191.275,246.6,204.824l-3.272-1.185s.33,24.6-2.341,37.241H208.962l-1.842-33.572-1.675,3.5-11.827-6.621s3.263-13.365,8.353-15.73c2.43-1.132,7.612-1.99,12.938-2.547a110.682,110.682,0,0,1,14.632-.692s.5-.016,1.39.011A48.863,48.863,0,0,1,252.735,191.275Z" transform="translate(-149.627 -146.864)" fill="#407bff"/>
              <path id="Path_26067" data-name="Path 26067" d="M291.513,167.466a13.99,13.99,0,0,1-2.381-5.782,14.251,14.251,0,0,1,.609-6.672l6.351-.226.792,5.563a10.589,10.589,0,0,1-1.815,7.317Z" transform="translate(-170.031 -140.362)" fill="#b55b52"/>
              <path id="Path_26068" data-name="Path 26068" d="M147.846,222.73l-3.308-5.9-4.026-1.4-2.861,5.344,2.556,3.5s3.37,2.866,5.809,2.945Z" transform="translate(-137.651 -153.339)" fill="#b55b52"/>
              <path id="Path_26069" data-name="Path 26069" d="M236.727,185.23c-.054,8.475-5.354,17.76-5.354,17.76-4.72-4.554-9.4-14.311-10.669-17.078a110.682,110.682,0,0,1,14.632-.692S235.837,185.2,236.727,185.23Z" transform="translate(-155.424 -146.864)" fill="#b55b52"/>
            </g>
            <path id="Path_26070" data-name="Path 26070" d="M208.665,215.315l1.646-9.1.029,5.593Z" transform="translate(-152.847 -151.368)" opacity="0.12"/>
            <path id="Path_26071" data-name="Path 26071" d="M259.584,209.1l-5.282-3.933,2.01,2.747Z" transform="translate(-162.613 -151.144)" opacity="0.12"/>
          </g>
          <g id="Group_4156" data-name="Group 4156" transform="translate(40.595 84.328)">
            <path id="Path_26072" data-name="Path 26072" d="M212.332,396.341l7.561,8.184-17.548,16.687-6.257-4.453Z" transform="translate(-190.75 -276.38)" fill="#b55b52"/>
            <path id="Path_26073" data-name="Path 26073" d="M202.408,425.506c.427,2.542,1.05,5.379,4.667,10.365.8,1.107-1.3,3.182-3.674.992s-5.765-5.633-7.479-7.216c-2.788-2.584-3.961-3.444-6.2-5.453a1.148,1.148,0,0,1-.1-.09,1.188,1.188,0,0,1,.039-1.681l4.978-4.035a.59.59,0,0,1,.82.057l6.338,5.863A2.152,2.152,0,0,1,202.408,425.506Z" transform="translate(-189.297 -281.068)" fill="#263238"/>
            <path id="Path_26074" data-name="Path 26074" d="M204.78,427.219a.189.189,0,0,1,0-.2.18.18,0,0,1,.189-.066c.361.115,3.592,1.115,3.961,2.107a.575.575,0,0,1-.082.549.878.878,0,0,1-.821.386,3.039,3.039,0,0,1-1.64-.943A14.169,14.169,0,0,1,204.78,427.219Zm.607.23c1.074,1.369,2.05,2.189,2.649,2.189a.564.564,0,0,0,.516-.263.2.2,0,0,0,.041-.213.757.757,0,0,0-.213-.279A10.369,10.369,0,0,0,205.387,427.449Z" transform="translate(-192.604 -282.928)" fill="#407bff"/>
            <path id="Path_26075" data-name="Path 26075" d="M204.724,426.811a.174.174,0,0,1,.049-.164,4.5,4.5,0,0,1,2.69-1.263,1.4,1.4,0,0,1,.935.476c.336.386.287.656.181.821-.451.7-2.8.607-3.731.27l-.065-.041A.345.345,0,0,1,204.724,426.811Zm2.731-1.067a3.759,3.759,0,0,0-2.2.968c1.033.246,2.747.181,3.018-.237.017-.033.082-.14-.14-.386l-.073-.082A1.029,1.029,0,0,0,207.455,425.744Z" transform="translate(-192.597 -282.593)" fill="#407bff"/>
            <path id="Path_26076" data-name="Path 26076" d="M212.383,415.309l10.3-.148-1.427,25.9-7.413-.254Z" transform="translate(-194.237 -280.407)" fill="#b55b52"/>
            <path id="Path_26077" data-name="Path 26077" d="M223,445.538c2.1,1.657,3.132,3.387,9.02,4.674,1.312.287,1.353,3.362-1.755,3.337s-6.412-.295-8.667-.295c-3.657-.025-5.043.163-7.938.163h0a1.3,1.3,0,0,1-1.279-1.328l.5-6.56a.534.534,0,0,1,.558-.5l8.323.057A2.087,2.087,0,0,1,223,445.538Z" transform="translate(-194.237 -286.798)" fill="#263238"/>
            <path id="Path_26078" data-name="Path 26078" d="M218.721,244.234c-.894,16.072,20.23,64.117,22.592,80.984-7.282,16.876-26.364,38.434-26.364,38.434l9.02,9.84s31.6-28.168,33.244-47.79c1.369-16.786-10.5-79.861-10.5-79.861Z" transform="translate(-194.786 -243.831)" fill="#407bff"/>
            <path id="Path_26079" data-name="Path 26079" d="M218.721,244.234c-.894,16.072,20.23,64.117,22.592,80.984-7.282,16.876-26.364,38.434-26.364,38.434l9.02,9.84s31.6-28.168,33.244-47.79c1.369-16.786-10.5-79.861-10.5-79.861Z" transform="translate(-194.786 -243.831)" fill="#263238"/>
            <path id="Path_26080" data-name="Path 26080" d="M214.71,393.243l11.8,11.21-3.182,1.993-10.8-9.717Z" transform="translate(-194.269 -275.717)" fill="#407bff"/>
            <path id="Path_26081" data-name="Path 26081" d="M228.4,281.387c4.953,15.293,11.308,31.948,14.276,43.321.542-12.374.123-34.408-8.528-46.388C230.1,272.687,228.512,275.508,228.4,281.387Z" transform="translate(-197.664 -250.471)" opacity="0.3" style="isolation: isolate"/>
            <path id="Path_26082" data-name="Path 26082" d="M212.057,244.474c-6.142,16.9-1.361,55.072-1.034,82.428-1.837,20.616.623,51.9.623,51.9l11.078.459s3.346-36.9,5.625-59.918c1.927-19.385,8.831-73.922,8.831-73.922Z" transform="translate(-193.501 -243.882)" fill="#407bff"/>
            <path id="Path_26083" data-name="Path 26083" d="M211.645,243.721c-6.142,16.9-1.014,55.664-.686,83.019-1.837,20.616.623,51.9.623,51.9l11.078.459s3.346-36.9,5.626-59.918c1.927-19.385,8.831-73.922,8.831-73.922Z" transform="translate(-193.437 -243.721)" fill="#263238"/>
            <path id="Path_26084" data-name="Path 26084" d="M210.328,411.875l14.367.4-.886,3.993-12.7.361Z" transform="translate(-193.798 -279.704)" fill="#407bff"/>
            <path id="Path_26085" data-name="Path 26085" d="M228.465,445.937c-.656.632-2.386.329-3.362.1a.2.2,0,0,1-.139-.147.164.164,0,0,1,.065-.172c.238-.164,2.386-1.6,3.28-1.206a.648.648,0,0,1,.377.5.943.943,0,0,1-.156.821A.318.318,0,0,1,228.465,445.937Zm-2.878-.189c1.3.263,2.271.222,2.624-.1a.623.623,0,0,0,.131-.623.255.255,0,0,0-.156-.221c-.468-.205-1.722.41-2.6.959Z" transform="translate(-196.928 -286.673)" fill="#407bff"/>
            <path id="Path_26086" data-name="Path 26086" d="M225.221,445.483a.181.181,0,0,1-.172,0,.2.2,0,0,1-.1-.148c-.008-.09-.131-2.222.615-2.927a.818.818,0,0,1,.729-.229.664.664,0,0,1,.623.492,2.829,2.829,0,0,1-.82,2A3.719,3.719,0,0,1,225.221,445.483Zm.066-.483c.672-.558,1.427-1.755,1.3-2.264a.278.278,0,0,0-.3-.213.524.524,0,0,0-.459.148l-.074.082A4.281,4.281,0,0,0,225.287,445Z" transform="translate(-196.924 -286.186)" fill="#407bff"/>
          </g>
        </g>
        <g id="Group_4159" data-name="Group 4159" transform="translate(65.442 75.297)">
          <g id="Group_4158" data-name="Group 4158" transform="translate(11.347 7.846)">
            <rect id="Rectangle_1348" data-name="Rectangle 1348" width="2.712" height="15.975" transform="translate(6.352)" fill="#fafafa"/>
            <rect id="Rectangle_1349" data-name="Rectangle 1349" width="2.712" height="15.975" fill="#fafafa"/>
          </g>
          <circle id="Ellipse_1377" data-name="Ellipse 1377" cx="12.991" cy="12.991" r="12.991" transform="translate(0 25.297) rotate(-76.813)" fill="none" stroke="#fafafa" stroke-miterlimit="10" stroke-width="1"/>
        </g>
        <path id="Path_26087" data-name="Path 26087" d="M307.059,113.585v6.966H123.164v-6.966a6.33,6.33,0,0,1,6.327-6.333H300.727A6.335,6.335,0,0,1,307.059,113.585Z" transform="translate(-114.865 -84.251)" fill="#407bff"/>
        <path id="Path_26088" data-name="Path 26088" d="M307.057,256.047v2.692a6.334,6.334,0,0,1-6.329,6.33H129.487a6.329,6.329,0,0,1-6.323-6.33v-2.692Z" transform="translate(-114.865 -116.091)" fill="#407bff"/>
        <path id="Path_26089" data-name="Path 26089" d="M161.257,118.515H134.389a2.914,2.914,0,0,1-2.914-2.914h0a2.914,2.914,0,0,1,2.914-2.914h26.868a2.914,2.914,0,0,1,2.914,2.914h0A2.914,2.914,0,0,1,161.257,118.515Z" transform="translate(-116.644 -85.414)" fill="none" stroke="#fff" stroke-miterlimit="10" stroke-width="0.5"/>
        <path id="Path_26090" data-name="Path 26090" d="M186.051,118.515H182.1a2.914,2.914,0,0,1-2.914-2.914h0a2.914,2.914,0,0,1,2.914-2.914h3.951a2.913,2.913,0,0,1,2.914,2.914h0A2.913,2.913,0,0,1,186.051,118.515Z" transform="translate(-126.853 -85.414)" fill="none" stroke="#fff" stroke-miterlimit="10" stroke-width="0.5"/>
        <rect id="Rectangle_1350" data-name="Rectangle 1350" width="134.736" height="97.092" rx="15.043" transform="translate(12.578 39.878)" fill="none" stroke="#fff" stroke-miterlimit="10" stroke-width="0.5"/>
        <g id="Group_4161" data-name="Group 4161" transform="translate(0 48.254)">
          <path id="Rectangle_1351" data-name="Rectangle 1351" d="M8.248,0H52.2a8.249,8.249,0,0,1,8.249,8.249V21.638A8.248,8.248,0,0,1,52.2,29.887H8.249A8.249,8.249,0,0,1,0,21.638V8.248A8.248,8.248,0,0,1,8.248,0Z" transform="translate(0.001 0.001)" fill="#407bff"/>
          <path id="Path_26091" data-name="Path 26091" d="M176.006,144.48v19.686a5.1,5.1,0,0,1-5.1,5.1H152.715c-5.52,1.9-2.065,9.519-1.941,9.791a9.926,9.926,0,0,1-2.905-1.576c-3.969-3.146-3.375-8.215-3.375-8.215H120.654a5.1,5.1,0,0,1-5.1-5.1V144.48a5.1,5.1,0,0,1,5.1-5.1h50.252A5.1,5.1,0,0,1,176.006,144.48Z" transform="translate(-113.237 -139.38)" fill="#407bff"/>
          <path id="Path_26092" data-name="Path 26092" d="M173.057,144.48v19.686a5.1,5.1,0,0,1-5.093,5.1h-18.2c-4.024,1.384-3.276,5.816-2.528,8.215-3.969-3.146-3.375-8.215-3.375-8.215H117.7a5.1,5.1,0,0,1-5.1-5.1V144.48a5.1,5.1,0,0,1,5.1-5.1h50.258A5.1,5.1,0,0,1,173.057,144.48Z" transform="translate(-112.606 -139.38)" fill="#fff" opacity="0.2"/>
          <g id="Group_4160" data-name="Group 4160" transform="translate(4.397 4.746)">
            <rect id="Rectangle_1352" data-name="Rectangle 1352" width="51.346" height="2.722" fill="#407bff"/>
            <rect id="Rectangle_1353" data-name="Rectangle 1353" width="51.346" height="2.722" transform="translate(0 4.995)" fill="#407bff"/>
            <rect id="Rectangle_1354" data-name="Rectangle 1354" width="51.346" height="2.722" transform="translate(0 9.99)" fill="#407bff"/>
            <rect id="Rectangle_1355" data-name="Rectangle 1355" width="51.346" height="2.722" opacity="0.1"/>
            <rect id="Rectangle_1356" data-name="Rectangle 1356" width="51.346" height="2.722" transform="translate(0 4.995)" opacity="0.1"/>
            <rect id="Rectangle_1357" data-name="Rectangle 1357" width="51.346" height="2.722" transform="translate(0 9.99)" opacity="0.1"/>
          </g>
        </g>
      </g>
    </g>
  </g>
</svg>
