<svg xmlns="http://www.w3.org/2000/svg" xmlns:xlink="http://www.w3.org/1999/xlink" width="105" height="109" viewBox="0 0 105 109">
  <defs>
    <clipPath id="clip-path">
      <rect id="Rectangle_142" data-name="Rectangle 142" width="105" height="109" transform="translate(45.298 25.457)" fill="#fff" stroke="#707070" stroke-width="1" opacity="0"/>
    </clipPath>
  </defs>
  <g id="Mask_Group_20" data-name="Mask Group 20" transform="translate(-45.298 -25.457)" clip-path="url(#clip-path)">
    <g id="icon" transform="translate(8.933)">
      <path id="Polygon_1" data-name="Polygon 1" d="M53.052,10.387a7,7,0,0,1,12.1,0L112.073,90.96a7,7,0,0,1-6.049,10.523H12.177A7,7,0,0,1,6.128,90.96Z" transform="translate(0 42.36) rotate(-21)" fill="#c3d2fe"/>
      <g id="abc-block" transform="translate(62.76 68.551)">
        <path id="Path_4141" data-name="Path 4141" d="M188.845,61.183l-.01-.025a1.059,1.059,0,0,0-.983-.658h0a1.059,1.059,0,0,0-.982.66l-.008.02-2.7,7.094a.9.9,0,0,0,1.681.64l.452-1.187h3.1l.447,1.185a.9.9,0,1,0,1.683-.635Zm-1.867,4.746.872-2.289.864,2.289Z" transform="translate(-173.062 -56.872)" fill="#10298a"/>
        <path id="Path_4142" data-name="Path 4142" d="M89.01,305.443a2.553,2.553,0,0,0-2.144-3.943h-2.09a.9.9,0,0,0-.9.9v7.2a.9.9,0,0,0,.9.9h0c.019,0,1.929-.009,2.451-.009a2.835,2.835,0,0,0,1.779-5.043ZM85.676,303.3h1.191a.757.757,0,0,1,.756.756.771.771,0,0,1-.756.773H85.676Zm1.556,5.388-1.556,0v-2.078l1.556,0a1.037,1.037,0,0,1,0,2.075Z" transform="translate(-78.848 -283.422)" fill="#10298a"/>
        <path id="Path_4143" data-name="Path 4143" d="M27.4,14.451h-4.86a3.276,3.276,0,0,0,.362-1.5V3.3a3.3,3.3,0,0,0-3.3-3.3H9.952a3.3,3.3,0,0,0-3.3,3.3v9.654a3.277,3.277,0,0,0,.362,1.5H3.3a3.3,3.3,0,0,0-3.3,3.3V27.4a3.3,3.3,0,0,0,3.3,3.3h9.654a3.288,3.288,0,0,0,2.4-1.038,3.288,3.288,0,0,0,2.4,1.038H27.4a3.3,3.3,0,0,0,3.3-3.3V17.749A3.3,3.3,0,0,0,27.4,14.451ZM14.451,27.4a1.5,1.5,0,0,1-1.5,1.5H3.3a1.5,1.5,0,0,1-1.5-1.5V17.749a1.5,1.5,0,0,1,1.5-1.5h9.654a1.5,1.5,0,0,1,1.5,1.5Zm-4.5-12.952a1.5,1.5,0,0,1-1.5-1.5V3.3a1.5,1.5,0,0,1,1.5-1.5h9.654a1.5,1.5,0,0,1,1.5,1.5v9.654a1.5,1.5,0,0,1-1.5,1.5ZM28.9,27.4a1.5,1.5,0,0,1-1.5,1.5H17.749a1.5,1.5,0,0,1-1.5-1.5V17.749a1.5,1.5,0,0,1,1.5-1.5H27.4a1.5,1.5,0,0,1,1.5,1.5Z" transform="translate(0)" fill="#10298a"/>
        <path id="Path_4144" data-name="Path 4144" d="M319.942,307.89a.9.9,0,0,0-1.267.111,1.936,1.936,0,0,1-1.577.694,2.7,2.7,0,1,1,1.508-4.936.9.9,0,1,0,1.007-1.491,4.5,4.5,0,1,0-2.515,8.226,3.73,3.73,0,0,0,2.956-1.337A.9.9,0,0,0,319.942,307.89Z" transform="translate(-293.856 -283.422)" fill="#10298a"/>
      </g>
    </g>
  </g>
</svg>
