<svg xmlns="http://www.w3.org/2000/svg" xmlns:xlink="http://www.w3.org/1999/xlink" width="105" height="108" viewBox="0 0 105 108">
  <defs>
    <clipPath id="clip-path">
      <rect id="Rectangle_1210" data-name="Rectangle 1210" width="105" height="108" transform="translate(45.254 26.457)" fill="#fff" stroke="#707070" stroke-width="1" opacity="0"/>
    </clipPath>
  </defs>
  <g id="Mask_Group_24" data-name="Mask Group 24" transform="translate(-45.254 -26.457)" clip-path="url(#clip-path)">
    <g id="icon" transform="translate(8.933)">
      <path id="Polygon_1" data-name="Polygon 1" d="M53.052,10.387a7,7,0,0,1,12.1,0L112.073,90.96a7,7,0,0,1-6.049,10.523H12.177A7,7,0,0,1,6.128,90.96Z" transform="translate(0 42.36) rotate(-21)" fill="#c3d2fe"/>
      <g id="ecology" transform="translate(61.191 69.036)">
        <path id="Path_4155" data-name="Path 4155" d="M30.72,16.633a.9.9,0,0,0-.787-.787,18.486,18.486,0,0,0-4.411.1,12.927,12.927,0,1,0-9.58,9.58,18.476,18.476,0,0,0-.1,4.411.9.9,0,0,0,.787.787,15.689,15.689,0,0,0,1.758.087c2.357,0,6.546-.426,9.269-3.149,3.879-3.879,3.1-10.736,3.061-11.026Zm-7.185-.282a10.6,10.6,0,0,0-4.315,2.26A6.535,6.535,0,0,0,14,17.421a1.808,1.808,0,1,1-.355-3.581h.939A4.212,4.212,0,0,0,18,12.079,10.114,10.114,0,0,1,23.079,8.35a11.151,11.151,0,0,1,.456,8ZM17.047,2.592a4.442,4.442,0,0,1-8.22,0,11.131,11.131,0,0,1,8.22,0ZM2.248,9.828H5.36a1.326,1.326,0,0,1,.8,2.387,3.184,3.184,0,0,0-.68,4.4,2.218,2.218,0,0,1-.743,3.236l-.357.195A11.119,11.119,0,0,1,2.248,9.828ZM12.937,24.069A11.084,11.084,0,0,1,5.69,21.379a4.021,4.021,0,0,0,1.254-5.816,1.387,1.387,0,0,1,.295-1.9A3.131,3.131,0,0,0,5.36,8.023H2.95A11.209,11.209,0,0,1,7.21,3.395,6.293,6.293,0,0,0,9.017,5.769a6.242,6.242,0,0,0,7.841,0,6.294,6.294,0,0,0,1.806-2.374,11.219,11.219,0,0,1,3.522,3.354,11.921,11.921,0,0,0-5.653,4.281,2.4,2.4,0,0,1-1.952,1h-.939a3.613,3.613,0,1,0,.709,7.156,4.734,4.734,0,0,1,3.66.772,11.166,11.166,0,0,0-1.66,3.572,11.1,11.1,0,0,1-3.414.534Zm13.446,2.314c-2.092,2.092-5.412,2.549-7.53,2.607L24.6,23.242a.9.9,0,1,0-1.276-1.276l-5.751,5.751c.055-2.116.51-5.433,2.61-7.533,2.586-2.586,7.048-2.674,8.8-2.6C29.06,19.335,28.977,23.788,26.383,26.383Z" transform="translate(0)" fill="#10298a"/>
      </g>
    </g>
  </g>
</svg>
