<svg xmlns="http://www.w3.org/2000/svg" xmlns:xlink="http://www.w3.org/1999/xlink" width="105" height="109" viewBox="0 0 105 109">
  <defs>
    <clipPath id="clip-path">
      <rect id="Rectangle_1209" data-name="Rectangle 1209" width="105" height="109" transform="translate(45.595 25.457)" fill="#fff" stroke="#707070" stroke-width="1" opacity="0"/>
    </clipPath>
  </defs>
  <g id="Mask_Group_21" data-name="Mask Group 21" transform="translate(-45.595 -25.457)" clip-path="url(#clip-path)">
    <g id="icon" transform="translate(8.933)">
      <path id="Polygon_1" data-name="Polygon 1" d="M53.052,10.387a7,7,0,0,1,12.1,0L112.073,90.96a7,7,0,0,1-6.049,10.523H12.177A7,7,0,0,1,6.128,90.96Z" transform="translate(0 42.36) rotate(-21)" fill="#c3d2fe"/>
      <g id="castle" transform="translate(63.557 68.762)">
        <path id="Path_4147" data-name="Path 4147" d="M29.2,16.981H27.264a.881.881,0,0,0-.623.258l-1.622,1.622h-.21L23.187,17.24a.881.881,0,0,0-.623-.258h-1v-2h.529a.881.881,0,0,0,.881-.881V8.931a.881.881,0,0,0-.881-.881h-.952L15.764.376a.882.882,0,0,0-1.444,0L8.943,8.05H7.991a.881.881,0,0,0-.881.881V14.1a.881.881,0,0,0,.881.881H8.52v2h-1a.881.881,0,0,0-.623.258L5.276,18.862h-.21L3.444,17.24a.881.881,0,0,0-.623-.258H1.763V7.462H5.641A.882.882,0,0,0,6.4,6.128l-1.138-1.9L6.4,2.334A.882.882,0,0,0,5.641,1H1.763V.881A.881.881,0,1,0,0,.881V29.2a.881.881,0,0,0,.881.881H29.2a.881.881,0,0,0,.881-.881V17.863A.881.881,0,0,0,29.2,16.981ZM8.873,13.221V9.929a.116.116,0,0,1,.2-.082l1.588,1.588a.881.881,0,0,0,.623.258h.94a.881.881,0,0,0,.623-.258l1.622-1.622h1.15l1.622,1.622a.881.881,0,0,0,.623.258h.94a.881.881,0,0,0,.623-.258l1.588-1.588a.116.116,0,0,1,.2.082v3.292Zm6.17-10.8,4.494,6.414L18.512,9.856a.253.253,0,0,1-.358,0L16.606,8.308a.881.881,0,0,0-.623-.258H14.1a.881.881,0,0,0-.623.258L11.931,9.856a.254.254,0,0,1-.358,0L10.548,8.831ZM19.8,14.984V17.5l-1.364,1.364h-.21L16.606,17.24a.881.881,0,0,0-.623-.258H14.1a.881.881,0,0,0-.623.258l-1.622,1.622h-.21L10.283,17.5V14.984ZM4.084,2.762,3.475,3.777a.882.882,0,0,0,0,.907L4.084,5.7H1.763V2.762Zm9.489,25.56V24.914a1.469,1.469,0,1,1,2.938,0v3.408Zm14.749,0H18.274V24.914a3.232,3.232,0,0,0-6.464,0v3.408H1.763V18.744h.693l1.622,1.622a.881.881,0,0,0,.623.258h.94a.881.881,0,0,0,.623-.258l1.622-1.622h1.15l1.622,1.622a.881.881,0,0,0,.623.258h.94a.881.881,0,0,0,.623-.258l1.622-1.622h1.15l1.622,1.622a.881.881,0,0,0,.623.258h.94a.881.881,0,0,0,.623-.258l1.622-1.622H22.2l1.622,1.622a.881.881,0,0,0,.623.258h.94a.881.881,0,0,0,.623-.258l1.622-1.622h.693Z" transform="translate(0 0)" fill="#10298a"/>
        <path id="Path_4148" data-name="Path 4148" d="M65.881,385a.881.881,0,0,0-.881.881v1.88a.881.881,0,0,0,1.763,0v-1.88A.881.881,0,0,0,65.881,385Z" transform="translate(-61.181 -362.378)" fill="#10298a"/>
        <path id="Path_4149" data-name="Path 4149" d="M129.881,385a.881.881,0,0,0-.881.881v1.88a.881.881,0,0,0,1.763,0v-1.88A.881.881,0,0,0,129.881,385Z" transform="translate(-121.42 -362.378)" fill="#10298a"/>
        <path id="Path_4150" data-name="Path 4150" d="M353.881,385a.881.881,0,0,0-.881.881v1.88a.881.881,0,0,0,1.763,0v-1.88A.882.882,0,0,0,353.881,385Z" transform="translate(-332.258 -362.378)" fill="#10298a"/>
        <path id="Path_4151" data-name="Path 4151" d="M417.881,385a.881.881,0,0,0-.881.881v1.88a.881.881,0,0,0,1.763,0v-1.88A.881.881,0,0,0,417.881,385Z" transform="translate(-392.497 -362.378)" fill="#10298a"/>
      </g>
    </g>
  </g>
</svg>
