<svg xmlns="http://www.w3.org/2000/svg" xmlns:xlink="http://www.w3.org/1999/xlink" width="69" height="69" viewBox="0 0 69 69">
  <defs>
    <linearGradient id="linear-gradient" x1="0.5" x2="0.5" y2="1" gradientUnits="objectBoundingBox">
      <stop offset="0" stop-color="#00bfb2"/>
      <stop offset="1" stop-color="#028090"/>
    </linearGradient>
  </defs>
  <g id="icon" transform="translate(15.497 19.232)">
    <rect id="Rectangle_1358" data-name="Rectangle 1358" width="69" height="69" rx="11" transform="translate(-15.497 -19.232)" fill="url(#linear-gradient)"/>
    <g id="download-4" transform="translate(-10.598 0.761)">
      <g id="Group_4176" data-name="Group 4176" transform="translate(22.347)">
        <g id="Group_4175" data-name="Group 4175">
          <path id="Path_26101" data-name="Path 26101" d="M142.424,13.225a.9.9,0,0,0-.825-.531h-3.627V.907A.907.907,0,0,0,137.065,0h-3.627a.907.907,0,0,0-.907.907V12.694H128.9a.906.906,0,0,0-.682,1.5l6.347,7.254a.9.9,0,0,0,1.364,0l6.347-7.254A.9.9,0,0,0,142.424,13.225Z" transform="translate(-127.998)" fill="#fff"/>
        </g>
      </g>
      <g id="Group_4178" data-name="Group 4178" transform="translate(16 19.948)">
        <g id="Group_4177" data-name="Group 4177">
          <path id="Path_26102" data-name="Path 26102" d="M39.575,352v5.44H19.627V352H16v7.254a1.813,1.813,0,0,0,1.813,1.813H41.388a1.812,1.812,0,0,0,1.813-1.813V352Z" transform="translate(-16 -352)" fill="#fff"/>
        </g>
      </g>
    </g>
  </g>
</svg>
