<svg xmlns="http://www.w3.org/2000/svg" xmlns:xlink="http://www.w3.org/1999/xlink" width="69" height="69" viewBox="0 0 69 69">
  <defs>
    <linearGradient id="linear-gradient" x1="0.5" x2="0.5" y2="1" gradientUnits="objectBoundingBox">
      <stop offset="0" stop-color="#fd0"/>
      <stop offset="1" stop-color="#fbb034"/>
    </linearGradient>
  </defs>
  <g id="icon" transform="translate(15.498 19.233)">
    <rect id="Rectangle_273" data-name="Rectangle 273" width="69" height="69" rx="11" transform="translate(-15.498 -19.233)" fill="url(#linear-gradient)"/>
    <g id="conversation-2" transform="translate(1.503 -2.233)">
      <path id="Path_8491" data-name="Path 8491" d="M22.657,15.539,22.631,3.07A3.081,3.081,0,0,0,19.555,0H3.076A3.08,3.08,0,0,0,0,3.076V15.517a3.08,3.08,0,0,0,3.076,3.076H5.2v2.051a1.026,1.026,0,0,0,1.641.82l3.827-2.87,8.909.027A3.074,3.074,0,0,0,22.657,15.539ZM11.279,14.423A1.025,1.025,0,1,1,12.3,13.4,1.025,1.025,0,0,1,11.279,14.423Zm1.094-4.277v.108a1.025,1.025,0,0,1-2.051,0v-.64a1.37,1.37,0,0,1,1.171-1.353,1.029,1.029,0,0,0,.88-1.015,1.068,1.068,0,0,0-1.766-.785A1.025,1.025,0,0,1,9.5,4.733a3.223,3.223,0,0,1,3.321-.187,3.077,3.077,0,0,1-.45,5.6Z" transform="translate(0)" fill="#fff"/>
      <path id="Path_8492" data-name="Path 8492" d="M200.551,210.995h-7.218l0,1.111a5.126,5.126,0,0,1-4.131,5.041h9.228a1.025,1.025,0,0,1,0,2.051h-12.3a1.025,1.025,0,0,1-.416-1.962L181,217.222v9.222a3.08,3.08,0,0,0,3.076,3.076h6.936l3.885,1.943a1.026,1.026,0,0,0,1.484-.917V229.52h4.17a3.08,3.08,0,0,0,3.076-3.076V214.071A3.08,3.08,0,0,0,200.551,210.995Zm-2.119,12.3h-12.3a1.025,1.025,0,0,1,0-2.051h12.3a1.025,1.025,0,0,1,0,2.051Z" transform="translate(-168.627 -196.572)" fill="#fff"/>
    </g>
  </g>
</svg>
