<svg xmlns="http://www.w3.org/2000/svg" xmlns:xlink="http://www.w3.org/1999/xlink" width="108.123" height="164.987" viewBox="0 0 108.123 164.987">
  <defs>
    <radialGradient id="radial-gradient" cx="0.5" cy="0.5" r="1" gradientTransform="translate(0.25 4.873) scale(0.5 0.5)" gradientUnits="objectBoundingBox">
      <stop offset="0.005" stop-color="gray"/>
      <stop offset="0.126" stop-color="#9d9d9d"/>
      <stop offset="0.296" stop-color="silver"/>
      <stop offset="0.468" stop-color="#dbdbdb"/>
      <stop offset="0.642" stop-color="#efefef"/>
      <stop offset="0.818" stop-color="#fbfbfb"/>
      <stop offset="1" stop-color="#fff"/>
    </radialGradient>
    <radialGradient id="radial-gradient-2" cx="0.832" cy="0.207" r="1.127" gradientTransform="translate(0)" gradientUnits="objectBoundingBox">
      <stop offset="0.256" stop-color="#ffda00"/>
      <stop offset="0.333" stop-color="#fed101"/>
      <stop offset="0.452" stop-color="#fcbb04"/>
      <stop offset="0.599" stop-color="#f99709"/>
      <stop offset="0.768" stop-color="#f46510"/>
      <stop offset="0.954" stop-color="#ef2519"/>
      <stop offset="1" stop-color="#ee151c"/>
    </radialGradient>
    <radialGradient id="radial-gradient-3" cx="0.5" cy="0.5" r="0.362" gradientTransform="translate(-1.776) scale(4.551 1)" gradientUnits="objectBoundingBox">
      <stop offset="0" stop-color="#f2f2f2"/>
      <stop offset="0.995" stop-color="#f2ddcc"/>
    </radialGradient>
    <radialGradient id="radial-gradient-4" cx="0.86" cy="0.372" r="0.9" gradientTransform="translate(-1.098) scale(3.197 1)" gradientUnits="objectBoundingBox">
      <stop offset="0" stop-color="#f2ddcc"/>
      <stop offset="0.995" stop-color="#e2b889"/>
    </radialGradient>
    <radialGradient id="radial-gradient-5" cx="0.819" cy="0.231" r="0.857" gradientTransform="translate(-0.393) scale(1.786 1)" gradientUnits="objectBoundingBox">
      <stop offset="0" stop-color="#e2b889"/>
      <stop offset="0.995" stop-color="#b2865f"/>
    </radialGradient>
    <radialGradient id="radial-gradient-6" cx="0.514" cy="0.496" r="0.98" gradientTransform="matrix(0.675, 0.071, -0.048, 0.997, 0.222, -0.043)" gradientUnits="objectBoundingBox">
      <stop offset="0.005"/>
      <stop offset="0.169" stop-color="#404040"/>
      <stop offset="0.334" stop-color="#7a7a7a"/>
      <stop offset="0.492" stop-color="#a9a9a9"/>
      <stop offset="0.642" stop-color="#cecece"/>
      <stop offset="0.78" stop-color="#e9e9e9"/>
      <stop offset="0.904" stop-color="#f9f9f9"/>
      <stop offset="1" stop-color="#fff"/>
    </radialGradient>
    <linearGradient id="linear-gradient" x1="0.486" y1="0.186" x2="0.523" y2="1.147" gradientUnits="objectBoundingBox">
      <stop offset="0" stop-color="#fce878"/>
      <stop offset="1" stop-color="#fccf3e"/>
    </linearGradient>
    <radialGradient id="radial-gradient-7" cx="0.46" cy="-0.171" r="0.75" gradientTransform="translate(-0.784) scale(2.567 1)" gradientUnits="objectBoundingBox">
      <stop offset="0" stop-color="#fccf62"/>
      <stop offset="0.995" stop-color="#fbb124"/>
    </radialGradient>
    <radialGradient id="radial-gradient-8" cx="0.647" cy="-0.02" r="0.962" gradientTransform="translate(-1.572) scale(4.144 1)" gradientUnits="objectBoundingBox">
      <stop offset="0" stop-color="#fbb124"/>
      <stop offset="0.995" stop-color="#fa8223"/>
    </radialGradient>
    <linearGradient id="linear-gradient-2" x1="13.75" y1="6.708" x2="11.842" y2="6.708" gradientUnits="objectBoundingBox">
      <stop offset="0" stop-color="#fff"/>
      <stop offset="1"/>
    </linearGradient>
    <radialGradient id="radial-gradient-9" cx="0.5" cy="0.5" r="0.5" gradientTransform="translate(2.182 2.331) rotate(55.067)" gradientUnits="objectBoundingBox">
      <stop offset="0"/>
      <stop offset="0.053" stop-color="#171717"/>
      <stop offset="0.204" stop-color="#535353"/>
      <stop offset="0.353" stop-color="#888"/>
      <stop offset="0.498" stop-color="#b2b2b2"/>
      <stop offset="0.638" stop-color="#d3d3d3"/>
      <stop offset="0.771" stop-color="#ebebeb"/>
      <stop offset="0.895" stop-color="#fafafa"/>
      <stop offset="1" stop-color="#fff"/>
    </radialGradient>
    <radialGradient id="radial-gradient-10" cx="0.5" cy="0.5" r="0.5" gradientTransform="matrix(0, 1, -1, 0, -28.881, -51.708)" gradientUnits="objectBoundingBox">
      <stop offset="0"/>
      <stop offset="0.079" stop-color="#232323"/>
      <stop offset="0.22" stop-color="#5d5d5d"/>
      <stop offset="0.362" stop-color="#8e8e8e"/>
      <stop offset="0.5" stop-color="#b6b6b6"/>
      <stop offset="0.635" stop-color="#d6d6d6"/>
      <stop offset="0.765" stop-color="#ececec"/>
      <stop offset="0.889" stop-color="#fafafa"/>
      <stop offset="1" stop-color="#fff"/>
    </radialGradient>
    <linearGradient id="linear-gradient-3" x1="0.346" y1="0.025" x2="0.715" y2="0.759" gradientUnits="objectBoundingBox">
      <stop offset="0" stop-color="#f1e9eb"/>
      <stop offset="0.136" stop-color="#d4cecf"/>
      <stop offset="0.417" stop-color="#9e9c9c"/>
      <stop offset="0.554" stop-color="#898988"/>
      <stop offset="0.634" stop-color="#a4a1a1"/>
      <stop offset="0.712" stop-color="#b8b2b4"/>
      <stop offset="0.765" stop-color="#c0b9bb"/>
      <stop offset="0.8" stop-color="#999496"/>
      <stop offset="0.843" stop-color="#716e6f"/>
      <stop offset="0.885" stop-color="#524f51"/>
      <stop offset="0.926" stop-color="#3c3a3b"/>
      <stop offset="0.965" stop-color="#2e2d2e"/>
      <stop offset="1" stop-color="#2a292a"/>
    </linearGradient>
    <linearGradient id="linear-gradient-4" x1="0.34" y1="0.461" x2="0.666" y2="0.897" gradientUnits="objectBoundingBox">
      <stop offset="0.068" stop-color="#f1b17f"/>
      <stop offset="0.13" stop-color="#f1c3a3"/>
      <stop offset="0.197" stop-color="#f1d4c2"/>
      <stop offset="0.262" stop-color="#f1dfd8"/>
      <stop offset="0.323" stop-color="#f1e6e6"/>
      <stop offset="0.378" stop-color="#f1e9eb"/>
      <stop offset="0.672" stop-color="#ecbf99"/>
      <stop offset="0.893" stop-color="#eaa263"/>
      <stop offset="1" stop-color="#e9984e"/>
    </linearGradient>
    <linearGradient id="linear-gradient-5" x1="0.191" y1="-0.06" x2="0.544" y2="0.985" gradientUnits="objectBoundingBox">
      <stop offset="0" stop-color="#f1e9eb"/>
      <stop offset="0.028" stop-color="#cdc6c8"/>
      <stop offset="0.1" stop-color="#767273"/>
      <stop offset="0.151" stop-color="#3f3d3e"/>
      <stop offset="0.176" stop-color="#2a292a"/>
      <stop offset="0.454" stop-color="#9e989a"/>
      <stop offset="0.532" stop-color="#c0b9bb"/>
      <stop offset="0.602" stop-color="#999496"/>
      <stop offset="0.688" stop-color="#716e6f"/>
      <stop offset="0.772" stop-color="#524f51"/>
      <stop offset="0.853" stop-color="#3c3a3b"/>
      <stop offset="0.931" stop-color="#2e2d2e"/>
      <stop offset="1" stop-color="#2a292a"/>
    </linearGradient>
    <radialGradient id="radial-gradient-11" cx="0.5" cy="0.5" r="0.5" gradientTransform="matrix(0, 1, -1, 0, -26.215, -45.647)" xlink:href="#radial-gradient-10"/>
    <linearGradient id="linear-gradient-6" x1="-3.979" y1="-1.211" x2="-3.613" y2="-0.498" xlink:href="#linear-gradient-3"/>
    <linearGradient id="linear-gradient-7" x1="-1.806" y1="-0.53" x2="-1.469" y2="-0.132" xlink:href="#linear-gradient-4"/>
    <linearGradient id="linear-gradient-8" x1="-4.148" y1="-2.913" x2="-3.788" y2="-1.953" xlink:href="#linear-gradient-5"/>
    <radialGradient id="radial-gradient-12" cx="0.5" cy="0.5" r="1.243" gradientTransform="translate(0.299 15.843) scale(0.402 0.402)" gradientUnits="objectBoundingBox">
      <stop offset="0"/>
      <stop offset="0.081" stop-color="#333"/>
      <stop offset="0.168" stop-color="#626262"/>
      <stop offset="0.261" stop-color="#8c8c8c"/>
      <stop offset="0.357" stop-color="#afafaf"/>
      <stop offset="0.458" stop-color="#ccc"/>
      <stop offset="0.565" stop-color="#e3e3e3"/>
      <stop offset="0.682" stop-color="#f2f2f2"/>
      <stop offset="0.815" stop-color="#fcfcfc"/>
      <stop offset="1" stop-color="#fff"/>
    </radialGradient>
    <linearGradient id="linear-gradient-9" x1="0.744" y1="0.225" x2="0.348" y2="0.747" gradientUnits="objectBoundingBox">
      <stop offset="0" stop-color="#aeb0b3"/>
      <stop offset="1" stop-color="#fff"/>
    </linearGradient>
    <linearGradient id="linear-gradient-10" x1="-7.344" y1="0.276" x2="-7.565" y2="0.574" gradientUnits="objectBoundingBox">
      <stop offset="0.005" stop-color="#aeb0b3"/>
      <stop offset="1" stop-color="#fff"/>
    </linearGradient>
    <linearGradient id="linear-gradient-11" x1="-9.47" y1="0.5" x2="-8.47" y2="0.5" gradientUnits="objectBoundingBox">
      <stop offset="0" stop-color="#d9f1ff"/>
      <stop offset="0.16" stop-color="#d3eefe"/>
      <stop offset="0.365" stop-color="#c3e7fd"/>
      <stop offset="0.595" stop-color="#a8dbfc"/>
      <stop offset="0.842" stop-color="#84cbfa"/>
      <stop offset="1" stop-color="#69bff9"/>
    </linearGradient>
    <linearGradient id="linear-gradient-13" x1="-1.881" y1="-0.747" x2="-2.83" y2="0.353" xlink:href="#linear-gradient-11"/>
    <linearGradient id="linear-gradient-14" x1="-3.86" y1="0.239" x2="-4.014" y2="0.768" xlink:href="#linear-gradient-11"/>
    <linearGradient id="linear-gradient-15" x1="-0.242" y1="0.871" x2="0.969" y2="0.286" xlink:href="#linear-gradient-11"/>
    <linearGradient id="linear-gradient-16" x1="-2.689" y1="0.5" x2="-1.075" y2="0.5" xlink:href="#linear-gradient-11"/>
    <radialGradient id="radial-gradient-13" cx="0.5" cy="0.5" r="1.243" gradientTransform="translate(0.299 15.181) scale(0.402 0.402)" gradientUnits="objectBoundingBox">
      <stop offset="0"/>
      <stop offset="0.022" stop-color="#090909"/>
      <stop offset="0.183" stop-color="#494949"/>
      <stop offset="0.342" stop-color="gray"/>
      <stop offset="0.494" stop-color="#adadad"/>
      <stop offset="0.64" stop-color="#d1d1d1"/>
      <stop offset="0.776" stop-color="#eaeaea"/>
      <stop offset="0.9" stop-color="#f9f9f9"/>
      <stop offset="1" stop-color="#fff"/>
    </radialGradient>
    <linearGradient id="linear-gradient-17" x1="0.404" y1="0.09" x2="0.518" y2="0.693" xlink:href="#linear-gradient-10"/>
    <linearGradient id="linear-gradient-18" x1="0.621" y1="0.276" x2="0.4" y2="0.574" xlink:href="#linear-gradient-10"/>
    <linearGradient id="linear-gradient-19" y1="0.5" x2="1" y2="0.5" gradientUnits="objectBoundingBox">
      <stop offset="0" stop-color="#fccf3e"/>
      <stop offset="0.995" stop-color="#f55f20"/>
    </linearGradient>
    <linearGradient id="linear-gradient-21" x1="1.506" y1="-0.747" x2="0.557" y2="0.353" xlink:href="#linear-gradient-19"/>
    <linearGradient id="linear-gradient-22" x1="0.583" y1="0.239" x2="0.429" y2="0.768" gradientUnits="objectBoundingBox">
      <stop offset="0" stop-color="#fccf3e"/>
      <stop offset="0.23" stop-color="#fbcc3d"/>
      <stop offset="0.342" stop-color="#fbc53b"/>
      <stop offset="0.428" stop-color="#fab837"/>
      <stop offset="0.502" stop-color="#f9a532"/>
      <stop offset="0.567" stop-color="#f78d2c"/>
      <stop offset="0.626" stop-color="#f67024"/>
      <stop offset="0.654" stop-color="#f55f20"/>
    </linearGradient>
    <linearGradient id="linear-gradient-23" x1="0.747" y1="0.042" x2="0.233" y2="0.765" xlink:href="#linear-gradient-19"/>
    <linearGradient id="linear-gradient-24" x1="-0.127" y1="0.5" x2="1.488" y2="0.5" xlink:href="#linear-gradient-19"/>
    <radialGradient id="radial-gradient-14" cx="0.5" cy="0.5" r="1.243" gradientTransform="translate(0.299 14.546) scale(0.402 0.402)" gradientUnits="objectBoundingBox">
      <stop offset="0"/>
      <stop offset="0.072" stop-color="#2b2b2b"/>
      <stop offset="0.165" stop-color="#5c5c5c"/>
      <stop offset="0.262" stop-color="#888"/>
      <stop offset="0.363" stop-color="#adadad"/>
      <stop offset="0.467" stop-color="#cacaca"/>
      <stop offset="0.578" stop-color="#e1e1e1"/>
      <stop offset="0.696" stop-color="#f2f2f2"/>
      <stop offset="0.827" stop-color="#fbfbfb"/>
      <stop offset="1" stop-color="#fff"/>
    </radialGradient>
    <linearGradient id="linear-gradient-26" x1="-7.763" y1="0.276" x2="-7.984" y2="0.574" xlink:href="#linear-gradient-10"/>
    <linearGradient id="linear-gradient-27" x1="-9.96" y1="0.5" x2="-8.96" y2="0.5" xlink:href="#linear-gradient-11"/>
    <linearGradient id="linear-gradient-29" x1="-2.135" y1="-0.747" x2="-3.083" y2="0.353" xlink:href="#linear-gradient-11"/>
    <linearGradient id="linear-gradient-30" x1="-4.199" y1="0.239" x2="-4.353" y2="0.768" xlink:href="#linear-gradient-11"/>
    <linearGradient id="linear-gradient-32" x1="-2.855" y1="0.5" x2="-1.241" y2="0.5" xlink:href="#linear-gradient-11"/>
  </defs>
  <g id="pencil" transform="translate(-367.989 -362.286)">
    <g id="Group_1816" data-name="Group 1816" transform="translate(390.673 362.286)">
      <g id="Group_1806" data-name="Group 1806" transform="translate(0 81.929)">
        <ellipse id="Ellipse_447" data-name="Ellipse 447" cx="30.948" cy="15.481" rx="30.948" ry="15.481" transform="translate(0 35.672)" opacity="0.94" fill="url(#radial-gradient)" style="mix-blend-mode: multiply;isolation: isolate"/>
        <g id="Group_1805" data-name="Group 1805" transform="translate(11.686)">
          <circle id="Ellipse_448" data-name="Ellipse 448" cx="26.545" cy="26.545" r="26.545" transform="translate(0 0)" fill="url(#radial-gradient-2)"/>
          <g id="Group_1804" data-name="Group 1804" transform="translate(0.018)" opacity="0.33">
            <path id="Path_8736" data-name="Path 8736" d="M1421.558,1855.556a26.532,26.532,0,0,0-1.146-7.464,2.375,2.375,0,0,0-.452-.152c-.227-.032-.419.075-.39.281.05.352-.121.487-.409.57a.328.328,0,0,0-.165.138.447.447,0,0,1-.006.067.38.38,0,0,0-.217.495.474.474,0,0,0-.023.108,10.194,10.194,0,0,1,.314,1.01.282.282,0,0,0,.371.237,1.121,1.121,0,0,1,.759.079.228.228,0,0,0,.236-.017c.243-.144.323-.12.341.153a13.755,13.755,0,0,1,0,1.743.417.417,0,0,1-.335.436,3.838,3.838,0,0,0-.8.248c-.3.116-.368.077-.511-.206a1.9,1.9,0,0,0-.786-.82c-.271-.149-.424-.065-.493.232-.054.234-.04.477-.108.708a.438.438,0,0,1-.562.351,1.006,1.006,0,0,1-.388-.251c-.292-.248-.557-.526-.842-.782-.024,0-.046-.01-.069-.017a.737.737,0,0,0-.352-.213c-.034-.031-.066-.064-.1-.1a1.391,1.391,0,0,0-.29-.112.909.909,0,0,1-.61-1.262c.026-.079.061-.155.08-.236a.408.408,0,0,0-.49-.549,1.019,1.019,0,0,0-.526.182,2.169,2.169,0,0,1-1.556.423.61.61,0,0,0-.478.081,10.481,10.481,0,0,1-1.155.246,3.33,3.33,0,0,0-2.04,1.1,1.125,1.125,0,0,0-.3.67c-.021.155-.044.309-.07.462a.723.723,0,0,1-.578.653,1.3,1.3,0,0,0-.582.287,7.407,7.407,0,0,0-1.819,2.2,1.61,1.61,0,0,0-.056,1.443.884.884,0,0,1-.055.838c-.117.208-.252.406-.381.607a1.323,1.323,0,0,0-.271.72,3.9,3.9,0,0,0,1.46,3.458.348.348,0,0,1,.089.086,6.322,6.322,0,0,0,1.456,1.3,1.424,1.424,0,0,0,1.144.294.975.975,0,0,1,.631.1,1.278,1.278,0,0,0,1.253-.012c.184-.1.362-.2.547-.3a2.582,2.582,0,0,1,1.277-.352c.2.006.4.081.377.281-.054.41.2.362.446.372.114,0,.227.032.341.034.192,0,.208.093.135.238a3.267,3.267,0,0,0-.29.851,3.222,3.222,0,0,0,.42,2.1,1.9,1.9,0,0,1,.038,1.654,11.557,11.557,0,0,1-1.082,1.85h0a3.114,3.114,0,0,0-.418.574,8.679,8.679,0,0,0-1.016,1.738,27.329,27.329,0,0,1-2,3.959,26.542,26.542,0,0,0,12.368-19.84,26.857,26.857,0,0,0,.135-2.691C1421.56,1855.742,1421.559,1855.649,1421.558,1855.556Z" transform="translate(-1368.487 -1829.29)" fill="#fff"/>
            <path id="Path_8737" data-name="Path 8737" d="M1448.1,1649.479c.052.033.106.065.16.1.584.344.672.312.89-.324a.781.781,0,0,0,.032-.088c.013-.058.047-.1.105-.093.089.007.083.083.074.141-.075.51.232.762.635.952a4.44,4.44,0,0,1,.819.446c.357.27.383.364.24.764-.064.128-.282.184-.182.388a.89.89,0,0,0,.34-.28l.025,0a1.576,1.576,0,0,0,.2-1.443c-.009-.03-.02-.059-.031-.088.064-.111.141-.228.016-.33s-.2-.343-.421-.3l-.043-.047a7.294,7.294,0,0,0-.655-.423.96.96,0,0,1-.438-.967,6.474,6.474,0,0,0,0-1.183c-.015-.169-.019-.325.176-.378a.35.35,0,0,1,.417.2,1.273,1.273,0,0,1,.141.6,2.085,2.085,0,0,0,.458,1.3c.7.852,1.042,1.01,1.948.748.093-.027.193-.087.294-.012,0,.1-.072.149-.125.21a1.545,1.545,0,0,0-.355.507c-.083.254.135.367.262.522a.163.163,0,0,1,.025.2c-.033.051-.088.042-.141.036-.121-.015-.259-.2-.356-.03-.083.145.1.253.16.379a.415.415,0,0,0,.076.1,1.089,1.089,0,0,1,.1.1c-.026.1-.093.238.112.161.02.031.04.062.059.094a.3.3,0,0,1,0,.041l-.12.169c-.038.017-.08.03-.12.045a2.944,2.944,0,0,0-1.2.693.182.182,0,0,1-.188.058c.008-.076.179-.14.03-.225a.154.154,0,0,0-.221.08c.083.017-.026.214.142.151a.617.617,0,0,1-.513-.009c.035-.084.148-.025.2-.111-.146-.02-.281-.044-.417-.054-.1-.007-.035.06-.031.1a.946.946,0,0,1-.623-.43,2.6,2.6,0,0,1-.069-.612,1.849,1.849,0,0,0-.171-.749c-.043-.093-.1-.168-.2-.049a.752.752,0,0,0,.049.894,1.363,1.363,0,0,1,.33.516.542.542,0,0,1-.518.495.715.715,0,0,0-.595.526c-.09.276-.186.551-.265.83a2.153,2.153,0,0,1-1.341,1.495,3.38,3.38,0,0,0-.313.137c-.141.072-.134.158.01.209a2.539,2.539,0,0,0,.509.138.968.968,0,0,1,.8.656c.288.69.117.944-.63.947a6.147,6.147,0,0,0-1.644.127c-.277.077-.5.233-.463.538a6.572,6.572,0,0,0,.5,2.11.561.561,0,0,0,.545.347.758.758,0,0,1,.706.377c.055.09.145.152.225.124.478-.169,1.037-.191,1.34-.7a2.661,2.661,0,0,0,.628-1.2,1.066,1.066,0,0,1,.311-.633,1,1,0,0,0,.339-.742.427.427,0,0,1,.62-.425.866.866,0,0,0,.856-.093.311.311,0,0,1,.421.043,9.447,9.447,0,0,1,.714.652c.092.09.209.269.325.169.144-.124-.046-.253-.119-.362a1.259,1.259,0,0,1-.322-.759c.015-.336.141-.41.431-.235a3.907,3.907,0,0,0,.817.451,2.038,2.038,0,0,1,1.265,1.126,2.218,2.218,0,0,0,.529.8l.03,0a9.415,9.415,0,0,1,.474,1.007.428.428,0,0,0,.491.289c.1-.009.224,0,.262-.117s-.059-.188-.145-.248a3.621,3.621,0,0,1-.683-.58.37.37,0,0,1-.1-.424.446.446,0,0,1,.077-.015c.188-.062.383-.094.572-.15a.708.708,0,0,0,.564-.814,5.669,5.669,0,0,0-.094-.71c-.073-.377-.144-.755-.181-1.138-.01-.1-.028-.226.117-.247.125-.019.181.079.223.179a2.005,2.005,0,0,1,.079.333c.035.15.124.246.286.222.181-.026.221-.16.22-.322,0-.122-.114-.225-.052-.378a.579.579,0,0,1,.416.337c.031.058.064.114.1.17a26.562,26.562,0,0,0-5.866-9.151l-.161.047-.121-.006c-.213-.208-.314-.522-.615-.647-.2-.143-.408-.285-.608-.432-.048-.035-.105-.083-.084-.153a.153.153,0,0,1,.148-.1l.083,0q-.728-.645-1.5-1.237a2.133,2.133,0,0,1-1.041-.456.333.333,0,0,0-.395-.09.392.392,0,0,0-.241.338,1.1,1.1,0,0,0,.063.522,1.747,1.747,0,0,1,.028,1.248,1.61,1.61,0,0,0-.053.924,1.023,1.023,0,0,1-.162.856C1447.395,1648.787,1447.463,1649.073,1448.1,1649.479Z" transform="translate(-1406.987 -1639.378)" fill="#fff"/>
            <path id="Path_8738" data-name="Path 8738" d="M903.3,1671.413a.969.969,0,0,1-.6-.293,1.6,1.6,0,0,0-.868-.514c-.382-.1-.756-.225-1.138-.323a1.1,1.1,0,0,0-.929.125c-.192.132-.254.082-.283-.136-.052-.384-.219-.515-.6-.523a1.457,1.457,0,0,0-.714.19c-.143.074-.267.3-.407.229-.16-.081-.025-.3-.034-.464-.014-.266-.09-.321-.328-.191-.282.155-.553.332-.835.487-.09.049-.189.184-.3.081s-.059-.236-.036-.358a.442.442,0,0,1,.225-.286c.211-.134.424-.263.635-.4.327-.206.349-.328.09-.61a1.513,1.513,0,0,1-.414-.683.427.427,0,0,0-.3-.292,9.723,9.723,0,0,0-2.193-.583,3.229,3.229,0,0,1-1.641-.62.891.891,0,0,1-.417-.728c0-.209-.1-.3-.314-.279-.108.009-.266.073-.3-.121-.056-.3-.265-.278-.479-.219a6.022,6.022,0,0,1-.8.237,1.968,1.968,0,0,1-1.716-.41.236.236,0,0,0-.307-.054c-.114.059-.216.1-.206.263a2.453,2.453,0,0,1-.041.435c-.014.119-.057.253-.186.251a.273.273,0,0,1-.259-.264c-.009-.082.009-.166.007-.249a6,6,0,0,0,.043-.918,1.126,1.126,0,0,0-.336.269,1.42,1.42,0,0,1-.818.481.634.634,0,0,0-.6.573.513.513,0,0,1-.169.29,1.925,1.925,0,0,1-.846-.153,2.144,2.144,0,0,0-1.066-.116.53.53,0,0,1-.7-.431,2.358,2.358,0,0,1-.078-.52,5.612,5.612,0,0,0-.113-1.167l.008-.023-.017-.018a.527.527,0,0,0-.24-.4,1.335,1.335,0,0,0-1.174-.236c-.358.077-.449-.009-.375-.379a4.317,4.317,0,0,1,.278-.792,1.5,1.5,0,0,0,.091-1.151c-.1-.267-.275-.321-.513-.167a1.985,1.985,0,0,0-.529.608,1.677,1.677,0,0,1-.661.6.724.724,0,0,1-1.063-.36,1.259,1.259,0,0,1-.122-.511,5.509,5.509,0,0,0-.342-1.672,2.429,2.429,0,0,1,.936-2.741.7.7,0,0,1,.837-.021c.4.255.483.222.772-.137a.581.581,0,0,1,.871-.156.987.987,0,0,0,.8.168.346.346,0,0,1,.441.245,2.156,2.156,0,0,1,.117.418,2.983,2.983,0,0,0,.719,1.5c.125.149.3.347.494.211.176-.121.066-.344-.016-.513-.19-.393-.391-.78-.579-1.173a1.013,1.013,0,0,1,.04-1.124,8.7,8.7,0,0,1,1.736-1.781c.446-.308.5-.431.389-.963a6.593,6.593,0,0,1-.134-.892.61.61,0,0,1,.382-.593c.222-.115.266.126.428.214a.95.95,0,0,1,.709-.716.182.182,0,0,0,.113-.255c-.1-.232.02-.245.2-.225.083.01.166.013.249.023.478.054.564.006.7-.446a.485.485,0,0,1,.457-.4.859.859,0,0,0,.707-.448.38.38,0,0,1,.547-.18l.242.2c-.008.08.022.155.1.166.035,0,.087-.07.12-.116a1.672,1.672,0,0,0,.1-.182h0c.116-.043.131-.163.188-.25a.572.572,0,0,1,.812-.039.207.207,0,0,0,.173.039,4.225,4.225,0,0,0,1.269-.643.26.26,0,0,0,.081-.311.278.278,0,0,0-.289-.147,1.735,1.735,0,0,0-.664.147,1.244,1.244,0,0,1-.6.137c-.193-.009-.285-.087-.291-.282a2.9,2.9,0,0,0-.113-.737.449.449,0,0,0-.537-.357,1.625,1.625,0,0,0-1.108.566c-.094.114-.17.258-.377.3a.738.738,0,0,1,.338-.583c.281-.175.573-.334.859-.5a1.386,1.386,0,0,1,1.17-.131,1.262,1.262,0,0,0,.583.022,5.708,5.708,0,0,0,1.883-.6.172.172,0,0,1,.083-.032,2.133,2.133,0,0,0,1.029-.432l.078-.088a.27.27,0,0,0,.195-.193c.108-.16.027-.278-.1-.364a1.037,1.037,0,0,0-.917-.165c-.1.031-.2.066-.3.089-.08.019-.17.036-.221-.058s.016-.139.06-.194a.885.885,0,0,1,.686-.426.758.758,0,0,0-.512-.207,1.649,1.649,0,0,1-.955-.412c-.1-.106-.183-.21-.029-.336a.478.478,0,0,0,.131-.513,2.222,2.222,0,0,0-.4-.87c-.122-.169-.216-.173-.351-.017a2.208,2.208,0,0,1-1.121.7.628.628,0,0,1-.511-.043c-.429-.25-.432-.245-.1-.629a.74.74,0,0,0,.321-.433.486.486,0,0,0-.145-.21.773.773,0,0,0-.049-.077,2.914,2.914,0,0,0-1.2-.538c-.177-.014-.354,0-.531-.015-.42-.043-.453-.031-.611.348a2.675,2.675,0,0,1-.62,1.069.311.311,0,0,0-.057.376c.048.116.109.225.154.342a.611.611,0,0,1-.189.755,3.588,3.588,0,0,1-.384.267,1.441,1.441,0,0,0-.653.81c-.135.493-.312.97-.475,1.453,0,.025,0,.051,0,.077-.209.166-.278.141-.582-.145l.01-.049a1.721,1.721,0,0,1,.088-1.609.45.45,0,0,0,.03-.088c.026-.108.109-.228.011-.322s-.214,0-.318.035c-.164.058-.348.209-.5.111a4.264,4.264,0,0,0-.837-.393.355.355,0,0,1-.183-.205.706.706,0,0,0-.223-.294.332.332,0,0,1-.119-.414,1.262,1.262,0,0,0,.046-.675.425.425,0,0,1,.129-.4,4.533,4.533,0,0,1,1.183-.952,1.248,1.248,0,0,0,.612-.552.3.3,0,0,1,.3-.184,1.018,1.018,0,0,0,.777-.4,1.239,1.239,0,0,0,.274-.62c.006-.106.044-.136.161-.113a.489.489,0,0,0,.543-.3c.173,0,.357-.055.493.118.022.028.078.017.1-.034a1,1,0,0,1,.456-.239,1.416,1.416,0,0,0,.909-.9c.116-.317.045-.4-.293-.394l-.045.063c-.163.062-.361.061-.454.25a4.55,4.55,0,0,0-.5.663.314.314,0,0,1-.468.059c-.165-.114-.087-.25-.016-.383.037-.069.117-.117.1-.229-.283.042-.249-.089-.149-.27.2-.364.394-.732.615-1.146a1.2,1.2,0,0,0-.468.241,3.9,3.9,0,0,0-.936,1.224s0,.007,0,.01a.11.11,0,0,0-.066-.007,1.813,1.813,0,0,1-.6.241,8.074,8.074,0,0,1-.85.046,26.493,26.493,0,0,0-9.682,19.531c.027.072.056.144.09.214a7.333,7.333,0,0,1,.663,2.928,2.1,2.1,0,0,0,1.444,1.987c.443.176.877.374,1.311.57a1.068,1.068,0,0,1,.618.547c.182.52.6.657,1.053.8.257.079.5.189.756.284.281.2.6.368.7.746a.128.128,0,0,0,.037.125.023.023,0,0,0,.013.01h0a.562.562,0,0,0,.263.331c.366.25.734.5,1.112.73.355.217.431.183.51-.22.041-.206.12-.2.276-.122a2.236,2.236,0,0,1,.547.446,2.872,2.872,0,0,0,.177.252,1.519,1.519,0,0,1,.274,1.653c-.085.222-.148.453-.235.674a1.154,1.154,0,0,0,.191,1.249c.269.328.218.479-.185.633-.216.082-.289.208-.2.431a3.79,3.79,0,0,0,1.462,1.641,2.591,2.591,0,0,0,.517.411.3.3,0,0,0,.176.134.573.573,0,0,0,.236.189.452.452,0,0,0,.205.167.027.027,0,0,0,.036.023l.277.236c.042.093.13.169.126.28a1.2,1.2,0,0,0,.725,1.079,7.6,7.6,0,0,0,1.574.663,1.8,1.8,0,0,1,1.271,1.478,5.925,5.925,0,0,0,.888,2.178,6.382,6.382,0,0,1,.917,2.531,2.932,2.932,0,0,0,.265.891q1.054.353,2.145.619a.154.154,0,0,0,.02-.154c-.1-.169-.331-.234-.365-.452-.054-.343.131-.548.525-.592.41-.045.526-.3.292-.645-.082-.121-.169-.237-.246-.361-.031-.05-.086-.106-.049-.17s.126-.064.2-.048c.192.043.383.094.575.139.595.142.787.017.815-.6a1.5,1.5,0,0,1,.494-1.066c.527-.511.537-.641.233-1.314a.452.452,0,0,1,.121-.577,2,2,0,0,1,1.438-.567,1.371,1.371,0,0,0,1.318-.875,3.973,3.973,0,0,0,.222-.679,8.648,8.648,0,0,0,.144-1.708c0-.144.018-.368.206-.295.263.1.344-.071.471-.2q.289-.285.566-.582a2.233,2.233,0,0,0,.528-.909C903.8,1671.69,903.679,1671.483,903.3,1671.413Zm-20.454-6.4-.005-.011.007.007Zm0,0s0,0,0,0h0Zm-.021-.585a.1.1,0,0,1,.033-.006c.008.017.015.034.022.051A.564.564,0,0,0,882.823,1664.419Z" transform="translate(-875.953 -1631.375)" fill="#fff"/>
            <path id="Path_8739" data-name="Path 8739" d="M1171.761,1576.756a1.566,1.566,0,0,0-.325-.237c-.206-.122-.415-.238-.629-.345-.121-.061-.118-.1,0-.151.133.019.266.033.4.059s.29.035.335-.13-.134-.171-.233-.225c-.137-.093-.019-.143.036-.2.308-.327.29-.512-.073-.771-.056-.04-.186-.075-.152-.132.195-.333-.139-.277-.261-.362a1.628,1.628,0,0,1-.362-.235c0-.062,0-.125,0-.188a.061.061,0,0,0,.021-.057.2.2,0,0,0-.01-.276c-.153-.211-.162-.394.1-.525.091-.045.161-.116.14-.22a.134.134,0,0,0-.025-.058l-.343-.038a2.766,2.766,0,0,0-.846.137c-.159.056-.375-.108-.3-.232q-.821-.051-1.656-.051t-1.674.052c-.046.05-.139.026-.213.029l-.321.01q-.981.081-1.94.232a.779.779,0,0,1-.27.044q-.357.06-.711.129l-.006,0a.3.3,0,0,0,0,.068.076.076,0,0,1-.025-.006l-.026.058a.161.161,0,0,1-.033-.006.415.415,0,0,0-.11.074,1.565,1.565,0,0,1-1.19.494.414.414,0,0,0-.382.161.3.3,0,0,0-.036.084.328.328,0,0,0,.116.313c-.447.059-.47.081-.446.394a.581.581,0,0,0,.666.386c.372-.032.744-.08,1.116-.083a.684.684,0,0,1,.687.905,3.694,3.694,0,0,1-.252.6c-.079.178-.125.382.045.516a.49.49,0,0,1,.184.424c-.123.039-.218-.042-.321-.079-.142-.051-.269-.157-.39.051-.108.185-.172.347-.008.528a.6.6,0,0,0,.972-.243,1.613,1.613,0,0,1,.533-.008c-.116.214-.235.371-.477.384a.344.344,0,0,0-.313.261c-.039.106-.064.251-.144.3-.431.285-.328.667-.229,1.058.068.265.119.537.452.6.07.014.1.061.1.134a3.721,3.721,0,0,0,.319,1.036.945.945,0,0,0,.927.659.764.764,0,0,1,.542.2.481.481,0,0,0,.549.083.963.963,0,0,0,.652-.662,1.864,1.864,0,0,1,.489-.855.491.491,0,0,0,.17-.449c-.061-.291.1-.409.337-.456.336-.068.675-.125,1.016-.165a.7.7,0,0,0,.638-.467,1.428,1.428,0,0,1,.356-.505c.065-.066.205-.13.2-.183-.039-.366.227-.211.362-.205a2.5,2.5,0,0,0,1.636-.384c.188-.134.313-.275.14-.513a1.017,1.017,0,0,1,.176,0c.272.053.406-.147.512-.323S1171.881,1576.878,1171.761,1576.756Z" transform="translate(-1141.045 -1572.518)" fill="#fff"/>
            <path id="Path_8740" data-name="Path 8740" d="M1068.505,1621.311a.575.575,0,0,0,.333.141c.2-.073.376.053.566.065a2.668,2.668,0,0,0,1.05.063c.332-.069.387.08.428.321-.085.083-.4-.074-.259.245-.448.113-.709.435-.615.759.082,0,.165,0,.246-.01.424-.049.683-.427.515-.749.056-.065.126-.122.121-.216a1.029,1.029,0,0,0,.285.4c.174.206.157.3-.073.441a1.618,1.618,0,0,0-.531.37c-.1.094-.228.181-.232.32-.008.218-.125.211-.285.2a1.312,1.312,0,0,0-1.118.228c-.057.054-.177.06-.171.159s.11.115.18.155a1.044,1.044,0,0,0,.993-.1c.135-.057.238-.109.277.082.05.242.261.429.235.7.087.167.092.472.416.237.032-.023.123.009.172.038a4.092,4.092,0,0,0,.724.28c.093.035.2.1.287-.01s.03-.214-.022-.321c-.064-.131-.215-.211-.253-.425.108.064.167.1.228.133.259.14.535.539.749-.048,0-.012.036-.014.056-.019.158-.04.13-.15.112-.269-.041-.282-.079-.561-.394-.686-.026-.01-.043-.044-.064-.067-.107-.117-.024-.21.041-.3s.1-.213.261-.161c.117.038.2.077.183.233s.132.272.225.394c.124.163.231.172.355-.02a1.244,1.244,0,0,1,.73-.541c.09-.025.183-.058.2-.171s-.043-.169-.132-.223c-.153-.094-.318-.27-.432-.3-.2-.048-.133-.378-.374-.286-.275.105-.416-.056-.567-.266.124-.026.224-.049.326-.068.241-.045.157-.288.247-.426.061-.094-.048-.174-.161-.215-.188-.069-.213-.4-.5-.316,0-.018-.008-.035-.014-.052-.143-.377-.211-.406-.511-.216a.658.658,0,0,0-.373-.468l-.132-.123c.1-.1.239-.032.351-.08.1-.041.156-.1.135-.214a.153.153,0,0,0-.178-.134c-.175.011-.351.017-.525.039-.121.015-.247.094-.222.216.049.241-.136.237-.261.3-.1,0-.18-.014-.089-.134.062-.082.141-.151.2-.234.039-.054.106-.118.047-.192s-.135-.03-.2,0c-.233.1-.464.212-.7.319-.226.01-.332.2-.5.334a.2.2,0,0,0,.01-.147.638.638,0,0,0,.415-.25c.1-.047.205-.093.306-.143.056-.028.108-.065.083-.142a.128.128,0,0,0-.135-.1.6.6,0,0,0-.3.051c-.188.1-.387.184-.582.275-.006,0-.013,0-.019.014v0a.264.264,0,0,0-.188.036c-.076.04-.144.093-.216.138-.1.064-.184.144-.283.2-.273.153-.359.463-.558.679C1068.353,1621.133,1068.417,1621.242,1068.505,1621.311Z" transform="translate(-1055.368 -1616.456)" fill="#fff"/>
            <path id="Path_8741" data-name="Path 8741" d="M1436.151,1730.479a.534.534,0,0,1,.055-.007.43.43,0,0,1,.432.349c.036.109.119.2.191.163.356-.161.391.141.488.328.2.4.194.409-.2.538-.01.147.314.121.183.3-.241.318.026.376.206.493.084.054.2.063.257.162l-.509.4c-.143.13-.15.16-.055.241.142-.005.294.078.42-.051l.076-.07c.114-.359.4-.259.639-.218a1.045,1.045,0,0,0,.861-.1c.251-.239.26-.445.028-.745l-.1.185-.1-.183c-.049-.178-.184-.2-.341-.2-.091,0-.191.022-.221-.109a1.969,1.969,0,0,0-.722-.988c-.158-.143-.251-.384-.493-.4-.21-.017-.223-.117-.19-.281a1.814,1.814,0,0,0,.019-.279c.019-.438-.066-.5-.481-.353-.135.05-.252.107-.318-.08a.388.388,0,0,1,.029-.143c.046-.068.2-.094.125-.2-.058-.081-.193-.056-.289-.022a.31.31,0,0,0-.242.246C1435.669,1729.873,1436.18,1730.108,1436.151,1730.479Z" transform="translate(-1397.933 -1718.569)" fill="#fff"/>
            <path id="Path_8742" data-name="Path 8742" d="M1136.4,1780.442a2.364,2.364,0,0,0-.429.071c-.073.016-.129.019-.129-.07,0-.182-.141-.245-.3-.31a1.1,1.1,0,0,0,.417-.642.218.218,0,0,0-.258-.04,1.114,1.114,0,0,0-.793.753,1.549,1.549,0,0,1-.52.641,1.158,1.158,0,0,0-.316.4.173.173,0,0,0,.119.267.875.875,0,0,0,.338.023c.29-.017.581-.032.871-.038.1,0,.251.04.148.16s-.06.157.008.223a.2.2,0,0,0,.282.015c.1-.076.185-.162.28-.246a.739.739,0,0,0,.689.427c.056-.005.151.024.149-.063-.006-.213.1-.467-.055-.63-.174-.183.01-.49-.259-.61a.21.21,0,0,1,.017-.054C1136.807,1780.4,1136.575,1780.436,1136.4,1780.442Z" transform="translate(-1116.574 -1765.419)" fill="#fff"/>
            <path id="Path_8743" data-name="Path 8743" d="M1028.45,1649.235q-.233.172-.461.349A1.376,1.376,0,0,0,1028.45,1649.235Z" transform="translate(-1017.697 -1644.042)" fill="#fff"/>
            <path id="Path_8744" data-name="Path 8744" d="M1056.385,1630.229c.02-.024.04-.047.061-.07q-.242.148-.48.3A.527.527,0,0,0,1056.385,1630.229Z" transform="translate(-1043.78 -1626.257)" fill="#fff"/>
            <path id="Path_8745" data-name="Path 8745" d="M972.484,1987.438a.23.23,0,0,0,.367-.072c.1-.168-.051-.263-.158-.355a5.367,5.367,0,0,0-3.247-1.157,1.087,1.087,0,0,0-.694.132c-.22.135-.2.327-.09.513.129.221.242.023.352-.035.137-.073.267-.159.4-.243.084-.054.145-.061.2.041a.683.683,0,0,0,.494.289c.341.089.689.158,1.021.272.285.1.3.215.1.437-.119.129-.122.207.063.255a1.17,1.17,0,0,0,.847.006C972.239,1987.469,972.379,1987.371,972.484,1987.438Z" transform="translate(-962.312 -1957.865)" fill="#fff"/>
            <path id="Path_8746" data-name="Path 8746" d="M1337.489,1673.426a.7.7,0,0,0-.509-.092,3.642,3.642,0,0,0-.542.133,1.061,1.061,0,0,1-.979-.116.727.727,0,0,0-.329-.164c-.09,0-.208-.049-.266.03s.007.173.061.254a.48.48,0,0,1,.058.5c-.122.28-.048.418.245.5a.984.984,0,0,0,.524,0,1.471,1.471,0,0,1,.584-.039,1.378,1.378,0,0,0,1.21-.443C1337.819,1673.743,1337.813,1673.619,1337.489,1673.426Z" transform="translate(-1303.775 -1666.357)" fill="#fff"/>
            <path id="Path_8747" data-name="Path 8747" d="M1373.549,1587.119l0-.015a26.356,26.356,0,0,0-2.8-.93c0,.012,0,.024,0,.035.023.27.238.278.433.3.113.013.228.006.342.009a.636.636,0,0,1,.557.286.937.937,0,0,0,.917.472C1373.206,1587.287,1373.446,1587.376,1373.549,1587.119Z" transform="translate(-1337.261 -1585.25)" fill="#fff"/>
            <path id="Path_8748" data-name="Path 8748" d="M1423.412,1753.447c-.068.11.125.137.127.257l-.6.155c.021.132.248.19.059.33-.032.024-.007.095.033.1.329.053.182.271.153.441-.094.548-.014.627.544.523a1.4,1.4,0,0,0,.179-.052c.532-.175.655-.491.369-.972-.073-.123-.138-.194.047-.3.142-.079.11-.231-.043-.321a1.557,1.557,0,0,0-.551-.2C1423.623,1753.4,1423.483,1753.332,1423.412,1753.447Z" transform="translate(-1385.91 -1741.136)" fill="#fff"/>
            <path id="Path_8749" data-name="Path 8749" d="M1028.118,2008c.143.023.29.019.435.029a.286.286,0,0,1,.244.106c.2.284.344.317.553.022a1.153,1.153,0,0,1,.841-.446c.091-.016.209-.016.227-.123s-.093-.156-.172-.2a3.194,3.194,0,0,0-1.749-.323c-.174.013-.139.146-.119.26-.021.089.011.218-.161.186a.2.2,0,0,0-.223.061.269.269,0,0,0-.16.307C1027.868,2008.033,1028.017,2007.98,1028.118,2008Z" transform="translate(-1017.545 -1977.637)" fill="#fff"/>
            <path id="Path_8750" data-name="Path 8750" d="M1093.245,1605.388a5.3,5.3,0,0,1,1.181-.022.847.847,0,0,0,.648-.143c.094-.107.356-.157.126-.373l-.436-.068a.462.462,0,0,0-.288-.036c-.152.027-.311-.026-.459.046a.264.264,0,0,0,.118-.284q-.675.291-1.33.619C1092.834,1605.392,1093.037,1605.4,1093.245,1605.388Z" transform="translate(-1078.125 -1602.341)" fill="#fff"/>
            <path id="Path_8751" data-name="Path 8751" d="M1126.815,1583.547a.288.288,0,0,0,.165-.078l.136-.061a.615.615,0,0,1,.208-.015c.082,0,.121.051.152.115.228.088.388-.094.579-.149.1-.028.123-.1.071-.195-.016-.029.012-.05.051-.051a5.515,5.515,0,0,1,.626-.113,2.1,2.1,0,0,0,.464-.224.228.228,0,0,1,.232-.187,1.7,1.7,0,0,0,.759-.251,26.3,26.3,0,0,0-3.629,1.108C1126.653,1583.51,1126.712,1583.545,1126.815,1583.547Z" transform="translate(-1109.659 -1581.674)" fill="#fff"/>
            <path id="Path_8752" data-name="Path 8752" d="M1071.254,1620.369a.648.648,0,0,0,.12-.055c.069-.033.131-.077.2-.116s.117-.079.185-.1c.047-.034.109-.05.138-.107.057-.063.122-.124.081-.222a.673.673,0,0,0-.3-.052q-.311.169-.618.346l-.005.005a.191.191,0,0,0-.031.243A.177.177,0,0,0,1071.254,1620.369Z" transform="translate(-1057.785 -1616.518)" fill="#fff"/>
            <path id="Path_8753" data-name="Path 8753" d="M1002.608,2015.589c-.126-.011-.207.021-.163.171a1.733,1.733,0,0,0,.838.578c.25.119.271-.215.445-.3.054-.026.033-.1-.028-.116A6.5,6.5,0,0,0,1002.608,2015.589Z" transform="translate(-993.871 -1985.592)" fill="#fff"/>
            <path id="Path_8754" data-name="Path 8754" d="M1415.5,1601.447a.329.329,0,0,0,.093-.112q-.27-.116-.542-.227c.025.081.05.163.07.245C1415.191,1601.637,1415.35,1601.568,1415.5,1601.447Z" transform="translate(-1378.558 -1599.172)" fill="#fff"/>
            <path id="Path_8755" data-name="Path 8755" d="M1072.131,2016.391a.926.926,0,0,0-.18,0c-.083.023-.216-.073-.239.1s.094.186.2.209a1.065,1.065,0,0,1,.4.146.191.191,0,0,0,.2.022c.074-.044.044-.126.034-.2C1072.516,2016.377,1072.307,2016.366,1072.131,2016.391Z" transform="translate(-1058.457 -1986.334)" fill="#fff"/>
            <path id="Path_8756" data-name="Path 8756" d="M1426.735,1727.79c0-.061,0-.133-.078-.148s-.1.048-.117.11c-.049.145-.1.288-.176.487C1426.632,1728.153,1426.751,1728.022,1426.735,1727.79Z" transform="translate(-1389.103 -1717.138)" fill="#fff"/>
            <path id="Path_8757" data-name="Path 8757" d="M1117.919,1600.752l-.256.1A.33.33,0,0,0,1117.919,1600.752Z" transform="translate(-1101.3 -1598.841)" fill="#fff"/>
            <path id="Path_8758" data-name="Path 8758" d="M1147.915,1759.163c-.011.019.006.053.01.08.115-.032.246-.014.34-.135C1148.149,1759.118,1148.006,1759,1147.915,1759.163Z" transform="translate(-1129.501 -1746.448)" fill="#fff"/>
            <path id="Path_8759" data-name="Path 8759" d="M1327.646,1607.022l-.01.062h0a.274.274,0,0,0,.011.376,1.568,1.568,0,0,0,.823.232c.055.009.133.028.161-.05a.187.187,0,0,0-.026-.205,2.621,2.621,0,0,0-.874-.717c-.08-.022-.164-.037-.2.062S1327.549,1606.969,1327.646,1607.022Z" transform="translate(-1296.947 -1604.389)" fill="#fff"/>
            <path id="Path_8760" data-name="Path 8760" d="M1574.725,1858.839a.483.483,0,0,0-.058-.1.679.679,0,0,0-.434-.268c.261.361-.082.871.432,1.157a.585.585,0,0,1,0-.164C1574.747,1859.257,1574.284,1859,1574.725,1858.839Z" transform="translate(-1526.962 -1839.108)" fill="#fff"/>
            <path id="Path_8761" data-name="Path 8761" d="M1580.98,1857.678a.073.073,0,0,0,.06-.093.129.129,0,0,0-.142-.077.069.069,0,0,0-.059.089A.12.12,0,0,0,1580.98,1857.678Z" transform="translate(-1533.116 -1838.214)" fill="#fff"/>
            <path id="Path_8762" data-name="Path 8762" d="M1040.03,1680.842c-.182-.108-.045-.2-.024-.308a.5.5,0,0,0-.478-.2c-.191,0-.2-.056-.3.08a1.905,1.905,0,0,1-.63.631c-.021.011-.016.073-.022.112a.27.27,0,0,0,.4.032,3.536,3.536,0,0,1,.393-.231c.089,0,.15-.139.256-.051.052.061.053.151.135.2.125.072.231.272.392.107S1040.152,1680.915,1040.03,1680.842Z" transform="translate(-1027.57 -1673.022)" fill="#fff"/>
            <path id="Path_8763" data-name="Path 8763" d="M1054.2,1700.374c0,.117.1.073.164.073.249,0,.382-.235.312-.573a1.2,1.2,0,0,1-.4.266C1054.144,1700.17,1054.2,1700.292,1054.2,1700.374Z" transform="translate(-1042.121 -1691.252)" fill="#fff"/>
            <path id="Path_8764" data-name="Path 8764" d="M1042.5,1697.613a1.03,1.03,0,0,0,.7-.3A.686.686,0,0,0,1042.5,1697.613Z" transform="translate(-1031.225 -1688.861)" fill="#fff"/>
            <path id="Path_8765" data-name="Path 8765" d="M1092.529,1650.146a.748.748,0,0,0,.034-.108.505.505,0,0,0-.451.3.1.1,0,0,0,.029.078A.475.475,0,0,0,1092.529,1650.146Z" transform="translate(-1077.477 -1644.79)" fill="#fff"/>
            <path id="Path_8766" data-name="Path 8766" d="M1068.791,1693.41c-.063.008-.169-.03-.17.066,0,.113.111.13.2.139.054,0,.126.021.137-.062C1068.941,1693.452,1068.891,1693.4,1068.791,1693.41Z" transform="translate(-1055.578 -1685.224)" fill="#fff"/>
            <path id="Path_8767" data-name="Path 8767" d="M1086.691,1615.01c.022-.042.042-.085.068-.125l-.26.134C1086.554,1615.068,1086.622,1615.1,1086.691,1615.01Z" transform="translate(-1072.245 -1612.018)" fill="#fff"/>
          </g>
        </g>
      </g>
      <g id="Group_1815" data-name="Group 1815" transform="translate(21.244 0)">
        <g id="Group_1807" data-name="Group 1807" transform="translate(9.86 10.77)">
          <path id="Path_8768" data-name="Path 8768" d="M1501.464,567.422l.01-.058c0-.02.007-.04.01-.06.514-2.6,3.429-4.085,5.873-3.66h0a4.936,4.936,0,0,1,2.2.95,5.2,5.2,0,0,1,2.037,2.92l-8.8-46.138q-1.34,46.069-1.336,46.1h0Z" transform="translate(-1478.511 -521.375)" fill="url(#radial-gradient-3)"/>
          <path id="Path_8769" data-name="Path 8769" d="M1314.231,561.51l.17.032.043.009.125.026.057.013.11.025.06.015.1.026.064.017.1.027.067.019.094.027.067.021.092.029.068.022.09.03.069.024.087.031.069.026.084.032.069.028.082.033.071.03.079.033.071.031.077.034.07.033.075.035.071.035.073.036.071.036.071.037.07.038.068.037.071.04.066.038.071.042.064.038.071.043.061.038.071.045.059.038.07.047.057.038.07.049.055.039.069.051.053.039.069.053.05.039.069.055.048.039.068.057.046.039.068.059.044.038.068.061.042.038.067.063.039.037.067.066.037.037.066.068.035.037.064.069.033.037.064.072.031.036.063.074.029.035.062.076.027.034.061.078.026.033.06.08.023.033.059.083.022.031.057.085.021.031.055.087.019.03.054.089.017.029.052.091.016.028.05.093.014.027.048.095.013.026.046.1.011.025.044.1.01.024c.014.034.028.067.042.1l.009.023c.013.034.027.069.04.1l.008.022.037.1.007.021c.012.036.024.071.035.107l.006.019c.011.036.022.073.032.109l0,.018q.015.055.029.111l0,.017c.009.037.018.075.026.112l0,.016c.008.038.016.076.023.114l0,.015c.007.038.014.077.02.116l0,.013q.009.059.017.118v.012c.005.04.01.079.014.119v.011c0,.04.008.081.011.121v.01c0,.041.005.082.007.122,0,0,0,.006,0,.009q0,.062,0,.124v.007c0,.042,0,.084,0,.126v.005c0,.043,0,.085,0,.128v0c0,.043,0,.086-.008.129h0c0-.015,0-.029.005-.044s0-.035.006-.053c.006-.049.013-.1.021-.147h0q.668-23.051,1.336-46.1l-14.5,42.667C1308.346,562.055,1311.2,560.965,1314.231,561.51Z" transform="translate(-1297.268 -521.375)" fill="url(#radial-gradient-4)"/>
          <path id="Path_8770" data-name="Path 8770" d="M1167.071,559.318h.022l.135.01.126.013.058.006.041.006h0l.014,0q.085.012.169.026l.041.006a5.213,5.213,0,0,1,4.279,5q-.008.179-.032.36.04-.093.083-.183a4.647,4.647,0,0,1,.3-.525h0l14.5-42.667q-11.222,18.563-22.533,37.075l-1.748,2.86.007.005A5.474,5.474,0,0,1,1167.071,559.318Z" transform="translate(-1162.523 -521.375)" fill="url(#radial-gradient-5)"/>
        </g>
        <path id="Path_8771" data-name="Path 8771" d="M1033.717,1619.051c9.942,1.765,18.987-1.831,20.9-8.1a8.5,8.5,0,0,0,.238-.987c1.221-6.876-6.263-13.954-16.715-15.809s-19.914,2.214-21.135,9.09a8.437,8.437,0,0,0-.116.984C1016.5,1610.78,1023.764,1617.284,1033.717,1619.051Z" transform="translate(-1016.872 -1510.34)" opacity="0.38" fill="url(#radial-gradient-6)" style="mix-blend-mode: multiply;isolation: isolate"/>
        <path id="Path_8772" data-name="Path 8772" d="M1090.283,1637.207c7.816,1.388,14.928-1.44,16.431-6.371a6.643,6.643,0,0,0,.187-.776c.96-5.406-4.924-10.971-13.142-12.43s-15.658,1.741-16.617,7.147a6.667,6.667,0,0,0-.091.774C1076.748,1630.7,1082.457,1635.818,1090.283,1637.207Z" transform="translate(-1072.965 -1532.318)" fill="#fff"/>
        <g id="Group_1808" data-name="Group 1808" transform="translate(7.021 48.704)">
          <path id="Path_8773" data-name="Path 8773" d="M1374.082,1148.632a5.435,5.435,0,0,0-4.235-3.87c-2.444-.425-5.359,1.063-5.873,3.66,0,.116,0,.231,0,.346l-.008.033-.031.139-.09.4-.07.309-8.806,38.891L1353.96,1193a9.608,9.608,0,0,0,8.456-5.377c8.08-25.786,11.36-36.194,11.5-36.541,0,0,.017-.044.037-.1a4.034,4.034,0,0,0,.13-2.35Z" transform="translate(-1338.161 -1140.428)" fill="url(#linear-gradient)"/>
          <path id="Path_8774" data-name="Path 8774" d="M1230.384,1118.272h0c-.012.08-.023.161-.032.243.223-2.838-2.341-5.563-5.95-6.211-3.035-.545-5.885.545-7.179,2.533a4.548,4.548,0,0,0-.379.709c0,.033-.008.067-.013.1,0,0,0,.009,0,.013l-.121.324L1210.7,1161a18.285,18.285,0,0,0,9.7,1.676l1.01-4.458,8.806-38.891.07-.309.09-.4.031-.139.008-.033c0-.115,0-.231,0-.346C1230.4,1118.156,1230.393,1118.214,1230.384,1118.272Z" transform="translate(-1204.6 -1110.105)" fill="url(#radial-gradient-7)"/>
          <path id="Path_8775" data-name="Path 8775" d="M1126.684,1132.626l6.008-45.012.121-.325s0-.009,0-.013c.005-.033.009-.067.013-.1.341-2.57-1.844-4.916-4.248-5.362l-.041-.006c-.061-.011-.122-.02-.183-.029l-.044-.006c-.061-.008-.123-.013-.184-.019l-.135-.01h-.022a5.474,5.474,0,0,0-4.541,2,4.046,4.046,0,0,0-.849,2.2c-.009.124-.014.249-.012.378l-1.229,24.116q-.379,7.431-.757,14.863C1120.759,1128.145,1123.126,1130.9,1126.684,1132.626Z" transform="translate(-1120.583 -1081.734)" fill="url(#radial-gradient-8)"/>
        </g>
        <path id="Path_8776" data-name="Path 8776" d="M1234.941,1580.066l.106-.47.026-.115c0-.077,0-.154,0-.23-.008.038-.013.077-.019.115h0c-.012.076-.022.153-.027.231.2-1.913-1.522-3.765-3.953-4.2a4.679,4.679,0,0,0-4.776,1.685,3.025,3.025,0,0,0-.252.472c0,.025-.006.05-.01.075l-.08.216-1.858,13.919,7.875,1.414Z" transform="translate(-1210.069 -1493.185)" fill="#7cc7fa"/>
        <path id="Path_8777" data-name="Path 8777" d="M1499.985,1205.965l.09-.4.031-.139-.031.139Z" transform="translate(-1467.28 -1148.351)" fill="none"/>
        <g id="Group_1809" data-name="Group 1809" transform="translate(13.446 81.536)">
          <path id="Path_8778" data-name="Path 8778" d="M1223.848,1585.74l-7.875-1.414a.583.583,0,0,1-.474-.65l1.858-13.919a.591.591,0,0,1,.031-.126l.058-.155v-.011a.6.6,0,0,1,.041-.15,3.61,3.61,0,0,1,.3-.563,5.259,5.259,0,0,1,5.368-1.941c2.458.441,4.286,2.227,4.438,4.213a.582.582,0,0,1,.041.214v.231a.584.584,0,0,1-.014.129l-.133.586-2.969,13.111A.582.582,0,0,1,1223.848,1585.74Zm-7.122-2.462,6.78,1.217,2.846-12.568h0l.072-.317a.542.542,0,0,1,0-.063c0-.031,0-.062.008-.094.113-1.595-1.4-3.12-3.483-3.495a4.1,4.1,0,0,0-4.185,1.43,2.484,2.484,0,0,0-.174.313l0,.01a.579.579,0,0,1-.029.111l-.058.154Z" transform="translate(-1215.493 -1566.711)" fill="#fff"/>
        </g>
        <path id="Path_8779" data-name="Path 8779" d="M1541.985,363.462c2.061-1.3,3.451-1.3,4.351-1.041,1.8.517,2.152,2.21,4.157,3.2a7.016,7.016,0,0,0,4.577.386l-1.213,6.247c-2.9.408-4.608-.24-5.656-.98-1.52-1.072-1.782-2.453-3.212-2.887-1.478-.448-3.073.454-4.216,1.316Z" transform="translate(-1505.307 -362.286)" fill="#7cc7fa"/>
        <path id="Path_8780" data-name="Path 8780" d="M1501.132,382.917l.6.117a.372.372,0,0,0,.437-.295l2.61-13.445a.372.372,0,0,0-.294-.437l-.6-.117a.372.372,0,0,0-.437.295l-2.61,13.445A.372.372,0,0,0,1501.132,382.917Z" transform="translate(-1468.068 -368.298)" fill="#e6e6e6"/>
        <path id="Path_8781" data-name="Path 8781" d="M1412.549,521.375,1404.66,534.4a11.69,11.69,0,0,1,10.808,2.28Z" transform="translate(-1378.408 -510.605)" fill="url(#linear-gradient-2)"/>
        <g id="Group_1812" data-name="Group 1812" transform="translate(14.106 51.244)">
          <circle id="Ellipse_449" data-name="Ellipse 449" cx="7.285" cy="7.285" r="7.285" transform="translate(0 14.888) rotate(-45)" opacity="0.61" fill="url(#radial-gradient-9)" style="mix-blend-mode: multiply;isolation: isolate"/>
          <g id="Group_1810" data-name="Group 1810" transform="translate(0.623)">
            <circle id="Ellipse_450" data-name="Ellipse 450" cx="7.395" cy="7.395" r="7.395" transform="translate(0 10.458) rotate(-45)" fill="#606060"/>
            <circle id="Ellipse_451" data-name="Ellipse 451" cx="6.306" cy="6.306" r="6.306" transform="translate(1.54 10.458) rotate(-45)" fill="#fff"/>
          </g>
          <g id="Group_1811" data-name="Group 1811" transform="translate(4.175 3.552)">
            <rect id="Rectangle_295" data-name="Rectangle 295" width="3.63" height="0.817" transform="translate(7.083 3.574) rotate(-79.934)" fill="#606060"/>
            <rect id="Rectangle_296" data-name="Rectangle 296" width="3.63" height="0.817" transform="matrix(0.175, -0.985, 0.985, 0.175, 5.291, 13.669)" fill="#606060"/>
            <rect id="Rectangle_297" data-name="Rectangle 297" width="0.817" height="3.63" transform="translate(10.096 7.887) rotate(-79.934)" fill="#606060"/>
            <rect id="Rectangle_298" data-name="Rectangle 298" width="0.817" height="3.63" transform="matrix(0.175, -0.985, 0.985, 0.175, 0, 6.095)" fill="#606060"/>
          </g>
          <path id="Path_8782" data-name="Path 8782" d="M1349.782,1218.863a.859.859,0,0,0-.222-.01l-1.7-3.064-.555.309,1.69,3.038a.856.856,0,0,0-.169.871l-2.045,1.428.364.521,2.107-1.472a.862.862,0,1,0,.533-1.621Z" transform="translate(-1338.551 -1209.253)" fill="#606060"/>
        </g>
        <g id="Group_1813" data-name="Group 1813" transform="translate(29.01 64.371)">
          <path id="Path_8783" data-name="Path 8783" d="M1459.6,1325.091l.122-.4.03-.1.025-.2c-.009.032-.017.065-.025.1h0c-.016.064-.031.13-.043.2a3.473,3.473,0,0,0-2.14-3.929,2.8,2.8,0,0,0-3.335,1.086,3.049,3.049,0,0,0-.219.387c-.005.021-.009.043-.015.064l-.077.18-2.768,11.863,5.034,1.826Z" transform="translate(-1450.764 -1320.082)" fill="#7cc7fa"/>
          <path id="Path_8784" data-name="Path 8784" d="M1452.336,1313.346a3.156,3.156,0,0,0-3.753,1.261,3.573,3.573,0,0,0-.26.462.631.631,0,0,0-.044.126l0,.009-.055.129a.62.62,0,0,0-.035.106l-2.767,11.863a.5.5,0,0,0,.241.6l5.034,1.826c.2.071.412-.075.491-.332l3.41-11.081.152-.495a.688.688,0,0,0,.024-.11l.025-.2a.632.632,0,0,0,0-.188A3.943,3.943,0,0,0,1452.336,1313.346Zm-3.418,2.37.055-.128a.635.635,0,0,0,.032-.093l0-.009a2.475,2.475,0,0,1,.149-.256,2.409,2.409,0,0,1,2.513-1.024l-1.736,6.429-1.994-.723Zm-1.237,5.3,1.957.71-1.61,5.96-1.755-.637Zm2.926,7.605-1.755-.636,1.61-5.96,1.957.71Zm3.375-11.025c-.006.027-.011.054-.016.08s-.006.036-.008.054l-.083.268h0l-1.125,3.654-1.994-.723,1.734-6.423A2.992,2.992,0,0,1,1453.981,1317.6Z" transform="translate(-1445.402 -1313.15)" fill="#fff"/>
        </g>
        <g id="Group_1814" data-name="Group 1814" transform="translate(8.917 59.8)">
          <path id="Path_8785" data-name="Path 8785" d="M1161.08,1257.086l.054-.412.013-.1c0-.067-.005-.133-.008-.2,0,.033-.006.067-.009.1h0c-.005.066-.009.133-.01.2a3.473,3.473,0,0,0-2.767-3.516,2.8,2.8,0,0,0-3.107,1.628,3.038,3.038,0,0,0-.151.418c0,.022,0,.044,0,.066l-.046.19q-.373,6.079-.746,12.159l5.269.959Z" transform="translate(-1153.915 -1252.604)" fill="#7cc7fa"/>
          <path id="Path_8786" data-name="Path 8786" d="M1153.079,1245.689a3.157,3.157,0,0,0-3.49,1.87,3.612,3.612,0,0,0-.179.5.63.63,0,0,0-.022.131v.01l-.033.136a.653.653,0,0,0-.017.111l-.745,12.159a.5.5,0,0,0,.337.549l5.269.959c.205.037.394-.143.429-.409l1.51-11.495.067-.513a.648.648,0,0,0,0-.112l-.008-.2a.637.637,0,0,0-.035-.184A3.943,3.943,0,0,0,1153.079,1245.689Zm-2.974,2.909.033-.136a.623.623,0,0,0,.016-.1v-.009a2.44,2.44,0,0,1,.1-.278,2.41,2.41,0,0,1,2.307-1.429l-.637,6.629-2.087-.38Zm-.333,5.436,2.048.373-.591,6.145-1.836-.334Zm4.156,7.009-1.836-.334.591-6.145,2.048.373Zm1.485-11.433c0,.028,0,.055,0,.082s0,.037,0,.055l-.036.278h0l-.5,3.79-2.087-.38.637-6.623A2.993,2.993,0,0,1,1155.413,1249.61Z" transform="translate(-1148.591 -1245.636)" fill="#fff"/>
        </g>
        <path id="Path_8787" data-name="Path 8787" d="M1590.847,1146.706a4.935,4.935,0,0,0-2.2-.95A5.346,5.346,0,0,1,1590.847,1146.706Z" transform="translate(-1549.943 -1092.717)" fill="none"/>
        <path id="Path_8788" data-name="Path 8788" d="M1501.592,1200.709l-.01.058Z" transform="translate(-1468.769 -1143.95)" fill="none"/>
        <path id="Path_8789" data-name="Path 8789" d="M1488.878,1161.36l-.055-.087Z" transform="translate(-1456.873 -1107.184)" fill="none"/>
        <path id="Path_8790" data-name="Path 8790" d="M1491.012,1164.827l-.052-.091Z" transform="translate(-1458.866 -1110.412)" fill="none"/>
        <path id="Path_8791" data-name="Path 8791" d="M1489.968,1163.082l-.054-.089Z" transform="translate(-1457.89 -1108.788)" fill="none"/>
        <path id="Path_8792" data-name="Path 8792" d="M1492.008,1166.586l-.05-.093Z" transform="translate(-1459.796 -1112.051)" fill="none"/>
        <path id="Path_8793" data-name="Path 8793" d="M1494.705,1171.953c-.014-.033-.029-.066-.044-.1C1494.676,1171.887,1494.691,1171.92,1494.705,1171.953Z" transform="translate(-1462.316 -1117.049)" fill="none"/>
        <path id="Path_8794" data-name="Path 8794" d="M1492.957,1168.362l-.048-.095Z" transform="translate(-1460.683 -1113.704)" fill="none"/>
        <path id="Path_8795" data-name="Path 8795" d="M1496.256,1175.6c-.013-.034-.026-.069-.04-.1C1496.229,1175.533,1496.243,1175.568,1496.256,1175.6Z" transform="translate(-1463.766 -1120.447)" fill="none"/>
        <path id="Path_8796" data-name="Path 8796" d="M1493.855,1170.15l-.046-.1Z" transform="translate(-1461.522 -1115.37)" fill="none"/>
        <path id="Path_8797" data-name="Path 8797" d="M1495.5,1173.77c-.014-.034-.028-.068-.042-.1C1495.477,1173.7,1495.491,1173.736,1495.5,1173.77Z" transform="translate(-1463.064 -1118.741)" fill="none"/>
        <path id="Path_8798" data-name="Path 8798" d="M1479.977,1149.82l-.064-.071Z" transform="translate(-1448.566 -1096.44)" fill="none"/>
        <path id="Path_8799" data-name="Path 8799" d="M1481.379,1151.405l-.063-.074Z" transform="translate(-1449.875 -1097.915)" fill="none"/>
        <path id="Path_8800" data-name="Path 8800" d="M1478.53,1148.256l-.064-.069Z" transform="translate(-1447.217 -1094.984)" fill="none"/>
        <path id="Path_8801" data-name="Path 8801" d="M1482.739,1153.013l-.062-.076Z" transform="translate(-1451.143 -1099.412)" fill="none"/>
        <path id="Path_8802" data-name="Path 8802" d="M1486.557,1157.962l-.058-.083Z" transform="translate(-1454.707 -1104.02)" fill="none"/>
        <path id="Path_8803" data-name="Path 8803" d="M1487.74,1159.65l-.057-.085Z" transform="translate(-1455.811 -1105.592)" fill="none"/>
        <path id="Path_8804" data-name="Path 8804" d="M1485.331,1156.292l-.06-.08Z" transform="translate(-1453.562 -1102.466)" fill="none"/>
        <path id="Path_8805" data-name="Path 8805" d="M1484.057,1154.643l-.061-.078Z" transform="translate(-1452.373 -1100.93)" fill="none"/>
        <path id="Path_8806" data-name="Path 8806" d="M1500.053,1188.735q-.01-.058-.02-.116Q1500.044,1188.677,1500.053,1188.735Z" transform="translate(-1467.324 -1132.679)" fill="none"/>
        <path id="Path_8807" data-name="Path 8807" d="M1500.654,1192.564c0-.04-.009-.08-.014-.119C1500.645,1192.484,1500.65,1192.524,1500.654,1192.564Z" transform="translate(-1467.89 -1136.246)" fill="none"/>
        <path id="Path_8808" data-name="Path 8808" d="M1501.032,1196.422q0-.061-.007-.122Q1501.029,1196.361,1501.032,1196.422Z" transform="translate(-1468.249 -1139.84)" fill="none"/>
        <path id="Path_8809" data-name="Path 8809" d="M1500.871,1194.49q0-.061-.011-.121Q1500.866,1194.429,1500.871,1194.49Z" transform="translate(-1468.095 -1138.04)" fill="none"/>
        <path id="Path_8810" data-name="Path 8810" d="M1501.114,1202.24q0-.064,0-.128Q1501.117,1202.176,1501.114,1202.24Z" transform="translate(-1468.332 -1145.258)" fill="none"/>
        <path id="Path_8811" data-name="Path 8811" d="M1501.136,1198.362q0-.062,0-.124Q1501.136,1198.3,1501.136,1198.362Z" transform="translate(-1468.35 -1141.647)" fill="none"/>
        <path id="Path_8812" data-name="Path 8812" d="M1501.071,1204.547c0,.018,0,.035-.006.053C1501.067,1204.582,1501.069,1204.565,1501.071,1204.547Z" transform="translate(-1468.287 -1147.528)" fill="none"/>
        <path id="Path_8813" data-name="Path 8813" d="M1500.99,1204.184c0-.043.006-.086.008-.129C1501,1204.1,1500.993,1204.141,1500.99,1204.184Z" transform="translate(-1468.217 -1147.07)" fill="none"/>
        <path id="Path_8814" data-name="Path 8814" d="M1499.232,1184.93c-.008-.038-.017-.075-.026-.113C1499.215,1184.855,1499.224,1184.893,1499.232,1184.93Z" transform="translate(-1466.553 -1129.135)" fill="none"/>
        <path id="Path_8815" data-name="Path 8815" d="M1498.741,1183.043c-.009-.037-.019-.074-.029-.111C1498.722,1182.969,1498.732,1183.006,1498.741,1183.043Z" transform="translate(-1466.093 -1127.377)" fill="none"/>
        <path id="Path_8816" data-name="Path 8816" d="M1498.2,1181.168c-.01-.036-.021-.073-.032-.109C1498.178,1181.1,1498.189,1181.131,1498.2,1181.168Z" transform="translate(-1465.585 -1125.63)" fill="none"/>
        <path id="Path_8817" data-name="Path 8817" d="M1500.381,1190.645c-.005-.039-.011-.078-.017-.118C1500.37,1190.566,1500.376,1190.605,1500.381,1190.645Z" transform="translate(-1467.633 -1134.458)" fill="none"/>
        <path id="Path_8818" data-name="Path 8818" d="M1497.6,1179.3c-.011-.036-.023-.071-.035-.107C1497.58,1179.229,1497.592,1179.265,1497.6,1179.3Z" transform="translate(-1465.026 -1123.892)" fill="none"/>
        <path id="Path_8819" data-name="Path 8819" d="M1475.508,1145.195l-.067-.066Z" transform="translate(-1444.397 -1092.133)" fill="none"/>
        <path id="Path_8820" data-name="Path 8820" d="M1496.954,1177.445c-.012-.035-.024-.07-.037-.1C1496.93,1177.375,1496.942,1177.41,1496.954,1177.445Z" transform="translate(-1464.419 -1122.163)" fill="none"/>
        <path id="Path_8821" data-name="Path 8821" d="M1499.67,1186.83q-.011-.057-.023-.114Q1499.659,1186.773,1499.67,1186.83Z" transform="translate(-1466.964 -1130.904)" fill="none"/>
        <path id="Path_8822" data-name="Path 8822" d="M1415.643,1114.715l-.043-.009Z" transform="translate(-1388.607 -1063.769)" fill="none"/>
        <path id="Path_8823" data-name="Path 8823" d="M1443.7,1123.733l-.07-.033Z" transform="translate(-1414.739 -1072.155)" fill="none"/>
        <path id="Path_8824" data-name="Path 8824" d="M1432.5,1119.269l-.068-.024Z" transform="translate(-1404.301 -1068.001)" fill="none"/>
        <path id="Path_8825" data-name="Path 8825" d="M1430.176,1118.493l-.068-.022Z" transform="translate(-1402.133 -1067.28)" fill="none"/>
        <path id="Path_8826" data-name="Path 8826" d="M1427.82,1117.759l-.068-.021Z" transform="translate(-1399.938 -1066.596)" fill="none"/>
        <path id="Path_8827" data-name="Path 8827" d="M1441.517,1122.763l-.071-.031Z" transform="translate(-1412.704 -1071.252)" fill="none"/>
        <path id="Path_8828" data-name="Path 8828" d="M1437.069,1120.939l-.069-.027Z" transform="translate(-1408.559 -1069.555)" fill="none"/>
        <path id="Path_8829" data-name="Path 8829" d="M1439.31,1121.833l-.071-.03Z" transform="translate(-1410.646 -1070.386)" fill="none"/>
        <path id="Path_8830" data-name="Path 8830" d="M1434.8,1120.085l-.069-.026Z" transform="translate(-1406.443 -1068.76)" fill="none"/>
        <path id="Path_8831" data-name="Path 8831" d="M1473.939,1143.7l-.067-.063Z" transform="translate(-1442.934 -1090.746)" fill="none"/>
        <path id="Path_8832" data-name="Path 8832" d="M1501.178,1200.176c0,.042,0,.084,0,.126C1501.179,1200.26,1501.179,1200.218,1501.178,1200.176Z" transform="translate(-1468.392 -1143.453)" fill="none"/>
        <path id="Path_8833" data-name="Path 8833" d="M1420.6,1115.8l-.06-.015Z" transform="translate(-1393.211 -1064.779)" fill="none"/>
        <path id="Path_8834" data-name="Path 8834" d="M1423.033,1116.413l-.064-.017Z" transform="translate(-1395.478 -1065.345)" fill="none"/>
        <path id="Path_8835" data-name="Path 8835" d="M1425.441,1117.065l-.067-.019Z" transform="translate(-1397.72 -1065.951)" fill="none"/>
        <path id="Path_8836" data-name="Path 8836" d="M1418.136,1115.238l-.056-.013Z" transform="translate(-1390.92 -1064.253)" fill="none"/>
        <path id="Path_8837" data-name="Path 8837" d="M1476.973,1146.645l.066.067Z" transform="translate(-1445.825 -1093.546)" fill="none"/>
        <path id="Path_8838" data-name="Path 8838" d="M1467.257,1137.994l-.069-.055Z" transform="translate(-1436.703 -1085.43)" fill="none"/>
        <path id="Path_8839" data-name="Path 8839" d="M1468.986,1139.382l-.068-.057Z" transform="translate(-1438.316 -1086.722)" fill="none"/>
        <path id="Path_8840" data-name="Path 8840" d="M1461.841,1134l-.07-.049Z" transform="translate(-1431.653 -1081.714)" fill="none"/>
        <path id="Path_8841" data-name="Path 8841" d="M1463.686,1135.3l-.069-.051Z" transform="translate(-1433.374 -1082.926)" fill="none"/>
        <path id="Path_8842" data-name="Path 8842" d="M1465.491,1136.636l-.069-.053Z" transform="translate(-1435.057 -1084.165)" fill="none"/>
        <path id="Path_8843" data-name="Path 8843" d="M1472.328,1142.237l-.068-.061Z" transform="translate(-1441.432 -1089.38)" fill="none"/>
        <path id="Path_8844" data-name="Path 8844" d="M1445.846,1124.737l-.071-.035Z" transform="translate(-1416.74 -1073.089)" fill="none"/>
        <path id="Path_8845" data-name="Path 8845" d="M1470.677,1140.8l-.068-.059Z" transform="translate(-1439.893 -1088.038)" fill="none"/>
        <path id="Path_8846" data-name="Path 8846" d="M1454.117,1129.107l-.071-.042Z" transform="translate(-1424.451 -1077.156)" fill="none"/>
        <path id="Path_8847" data-name="Path 8847" d="M1450.049,1126.854l-.07-.038Z" transform="translate(-1420.659 -1075.06)" fill="none"/>
        <path id="Path_8848" data-name="Path 8848" d="M1452.1,1127.963l-.071-.04Z" transform="translate(-1422.569 -1076.092)" fill="none"/>
        <path id="Path_8849" data-name="Path 8849" d="M1447.962,1125.777l-.07-.036Z" transform="translate(-1418.713 -1074.057)" fill="none"/>
        <path id="Path_8850" data-name="Path 8850" d="M1458.051,1131.491l-.071-.045Z" transform="translate(-1428.118 -1079.376)" fill="none"/>
        <path id="Path_8851" data-name="Path 8851" d="M1459.964,1132.731l-.07-.047Z" transform="translate(-1429.902 -1080.53)" fill="none"/>
        <path id="Path_8852" data-name="Path 8852" d="M1456.1,1130.283l-.071-.044Z" transform="translate(-1426.3 -1078.251)" fill="none"/>
        <path id="Path_8853" data-name="Path 8853" d="M1233.887,1082.216l.058.006.041.006-.041-.006Z" transform="translate(-1219.196 -1033.479)" fill="none"/>
        <path id="Path_8854" data-name="Path 8854" d="M1301.453,1159.588q.039-.093.083-.183-.044.091-.083.183Z" transform="translate(-1282.188 -1105.443)" fill="none"/>
        <path id="Path_8855" data-name="Path 8855" d="M1235.811,1082.463l-.041-.006c-.056-.01-.113-.019-.169-.026.057.008.113.016.169.026l.041.006a5.213,5.213,0,0,1,4.279,5A5.213,5.213,0,0,0,1235.811,1082.463Z" transform="translate(-1220.794 -1033.678)" fill="none"/>
      </g>
    </g>
    <g id="Group_1821" data-name="Group 1821" transform="translate(422.091 477.043)">
      <g id="Group_1818" data-name="Group 1818" transform="translate(0.262 0)">
        <ellipse id="Ellipse_452" data-name="Ellipse 452" cx="26.589" cy="3.985" rx="26.589" ry="3.985" transform="translate(0 26.589) rotate(-30)" opacity="0.43" fill="url(#radial-gradient-10)" style="mix-blend-mode: multiply;isolation: isolate"/>
        <g id="Group_1817" data-name="Group 1817" transform="translate(4.987 0.043)">
          <path id="Path_8856" data-name="Path 8856" d="M1411.589,2068.914l-31.777,14.889a3.481,3.481,0,0,1,1.914,1.447,3.4,3.4,0,0,1,.51,1.7l30.118-17.144Z" transform="translate(-1370.666 -2068.181)" fill="#fd9a24"/>
          <path id="Path_8857" data-name="Path 8857" d="M1415.63,2099.254a3.1,3.1,0,0,1,1.021,1.872,3.065,3.065,0,0,1-.3,1.787l29.608-19.611q-.106-.6-.213-1.191Z" transform="translate(-1404.059 -2080.484)" fill="#f55f20"/>
          <path id="Path_8858" data-name="Path 8858" d="M1389.4,2061.374l-32.841,15.144a1.751,1.751,0,0,1,1.106,0,1.646,1.646,0,0,1,.468.255l31.777-14.889Z" transform="translate(-1348.99 -2061.151)" fill="#fbb124"/>
          <path id="Path_8859" data-name="Path 8859" d="M1794.222,2061.374l-3.446,1.574a2.617,2.617,0,0,1,1.4.851,2.734,2.734,0,0,1,.553,2.169l3.488-2.34a2.035,2.035,0,0,0-2-2.255Z" transform="translate(-1753.809 -2061.151)" fill="url(#linear-gradient-3)"/>
          <path id="Path_8860" data-name="Path 8860" d="M1257.3,2289.109a3.1,3.1,0,0,0-1.021-1.872,3.4,3.4,0,0,0-.51-1.7,3.479,3.479,0,0,0-1.914-1.447,1.643,1.643,0,0,0-.468-.255,1.752,1.752,0,0,0-1.106,0l-7.572,8.806L1257,2290.9A3.063,3.063,0,0,0,1257.3,2289.109Z" transform="translate(-1244.709 -2268.467)" fill="url(#linear-gradient-4)"/>
          <path id="Path_8861" data-name="Path 8861" d="M1843.258,2059.07a1.7,1.7,0,0,0-1.361-.978,1.77,1.77,0,0,0-1.079.239l.058-.026a2.036,2.036,0,0,1,2,2.254,1.108,1.108,0,0,0,.425-.468A1.251,1.251,0,0,0,1843.258,2059.07Z" transform="translate(-1800.463 -2058.082)" fill="#bf4040"/>
          <path id="Path_8862" data-name="Path 8862" d="M1249.176,2369.034a4.337,4.337,0,0,0-1.752-.52l-2.715,3.157,6.2-.88A4.388,4.388,0,0,0,1249.176,2369.034Z" transform="translate(-1244.709 -2347.499)" fill="url(#linear-gradient-5)"/>
        </g>
      </g>
      <g id="Group_1820" data-name="Group 1820" transform="translate(0 7.27)">
        <ellipse id="Ellipse_453" data-name="Ellipse 453" cx="30.172" cy="4.522" rx="30.172" ry="4.522" transform="translate(0 35.665) rotate(-36.23)" opacity="0.43" fill="url(#radial-gradient-11)" style="mix-blend-mode: multiply;isolation: isolate"/>
        <g id="Group_1819" data-name="Group 1819" transform="translate(5.334 0.015)">
          <path id="Path_8863" data-name="Path 8863" d="M1416.818,2178.031,1382.8,2198.74a3.951,3.951,0,0,1,2.338,1.4,3.855,3.855,0,0,1,.785,1.856l31.864-23.048Z" transform="translate(-1373.539 -2177.152)" fill="#8ed0fb"/>
          <path id="Path_8864" data-name="Path 8864" d="M1428.936,2214.572a3.517,3.517,0,0,1,1.382,1.986,3.478,3.478,0,0,1-.116,2.052l30.985-25.768-.387-1.318Z" transform="translate(-1416.549 -2189.732)" fill="#69bff9"/>
          <path id="Path_8865" data-name="Path 8865" d="M1391.294,2170.453l-35.182,21.128a1.987,1.987,0,0,1,1.248-.136,1.873,1.873,0,0,1,.559.23l34.014-20.709Z" transform="translate(-1348.655 -2170.087)" fill="#c6e9fe"/>
          <path id="Path_8866" data-name="Path 8866" d="M1824.947,2170.343l-3.693,2.2a2.966,2.966,0,0,1,1.688.787,3.1,3.1,0,0,1,.891,2.379l3.647-3.069a2.31,2.31,0,0,0-2.533-2.3Z" transform="translate(-1782.308 -2169.977)" fill="url(#linear-gradient-6)"/>
          <path id="Path_8867" data-name="Path 8867" d="M1259.722,2485.36a3.518,3.518,0,0,0-1.382-1.986,3.854,3.854,0,0,0-.785-1.857,3.951,3.951,0,0,0-2.338-1.4,1.875,1.875,0,0,0-.559-.23,1.986,1.986,0,0,0-1.248.136l-7.458,10.866,13.654-3.482A3.476,3.476,0,0,0,1259.722,2485.36Z" transform="translate(-1245.952 -2458.534)" fill="url(#linear-gradient-7)"/>
          <path id="Path_8868" data-name="Path 8868" d="M1877.734,2165.987a1.928,1.928,0,0,0-1.656-.936,2.013,2.013,0,0,0-1.188.4l.062-.037a2.31,2.31,0,0,1,2.533,2.3,1.259,1.259,0,0,0,.422-.58A1.419,1.419,0,0,0,1877.734,2165.987Z" transform="translate(-1832.313 -2165.051)" fill="#bf4040"/>
          <path id="Path_8869" data-name="Path 8869" d="M1250.666,2585.843a4.923,4.923,0,0,0-2.04-.371l-2.674,3.9,6.889-1.757A4.977,4.977,0,0,0,1250.666,2585.843Z" transform="translate(-1245.952 -2557.009)" fill="url(#linear-gradient-8)"/>
        </g>
      </g>
    </g>
    <g id="Group_1827" data-name="Group 1827" transform="translate(367.989 465.443)">
      <g id="Group_1822" data-name="Group 1822" transform="translate(0 26.251)">
        <ellipse id="Ellipse_454" data-name="Ellipse 454" cx="22.566" cy="9.079" rx="22.566" ry="9.079" transform="translate(0 8.131)" opacity="0.7" fill="url(#radial-gradient-12)" style="mix-blend-mode: multiply;isolation: isolate"/>
        <path id="Path_8870" data-name="Path 8870" d="M553.459,2490.522l-.641-.219-.035-.018-.037-.014a3.211,3.211,0,0,1-.73-.376,3.794,3.794,0,0,0,.534.286Z" transform="translate(-539.557 -2475.27)" fill="none"/>
        <path id="Path_8871" data-name="Path 8871" d="M536.362,2412.166a3.811,3.811,0,0,1-.534-.286,2.5,2.5,0,0,1-.546-.516,3.933,3.933,0,0,1-.455-3.357,2.507,2.507,0,0,1,1.225-1.717,1.566,1.566,0,0,1,1.1.052c1.749.623,5.722,1.962,11.221,3.815l6.222,2.1,0,0a3.547,3.547,0,0,0-1.726,2.006,3.825,3.825,0,0,0,1.726,4.151l-.005,0-17.323-5.912Z" transform="translate(-523.37 -2397.254)" fill="url(#linear-gradient-9)"/>
        <path id="Path_8872" data-name="Path 8872" d="M802.01,2354.062a3.547,3.547,0,0,1,1.726-2.006l10.881-10.416a3.058,3.058,0,0,0-.852,2.533,2.909,2.909,0,0,0,1.026,1.726l-.011.013-11.044,12.3A3.825,3.825,0,0,1,802.01,2354.062Z" transform="translate(-772.506 -2337.051)" fill="url(#linear-gradient-10)"/>
        <path id="Path_8873" data-name="Path 8873" d="M829.3,2416.879l11.055-12.313v1.275L829.3,2418.465Z" transform="translate(-798.072 -2395.717)" fill="url(#linear-gradient-11)"/>
        <path id="Path_8874" data-name="Path 8874" d="M829.3,2332.012l11.055-10.271v1.181L829.3,2333.5Z" transform="translate(-798.072 -2318.5)" fill="url(#linear-gradient-11)"/>
        <path id="Path_8875" data-name="Path 8875" d="M535.356,2399.15l-17.969-6.132-.035-.018-.037-.014a2.816,2.816,0,0,1-1.277-.892,3.934,3.934,0,0,1-.455-3.358,2.508,2.508,0,0,1,1.225-1.717,1.572,1.572,0,0,1,1.1.052c1.749.623,5.722,1.962,11.221,3.815,1.9.639,3.983,1.342,6.225,2.1v-1.477l-5.778-1.948c-5.493-1.851-9.461-3.189-11.2-3.808a2.937,2.937,0,0,0-2.07-.041,3.772,3.772,0,0,0-2.073,2.647,5.34,5.34,0,0,0,.7,4.593,4.176,4.176,0,0,0,1.857,1.332l18.566,6.434v-1.568Z" transform="translate(-504.126 -2377.984)" fill="url(#linear-gradient-13)"/>
        <path id="Path_8876" data-name="Path 8876" d="M543.671,2282.226a2.558,2.558,0,0,0-.3.137l-.013,0c6.558-3.951,11.436-6.758,12.734-7.417a3.01,3.01,0,0,1,1.866-.373,2.713,2.713,0,0,1,1.353.653l-12.447,7.431c-.442-.153-.818-.285-1.125-.394A2.935,2.935,0,0,0,543.671,2282.226Z" transform="translate(-531.489 -2274.498)" fill="url(#linear-gradient-14)"/>
        <path id="Path_8877" data-name="Path 8877" d="M595.14,2292.1h0l12.447-7.431,14.46,2.519-11.055,10.262-4.192-1.4-1.586-.535C600.691,2293.987,597.2,2292.811,595.14,2292.1Z" transform="translate(-579.763 -2283.935)" fill="url(#linear-gradient-15)"/>
        <path id="Path_8878" data-name="Path 8878" d="M514.256,2288.851a4.225,4.225,0,0,0,1.877,1.347l18.536,6.424.071.025.023-.026L545.817,2284v-1.414L534.7,2294.965l-17.934-6.12-.037-.019-.037-.014a2.77,2.77,0,0,1-1.256-.877,3.885,3.885,0,0,1-.446-3.316,2.464,2.464,0,0,1,1.2-1.686,1.527,1.527,0,0,1,1.069.053c1.747.622,5.716,1.96,11.208,3.811l.142.048,6.065,2.045.061.021.032-.031,11.055-10.583v-1.171l.054-.05-.054-.01v-.076l-.07.064-14.416-2.511a2.739,2.739,0,0,0-1.366-.655,3.054,3.054,0,0,0-1.895.377c-1.3.657-6.2,3.48-12.737,7.418l-.309.186.034-.01a4.246,4.246,0,0,0-1.508,2.358A5.388,5.388,0,0,0,514.256,2288.851Zm16.976-14.271-12.373,7.387-.005,0-.149-.052-.028-.01-.119-.041-.03-.011-.129-.044-.04-.014-.084-.029-.05-.018-.074-.026-.045-.015-.1-.036-.044-.016-.069-.024-.037-.013-.1-.036-.133-.044-.024-.007-.124-.036-.024-.007-.124-.031-.009,0-.116-.024-.02,0-.114-.019-.024,0-.112-.014h-.013l-.1-.009H516.8l-.1,0h-.137l-.092,0h-.012l-.094.006-.019,0-.089.01-.016,0-.083.012h-.007l-.083.015-.016,0-.078.017-.013,0-.077.02c6.287-3.781,10.974-6.477,12.236-7.116a2.968,2.968,0,0,1,1.837-.369A2.646,2.646,0,0,1,531.232,2274.58Zm14.43,2.554-10.957,10.18-4.156-1.39-1.6-.538c-4.118-1.387-7.439-2.507-9.55-3.233l-.042-.014-.169-.058-.056-.019-.117-.041-.045-.015,5.977-3.568,6.369-3.8Zm-10.9,11.617v-1.363l.005,0,10.956-10.171v1.045Zm0,7.728v-1.444l10.961-12.209v1.136Zm-21.122-12.236a3.932,3.932,0,0,1,1.753-2.482h0l.069-.036.008,0,.062-.03.026-.012.048-.021.078-.032.082-.03a2.605,2.605,0,0,1,.882-.134,3.356,3.356,0,0,1,1.074.205l.1.037.031.011.079.028.037.013.108.038.035.012.09.032.038.013.277.1h0l.23.08h0l.055.019.048.016.013,0h0c1.483.513,3.7,1.263,6.5,2.208l.09.031.138.047,3.328,1.122,1.587.535.006,0,4.154,1.4v1.378l-6.035-2.035-.142-.048c-5.492-1.851-9.46-3.188-11.207-3.81a1.616,1.616,0,0,0-1.134-.052,2.551,2.551,0,0,0-1.253,1.748,3.979,3.979,0,0,0,.463,3.4,2.859,2.859,0,0,0,1.3.908l.034.013.039.019,17.937,6.121v1.469l-18.5-6.413a4.128,4.128,0,0,1-1.835-1.317A5.293,5.293,0,0,1,513.641,2284.242Z" transform="translate(-503.486 -2273.855)" fill="url(#linear-gradient-16)"/>
      </g>
      <g id="Group_1825" data-name="Group 1825" transform="translate(10.303 13.694)">
        <ellipse id="Ellipse_455" data-name="Ellipse 455" cx="22.566" cy="9.079" rx="22.566" ry="9.079" transform="translate(0 7.161)" opacity="0.7" fill="url(#radial-gradient-13)" style="mix-blend-mode: multiply;isolation: isolate"/>
        <g id="Group_1824" data-name="Group 1824" transform="translate(4.32)">
          <path id="Path_8879" data-name="Path 8879" d="M1004.74,2305.044l.641-.219.035-.018.037-.014a3.219,3.219,0,0,0,.73-.377,3.83,3.83,0,0,1-.534.286Z" transform="translate(-976.257 -2289.792)" fill="none"/>
          <path id="Path_8880" data-name="Path 8880" d="M767.017,2226.688a3.82,3.82,0,0,0,.534-.286,2.51,2.51,0,0,0,.546-.516,3.933,3.933,0,0,0,.455-3.358,2.508,2.508,0,0,0-1.225-1.717,1.57,1.57,0,0,0-1.1.052c-1.748.623-5.722,1.962-11.221,3.815l-6.222,2.1,0,0a3.546,3.546,0,0,1,1.726,2.006,3.825,3.825,0,0,1-1.726,4.151l.005,0,17.323-5.912Z" transform="translate(-737.624 -2211.776)" fill="url(#linear-gradient-17)"/>
          <path id="Path_8881" data-name="Path 8881" d="M598.263,2168.583a3.546,3.546,0,0,0-1.726-2.006l-10.881-10.416a3.057,3.057,0,0,1,.852,2.533,2.907,2.907,0,0,1-1.026,1.726l.011.013,11.044,12.3A3.825,3.825,0,0,0,598.263,2168.583Z" transform="translate(-585.382 -2151.572)" fill="url(#linear-gradient-18)"/>
          <g id="Group_1823" data-name="Group 1823" transform="translate(0.101 0.047)">
            <path id="Path_8882" data-name="Path 8882" d="M596.538,2231.4l-11.055-12.313v1.275l11.055,12.624Z" transform="translate(-585.483 -2210.286)" fill="url(#linear-gradient-19)"/>
            <path id="Path_8883" data-name="Path 8883" d="M596.538,2146.534l-11.055-10.271v1.181l11.055,10.582Z" transform="translate(-585.483 -2133.069)" fill="url(#linear-gradient-19)"/>
            <path id="Path_8884" data-name="Path 8884" d="M748.779,2213.672l17.969-6.132.035-.018.037-.014a2.813,2.813,0,0,0,1.277-.893,3.932,3.932,0,0,0,.455-3.357,2.508,2.508,0,0,0-1.225-1.717,1.57,1.57,0,0,0-1.1.052c-1.748.623-5.722,1.962-11.221,3.815l-6.225,2.1v-1.477l5.778-1.948c5.493-1.851,9.462-3.189,11.2-3.807a2.936,2.936,0,0,1,2.07-.041,3.773,3.773,0,0,1,2.073,2.647,5.34,5.34,0,0,1-.7,4.593,4.177,4.177,0,0,1-1.857,1.332l-18.566,6.434v-1.568Z" transform="translate(-737.724 -2192.553)" fill="url(#linear-gradient-21)"/>
            <path id="Path_8885" data-name="Path 8885" d="M814.719,2096.748a2.517,2.517,0,0,1,.3.137l.013,0c-6.558-3.951-11.436-6.758-12.734-7.417a3.009,3.009,0,0,0-1.866-.373,2.709,2.709,0,0,0-1.353.653l12.447,7.431c.442-.153.818-.285,1.125-.394A2.936,2.936,0,0,1,814.719,2096.748Z" transform="translate(-784.617 -2089.066)" fill="url(#linear-gradient-22)"/>
            <path id="Path_8886" data-name="Path 8886" d="M612.39,2106.62h0l-12.447-7.431-14.46,2.519,11.055,10.262,4.192-1.4,1.587-.535C606.839,2108.509,610.328,2107.333,612.39,2106.62Z" transform="translate(-585.483 -2098.504)" fill="url(#linear-gradient-23)"/>
          </g>
          <path id="Path_8887" data-name="Path 8887" d="M616.316,2098.739a4.246,4.246,0,0,0-1.508-2.358l.034.01-.309-.186c-6.537-3.938-11.441-6.761-12.737-7.418a3.054,3.054,0,0,0-1.894-.377,2.741,2.741,0,0,0-1.366.656l-14.416,2.511-.07-.064v.077l-.054.009.054.05v1.171L595.1,2103.4l.032.031.061-.021,6.065-2.045.142-.048c5.492-1.851,9.461-3.188,11.208-3.811a1.524,1.524,0,0,1,1.069-.052,2.463,2.463,0,0,1,1.2,1.686,3.885,3.885,0,0,1-.447,3.316,2.769,2.769,0,0,1-1.256.877l-.037.014-.037.019-17.934,6.12L584.05,2097.1v1.414l11.055,12.625.023.026.071-.024,18.536-6.424a4.226,4.226,0,0,0,1.877-1.347A5.387,5.387,0,0,0,616.316,2098.739Zm-16.4-10.238a2.97,2.97,0,0,1,1.837.369c1.261.64,5.949,3.336,12.236,7.117l-.077-.02-.013,0-.078-.017-.016,0-.083-.015h-.007l-.083-.012-.016,0-.089-.01-.019,0-.093-.007H613.4l-.092,0h-.137l-.1,0h-.016l-.1.009h-.013l-.112.014-.024,0-.114.019-.02,0-.117.024-.009,0-.124.031-.024.007-.124.036-.023.008-.133.044-.1.036-.037.013-.069.025-.044.015-.1.036-.045.015-.074.026-.051.018-.084.03-.04.014-.128.044-.03.01-.119.042-.028.01-.148.051h0l-12.373-7.387A2.648,2.648,0,0,1,599.917,2088.5Zm-1.369.656,6.369,3.8,5.977,3.568-.045.016-.118.041-.056.019-.169.058-.041.014c-2.111.726-5.433,1.845-9.55,3.233l-1.6.538-4.156,1.39-10.957-10.18Zm-14.4,3.622v-1.045L595.1,2101.9l.005,0v1.363Zm0,5.7v-1.135l10.961,12.209V2111Zm31.394,4.833a4.131,4.131,0,0,1-1.835,1.316l-18.5,6.413v-1.469l17.937-6.121.039-.019.035-.013a2.858,2.858,0,0,0,1.3-.907,3.98,3.98,0,0,0,.463-3.4,2.552,2.552,0,0,0-1.253-1.748,1.615,1.615,0,0,0-1.134.052c-1.747.622-5.715,1.959-11.207,3.81l-.142.048-6.035,2.035v-1.379l4.154-1.4.006,0,1.587-.535,3.328-1.122.138-.047.09-.031c2.8-.945,5.015-1.695,6.5-2.208h0l.013,0,.048-.016.054-.019h0l.23-.08h0l.277-.1.038-.013.09-.032.035-.012.108-.038.037-.013.079-.028.031-.011.1-.037a3.355,3.355,0,0,1,1.074-.205,2.6,2.6,0,0,1,.882.134l.083.03.078.031.048.021.026.012.062.03.008,0,.069.036h0a3.931,3.931,0,0,1,1.753,2.482A5.293,5.293,0,0,1,615.537,2103.316Z" transform="translate(-583.996 -2088.376)" fill="url(#linear-gradient-24)"/>
        </g>
      </g>
      <g id="Group_1826" data-name="Group 1826" transform="translate(3.562)">
        <ellipse id="Ellipse_456" data-name="Ellipse 456" cx="22.566" cy="9.079" rx="22.566" ry="9.079" transform="translate(0 7.867)" opacity="0.7" fill="url(#radial-gradient-14)" style="mix-blend-mode: multiply;isolation: isolate"/>
        <path id="Path_8888" data-name="Path 8888" d="M593.4,2102.755l-.641-.219-.035-.018-.037-.014a3.226,3.226,0,0,1-.73-.377,3.769,3.769,0,0,0,.534.286Z" transform="translate(-580.36 -2087.503)" fill="none"/>
        <path id="Path_8889" data-name="Path 8889" d="M576.307,2024.4a3.817,3.817,0,0,1-.534-.286,2.512,2.512,0,0,1-.546-.516,3.933,3.933,0,0,1-.455-3.358,2.507,2.507,0,0,1,1.225-1.717,1.569,1.569,0,0,1,1.1.052c1.749.623,5.722,1.962,11.222,3.815l6.222,2.1,0,0a3.548,3.548,0,0,0-1.726,2.006,3.825,3.825,0,0,0,1.726,4.151l-.005,0-17.323-5.912Z" transform="translate(-564.173 -2009.488)" fill="url(#linear-gradient-9)"/>
        <path id="Path_8890" data-name="Path 8890" d="M841.956,1966.3a3.547,3.547,0,0,1,1.726-2.006l10.881-10.416a3.058,3.058,0,0,0-.852,2.533,2.908,2.908,0,0,0,1.026,1.726l-.011.013-11.044,12.3A3.825,3.825,0,0,1,841.956,1966.3Z" transform="translate(-813.309 -1949.284)" fill="url(#linear-gradient-26)"/>
        <path id="Path_8891" data-name="Path 8891" d="M869.246,2029.113,880.3,2016.8v1.275L869.246,2030.7Z" transform="translate(-838.874 -2007.951)" fill="url(#linear-gradient-27)"/>
        <path id="Path_8892" data-name="Path 8892" d="M869.246,1944.247l11.055-10.271v1.181l-11.055,10.583Z" transform="translate(-838.874 -1930.734)" fill="url(#linear-gradient-27)"/>
        <path id="Path_8893" data-name="Path 8893" d="M575.3,2011.384l-17.969-6.132-.035-.018-.037-.014a2.817,2.817,0,0,1-1.277-.893,3.932,3.932,0,0,1-.455-3.357,2.508,2.508,0,0,1,1.225-1.717,1.569,1.569,0,0,1,1.1.052c1.748.623,5.722,1.962,11.221,3.815l6.225,2.1v-1.477l-5.778-1.948c-5.493-1.851-9.462-3.188-11.2-3.807a2.938,2.938,0,0,0-2.07-.041,3.772,3.772,0,0,0-2.073,2.647,5.34,5.34,0,0,0,.7,4.593,4.175,4.175,0,0,0,1.857,1.332l18.566,6.434v-1.568Z" transform="translate(-544.93 -1990.219)" fill="url(#linear-gradient-29)"/>
        <path id="Path_8894" data-name="Path 8894" d="M583.616,1894.46a2.567,2.567,0,0,0-.3.137l-.013,0c6.558-3.951,11.436-6.758,12.734-7.416a3.009,3.009,0,0,1,1.866-.373,2.709,2.709,0,0,1,1.353.653l-12.447,7.431c-.442-.153-.818-.285-1.125-.394A2.938,2.938,0,0,0,583.616,1894.46Z" transform="translate(-572.291 -1886.732)" fill="url(#linear-gradient-30)"/>
        <path id="Path_8895" data-name="Path 8895" d="M635.086,1904.332h0l12.447-7.431,14.46,2.519-11.055,10.262-4.192-1.4-1.586-.535C640.637,1906.221,637.147,1905.045,635.086,1904.332Z" transform="translate(-620.566 -1896.169)" fill="url(#linear-gradient-15)"/>
        <path id="Path_8896" data-name="Path 8896" d="M554.2,1901.085a4.223,4.223,0,0,0,1.877,1.347l18.536,6.424.071.024.023-.026,11.055-12.624v-1.414L574.644,1907.2l-17.934-6.12-.037-.019-.037-.014a2.77,2.77,0,0,1-1.256-.877,3.885,3.885,0,0,1-.447-3.316,2.463,2.463,0,0,1,1.2-1.686,1.524,1.524,0,0,1,1.069.052c1.747.623,5.716,1.96,11.208,3.811l.142.048,6.065,2.045.061.021.032-.031,11.055-10.583v-1.171l.054-.05-.054-.009v-.077l-.07.065-14.416-2.511a2.742,2.742,0,0,0-1.366-.656,3.053,3.053,0,0,0-1.895.378c-1.3.657-6.2,3.48-12.737,7.418l-.309.186.034-.01a4.244,4.244,0,0,0-1.508,2.357A5.387,5.387,0,0,0,554.2,1901.085Zm16.976-14.271L558.8,1894.2l0,0-.149-.051-.028-.01-.118-.041-.03-.01-.128-.045-.04-.014-.084-.029-.05-.018-.074-.026-.045-.016-.1-.036-.044-.016-.069-.024-.037-.013-.1-.036c-.045-.016-.089-.031-.133-.045l-.023-.008-.124-.036-.024-.006-.124-.031-.009,0-.116-.024-.02,0-.114-.019-.023,0-.112-.014h-.013l-.1-.009h-.016l-.1,0H556.5l-.092,0H556.4l-.094.007-.02,0-.088.01-.016,0-.083.012h-.007l-.083.015-.016,0-.078.017-.013,0-.077.02c6.287-3.781,10.974-6.477,12.236-7.117a2.97,2.97,0,0,1,1.837-.369A2.648,2.648,0,0,1,571.177,1886.813Zm14.43,2.554-10.957,10.18-4.156-1.389-1.6-.538c-4.118-1.387-7.439-2.507-9.55-3.233l-.042-.014-.169-.058-.055-.019-.118-.041-.045-.016,5.977-3.568,6.369-3.8Zm-10.9,11.617v-1.363l.005,0,10.956-10.17v1.045Zm0,7.728v-1.444l10.961-12.209v1.135Zm-21.122-12.236a3.93,3.93,0,0,1,1.753-2.482h0l.069-.036.008,0,.062-.03.026-.012.048-.021.078-.031.083-.03a2.6,2.6,0,0,1,.882-.134,3.349,3.349,0,0,1,1.074.205l.1.037.031.011.079.028.037.013.108.038.035.012.09.032.038.013.277.1h0l.23.08h0l.055.019.047.017.013,0h0c1.483.513,3.7,1.263,6.5,2.208l.09.03.138.047,3.328,1.122,1.587.535.006,0,4.154,1.4v1.378l-6.035-2.035-.142-.048c-5.492-1.851-9.46-3.188-11.207-3.81a1.614,1.614,0,0,0-1.134-.052,2.551,2.551,0,0,0-1.253,1.748,3.98,3.98,0,0,0,.463,3.4,2.859,2.859,0,0,0,1.3.908l.034.013.039.019,17.937,6.121v1.469l-18.5-6.413a4.128,4.128,0,0,1-1.835-1.316A5.293,5.293,0,0,1,553.586,1896.476Z" transform="translate(-544.289 -1886.088)" fill="url(#linear-gradient-32)"/>
      </g>
    </g>
  </g>
</svg>
