<svg xmlns="http://www.w3.org/2000/svg" xmlns:xlink="http://www.w3.org/1999/xlink" width="104" height="110" viewBox="0 0 104 110">
  <defs>
    <clipPath id="clip-path">
      <rect id="Rectangle_142" data-name="Rectangle 142" width="104" height="110" transform="translate(45.893 25.457)" fill="#fff" stroke="#707070" stroke-width="1" opacity="0"/>
    </clipPath>
  </defs>
  <g id="Mask_Group_22" data-name="Mask Group 22" transform="translate(-45.893 -25.457)" clip-path="url(#clip-path)">
    <g id="icon" transform="translate(8.933)">
      <path id="Polygon_1" data-name="Polygon 1" d="M53.052,10.387a7,7,0,0,1,12.1,0L112.073,90.96a7,7,0,0,1-6.049,10.523H12.177A7,7,0,0,1,6.128,90.96Z" transform="translate(0 42.36) rotate(-21)" fill="#c3d2fe"/>
      <g id="atom" transform="translate(64.329 68.551)">
        <path id="Path_4145" data-name="Path 4145" d="M206.664,203.513a3.151,3.151,0,1,0,3.151,3.151A3.154,3.154,0,0,0,206.664,203.513Zm0,4.5a1.35,1.35,0,1,1,1.35-1.35A1.351,1.351,0,0,1,206.664,208.013Z" transform="translate(-192.829 -191.297)" fill="#10298a"/>
        <path id="Path_4146" data-name="Path 4146" d="M50.692,15.367q.267-.331.51-.663c1.984-2.719,2.5-5.212,1.458-7.02S49.2,5.077,45.851,5.436q-.409.044-.829.11-.153-.4-.319-.773C43.34,1.7,41.44,0,39.352,0S35.363,1.7,34,4.773q-.166.376-.319.773-.42-.066-.829-.11c-3.347-.359-5.765.439-6.809,2.247s-.526,4.3,1.458,7.02q.242.332.51.663-.267.331-.51.663c-1.984,2.719-2.5,5.212-1.458,7.02.881,1.525,2.738,2.332,5.305,2.332a14.111,14.111,0,0,0,1.5-.084q.409-.044.829-.11.153.4.319.773c1.362,3.078,3.263,4.773,5.351,4.773s3.988-1.7,5.351-4.773q.166-.376.319-.773.42.066.829.11a14.112,14.112,0,0,0,1.5.084c2.567,0,4.425-.807,5.305-2.332,1.044-1.808.526-4.3-1.458-7.02Q50.959,15.7,50.692,15.367Zm-4.649-8.14a12.376,12.376,0,0,1,1.317-.074c1.87,0,3.2.5,3.741,1.431.656,1.137.163,2.981-1.353,5.058-.087.119-.177.237-.268.356a26.73,26.73,0,0,0-3.073-2.7A26.731,26.731,0,0,0,45.6,7.281C45.749,7.261,45.9,7.242,46.043,7.226ZM42.1,20.132c-.913.527-1.834,1-2.751,1.416-.917-.415-1.839-.889-2.751-1.416s-1.784-1.088-2.6-1.675c-.1-1-.149-2.037-.149-3.091s.051-2.089.149-3.09c.818-.586,1.689-1.148,2.6-1.675s1.834-1,2.751-1.416c.917.415,1.839.889,2.751,1.416s1.784,1.088,2.6,1.675c.1,1,.149,2.037.149,3.09s-.051,2.089-.149,3.091C43.887,19.043,43.016,19.6,42.1,20.132Zm2.26.731a22.946,22.946,0,0,1-.538,2.251,22.931,22.931,0,0,1-2.219-.66q.7-.362,1.4-.763t1.359-.828ZM37.1,22.454a22.934,22.934,0,0,1-2.219.66,22.955,22.955,0,0,1-.538-2.251q.664.426,1.359.828t1.4.763Zm-5.011-5.5a22.937,22.937,0,0,1-1.681-1.591,22.948,22.948,0,0,1,1.681-1.591q-.037.788-.038,1.591T32.086,16.958ZM34.341,9.87a22.95,22.95,0,0,1,.538-2.251,22.93,22.93,0,0,1,2.219.66q-.7.362-1.4.763T34.341,9.87Zm7.266-1.591a22.935,22.935,0,0,1,2.219-.66,22.932,22.932,0,0,1,.538,2.251Q43.7,9.444,43,9.042t-1.4-.763Zm5.011,5.5A22.937,22.937,0,0,1,48.3,15.367a22.963,22.963,0,0,1-1.681,1.591q.037-.788.038-1.591T46.617,13.775ZM35.648,5.5c1.041-2.352,2.391-3.7,3.7-3.7s2.663,1.349,3.7,3.7c.059.134.117.272.174.41a26.732,26.732,0,0,0-3.878,1.309,26.725,26.725,0,0,0-3.878-1.309C35.53,5.773,35.588,5.636,35.648,5.5Zm-6.691,8.14c-1.516-2.078-2.01-3.921-1.353-5.058.538-.931,1.871-1.431,3.741-1.431a12.376,12.376,0,0,1,1.317.074c.146.016.294.034.442.055a26.732,26.732,0,0,0-.805,4.013A26.731,26.731,0,0,0,29.225,14C29.133,13.879,29.043,13.761,28.957,13.642Zm3.7,9.865c-2.558.274-4.4-.22-5.057-1.357s-.163-2.981,1.353-5.058c.087-.119.177-.237.268-.356a26.731,26.731,0,0,0,3.073,2.7,26.723,26.723,0,0,0,.805,4.013C32.954,23.472,32.807,23.491,32.661,23.507Zm10.4,1.725c-1.041,2.352-2.391,3.7-3.7,3.7s-2.663-1.349-3.7-3.7c-.059-.134-.117-.272-.174-.41a26.732,26.732,0,0,0,3.878-1.309,26.724,26.724,0,0,0,3.878,1.309C43.173,24.96,43.115,25.1,43.056,25.231ZM51.1,22.149c-.656,1.137-2.5,1.632-5.057,1.357-.146-.016-.294-.034-.442-.055a26.731,26.731,0,0,0,.805-4.013,26.724,26.724,0,0,0,3.073-2.7c.092.119.182.237.268.356,1.516,2.078,2.01,3.921,1.353,5.058Z" transform="translate(-25.517)" fill="#10298a"/>
      </g>
    </g>
  </g>
</svg>
