<svg xmlns="http://www.w3.org/2000/svg" xmlns:xlink="http://www.w3.org/1999/xlink" width="105" height="108" viewBox="0 0 105 108">
  <defs>
    <clipPath id="clip-path">
      <rect id="Rectangle_142" data-name="Rectangle 142" width="105" height="108" transform="translate(45.073 26.457)" fill="#fff" stroke="#707070" stroke-width="1" opacity="0"/>
    </clipPath>
  </defs>
  <g id="Mask_Group_23" data-name="Mask Group 23" transform="translate(-45.073 -26.457)" clip-path="url(#clip-path)">
    <g id="icon" transform="translate(8.933)">
      <path id="Polygon_1" data-name="Polygon 1" d="M53.052,10.387a7,7,0,0,1,12.1,0L112.073,90.96a7,7,0,0,1-6.049,10.523H12.177A7,7,0,0,1,6.128,90.96Z" transform="translate(0 42.36) rotate(-21)" fill="#c3d2fe"/>
      <g id="geolocation" transform="translate(61.583 63.844)">
        <path id="Path_4152" data-name="Path 4152" d="M308.379,12.52l.718.844c1.559-1.832,4.964-5.95,4.964-8.4a4.964,4.964,0,0,0-9.928,0c0,2.186,2.942,6.025,4.246,7.556ZM309.1,1.887a3.081,3.081,0,0,1,3.077,3.077c0,1.1-1.622,3.594-3.077,5.452-1.455-1.857-3.077-4.347-3.077-5.452A3.081,3.081,0,0,1,309.1,1.887Z" transform="translate(-285.007)" fill="#10298a"/>
        <path id="Path_4153" data-name="Path 4153" d="M16.979,15.093V0h-.943A16.036,16.036,0,1,0,32.072,16.036v-.943ZM9.784,3.337A26.737,26.737,0,0,0,8.3,8.292,26.543,26.543,0,0,0,3.339,9.78,14.067,14.067,0,0,1,9.784,3.337ZM2.371,12.353A20.471,20.471,0,0,1,7.952,10.3a39.955,39.955,0,0,0-.394,4.8H1.918a14.144,14.144,0,0,1,.453-2.74Zm-.453,4.626h5.64a39.955,39.955,0,0,0,.394,4.8,20.47,20.47,0,0,1-5.581-2.055A14.148,14.148,0,0,1,1.918,16.979Zm1.419,5.309A26.744,26.744,0,0,0,8.3,23.773a26.739,26.739,0,0,0,1.485,4.962A14.067,14.067,0,0,1,3.337,22.288Zm11.756,7.866a14.14,14.14,0,0,1-2.74-.453A20.473,20.473,0,0,1,10.3,24.12a39.955,39.955,0,0,0,4.8.394Zm0-7.527a37.811,37.811,0,0,1-5.178-.47,37.82,37.82,0,0,1-.47-5.178h5.648Zm0-7.535H9.444a37.811,37.811,0,0,1,.47-5.179,37.4,37.4,0,0,1,5.178-.47Zm0-7.536a39.8,39.8,0,0,0-4.794.389,20.464,20.464,0,0,1,2.054-5.575,14.137,14.137,0,0,1,2.74-.453ZM19.719,29.7a14.14,14.14,0,0,1-2.74.453v-5.64a39.966,39.966,0,0,0,4.8-.394A20.47,20.47,0,0,1,19.719,29.7Zm-2.74-7.074V16.979h5.649a37.412,37.412,0,0,1-.47,5.178A37.82,37.82,0,0,1,16.979,22.628Zm5.313,6.106a26.546,26.546,0,0,0,1.488-4.961,26.737,26.737,0,0,0,4.955-1.484,14.067,14.067,0,0,1-6.443,6.445ZM29.7,19.719a20.462,20.462,0,0,1-5.575,2.054,39.793,39.793,0,0,0,.389-4.794h5.639A14.136,14.136,0,0,1,29.7,19.719Z" transform="translate(0)" fill="#10298a"/>
        <path id="Path_4154" data-name="Path 4154" d="M367,64h2.012v1.887H367Z" transform="translate(-343.921 -59.975)" fill="#10298a"/>
      </g>
    </g>
  </g>
</svg>
