<svg id="facebook-2" xmlns="http://www.w3.org/2000/svg" width="36.273" height="36.245" viewBox="0 0 36.273 36.245">
  <circle id="Ellipse_1336" data-name="Ellipse 1336" cx="18.105" cy="18.105" r="18.105" fill="#fd7f01"/>
  <path id="Path_25249" data-name="Path 25249" d="M111.906,88.482l-9.189-9.189a12.37,12.37,0,1,0-17.49,17.49l9.582,9.582A18.137,18.137,0,0,0,111.906,88.482Z" transform="translate(-75.633 -70.119)" fill="#e67500"/>
  <path id="Path_25250" data-name="Path 25250" d="M102.542,96.559a12.343,12.343,0,1,0-3.533,2.487l5.29,1.092Z" transform="translate(-75.633 -70.119)" fill="#fff"/>
  <path id="Path_25251" data-name="Path 25251" d="M264.771,96.563l1.756,3.578-5.29-1.092A12.322,12.322,0,0,1,256,100.211V75.47a12.37,12.37,0,0,1,8.771,21.093Z" transform="translate(-237.862 -70.123)" fill="#fff5cb"/>
  <path id="Path_25252" data-name="Path 25252" d="M202.569,151.128V143.16H201.09v-2.671h1.479v-.949a6.33,6.33,0,0,1,.287-1.965,4.332,4.332,0,0,1,.817-1.5,3.555,3.555,0,0,1,1.28-.949,4.055,4.055,0,0,1,1.655-.331,7.769,7.769,0,0,1,3.024.684l-.64,2.649a4.471,4.471,0,0,0-.784-.254,3.6,3.6,0,0,0-.806-.1q-1.3,0-1.3,1.633v1.082h2.693v2.671H206.1v7.968Z" transform="translate(-186.843 -125.244)" fill="#4b5be5"/>
  <path id="Path_25253" data-name="Path 25253" d="M258.422,137.77a3.612,3.612,0,0,1,.806.1,4.5,4.5,0,0,1,.784.254l.64-2.649a7.776,7.776,0,0,0-3.024-.684,4.059,4.059,0,0,0-1.628.32v16.015h1.12v-7.969h2.693v-2.671H257.12V139.4Q257.12,137.77,258.422,137.77Z" transform="translate(-237.862 -125.24)" fill="#1c2ede"/>
</svg>
