<svg xmlns="http://www.w3.org/2000/svg" xmlns:xlink="http://www.w3.org/1999/xlink" width="86.116" height="93.031" viewBox="0 0 86.116 93.031">
  <defs>
    <linearGradient id="linear-gradient" x1="0.169" y1="0.128" x2="0.826" y2="0.923" gradientUnits="objectBoundingBox">
      <stop offset="0" stop-color="#ff7f00"/>
      <stop offset="0.255" stop-color="#f5912e"/>
      <stop offset="0.795" stop-color="#d86c00"/>
      <stop offset="0.92" stop-color="#e95d00"/>
      <stop offset="1" stop-color="#bc5e00"/>
    </linearGradient>
  </defs>
  <g id="info_icon" data-name="info icon" transform="translate(0)">
    <g id="Group_1462" data-name="Group 1462">
      <path id="Path_8155" data-name="Path 8155" d="M1588.467,1035.829a7.67,7.67,0,0,0-3.821,1.957,13.649,13.649,0,0,0-2.592,4.218l3.323.969S1584.049,1039.875,1588.467,1035.829Z" transform="translate(-1517.846 -970.909)" fill="#fae0b2"/>
      <path id="Path_8156" data-name="Path 8156" d="M1651.7,980.762l-.238-1.872-1.677-.865a.259.259,0,0,1,.008-.465l1.707-.8.3-1.862a.26.26,0,0,1,.445-.136l1.293,1.374,1.865-.286a.259.259,0,0,1,.267.381l-.908,1.654.848,1.686a.259.259,0,0,1-.28.371l-1.854-.352-1.341,1.328A.259.259,0,0,1,1651.7,980.762Z" transform="translate(-1580.47 -916.206)" fill="#f7cc7f"/>
      <path id="Path_8158" data-name="Path 8158" d="M823.565,1116.409l.238-1.872,1.677-.865a.259.259,0,0,0-.008-.465l-1.707-.8-.3-1.863a.259.259,0,0,0-.445-.136l-1.293,1.375-1.865-.286a.259.259,0,0,0-.267.381l.908,1.654-.848,1.686a.259.259,0,0,0,.28.371l1.854-.352,1.341,1.328A.259.259,0,0,0,823.565,1116.409Z" transform="translate(-819.558 -1034.605)" fill="#f7cc7f"/>
      <path id="Path_8159" data-name="Path 8159" d="M1871.426,1026.816l.514-.868-.424-.915a.139.139,0,0,1,.156-.193l.984.221.74-.686a.139.139,0,0,1,.232.089l.094,1,.881.492a.139.139,0,0,1-.013.248l-.926.4-.2.99a.139.139,0,0,1-.24.065l-.667-.757-1,.12A.139.139,0,0,1,1871.426,1026.816Z" transform="translate(-1804.054 -934.678)" fill="#466eb6"/>
      <path id="Path_8160" data-name="Path 8160" d="M1196.3,484.07l.649-1.1-.535-1.155a.175.175,0,0,1,.2-.244l1.242.278.933-.866a.175.175,0,0,1,.293.112l.119,1.267,1.112.62a.175.175,0,0,1-.016.313l-1.169.505-.246,1.249a.175.175,0,0,1-.3.082l-.841-.955-1.264.152A.175.175,0,0,1,1196.3,484.07Z" transform="translate(-1160.412 -463.435)" fill="#f79c8d"/>
      <path id="Path_8161" data-name="Path 8161" d="M2.751,0,1.038,1.143,2,2.805.359,4.005l.719,1.7L0,6.805l.556.546L2,5.882,1.316,4.27l1.7-1.249L2.078,1.386,3.629.35Z" transform="matrix(0.035, 0.999, -0.999, 0.035, 77.031, 22.906)" fill="#f48c7f"/>
      <path id="Path_8162" data-name="Path 8162" d="M1786.5,904.26l-1.212-1.664-1.622,1.024-1.266-1.587-1.671.788-1.141-1.033-.523.578,1.526,1.381,1.583-.746,1.317,1.651,1.6-1.007,1.1,1.508Z" transform="translate(-1700.385 -849.599)" fill="#f48c7f"/>
      <path id="Path_8163" data-name="Path 8163" d="M1061.925,380.823l.411-2.017-1.85-.506.317-2-1.709-.7-.008-1.539-.779,0,.01,2.059,1.619.665-.33,2.086,1.82.5-.373,1.828Z" transform="translate(-1014.524 -374.054)" fill="#f48c7f"/>
      <path id="Path_8164" data-name="Path 8164" d="M868.634,502.706l.784,1.463,1.69-.095.762,1.7,1.769-.656.947,1.887,1.7-.4,1.208,1.667-.631.457-.9-1.246-1.8.425-.91-1.814-1.8.667-.841-1.879-1.651.092-.726-1.356-1.071.287-.2-.753Z" transform="translate(-852.715 -481.533)" fill="#f7cc7f"/>
      <path id="Path_8165" data-name="Path 8165" d="M729.819,617.968l-1.248.127-.425-1.985-1.847-.04-.561-1.433-.726.284.751,1.917,1.75.038.443,2.065,1.877-.191Z" transform="translate(-723.771 -586.088)" fill="#50bfa5"/>
      <path id="Path_8166" data-name="Path 8166" d="M697.719,952.877l-.467,1.164L695.3,953.5l-.893,1.617-1.53-.168-.085.775,2.046.225.846-1.533,2.034.566.7-1.751Z" transform="translate(-676.087 -880.229)" fill="#50bfa5"/>
      <path id="Path_8171" data-name="Path 8171" d="M1809.975,760.607l.607,1.008a.154.154,0,0,0,.275-.023l.431-1.1,1.147-.266a.154.154,0,0,0,.063-.269l-.908-.749.1-1.173a.154.154,0,0,0-.236-.143l-.993.633-1.084-.459a.154.154,0,0,0-.209.18l.3,1.14-.771.889a.154.154,0,0,0,.107.254Z" transform="translate(-1753.799 -748.526)" fill="#f47458"/>
      <path id="Path_8172" data-name="Path 8172" d="M1779.866,1100.651a.7.7,0,1,1-.7-.7A.7.7,0,0,1,1779.866,1100.651Z" transform="translate(-1699.822 -1030.317)" fill="#50bfa5"/>
      <path id="Path_8173" data-name="Path 8173" d="M657.552,810.348a.765.765,0,1,1-.762-.7A.735.735,0,0,1,657.552,810.348Z" transform="translate(-649.965 -756.478)" fill="#50bfa5"/>
      <g id="Ellipse_130" data-name="Ellipse 130" transform="translate(29.587 11.031)" fill="none" stroke="#0dbc00" stroke-width="0.5">
        <circle cx="2.5" cy="2.5" r="2.5" stroke="none"/>
        <circle cx="2.5" cy="2.5" r="2.25" fill="none"/>
      </g>
      <circle id="Ellipse_131" data-name="Ellipse 131" cx="2" cy="2" r="2" transform="translate(43.587 82.031)" fill="#163d66"/>
      <circle id="Ellipse_132" data-name="Ellipse 132" cx="1.5" cy="1.5" r="1.5" transform="translate(81.587 14.031)" fill="#a384ee"/>
    </g>
    <circle id="Ellipse_129" data-name="Ellipse 129" cx="35" cy="35" r="35" transform="translate(10.587 12.031)" fill="url(#linear-gradient)"/>
    <g id="information-button" transform="translate(30.019 31.03)">
      <g id="Group_1626" data-name="Group 1626">
        <g id="Group_1625" data-name="Group 1625">
          <g id="Group_1624" data-name="Group 1624">
            <path id="Path_8488" data-name="Path 8488" d="M16.062,0A16.146,16.146,0,1,0,32.294,16.06,16.145,16.145,0,0,0,16.062,0Zm.16,29.659A13.515,13.515,0,1,1,29.665,16.07,13.513,13.513,0,0,1,16.222,29.659Zm2.392-6.449-.067-12.069-6.228.04.012,2.641,1.691-.009.05,9.424-1.794.006.014,2.523,7.817-.042L20.094,23.2ZM16.241,9.36a2.272,2.272,0,1,0,.033-4.535,2.259,2.259,0,0,0-2.408,2.285A2.233,2.233,0,0,0,16.241,9.36Z" transform="translate(-0.004 0)" fill="#fff"/>
          </g>
        </g>
      </g>
    </g>
  </g>
</svg>
