<svg id="login-bg" xmlns="http://www.w3.org/2000/svg" xmlns:xlink="http://www.w3.org/1999/xlink" width="1599.738" height="800" viewBox="0 0 1599.738 800">
  <defs>
    <radialGradient id="radial-gradient" cx="0.239" cy="0.292" r="1.75" gradientTransform="translate(0.146 0.058) scale(0.5 0.8)" gradientUnits="objectBoundingBox">
      <stop offset="0" stop-color="#fff"/>
      <stop offset="0.316" stop-color="#e9e9f0"/>
      <stop offset="1" stop-color="#dee0ff"/>
    </radialGradient>
    <clipPath id="clip-path">
      <rect id="Rectangle_867" data-name="Rectangle 867" width="1599.738" height="799.533" fill="none"/>
    </clipPath>
    <radialGradient id="radial-gradient-2" cx="0.5" cy="0.5" r="3.671" gradientTransform="translate(-2.447 3.935) scale(0.097 0.625)" gradientUnits="objectBoundingBox">
      <stop offset="0" stop-color="#d3dce6"/>
      <stop offset="0.066" stop-color="#c9d7e4"/>
      <stop offset="0.176" stop-color="#b0cbdf"/>
      <stop offset="0.316" stop-color="#86b7d8"/>
      <stop offset="0.479" stop-color="#4d9cce"/>
      <stop offset="0.567" stop-color="#2c8dc9"/>
      <stop offset="0.865" stop-color="#2774b0"/>
      <stop offset="0.994" stop-color="#1e5889"/>
    </radialGradient>
    <radialGradient id="radial-gradient-3" cy="0.5" r="1.546" gradientTransform="translate(-9.406 6.06) scale(0.246 0.625)" xlink:href="#radial-gradient-2"/>
    <radialGradient id="radial-gradient-4" cy="0.5" r="7.737" gradientTransform="translate(-0.424 3.389) scale(0.046 0.625)" xlink:href="#radial-gradient-2"/>
    <radialGradient id="radial-gradient-5" cy="0.5" r="7.379" gradientTransform="translate(-0.455 3.168) scale(0.048 0.625)" xlink:href="#radial-gradient-2"/>
    <radialGradient id="radial-gradient-6" cy="0.5" r="7.521" gradientTransform="translate(-0.669 3.331) scale(0.047 0.625)" xlink:href="#radial-gradient-2"/>
    <radialGradient id="radial-gradient-7" cy="0.5" r="4.271" gradientTransform="translate(-1.373 3.11) scale(0.084 0.625)" xlink:href="#radial-gradient-2"/>
    <radialGradient id="radial-gradient-8" cy="0.5" r="3.754" gradientTransform="translate(-1.118 2.536) scale(0.095 0.625)" xlink:href="#radial-gradient-2"/>
    <radialGradient id="radial-gradient-9" cy="0.5" r="7.803" gradientTransform="translate(0.014 3.284) scale(0.045 0.625)" xlink:href="#radial-gradient-2"/>
    <radialGradient id="radial-gradient-10" cy="0.5" r="7.44" gradientTransform="translate(-0.013 3.066) scale(0.048 0.625)" xlink:href="#radial-gradient-2"/>
    <radialGradient id="radial-gradient-11" cy="0.5" r="7.593" gradientTransform="translate(-0.217 3.227) scale(0.047 0.625)" xlink:href="#radial-gradient-2"/>
    <radialGradient id="radial-gradient-12" cy="0.5" r="7.226" gradientTransform="translate(-0.249 3.008) scale(0.049 0.625)" xlink:href="#radial-gradient-2"/>
    <radialGradient id="radial-gradient-13" cy="0.5" r="7.014" gradientTransform="translate(-0.49 2.952) scale(0.051 0.625)" xlink:href="#radial-gradient-2"/>
    <radialGradient id="radial-gradient-14" cy="0.5" r="7.85" gradientTransform="translate(0.429 3.18) scale(0.045 0.625)" xlink:href="#radial-gradient-2"/>
    <radialGradient id="radial-gradient-15" cy="0.5" r="7.484" gradientTransform="translate(0.404 2.964) scale(0.047 0.625)" xlink:href="#radial-gradient-2"/>
    <radialGradient id="radial-gradient-16" cy="0.5" r="7.647" gradientTransform="translate(0.21 3.123) scale(0.046 0.625)" xlink:href="#radial-gradient-2"/>
    <radialGradient id="radial-gradient-17" cy="0.5" r="7.277" gradientTransform="translate(0.182 2.907) scale(0.049 0.625)" xlink:href="#radial-gradient-2"/>
    <radialGradient id="radial-gradient-18" cy="0.5" r="6.908" gradientTransform="translate(0.156 2.697) scale(0.051 0.625)" xlink:href="#radial-gradient-2"/>
    <radialGradient id="radial-gradient-19" cy="0.5" r="7.071" gradientTransform="translate(-0.045 2.851) scale(0.05 0.625)" xlink:href="#radial-gradient-2"/>
    <radialGradient id="radial-gradient-20" cy="0.5" r="6.329" gradientTransform="translate(-0.1 2.441) scale(0.056 0.625)" xlink:href="#radial-gradient-2"/>
    <radialGradient id="radial-gradient-21" cy="0.5" r="6.493" gradientTransform="translate(-0.308 2.59) scale(0.055 0.625)" xlink:href="#radial-gradient-2"/>
    <radialGradient id="radial-gradient-22" cy="0.5" r="6.117" gradientTransform="translate(-0.341 2.387) scale(0.058 0.625)" xlink:href="#radial-gradient-2"/>
    <radialGradient id="radial-gradient-23" cy="0.5" r="5.217" gradientTransform="translate(-0.441 2.193) scale(0.068 0.625)" xlink:href="#radial-gradient-2"/>
    <radialGradient id="radial-gradient-24" cy="0.5" r="1.35" gradientTransform="translate(-6.345 4.382) scale(0.288 0.625)" xlink:href="#radial-gradient-2"/>
    <radialGradient id="radial-gradient-25" cy="0.5" r="6.739" gradientTransform="translate(0.352 2.546) scale(0.053 0.625)" xlink:href="#radial-gradient-2"/>
    <radialGradient id="radial-gradient-26" cy="0.5" r="6.363" gradientTransform="translate(0.326 2.347) scale(0.056 0.625)" xlink:href="#radial-gradient-2"/>
    <radialGradient id="radial-gradient-27" cy="0.5" r="6.536" gradientTransform="translate(0.129 2.494) scale(0.054 0.625)" xlink:href="#radial-gradient-2"/>
    <radialGradient id="radial-gradient-28" cy="0.5" r="6.156" gradientTransform="translate(0.1 2.294) scale(0.058 0.625)" xlink:href="#radial-gradient-2"/>
    <radialGradient id="radial-gradient-29" cy="0.5" r="5.778" gradientTransform="translate(0.073 2.103) scale(0.061 0.625)" xlink:href="#radial-gradient-2"/>
    <radialGradient id="radial-gradient-30" cy="0.5" r="5.951" gradientTransform="translate(-0.132 2.244) scale(0.06 0.625)" xlink:href="#radial-gradient-2"/>
    <radialGradient id="radial-gradient-31" cy="0.5" r="5.574" gradientTransform="translate(-0.161 2.054) scale(0.064 0.625)" xlink:href="#radial-gradient-2"/>
    <radialGradient id="radial-gradient-32" cy="0.5" r="5.194" gradientTransform="translate(-0.19 1.871) scale(0.068 0.625)" xlink:href="#radial-gradient-2"/>
    <radialGradient id="radial-gradient-33" cy="0.5" r="3.214" gradientTransform="translate(-0.869 2.006) scale(0.112 0.625)" xlink:href="#radial-gradient-2"/>
    <radialGradient id="radial-gradient-34" cy="0.5" r="1.166" gradientTransform="translate(-5.016 3.425) scale(0.347 0.625)" xlink:href="#radial-gradient-2"/>
    <radialGradient id="radial-gradient-35" cy="0.5" r="5.602" gradientTransform="translate(0.271 1.967) scale(0.063 0.625)" xlink:href="#radial-gradient-2"/>
    <radialGradient id="radial-gradient-36" cy="0.5" r="5.218" gradientTransform="translate(0.244 1.787) scale(0.068 0.625)" xlink:href="#radial-gradient-2"/>
    <radialGradient id="radial-gradient-37" cy="0.5" r="5.399" gradientTransform="translate(0.044 1.919) scale(0.066 0.625)" xlink:href="#radial-gradient-2"/>
    <radialGradient id="radial-gradient-38" cy="0.5" r="5.012" gradientTransform="translate(0.014 1.74) scale(0.071 0.625)" xlink:href="#radial-gradient-2"/>
    <radialGradient id="radial-gradient-39" cy="0.5" r="4.627" gradientTransform="translate(-0.014 1.57) scale(0.077 0.625)" xlink:href="#radial-gradient-2"/>
    <radialGradient id="radial-gradient-40" cy="0.5" r="2.938" gradientTransform="translate(-0.558 1.695) scale(0.123 0.625)" xlink:href="#radial-gradient-2"/>
    <radialGradient id="radial-gradient-41" cy="0.5" r="2.142" gradientTransform="translate(-0.971 1.713) scale(0.171 0.625)" xlink:href="#radial-gradient-2"/>
    <radialGradient id="radial-gradient-42" cy="0.5" r="0.994" gradientTransform="translate(-3.549 2.549) scale(0.433 0.625)" xlink:href="#radial-gradient-2"/>
    <radialGradient id="radial-gradient-43" cy="0.5" r="4.441" gradientTransform="translate(0.188 1.449) scale(0.08 0.625)" xlink:href="#radial-gradient-2"/>
    <radialGradient id="radial-gradient-44" cy="0.5" r="4.051" gradientTransform="translate(0.161 1.292) scale(0.088 0.625)" xlink:href="#radial-gradient-2"/>
    <radialGradient id="radial-gradient-45" cy="0.5" r="4.24" gradientTransform="translate(-0.042 1.407) scale(0.084 0.625)" xlink:href="#radial-gradient-2"/>
    <radialGradient id="radial-gradient-46" cy="0.5" r="2.372" gradientTransform="translate(-0.312 1.252) scale(0.153 0.625)" xlink:href="#radial-gradient-2"/>
    <radialGradient id="radial-gradient-47" cy="0.5" r="1.71" gradientTransform="translate(-0.608 1.233) scale(0.219 0.625)" xlink:href="#radial-gradient-2"/>
    <radialGradient id="radial-gradient-48" cy="0.5" r="8.08" gradientTransform="translate(1.025 3.139) scale(0.044 0.625)" xlink:href="#radial-gradient-2"/>
    <radialGradient id="radial-gradient-49" cy="0.5" r="7.713" gradientTransform="translate(1.003 2.924) scale(0.046 0.625)" xlink:href="#radial-gradient-2"/>
    <radialGradient id="radial-gradient-50" cy="0.5" r="7.888" gradientTransform="translate(0.822 3.082) scale(0.045 0.625)" xlink:href="#radial-gradient-2"/>
    <radialGradient id="radial-gradient-51" cy="0.5" r="7.516" gradientTransform="translate(0.797 2.867) scale(0.047 0.625)" xlink:href="#radial-gradient-2"/>
    <radialGradient id="radial-gradient-52" cy="0.5" r="7.145" gradientTransform="translate(0.774 2.659) scale(0.05 0.625)" xlink:href="#radial-gradient-2"/>
    <radialGradient id="radial-gradient-53" cy="0.5" r="7.32" gradientTransform="translate(0.588 2.812) scale(0.048 0.625)" xlink:href="#radial-gradient-2"/>
    <radialGradient id="radial-gradient-54" cy="0.5" r="6.34" gradientTransform="translate(1.592 3.036) scale(0.056 0.625)" xlink:href="#radial-gradient-2"/>
    <radialGradient id="radial-gradient-55" cy="0.5" r="6.081" gradientTransform="translate(1.56 2.824) scale(0.058 0.625)" xlink:href="#radial-gradient-2"/>
    <radialGradient id="radial-gradient-56" cy="0.5" r="7.902" gradientTransform="translate(1.201 2.98) scale(0.045 0.625)" xlink:href="#radial-gradient-2"/>
    <radialGradient id="radial-gradient-57" cy="0.5" r="7.528" gradientTransform="translate(1.176 2.767) scale(0.047 0.625)" xlink:href="#radial-gradient-2"/>
    <radialGradient id="radial-gradient-58" cy="0.5" r="7.339" gradientTransform="translate(0.977 2.713) scale(0.048 0.625)" xlink:href="#radial-gradient-2"/>
    <radialGradient id="radial-gradient-59" cy="0.5" r="6.587" gradientTransform="translate(0.931 2.31) scale(0.054 0.625)" xlink:href="#radial-gradient-2"/>
    <radialGradient id="radial-gradient-60" cy="0.5" r="6.77" gradientTransform="translate(0.75 2.456) scale(0.052 0.625)" xlink:href="#radial-gradient-2"/>
    <radialGradient id="radial-gradient-61" cy="0.5" r="6.389" gradientTransform="translate(0.724 2.258) scale(0.056 0.625)" xlink:href="#radial-gradient-2"/>
    <radialGradient id="radial-gradient-62" cy="0.5" r="6.008" gradientTransform="translate(0.699 2.068) scale(0.059 0.625)" xlink:href="#radial-gradient-2"/>
    <radialGradient id="radial-gradient-63" cy="0.5" r="6.192" gradientTransform="translate(0.513 2.208) scale(0.057 0.625)" xlink:href="#radial-gradient-2"/>
    <radialGradient id="radial-gradient-64" cy="0.5" r="2.338" gradientTransform="translate(2.613 2.531) scale(0.156 0.625)" xlink:href="#radial-gradient-2"/>
    <radialGradient id="radial-gradient-65" cy="0.5" r="6.396" gradientTransform="translate(1.103 2.167) scale(0.055 0.625)" xlink:href="#radial-gradient-2"/>
    <radialGradient id="radial-gradient-66" cy="0.5" r="6.204" gradientTransform="translate(0.903 2.118) scale(0.057 0.625)" xlink:href="#radial-gradient-2"/>
    <radialGradient id="radial-gradient-67" cy="0.5" r="5.436" gradientTransform="translate(0.853 1.754) scale(0.065 0.625)" xlink:href="#radial-gradient-2"/>
    <radialGradient id="radial-gradient-68" cy="0.5" r="5.627" gradientTransform="translate(0.673 1.885) scale(0.063 0.625)" xlink:href="#radial-gradient-2"/>
    <radialGradient id="radial-gradient-69" cy="0.5" r="5.237" gradientTransform="translate(0.645 1.708) scale(0.068 0.625)" xlink:href="#radial-gradient-2"/>
    <radialGradient id="radial-gradient-70" cy="0.5" r="4.849" gradientTransform="translate(0.619 1.539) scale(0.073 0.625)" xlink:href="#radial-gradient-2"/>
    <radialGradient id="radial-gradient-71" cy="0.5" r="5.039" gradientTransform="translate(0.433 1.663) scale(0.071 0.625)" xlink:href="#radial-gradient-2"/>
    <radialGradient id="radial-gradient-72" cy="0.499" r="117.3" gradientTransform="translate(32.45 1541.33) scale(0.003 0.625)" xlink:href="#radial-gradient-2"/>
    <radialGradient id="radial-gradient-73" cy="0.5" r="4.148" gradientTransform="translate(1.114 1.627) scale(0.086 0.625)" xlink:href="#radial-gradient-2"/>
    <radialGradient id="radial-gradient-74" cy="0.5" r="3.933" gradientTransform="translate(1.151 1.666) scale(0.091 0.625)" xlink:href="#radial-gradient-2"/>
    <radialGradient id="radial-gradient-75" cy="0.5" r="4.264" gradientTransform="translate(0.77 1.264) scale(0.084 0.625)" xlink:href="#radial-gradient-2"/>
    <radialGradient id="radial-gradient-76" cy="0.5" r="4.459" gradientTransform="translate(0.593 1.378) scale(0.08 0.625)" xlink:href="#radial-gradient-2"/>
    <radialGradient id="radial-gradient-77" cy="0.5" r="4.063" gradientTransform="translate(0.563 1.224) scale(0.088 0.625)" xlink:href="#radial-gradient-2"/>
    <radialGradient id="radial-gradient-78" cy="0.5" r="3.67" gradientTransform="translate(0.535 1.079) scale(0.098 0.625)" xlink:href="#radial-gradient-2"/>
    <radialGradient id="radial-gradient-79" cy="0.5" r="3.866" gradientTransform="translate(0.35 1.185) scale(0.092 0.625)" xlink:href="#radial-gradient-2"/>
    <radialGradient id="radial-gradient-80" cy="0.5" r="1.352" gradientTransform="translate(1.343 1.151) scale(0.288 0.625)" xlink:href="#radial-gradient-2"/>
    <radialGradient id="radial-gradient-81" cy="0.5" r="3.867" gradientTransform="translate(0.738 1.117) scale(0.092 0.625)" xlink:href="#radial-gradient-2"/>
    <radialGradient id="radial-gradient-82" cy="0.502" r="112.747" gradientTransform="translate(23.438 880.675) scale(0.003 0.625)" xlink:href="#radial-gradient-2"/>
    <radialGradient id="radial-gradient-83" cy="0.5" r="5.837" gradientTransform="translate(1.66 2.982) scale(0.061 0.625)" xlink:href="#radial-gradient-2"/>
    <radialGradient id="radial-gradient-84" cy="0.5" r="2.226" gradientTransform="translate(2.506 2.315) scale(0.164 0.625)" xlink:href="#radial-gradient-2"/>
    <radialGradient id="radial-gradient-85" cy="0.5" r="72.475" gradientTransform="translate(-0.39 0) scale(0.005 1)" xlink:href="#radial-gradient-2"/>
  </defs>
  <g id="Layer_3" data-name="Layer 3" transform="translate(0.329)">
    <rect id="Rectangle_866" data-name="Rectangle 866" width="1599" height="800" fill="url(#radial-gradient)"/>
  </g>
  <g id="Layer_13" data-name="Layer 13" transform="translate(0 0.299)">
    <g id="Group_3358" data-name="Group 3358">
      <g id="Group_3357" data-name="Group 3357" clip-path="url(#clip-path)">
        <g id="Group_3356" data-name="Group 3356" transform="translate(-228.504 572.147)" opacity="0.1">
          <path id="Path_12365" data-name="Path 12365" d="M7553.159,2369.993l-.081,0-90.187-3.56,23.607-5.24.307,0m.379.923-16.628,3.691,82.689,3.264" transform="translate(-5425.498 -2361.187)" opacity="0.5" fill="url(#radial-gradient-2)"/>
          <path id="Path_12366" data-name="Path 12366" d="M7749.026,2401.093l22.375-5.681.345,0m.421.923-16.2,4.113" transform="translate(-5642.278 -2387.113)" opacity="0.5" fill="url(#radial-gradient-3)"/>
          <path id="Path_12367" data-name="Path 12367" d="M6142.757,2382.406l-86.625-3.773,33.541-5.383.225,0,106.6-1.211.082,0,85.865,3.51-28.392,5.53-.271,0Zm-77.124-4.292,77.224,3.363,110.582-1.317,20.637-4.019-77.667-3.175-106.213,1.207Z" transform="translate(-4359.716 -2369.407)" opacity="0.5" fill="url(#radial-gradient-4)"/>
          <path id="Path_12368" data-name="Path 12368" d="M6371.6,2418.612l-.09,0-91.363-4.122,33.147-5.852.246,0,111.271-1.329.085,0,90.588,3.829L6488,2417.15Zm-82.636-4.662,82.739,3.732,115.612-1.451,20.506-4.489-83.106-3.512-110.854,1.324Z" transform="translate(-4529.434 -2396.125)" opacity="0.5" fill="url(#radial-gradient-5)"/>
          <path id="Path_12369" data-name="Path 12369" d="M6984.77,2391.516l-.086,0-90.874-3.825,28.1-5.529.274,0,106.54-1.24.081,0,89.891,3.56-22.64,5.679Zm-82.689-4.413,82.784,3.485,110.436-1.35,16.373-4.107-83.033-3.288-106.1,1.235Z" transform="translate(-4994.354 -2376.133)" opacity="0.5" fill="url(#radial-gradient-6)"/>
          <path id="Path_12370" data-name="Path 12370" d="M7268.313,2428.95l-.089,0-96.305-4.194,27.112-6.021.306,0,111.219-1.363.083,0m-.174.926-110.745,1.357-20.253,4.5,88.942,3.874" transform="translate(-5205.053 -2403.748)" opacity="0.5" fill="url(#radial-gradient-7)"/>
          <path id="Path_12371" data-name="Path 12371" d="M7228.523,2551.954l-.1-.005-110.459-5.583,30.686-7.768.341,0,128.093-1.808.1,0m-.2.925-127.559,1.8-24.715,6.257,103.934,5.253" transform="translate(-5164.173 -2494.223)" opacity="0.5" fill="url(#radial-gradient-8)"/>
          <path id="Path_12372" data-name="Path 12372" d="M4667.483,2399.142l-.095,0-82.18-3.991,44.051-5.536,111.469-1.267.089,0,82.067,3.716-39.058,5.692-.2,0Zm-71.311-4.4,71.426,3.469,115.746-1.379,29.459-4.293-72.182-3.268-110.939,1.26Z" transform="translate(-3245.321 -2381.762)" opacity="0.5" fill="url(#radial-gradient-9)"/>
          <path id="Path_12373" data-name="Path 12373" d="M4827.545,2437.012l-.1-.005-86.553-4.373,44.605-6.034.188,0,116.406-1.391,86.494,4.063-39.1,6.211-.221,0Zm-76.327-4.792,76.445,3.862,121.3-1.523,30.209-4.8-77.189-3.626-116.03,1.386Z" transform="translate(-3363.27 -2409.69)" opacity="0.5" fill="url(#radial-gradient-10)"/>
          <path id="Path_12374" data-name="Path 12374" d="M5509.85,2408.663l-86.773-4.058,38.751-5.69.206,0,111.284-1.3,86.332,3.773-33.433,5.85-.245,0Zm-76.82-4.527,76.929,3.6,115.692-1.414,25.069-4.387-77.5-3.388-110.9,1.292Z" transform="translate(-3880.102 -2388.787)" opacity="0.5" fill="url(#radial-gradient-11)"/>
          <path id="Path_12375" data-name="Path 12375" d="M5724.389,2447.84l-.1,0-91.668-4.452,38.718-6.215.224,0,116.419-1.427.09,0,91.144,4.127-32.841,6.4-.269,0Zm-82.486-4.94,82.6,4.012,121.258-1.565L5871,2440.43l-83.115-3.763-116.013,1.423Z" transform="translate(-4038.86 -2417.668)" opacity="0.5" fill="url(#radial-gradient-12)"/>
          <path id="Path_12376" data-name="Path 12376" d="M6636.38,2458.61l-.094,0-96.919-4.533,32.507-6.4,116.632-1.468.089,0,96.009,4.2-26.242,6.582-.339,0Zm-88.9-5.091,89,4.163,121.114-1.608,20.072-5.034-89.264-3.9L6572.5,2448.6Z" transform="translate(-4725.821 -2425.601)" opacity="0.5" fill="url(#radial-gradient-13)"/>
          <path id="Path_12377" data-name="Path 12377" d="M3125.865,2416.655l-.1-.006-77.041-4.229,55.188-5.7,116.446-1.324.1,0,77.57,3.935-50.376,5.866-.161,0Zm-65.152-4.513,65.288,3.584,121.247-1.446,39.382-4.586-66.4-3.369-115.965,1.319Z" transform="translate(-2081.254 -2394.681)" opacity="0.5" fill="url(#radial-gradient-14)"/>
          <path id="Path_12378" data-name="Path 12378" d="M3210.356,2456.31l-.109-.007-80.865-4.641,56.808-6.231,122.06-1.459.1.005,81.436,4.3-51.5,6.42Zm-69.591-4.932,69.732,4,127.369-1.6,41.157-5.131-70.9-3.747-121.553,1.453Z" transform="translate(-2142.365 -2423.906)" opacity="0.5" fill="url(#radial-gradient-15)"/>
          <path id="Path_12379" data-name="Path 12379" d="M3967.738,2426.617l-.1-.005-81.708-4.3,50.044-5.863.162,0,116.356-1.355.094,0,81.907,3.994-44.9,6.034-.186,0Zm-70.587-4.649,70.714,3.719,121.278-1.484,34.881-4.688-71.652-3.494-116,1.352Z" transform="translate(-2715.535 -2402.027)" opacity="0.5" fill="url(#radial-gradient-16)"/>
          <path id="Path_12380" data-name="Path 12380" d="M4106.291,2467.665l-.106-.006-86.159-4.729,51.1-6.423.174,0,122-1.5.1,0,86.349,4.38-45.4,6.617-.2,0Zm-75.675-5.09,75.808,4.162,127.435-1.646,36.074-5.259-76.762-3.894-121.624,1.492Z" transform="translate(-2817.129 -2432.267)" opacity="0.5" fill="url(#radial-gradient-17)"/>
          <path id="Path_12381" data-name="Path 12381" d="M4250.644,2512.76l-.111-.006-91.143-5.231,52.24-7.07.187,0,128.173-1.66.1.006,91.319,4.827-45.9,7.293-.22,0Zm-81.288-5.6,81.426,4.673,134.2-1.835,37.265-5.921-82.388-4.355-127.777,1.655Z" transform="translate(-2922.714 -2465.437)" opacity="0.5" fill="url(#radial-gradient-18)"/>
          <path id="Path_12382" data-name="Path 12382" d="M5018.476,2478.965l-91.7-4.823,45.041-6.616.2,0,122.008-1.537.1,0,91.387,4.456-38.938,6.817-.243,0Zm-82.032-5.251,82.156,4.322,127.4-1.692,30.776-5.388-82.868-4.041-121.61,1.532Z" transform="translate(-3504.096 -2440.585)" opacity="0.5" fill="url(#radial-gradient-19)"/>
          <path id="Path_12383" data-name="Path 12383" d="M5433.261,2577.185l-.113-.007-103.815-5.962,45.939-8.091.242,0,135.027-1.907.105.005,103.427,5.47-38.3,8.359-.3,0Zm-95.544-6.424,95.677,5.495,141.693-2.124,31.6-6.9-96.265-5.09-134.574,1.9Z" transform="translate(-3809.081 -2512.731)" opacity="0.5" fill="url(#radial-gradient-20)"/>
          <path id="Path_12384" data-name="Path 12384" d="M6206.816,2538.4l-.105-.006-103.7-5.458,38.35-7.525.27,0,128.157-1.756.1,0,102.928,5.021-31.057,7.763Zm-95.859-5.981,95.979,5.051,134.054-1.946,24.985-6.246-96.3-4.7-127.69,1.75Z" transform="translate(-4395.229 -2484.27)" opacity="0.5" fill="url(#radial-gradient-21)"/>
          <path id="Path_12385" data-name="Path 12385" d="M6502.274,2592.127l-.111-.006-111.253-6.11,37.79-8.368.3,0,135-1.967.1,0,110.288,5.6-29.569,8.645-.383.006Zm-104.1-6.654L6502.4,2591.2,6643.96,2589l24.306-7.105-104.377-5.3-134.494,1.959Z" transform="translate(-4613.349 -2523.684)" opacity="0.5" fill="url(#radial-gradient-22)"/>
          <path id="Path_12386" data-name="Path 12386" d="M6974.4,2649.561l-.441.007-150.57,2.5-.116-.007-119.948-6.889,36.989-9.365,142.9-2.221.107.006m-.225.924-142.011,2.207-31.166,7.89,113.595,6.523,149.9-2.487" transform="translate(-4850.041 -2567.561)" opacity="0.5" fill="url(#radial-gradient-23)"/>
          <path id="Path_12387" data-name="Path 12387" d="M7475.277,2607.127l29.127-8.647.389-.006m.483.921-23.964,7.114" transform="translate(-5434.882 -2540.959)" opacity="0.5" fill="url(#radial-gradient-24)"/>
          <path id="Path_12388" data-name="Path 12388" d="M3419.268,2549.283l-90.332-5.7,60.423-7.582.172,0,134.944-1.8.111.007,90.863,5.242-53.832,7.832-.2,0Zm-80.177-6,80.331,5.072,141.707-2,44.824-6.521-81.617-4.708-134.548,1.793Z" transform="translate(-2293.55 -2492.262)" opacity="0.5" fill="url(#radial-gradient-25)"/>
          <path id="Path_12389" data-name="Path 12389" d="M3536.848,2603.861l-.127-.008-95.874-6.374,62.5-8.442.185,0,142.547-2.014.116.007,96.566,5.839-55.086,8.734Zm-86.455-6.688,86.616,5.759,150.137-2.252,46.747-7.412-87.96-5.318-142.127,2.008Z" transform="translate(-2378.335 -2532.282)" opacity="0.5" fill="url(#radial-gradient-26)"/>
          <path id="Path_12390" data-name="Path 12390" d="M4413.271,2562.906l-.117-.007-96.851-5.824,53.412-7.829.2,0,134.993-1.851.108.006,97,5.352-46.313,8.088-.239,0Zm-87.625-6.208,87.769,5.277,141.717-2.058,38.374-6.7-88.727-4.895-134.572,1.845Z" transform="translate(-3041.594 -2502.259)" opacity="0.5" fill="url(#radial-gradient-27)"/>
          <path id="Path_12391" data-name="Path 12391" d="M4605.227,2619.661l-.123-.008-103.549-6.538,54.559-8.741.219,0,142.639-2.079,103.756,5.986-46.538,9.044-.265,0Zm-94.964-6.936,95.114,6.005,150.186-2.327,39.319-7.641-96.046-5.541-142.191,2.073Z" transform="translate(-3181.943 -2543.852)" opacity="0.5" fill="url(#radial-gradient-28)"/>
          <path id="Path_12392" data-name="Path 12392" d="M4810.962,2683.189l-.129-.009-111.232-7.4,55.762-9.825.24,0,151.146-2.35.119.007,111.248,6.727-46.637,10.184Zm-103.278-7.807,103.436,6.876,159.666-2.651,40.135-8.764-104.313-6.307-150.666,2.342Z" transform="translate(-3331.986 -2590.304)" opacity="0.5" fill="url(#radial-gradient-29)"/>
          <path id="Path_12393" data-name="Path 12393" d="M5698.417,2635.464l-.119-.007-111.523-6.706,46.07-9.044.267,0,142.614-2.145.11.006,110.982,6.123-37.417,9.358-.333.005Zm-103.92-7.187,104.059,6.258,150.077-2.405,31.488-7.876-104.521-5.766-142.125,2.137Z" transform="translate(-4004.123 -2555.418)" opacity="0.5" fill="url(#radial-gradient-30)"/>
          <path id="Path_12394" data-name="Path 12394" d="M5982.6,2701.023l-.125-.008-120.43-7.6,46.1-10.184.3,0,151.085-2.429.116.007,119.685,6.9-36.221,10.557Zm-113.478-8.1,113.622,7.175,159.5-2.744,31.063-9.054-113.908-6.571-150.554,2.42Z" transform="translate(-4212.673 -2603.326)" opacity="0.5" fill="url(#radial-gradient-31)"/>
          <path id="Path_12395" data-name="Path 12395" d="M6306.247,2775.8l-.133-.009-130.979-8.708,45.833-11.573.334-.006,160.635-2.773.121.007,129.948,7.857-34.437,12.021-.437.008Zm-124.679-9.23,124.829,8.3,170.181-3.162,30.07-10.5-124.849-7.549-160.055,2.763Z" transform="translate(-4449.873 -2657.83)" opacity="0.5" fill="url(#radial-gradient-32)"/>
          <path id="Path_12396" data-name="Path 12396" d="M7194.814,2719.552l-.122-.007-130.187-7.828,35.683-10.56.385-.006,150.948-2.512.113.006m-.234.924-150.336,2.5-30.63,9.065,124.514,7.487" transform="translate(-5123.675 -2616.845)" opacity="0.5" fill="url(#radial-gradient-33)"/>
          <path id="Path_12397" data-name="Path 12397" d="M7485.778,2797.741l33.7-12.04m1,.91-29.451,10.522" transform="translate(-5442.837 -2682.806)" opacity="0.5" fill="url(#radial-gradient-34)"/>
          <path id="Path_12398" data-name="Path 12398" d="M3840.255,2735.244l-110.355-8.2,67.034-10.721.216,0,160.63-2.584.129.008,110.948,7.415-57.4,11.133-.261,0Zm-102.032-8.521,102.211,7.59,170.388-2.934,50.441-9.782-103.643-6.927-160.151,2.576Z" transform="translate(-2597.326 -2628.287)" opacity="0.5" fill="url(#radial-gradient-35)"/>
          <path id="Path_12399" data-name="Path 12399" d="M4015.314,2815.052l-.15-.012-119.252-9.411,69.644-12.249.236,0,171.513-2.963.136.01,119.986,8.469-58.512,12.747-.29.006Zm-111.683-9.761,111.872,8.829,182.714-3.4,52.241-11.381-113.323-8-171,2.954Z" transform="translate(-2723.099 -2686.375)" opacity="0.5" fill="url(#radial-gradient-36)"/>
          <path id="Path_12400" data-name="Path 12400" d="M5053.2,2754.985l-120.41-8.445,56.832-11.134.265,0,160.65-2.675.124.008,120.16,7.626-46.354,11.563-.329.006Zm-112.952-8.864,113.116,7.933,170.331-3.044,40.585-10.124-113.892-7.229-160.133,2.667Z" transform="translate(-3508.655 -2642.671)" opacity="0.5" fill="url(#radial-gradient-37)"/>
          <path id="Path_12401" data-name="Path 12401" d="M5337.954,2838.52l-.145-.011-131.211-9.744L5264.355,2816l.294,0,171.583-3.08.132.009,130.891,8.748-45.566,13.29-.375.007Zm-124.531-10.192,124.7,9.261,182.689-3.539,40.563-11.83-125.3-8.374-171.021,3.069Z" transform="translate(-3716.095 -2703.423)" opacity="0.5" fill="url(#radial-gradient-38)"/>
          <path id="Path_12402" data-name="Path 12402" d="M5654.806,2934.574l-.155-.012-144.227-11.383,58.534-14.789.33-.007,184.023-3.578.14.01,143.6,10.136-44.191,15.439-.431.01Zm-138.176-11.852,138.356,10.919,196.878-4.159,39.953-13.958-138.666-9.788-183.409,3.566Z" transform="translate(-3946.279 -2773.041)" opacity="0.5" fill="url(#radial-gradient-39)"/>
          <path id="Path_12403" data-name="Path 12403" d="M6701.164,2862.158l-.14-.01-143.835-10.087,44.893-13.295.381-.007,171.458-3.2.127.008m-.269.923-170.817,3.187-40,11.846,138.358,9.7" transform="translate(-4739.323 -2720.579)" opacity="0.5" fill="url(#radial-gradient-40)"/>
          <path id="Path_12404" data-name="Path 12404" d="M7135.432,2974.162l-.149-.011-159.3-11.838,43.471-15.455.439-.009m.567.917-39.334,13.984L7135.6,2973.23" transform="translate(-5056.61 -2804.895)" opacity="0.5" fill="url(#radial-gradient-41)"/>
          <path id="Path_12405" data-name="Path 12405" d="M7476.029,3079.919l40.9-18.208m1.168.9-37.55,16.715" transform="translate(-5435.451 -2891.916)" opacity="0.5" fill="url(#radial-gradient-42)"/>
          <path id="Path_12406" data-name="Path 12406" d="M4474.937,3015.875l-.172-.015-143.391-12.936,75.209-16.572.29-.005,198.446-4.028.153.012,143.957,11.441-59.726,17.349-.369.008Zm-137.051-13.316,137.263,12.383,213.676-4.73,54.9-15.947-138.589-11.015-197.842,4.016Z" transform="translate(-3053.012 -2831.765)" opacity="0.5" fill="url(#radial-gradient-43)"/>
          <path id="Path_12407" data-name="Path 12407" d="M4761.538,3143.678l-.186-.018-159.622-15.512,78.179-19.684.324-.007,215.3-4.787,160.114,13.584-59.495,20.686-.424.01Zm-153.886-15.911,154.113,14.977,233.389-5.708,55.406-19.263L4895.341,3104.6l-214.642,4.772Z" transform="translate(-3257.838 -2923.704)" opacity="0.5" fill="url(#radial-gradient-44)"/>
          <path id="Path_12408" data-name="Path 12408" d="M6030.715,3047.048l-.165-.014-160.2-13.487,58.854-17.358,198.742-4.215.149.011,159.089,11.894-41.723,18.181-.5.011Zm-154.771-13.979,154.961,13.046,213.4-4.956,38.275-16.679-154.8-11.574-197.688,4.193Z" transform="translate(-4218.966 -2854.233)" opacity="0.5" fill="url(#radial-gradient-45)"/>
          <path id="Path_12409" data-name="Path 12409" d="M6497.379,3182.179l-.178-.016-180.518-16.284,58.266-20.732,215.689-5.038.159.013m-.334.92-214.5,5.01-54.306,19.323,175.922,15.87" transform="translate(-4557.113 -2951.31)" opacity="0.5" fill="url(#radial-gradient-46)"/>
          <path id="Path_12410" data-name="Path 12410" d="M7045.892,3363.39l-.192-.019-206.236-20.042L6896,3318.136l.507-.013m.67.912-53.329,23.765,202.256,19.656" transform="translate(-4953.18 -3086.177)" opacity="0.5" fill="url(#radial-gradient-47)"/>
          <path id="Path_12411" data-name="Path 12411" d="M704.993,2423.739l-.121-.008-66.344-4.4,71.629-5.7,121.329-1.346,68.016,4.1-67.377,5.869Zm-53.526-4.488,53.7,3.559,126.769-1.473,54.76-4.777-55.364-3.338-121,1.342Z" transform="translate(-255.255 -2399.905)" opacity="0.5" fill="url(#radial-gradient-48)"/>
          <path id="Path_12412" data-name="Path 12412" d="M664.307,2464.128l-.127-.009-68.979-4.826,74.907-6.238,127.448-1.484.117.008,70.72,4.478-70.095,6.432-.124,0Zm-56.772-4.915,56.954,3.984,133.484-1.633,58.213-5.342-58.793-3.723-127.1,1.481Z" transform="translate(-222.43 -2429.663)" opacity="0.5" fill="url(#radial-gradient-49)"/>
          <path id="Path_12413" data-name="Path 12413" d="M1522.5,2433.882l-.117-.008-70.991-4.47,67.007-5.863,121.482-1.38.108.006,72.239,4.157-62.3,6.039-.132,0Zm-58.553-4.627,58.713,3.7,126.931-1.512,50.377-4.884-60.233-3.466-121.145,1.376Z" transform="translate(-871.093 -2407.382)" opacity="0.5" fill="url(#radial-gradient-50)"/>
          <path id="Path_12414" data-name="Path 12414" d="M1532.257,2475.7l-.122-.008-74.216-4.918,69.668-6.432h.125l127.657-1.525.113.007,75.6,4.558-64.589,6.634-.14,0Zm-62.393-5.076,62.562,4.146,133.708-1.68,53.3-5.475-64.22-3.873-127.3,1.521Z" transform="translate(-876.038 -2438.18)" opacity="0.5" fill="url(#radial-gradient-51)"/>
          <path id="Path_12415" data-name="Path 12415" d="M1534.66,2521.687l-.129-.009-77.775-5.441,72.813-7.093.132,0,134.448-1.693.118.007,79.319,5.023-67.169,7.325-.148,0Zm-66.557-5.6,66.735,4.668,141.2-1.875,56.506-6.162-68.554-4.341-134.077,1.688Z" transform="translate(-875.158 -2471.997)" opacity="0.5" fill="url(#radial-gradient-52)"/>
          <path id="Path_12416" data-name="Path 12416" d="M2417,2487.219l-79.719-5.019,64.2-6.63.141,0L2529.41,2474l.109.007,80.606,4.638-58.728,6.838-.159,0Zm-68.291-5.239,68.448,4.31,133.84-1.727,48.17-5.609-69.9-4.022-127.427,1.563Z" transform="translate(-1542.257 -2446.656)" opacity="0.5" fill="url(#radial-gradient-53)"/>
          <path id="Path_12417" data-name="Path 12417" d="M-771.637,2431.857l126.978-1.409,61.73,4.343-80.008,6.06-133.345,1.55-.139-.01m.349-.919,132.961-1.546,67.268-5.1-49-3.448-126.628,1.406" transform="translate(831.884 -2413.66)" opacity="0.5" fill="url(#radial-gradient-54)"/>
          <path id="Path_12418" data-name="Path 12418" d="M-894.877,2473.167l133.69-1.558.133.01,63.737,4.75-84.212,6.665-140.767,1.722-.147-.012m.372-.918,140.36-1.718,72.093-5.711-51.767-3.858-133.323,1.554" transform="translate(927.361 -2444.844)" opacity="0.5" fill="url(#radial-gradient-55)"/>
          <path id="Path_12419" data-name="Path 12419" d="M-166.973,2453.029l-.133-.01-64.019-4.739,79.6-6.052,127.209-1.446.121.008,66.087,4.4-75.259,6.242Zm-51.567-4.761,51.762,3.831,133.22-1.588,62.821-5.217-53.757-3.582-126.862,1.442Z" transform="translate(403.607 -2421.489)" opacity="0.5" fill="url(#radial-gradient-56)"/>
          <path id="Path_12420" data-name="Path 12420" d="M-249.249,2496.91l-66.591-5.236,83.752-6.663,134-1.6.127.009,68.774,4.839-78.949,6.88Zm-54.628-5.242,54.835,4.312,140.7-1.768,67.131-5.857-57.07-4.015-133.631,1.6Z" transform="translate(467.789 -2453.784)" opacity="0.5" fill="url(#radial-gradient-57)"/>
          <path id="Path_12421" data-name="Path 12421" d="M632.6,2509.018l-72.135-5.339,78.517-6.873,134.22-1.646.123.008,73.947,4.927-73.183,7.1-.13,0Zm-60.411-5.416,60.6,4.486,140.953-1.82,61.928-6.005-62.642-4.174-133.854,1.642Z" transform="translate(-196.113 -2462.686)" opacity="0.5" fill="url(#radial-gradient-58)"/>
          <path id="Path_12422" data-name="Path 12422" d="M522.08,2614.731l-.151-.013-78.994-6.631,87.371-8.5.13,0,150.209-2.059.136.01,81.492,6.077-80.84,8.8-.146,0Zm-68.629-6.71L522.3,2613.8l158.751-2.3,70.822-7.712-71.417-5.326-149.8,2.054Z" transform="translate(-107.071 -2540.242)" opacity="0.5" fill="url(#radial-gradient-59)"/>
          <path id="Path_12423" data-name="Path 12423" d="M1539,2572.879l-.136-.01-81.8-6.059,76.333-7.871.139,0,141.989-1.89.124.008,83.531,5.57-70.023,8.14-.157,0Zm-71.187-6.217,71.375,5.286,149.565-2.106,59.986-6.973-73.381-4.893-141.6,1.885Z" transform="translate(-875.394 -2509.573)" opacity="0.5" fill="url(#radial-gradient-60)"/>
          <path id="Path_12424" data-name="Path 12424" d="M1551.31,2630.89l-.145-.011-86.47-6.8,80.3-8.807.147,0,150.5-2.126.131.009,88.418,6.224-73.18,9.123-.168,0Zm-76.47-6.964,76.669,6.033,159.066-2.385,63.779-7.951-78.894-5.554-150.084,2.12Z" transform="translate(-881.173 -2552.07)" opacity="0.5" fill="url(#radial-gradient-61)"/>
          <path id="Path_12425" data-name="Path 12425" d="M1555.122,2695.911l-.154-.013-91.721-7.7,84.852-9.923,160.184-2.409,94.069,7.015-76.773,10.3Zm-82.324-7.859,82.537,6.928,169.782-2.72,68-9.121-85.022-6.34-159.589,2.4Z" transform="translate(-880.075 -2599.594)" opacity="0.5" fill="url(#radial-gradient-62)"/>
          <path id="Path_12426" data-name="Path 12426" d="M2605.992,2647.056l-.138-.01-94.244-6.98,72.677-9.119.17,0,150.67-2.194.126.008,95.6,6.374-64.945,9.448-.2,0Zm-84.76-7.222,84.944,6.292,159.237-2.465,56.326-8.194-86.776-5.786-150.244,2.188Z" transform="translate(-1674.331 -2563.897)" opacity="0.5" fill="url(#radial-gradient-63)"/>
          <path id="Path_12427" data-name="Path 12427" d="M-661.9,2625.4l.159.014,71.656,6.492-100.739,9.225m-.212-.925,90.494-8.3-61.6-5.58" transform="translate(752.042 -2561.363)" opacity="0.5" fill="url(#radial-gradient-64)"/>
          <path id="Path_12428" data-name="Path 12428" d="M-576.252,2660.718l-.17-.016-75.331-7.288,100.034-9.226.121,0,159.378-2.252.152.013,78.77,6.656-93.276,9.57-.135,0Zm-65.394-7.282,65.649,6.351,169.057-2.536,83.438-8.56-68.937-5.826-158.947,2.246Z" transform="translate(722.282 -2573.885)" opacity="0.5" fill="url(#radial-gradient-65)"/>
          <path id="Path_12429" data-name="Path 12429" d="M474.348,2677.869l-.161-.015-83.313-7.485,92.72-9.563,159.842-2.329.144.011,86.163,6.824-85.326,9.922-.155,0Zm-73.564-7.562,73.8,6.63,169.429-2.625,75.934-8.83-76.71-6.075-159.273,2.321Z" transform="translate(-67.629 -2586.418)" opacity="0.5" fill="url(#radial-gradient-66)"/>
          <path id="Path_12430" data-name="Path 12430" d="M321.425,2831.18l-.185-.019-93.609-9.811,106.389-12.426.154,0,182.793-3.043,97.607,8.843-96.681,12.95-.177,0Zm-85.082-9.878,85.352,8.945,195.731-3.5,88.53-11.858-89.221-8.083-182.3,3.035Z" transform="translate(56.047 -2698.092)" opacity="0.5" fill="url(#radial-gradient-67)"/>
          <path id="Path_12431" data-name="Path 12431" d="M1568.326,2769.511l-.164-.015-97.812-8.788,89.962-11.273.167,0,170.76-2.744.147.012,100.326,7.945L1751,2766.37l-.194,0Zm-89.015-8.95,89.242,8.018,181.951-3.129,72.573-10.542-92.034-7.289-170.293,2.736Z" transform="translate(-885.457 -2653.249)" opacity="0.5" fill="url(#radial-gradient-68)"/>
          <path id="Path_12432" data-name="Path 12432" d="M1585.388,2855.3l-.175-.017-105.037-10.161,95.93-12.963.18,0,183.217-3.164,108.08,9.133-85.2,13.515-.211,0Zm-96.848-10.325,97.092,9.393,196.206-3.646,77.71-12.327-100.256-8.472-182.718,3.155Z" transform="translate(-892.9 -2715.602)" opacity="0.5" fill="url(#radial-gradient-69)"/>
          <path id="Path_12433" data-name="Path 12433" d="M1592.615,2954.146l-.189-.02-113.4-11.885,102.958-15.067.194,0,197.538-3.684.167.015,116.753,10.577-90.4,15.754-.229,0ZM1486.8,2942.1l106.076,11.117,212.771-4.3,83.538-14.559-109.7-9.938-197,3.674Z" transform="translate(-892.026 -2787.194)" opacity="0.5" fill="url(#radial-gradient-70)"/>
          <path id="Path_12434" data-name="Path 12434" d="M2890.631,2879.6l-117.283-10.538,84.5-13.515.214,0,183.449-3.288.15.012,118.949,9.421-72.691,14.1-.258,0Zm-109.448-10.786,109.669,9.854,196.431-3.8,66.056-12.81-112.019-8.872-182.929,3.279Z" transform="translate(-1872.628 -2733.231)" opacity="0.5" fill="url(#radial-gradient-71)"/>
          <path id="Path_12435" data-name="Path 12435" d="M-701.476,2886.6m-8.619-.026" transform="translate(766.482 -2759.23)" opacity="0.5" fill="url(#radial-gradient-72)"/>
          <path id="Path_12436" data-name="Path 12436" d="M-741.663,2875.437l.142,0,196.536-3.4.185.02,93.346,9.865-115.719,14.411-.162,0-212.222,3.947-.213-.027m.543-.908,211.612-3.935L-459.867,2882l-85.393-9.024-196.009,3.387" transform="translate(819.269 -2748.216)" opacity="0.5" fill="url(#radial-gradient-73)"/>
          <path id="Path_12437" data-name="Path 12437" d="M-800.066,2977.69l.151,0,213.1-3.977.2.023,99.676,11.5L-613.2,3002.151l-.173,0m-.3-.922,118.914-15.933-92.354-10.656-212.531,3.967" transform="translate(834.646 -2825.244)" opacity="0.5" fill="url(#radial-gradient-74)"/>
          <path id="Path_12438" data-name="Path 12438" d="M-8.873,3170.091l-116.586-16.28,138.2-20.182.189,0,233.549-4.952.2.023,122.925,14.2L247.4,3164.142l-.224.005Zm-109.657-16.3,110.014,15.362,255.318-5.927,115.942-20.157-116.555-13.462-232.934,4.939Z" transform="translate(323.553 -2942.646)" opacity="0.5" fill="url(#radial-gradient-75)"/>
          <path id="Path_12439" data-name="Path 12439" d="M1603.757,3070.17l-.2-.023-123.411-14.105,111.216-17.748.209,0,214.255-4.343.179.017,127.332,12.427-96.291,18.623-.252.006ZM1487.343,3055.9l116.7,13.338L1836.4,3064.1l90.077-17.421-120.894-11.8-213.676,4.331Z" transform="translate(-892.875 -2870.88)" opacity="0.5" fill="url(#radial-gradient-76)"/>
          <path id="Path_12440" data-name="Path 12440" d="M1629.164,3209.965l-.222-.028-135.808-17.069,121.045-21.288,234.465-5.21.193.021,140.443,14.856-102.974,22.433-.28.007Zm-129.41-17.24,129.722,16.3,256.116-6.26,97.419-21.222-134.628-14.242-233.607,5.191Z" transform="translate(-902.718 -2971.207)" opacity="0.5" fill="url(#radial-gradient-77)"/>
          <path id="Path_12441" data-name="Path 12441" d="M1643.322,3378.285l-.243-.034-150.884-21.07,133.1-26,258.412-6.346.209.024,156.453,18.071-110.813,27.538Zm-145.073-21.245,145.417,20.306,285.09-7.783,105.911-26.32-151.246-17.469-257.474,6.324Z" transform="translate(-902.006 -3091.264)" opacity="0.5" fill="url(#radial-gradient-78)"/>
          <path id="Path_12442" data-name="Path 12442" d="M3341.8,3250.615l-.209-.024L3184.7,3232.659l101.856-22.443.284-.007,234.551-5.469.184.018,159.289,15.546-81.495,23.672-.363.009Zm-151.015-18.228,151.289,17.291,256.4-6.609,76.918-22.342-154.24-15.053-233.888,5.454Z" transform="translate(-2184.275 -3000.276)" opacity="0.5" fill="url(#radial-gradient-79)"/>
          <path id="Path_12443" data-name="Path 12443" d="M-524.991,3412l.261.042,126.4,20.107-175.2,30.473-.217.006m-.39-.919,169.738-29.522-121-19.247" transform="translate(663.479 -3157.3)" opacity="0.5" fill="url(#radial-gradient-80)"/>
          <path id="Path_12444" data-name="Path 12444" d="M-146.9,3330.268l-.26-.041-127.169-19.939,153.7-24.538.2,0,257.341-6.006.222.028,135.3,17.182-134.167,25.96Zm-121.088-19.987,121.487,19.048L137.62,3322l128.531-24.87L136.6,3280.677l-256.669,5.99Z" transform="translate(436.337 -3057.097)" opacity="0.5" fill="url(#radial-gradient-81)"/>
          <path id="Path_12445" data-name="Path 12445" d="M-858.406,2479.448m-12.455-.039" transform="translate(888.281 -2450.754)" opacity="0.5" fill="url(#radial-gradient-82)"/>
          <path id="Path_12446" data-name="Path 12446" d="M-942.731,2526.27" transform="translate(942.731 -2486.256)" fill="#fff" opacity="0.5"/>
          <path id="Path_12447" data-name="Path 12447" d="M-924.148,2519.11l141.155-1.732.141.011,66.161,5.237L-805.609,2530m-.191-.926,77.424-6.43-54.826-4.339-140.767,1.728" transform="translate(928.652 -2479.52)" opacity="0.5" fill="url(#radial-gradient-83)"/>
          <path id="Path_12448" data-name="Path 12448" d="M-795.5,2689.989l.17.017,74.974,7.312-107.858,10.445-.126,0m-.224-.924,98.366-9.525-65.56-6.394" transform="translate(856.234 -2610.292)" opacity="0.5" fill="url(#radial-gradient-84)"/>
          <path id="Path_12449" data-name="Path 12449" d="M-866.323,2990.813m-8.006-.039" transform="translate(890.908 -2838.172)" opacity="0.5" fill="url(#radial-gradient-85)"/>
        </g>
      </g>
    </g>
  </g>
</svg>
