<svg xmlns="http://www.w3.org/2000/svg" width="197.456" height="48.147" viewBox="0 0 197.456 48.147">
  <g id="logo" transform="translate(0.004 0)">
    <path id="Path_7598" data-name="Path 7598" d="M76.287,48.3a7.538,7.538,0,0,0,1.281.7,15.8,15.8,0,0,0,2.117.77,24.446,24.446,0,0,0,2.8.627,19.792,19.792,0,0,0,3.3.265,9.391,9.391,0,0,0,2.99-.362,1.306,1.306,0,0,0,1.013-1.278,1.322,1.322,0,0,0-.844-1.326,10.835,10.835,0,0,0-2.628-.6l-2.507-.289a28.2,28.2,0,0,1-3.617-.7,10.019,10.019,0,0,1-3.062-1.353,6.514,6.514,0,0,1-2.1-2.293,7.219,7.219,0,0,1-.77-3.515,8.3,8.3,0,0,1,.651-3.3,6.9,6.9,0,0,1,2.049-2.652,10.312,10.312,0,0,1,3.568-1.784,18.072,18.072,0,0,1,5.16-.651,30.64,30.64,0,0,1,5.234.386,13.256,13.256,0,0,1,3.785,1.205,4.542,4.542,0,0,1,1.47,1.181,2.669,2.669,0,0,1,.555,1.712,2.932,2.932,0,0,1-.313,1.374,4.557,4.557,0,0,1-.723,1.037,4.609,4.609,0,0,1-.772.675q-.362.241-.458.289a5.209,5.209,0,0,0-.8-.529,9.176,9.176,0,0,0-1.736-.747,20.43,20.43,0,0,0-2.6-.651,18.568,18.568,0,0,0-3.448-.289,6.332,6.332,0,0,0-3.014.506,1.509,1.509,0,0,0-.844,1.326,1.176,1.176,0,0,0,.771,1.157,9.942,9.942,0,0,0,2.315.579l4.388.627a22.054,22.054,0,0,1,3.158.7,8.814,8.814,0,0,1,2.7,1.326,6.3,6.3,0,0,1,1.882,2.218,7.063,7.063,0,0,1,.7,3.279,7.392,7.392,0,0,1-3.086,6.317Q91.767,56.5,86.319,56.5a28.915,28.915,0,0,1-8.827-1.279,14.136,14.136,0,0,1-2.58-1.058,13.988,13.988,0,0,1-1.374-.844Zm47.883,5.4q-.529.338-1.4.82a13.859,13.859,0,0,1-2.1.916,20.336,20.336,0,0,1-2.823.747,18.26,18.26,0,0,1-3.52.313,15.7,15.7,0,0,1-5.039-.82,12.31,12.31,0,0,1-4.268-2.435,11.876,11.876,0,0,1-2.94-4.05,13.544,13.544,0,0,1-1.109-5.666,13.429,13.429,0,0,1,1.085-5.521A11.7,11.7,0,0,1,105,33.931a12.913,12.913,0,0,1,4.34-2.507,15.892,15.892,0,0,1,5.28-.868,17.146,17.146,0,0,1,4.8.651,7.721,7.721,0,0,1,3.352,1.76,4.631,4.631,0,0,1,.844,1.133,3.04,3.04,0,0,1,.313,1.422,3.757,3.757,0,0,1-.289,1.495,5,5,0,0,1-.723,1.205,8.382,8.382,0,0,1-.892.941,4.9,4.9,0,0,1-.8.6,8.846,8.846,0,0,0-2.411-1.615,8.328,8.328,0,0,0-3.665-.747,7.353,7.353,0,0,0-2.387.386,5.531,5.531,0,0,0-1.977,1.157,5.629,5.629,0,0,0-1.352,1.929,6.553,6.553,0,0,0-.506,2.652,6.646,6.646,0,0,0,.506,2.724,5.184,5.184,0,0,0,1.352,1.856,5.316,5.316,0,0,0,2,1.058,8.74,8.74,0,0,0,2.459.338,9.131,9.131,0,0,0,2.049-.217,11.4,11.4,0,0,0,1.664-.506,11.053,11.053,0,0,0,1.205-.555,3.144,3.144,0,0,0,.627-.412ZM127.4,23.711a3,3,0,0,1,1.109-2.652,5.055,5.055,0,0,1,2.94-.772,8.082,8.082,0,0,1,2.339.313q1.036.313,1.326.412V32.677a9.066,9.066,0,0,1,2.507-1.495,10.59,10.59,0,0,1,4.1-.675,12.747,12.747,0,0,1,4,.6,8.588,8.588,0,0,1,3.207,1.882,8.687,8.687,0,0,1,2.146,3.231,12.509,12.509,0,0,1,.771,4.605v15h-7.762V42.415A4.962,4.962,0,0,0,143,38.847a5.169,5.169,0,0,0-6.63.193,5.809,5.809,0,0,0-1.206,4.05V55.823H127.4Zm29.27,19.817a12.444,12.444,0,0,1,1.058-5.16,12.639,12.639,0,0,1,2.917-4.1,13.773,13.773,0,0,1,4.316-2.724,14.66,14.66,0,0,1,10.584,0,13.708,13.708,0,0,1,4.34,2.724,12.64,12.64,0,0,1,2.917,4.1,13.1,13.1,0,0,1,0,10.319,12.64,12.64,0,0,1-2.917,4.1,13.708,13.708,0,0,1-4.34,2.724,14.66,14.66,0,0,1-10.584,0,13.772,13.772,0,0,1-4.316-2.724,12.639,12.639,0,0,1-2.917-4.1,12.45,12.45,0,0,1-1.058-5.161Zm13.6,6.026a5.486,5.486,0,0,0,2.242-.458,5.7,5.7,0,0,0,1.808-1.254,5.374,5.374,0,0,0,1.181-1.9,7.267,7.267,0,0,0,0-4.822,5.374,5.374,0,0,0-1.181-1.9,5.7,5.7,0,0,0-1.808-1.254,5.776,5.776,0,0,0-4.509,0,5.784,5.784,0,0,0-1.784,1.254,5.373,5.373,0,0,0-1.181,1.9,7.267,7.267,0,0,0,0,4.822,5.373,5.373,0,0,0,1.181,1.9A5.783,5.783,0,0,0,168,49.1,5.433,5.433,0,0,0,170.268,49.554Zm17.456-6.028a12.444,12.444,0,0,1,1.059-5.16,12.638,12.638,0,0,1,2.917-4.1,13.772,13.772,0,0,1,4.316-2.724,14.66,14.66,0,0,1,10.584,0,13.708,13.708,0,0,1,4.34,2.724,12.64,12.64,0,0,1,2.917,4.1,13.1,13.1,0,0,1,0,10.319,12.64,12.64,0,0,1-2.917,4.1,13.708,13.708,0,0,1-4.34,2.724,14.661,14.661,0,0,1-10.584,0,13.772,13.772,0,0,1-4.316-2.724,12.638,12.638,0,0,1-2.917-4.1A12.444,12.444,0,0,1,187.723,43.527Zm13.6,6.028a5.487,5.487,0,0,0,2.242-.458,5.694,5.694,0,0,0,1.808-1.254,5.373,5.373,0,0,0,1.181-1.9,7.266,7.266,0,0,0,0-4.822,5.373,5.373,0,0,0-1.181-1.9,5.694,5.694,0,0,0-1.808-1.254,5.776,5.776,0,0,0-4.509,0,5.783,5.783,0,0,0-1.784,1.254,5.374,5.374,0,0,0-1.181,1.9,7.266,7.266,0,0,0,0,4.822,5.374,5.374,0,0,0,1.181,1.9,5.783,5.783,0,0,0,1.784,1.254A5.433,5.433,0,0,0,201.321,49.554Zm18.661-25.846a3,3,0,0,1,1.109-2.652,5.055,5.055,0,0,1,2.94-.772,8.334,8.334,0,0,1,2.363.313q1.058.313,1.353.412V55.823h-7.762Z" transform="translate(-30.296 -8.354)" fill="#10298a"/>
    <path id="Path_7599" data-name="Path 7599" d="M0,47.253A9.441,9.441,0,0,1,.842,43.13a8.577,8.577,0,0,1,2.315-2.966,9.915,9.915,0,0,1,3.47-1.808,15.069,15.069,0,0,1,4.364-.6,13.078,13.078,0,0,1,5.16.964,9.256,9.256,0,0,1,3.665,2.7,9.326,9.326,0,0,1,3.617-2.7,12.714,12.714,0,0,1,5.111-.964,14.887,14.887,0,0,1,4.316.6,9.915,9.915,0,0,1,3.469,1.808,8.577,8.577,0,0,1,2.315,2.966,9.441,9.441,0,0,1,.844,4.123V63.021H31.724V49.471a5.007,5.007,0,0,0-1.013-3.52,3.745,3.745,0,0,0-2.845-1.058,4.019,4.019,0,0,0-3.058,1.251,5.7,5.7,0,0,0-1.181,4V63.021H15.864V50.146a5.779,5.779,0,0,0-1.157-4,3.94,3.94,0,0,0-3.038-1.254A3.827,3.827,0,0,0,8.8,45.948a4.922,4.922,0,0,0-1.037,3.52V63.021H0Z" transform="translate(0 -15.552)" fill="#ff7f00"/>
    <g id="wi-fi" transform="translate(4.862 0)">
      <g id="Group_3930" data-name="Group 3930">
        <circle id="Ellipse_313" data-name="Ellipse 313" cx="3.425" cy="3.425" r="3.425" transform="translate(11.289 15.212)" fill="#fe7b37"/>
        <path id="Path_7571" data-name="Path 7571" d="M34.853,15.364c-.051-.052-.1-.1-.156-.147l-.154-.145A.77.77,0,0,0,34.457,15a11.173,11.173,0,0,0-15.432.363l-.5.5-.686.686a2.15,2.15,0,0,0,3.04,3.041L22.066,18.4a6.9,6.9,0,0,1,9.746,0l.854.827A2.133,2.133,0,0,0,36.3,17.718a2.1,2.1,0,0,0-.62-1.5Z" transform="translate(-11.955 -4.978)" fill="#fe7b37"/>
        <path id="Path_7572" data-name="Path 7572" d="M37,6.151l-.712-.712a.019.019,0,0,0-.01-.008l-.562-.565a2.024,2.024,0,0,0-.319-.256,18.641,18.641,0,0,0-25.184.582c-.034.031-.072.052-.106.086L8.827,6.564A1.961,1.961,0,0,0,11.6,9.336l1.285-1.283a.185.185,0,0,1,.024-.028,14.719,14.719,0,0,1,20.311-.112l1.011,1.012a1.961,1.961,0,0,0,2.773-2.774Z" transform="translate(-8.271 0)" fill="#fe7b37"/>
      </g>
    </g>
  </g>
</svg>
